G04 #@! TF.GenerationSoftware,KiCad,Pcbnew,(5.1.2)-2*
G04 #@! TF.CreationDate,2019-10-04T19:12:57-04:00*
G04 #@! TF.ProjectId,High_Current_Buck,48696768-5f43-4757-9272-656e745f4275,rev?*
G04 #@! TF.SameCoordinates,Original*
G04 #@! TF.FileFunction,Copper,L2,Bot*
G04 #@! TF.FilePolarity,Positive*
%FSLAX46Y46*%
G04 Gerber Fmt 4.6, Leading zero omitted, Abs format (unit mm)*
G04 Created by KiCad (PCBNEW (5.1.2)-2) date 2019-10-04 19:12:57*
%MOMM*%
%LPD*%
G04 APERTURE LIST*
%ADD10C,0.100000*%
%ADD11C,0.875000*%
%ADD12C,1.350000*%
%ADD13C,0.975000*%
%ADD14C,0.600000*%
%ADD15R,5.000000X3.400000*%
%ADD16R,0.450000X1.050000*%
%ADD17R,5.800000X6.400000*%
%ADD18R,1.200000X2.200000*%
%ADD19C,7.400000*%
%ADD20R,2.500000X1.800000*%
%ADD21R,0.600000X0.450000*%
%ADD22C,2.400000*%
%ADD23R,2.400000X2.400000*%
%ADD24C,1.250000*%
%ADD25C,0.800000*%
%ADD26C,1.000000*%
%ADD27C,0.250000*%
%ADD28C,0.300000*%
%ADD29C,0.500000*%
%ADD30C,0.450000*%
%ADD31C,1.000000*%
%ADD32C,0.254000*%
G04 APERTURE END LIST*
D10*
G36*
X74765191Y-64826053D02*
G01*
X74786426Y-64829203D01*
X74807250Y-64834419D01*
X74827462Y-64841651D01*
X74846868Y-64850830D01*
X74865281Y-64861866D01*
X74882524Y-64874654D01*
X74898430Y-64889070D01*
X74912846Y-64904976D01*
X74925634Y-64922219D01*
X74936670Y-64940632D01*
X74945849Y-64960038D01*
X74953081Y-64980250D01*
X74958297Y-65001074D01*
X74961447Y-65022309D01*
X74962500Y-65043750D01*
X74962500Y-65556250D01*
X74961447Y-65577691D01*
X74958297Y-65598926D01*
X74953081Y-65619750D01*
X74945849Y-65639962D01*
X74936670Y-65659368D01*
X74925634Y-65677781D01*
X74912846Y-65695024D01*
X74898430Y-65710930D01*
X74882524Y-65725346D01*
X74865281Y-65738134D01*
X74846868Y-65749170D01*
X74827462Y-65758349D01*
X74807250Y-65765581D01*
X74786426Y-65770797D01*
X74765191Y-65773947D01*
X74743750Y-65775000D01*
X74306250Y-65775000D01*
X74284809Y-65773947D01*
X74263574Y-65770797D01*
X74242750Y-65765581D01*
X74222538Y-65758349D01*
X74203132Y-65749170D01*
X74184719Y-65738134D01*
X74167476Y-65725346D01*
X74151570Y-65710930D01*
X74137154Y-65695024D01*
X74124366Y-65677781D01*
X74113330Y-65659368D01*
X74104151Y-65639962D01*
X74096919Y-65619750D01*
X74091703Y-65598926D01*
X74088553Y-65577691D01*
X74087500Y-65556250D01*
X74087500Y-65043750D01*
X74088553Y-65022309D01*
X74091703Y-65001074D01*
X74096919Y-64980250D01*
X74104151Y-64960038D01*
X74113330Y-64940632D01*
X74124366Y-64922219D01*
X74137154Y-64904976D01*
X74151570Y-64889070D01*
X74167476Y-64874654D01*
X74184719Y-64861866D01*
X74203132Y-64850830D01*
X74222538Y-64841651D01*
X74242750Y-64834419D01*
X74263574Y-64829203D01*
X74284809Y-64826053D01*
X74306250Y-64825000D01*
X74743750Y-64825000D01*
X74765191Y-64826053D01*
X74765191Y-64826053D01*
G37*
D11*
X74525000Y-65300000D03*
D10*
G36*
X73190191Y-64826053D02*
G01*
X73211426Y-64829203D01*
X73232250Y-64834419D01*
X73252462Y-64841651D01*
X73271868Y-64850830D01*
X73290281Y-64861866D01*
X73307524Y-64874654D01*
X73323430Y-64889070D01*
X73337846Y-64904976D01*
X73350634Y-64922219D01*
X73361670Y-64940632D01*
X73370849Y-64960038D01*
X73378081Y-64980250D01*
X73383297Y-65001074D01*
X73386447Y-65022309D01*
X73387500Y-65043750D01*
X73387500Y-65556250D01*
X73386447Y-65577691D01*
X73383297Y-65598926D01*
X73378081Y-65619750D01*
X73370849Y-65639962D01*
X73361670Y-65659368D01*
X73350634Y-65677781D01*
X73337846Y-65695024D01*
X73323430Y-65710930D01*
X73307524Y-65725346D01*
X73290281Y-65738134D01*
X73271868Y-65749170D01*
X73252462Y-65758349D01*
X73232250Y-65765581D01*
X73211426Y-65770797D01*
X73190191Y-65773947D01*
X73168750Y-65775000D01*
X72731250Y-65775000D01*
X72709809Y-65773947D01*
X72688574Y-65770797D01*
X72667750Y-65765581D01*
X72647538Y-65758349D01*
X72628132Y-65749170D01*
X72609719Y-65738134D01*
X72592476Y-65725346D01*
X72576570Y-65710930D01*
X72562154Y-65695024D01*
X72549366Y-65677781D01*
X72538330Y-65659368D01*
X72529151Y-65639962D01*
X72521919Y-65619750D01*
X72516703Y-65598926D01*
X72513553Y-65577691D01*
X72512500Y-65556250D01*
X72512500Y-65043750D01*
X72513553Y-65022309D01*
X72516703Y-65001074D01*
X72521919Y-64980250D01*
X72529151Y-64960038D01*
X72538330Y-64940632D01*
X72549366Y-64922219D01*
X72562154Y-64904976D01*
X72576570Y-64889070D01*
X72592476Y-64874654D01*
X72609719Y-64861866D01*
X72628132Y-64850830D01*
X72647538Y-64841651D01*
X72667750Y-64834419D01*
X72688574Y-64829203D01*
X72709809Y-64826053D01*
X72731250Y-64825000D01*
X73168750Y-64825000D01*
X73190191Y-64826053D01*
X73190191Y-64826053D01*
G37*
D11*
X72950000Y-65300000D03*
D10*
G36*
X72477691Y-60863553D02*
G01*
X72498926Y-60866703D01*
X72519750Y-60871919D01*
X72539962Y-60879151D01*
X72559368Y-60888330D01*
X72577781Y-60899366D01*
X72595024Y-60912154D01*
X72610930Y-60926570D01*
X72625346Y-60942476D01*
X72638134Y-60959719D01*
X72649170Y-60978132D01*
X72658349Y-60997538D01*
X72665581Y-61017750D01*
X72670797Y-61038574D01*
X72673947Y-61059809D01*
X72675000Y-61081250D01*
X72675000Y-61518750D01*
X72673947Y-61540191D01*
X72670797Y-61561426D01*
X72665581Y-61582250D01*
X72658349Y-61602462D01*
X72649170Y-61621868D01*
X72638134Y-61640281D01*
X72625346Y-61657524D01*
X72610930Y-61673430D01*
X72595024Y-61687846D01*
X72577781Y-61700634D01*
X72559368Y-61711670D01*
X72539962Y-61720849D01*
X72519750Y-61728081D01*
X72498926Y-61733297D01*
X72477691Y-61736447D01*
X72456250Y-61737500D01*
X71943750Y-61737500D01*
X71922309Y-61736447D01*
X71901074Y-61733297D01*
X71880250Y-61728081D01*
X71860038Y-61720849D01*
X71840632Y-61711670D01*
X71822219Y-61700634D01*
X71804976Y-61687846D01*
X71789070Y-61673430D01*
X71774654Y-61657524D01*
X71761866Y-61640281D01*
X71750830Y-61621868D01*
X71741651Y-61602462D01*
X71734419Y-61582250D01*
X71729203Y-61561426D01*
X71726053Y-61540191D01*
X71725000Y-61518750D01*
X71725000Y-61081250D01*
X71726053Y-61059809D01*
X71729203Y-61038574D01*
X71734419Y-61017750D01*
X71741651Y-60997538D01*
X71750830Y-60978132D01*
X71761866Y-60959719D01*
X71774654Y-60942476D01*
X71789070Y-60926570D01*
X71804976Y-60912154D01*
X71822219Y-60899366D01*
X71840632Y-60888330D01*
X71860038Y-60879151D01*
X71880250Y-60871919D01*
X71901074Y-60866703D01*
X71922309Y-60863553D01*
X71943750Y-60862500D01*
X72456250Y-60862500D01*
X72477691Y-60863553D01*
X72477691Y-60863553D01*
G37*
D11*
X72200000Y-61300000D03*
D10*
G36*
X72477691Y-59288553D02*
G01*
X72498926Y-59291703D01*
X72519750Y-59296919D01*
X72539962Y-59304151D01*
X72559368Y-59313330D01*
X72577781Y-59324366D01*
X72595024Y-59337154D01*
X72610930Y-59351570D01*
X72625346Y-59367476D01*
X72638134Y-59384719D01*
X72649170Y-59403132D01*
X72658349Y-59422538D01*
X72665581Y-59442750D01*
X72670797Y-59463574D01*
X72673947Y-59484809D01*
X72675000Y-59506250D01*
X72675000Y-59943750D01*
X72673947Y-59965191D01*
X72670797Y-59986426D01*
X72665581Y-60007250D01*
X72658349Y-60027462D01*
X72649170Y-60046868D01*
X72638134Y-60065281D01*
X72625346Y-60082524D01*
X72610930Y-60098430D01*
X72595024Y-60112846D01*
X72577781Y-60125634D01*
X72559368Y-60136670D01*
X72539962Y-60145849D01*
X72519750Y-60153081D01*
X72498926Y-60158297D01*
X72477691Y-60161447D01*
X72456250Y-60162500D01*
X71943750Y-60162500D01*
X71922309Y-60161447D01*
X71901074Y-60158297D01*
X71880250Y-60153081D01*
X71860038Y-60145849D01*
X71840632Y-60136670D01*
X71822219Y-60125634D01*
X71804976Y-60112846D01*
X71789070Y-60098430D01*
X71774654Y-60082524D01*
X71761866Y-60065281D01*
X71750830Y-60046868D01*
X71741651Y-60027462D01*
X71734419Y-60007250D01*
X71729203Y-59986426D01*
X71726053Y-59965191D01*
X71725000Y-59943750D01*
X71725000Y-59506250D01*
X71726053Y-59484809D01*
X71729203Y-59463574D01*
X71734419Y-59442750D01*
X71741651Y-59422538D01*
X71750830Y-59403132D01*
X71761866Y-59384719D01*
X71774654Y-59367476D01*
X71789070Y-59351570D01*
X71804976Y-59337154D01*
X71822219Y-59324366D01*
X71840632Y-59313330D01*
X71860038Y-59304151D01*
X71880250Y-59296919D01*
X71901074Y-59291703D01*
X71922309Y-59288553D01*
X71943750Y-59287500D01*
X72456250Y-59287500D01*
X72477691Y-59288553D01*
X72477691Y-59288553D01*
G37*
D11*
X72200000Y-59725000D03*
D10*
G36*
X74749505Y-53926204D02*
G01*
X74773773Y-53929804D01*
X74797572Y-53935765D01*
X74820671Y-53944030D01*
X74842850Y-53954520D01*
X74863893Y-53967132D01*
X74883599Y-53981747D01*
X74901777Y-53998223D01*
X74918253Y-54016401D01*
X74932868Y-54036107D01*
X74945480Y-54057150D01*
X74955970Y-54079329D01*
X74964235Y-54102428D01*
X74970196Y-54126227D01*
X74973796Y-54150495D01*
X74975000Y-54174999D01*
X74975000Y-55025001D01*
X74973796Y-55049505D01*
X74970196Y-55073773D01*
X74964235Y-55097572D01*
X74955970Y-55120671D01*
X74945480Y-55142850D01*
X74932868Y-55163893D01*
X74918253Y-55183599D01*
X74901777Y-55201777D01*
X74883599Y-55218253D01*
X74863893Y-55232868D01*
X74842850Y-55245480D01*
X74820671Y-55255970D01*
X74797572Y-55264235D01*
X74773773Y-55270196D01*
X74749505Y-55273796D01*
X74725001Y-55275000D01*
X71874999Y-55275000D01*
X71850495Y-55273796D01*
X71826227Y-55270196D01*
X71802428Y-55264235D01*
X71779329Y-55255970D01*
X71757150Y-55245480D01*
X71736107Y-55232868D01*
X71716401Y-55218253D01*
X71698223Y-55201777D01*
X71681747Y-55183599D01*
X71667132Y-55163893D01*
X71654520Y-55142850D01*
X71644030Y-55120671D01*
X71635765Y-55097572D01*
X71629804Y-55073773D01*
X71626204Y-55049505D01*
X71625000Y-55025001D01*
X71625000Y-54174999D01*
X71626204Y-54150495D01*
X71629804Y-54126227D01*
X71635765Y-54102428D01*
X71644030Y-54079329D01*
X71654520Y-54057150D01*
X71667132Y-54036107D01*
X71681747Y-54016401D01*
X71698223Y-53998223D01*
X71716401Y-53981747D01*
X71736107Y-53967132D01*
X71757150Y-53954520D01*
X71779329Y-53944030D01*
X71802428Y-53935765D01*
X71826227Y-53929804D01*
X71850495Y-53926204D01*
X71874999Y-53925000D01*
X74725001Y-53925000D01*
X74749505Y-53926204D01*
X74749505Y-53926204D01*
G37*
D12*
X73300000Y-54600000D03*
D10*
G36*
X74749505Y-48126204D02*
G01*
X74773773Y-48129804D01*
X74797572Y-48135765D01*
X74820671Y-48144030D01*
X74842850Y-48154520D01*
X74863893Y-48167132D01*
X74883599Y-48181747D01*
X74901777Y-48198223D01*
X74918253Y-48216401D01*
X74932868Y-48236107D01*
X74945480Y-48257150D01*
X74955970Y-48279329D01*
X74964235Y-48302428D01*
X74970196Y-48326227D01*
X74973796Y-48350495D01*
X74975000Y-48374999D01*
X74975000Y-49225001D01*
X74973796Y-49249505D01*
X74970196Y-49273773D01*
X74964235Y-49297572D01*
X74955970Y-49320671D01*
X74945480Y-49342850D01*
X74932868Y-49363893D01*
X74918253Y-49383599D01*
X74901777Y-49401777D01*
X74883599Y-49418253D01*
X74863893Y-49432868D01*
X74842850Y-49445480D01*
X74820671Y-49455970D01*
X74797572Y-49464235D01*
X74773773Y-49470196D01*
X74749505Y-49473796D01*
X74725001Y-49475000D01*
X71874999Y-49475000D01*
X71850495Y-49473796D01*
X71826227Y-49470196D01*
X71802428Y-49464235D01*
X71779329Y-49455970D01*
X71757150Y-49445480D01*
X71736107Y-49432868D01*
X71716401Y-49418253D01*
X71698223Y-49401777D01*
X71681747Y-49383599D01*
X71667132Y-49363893D01*
X71654520Y-49342850D01*
X71644030Y-49320671D01*
X71635765Y-49297572D01*
X71629804Y-49273773D01*
X71626204Y-49249505D01*
X71625000Y-49225001D01*
X71625000Y-48374999D01*
X71626204Y-48350495D01*
X71629804Y-48326227D01*
X71635765Y-48302428D01*
X71644030Y-48279329D01*
X71654520Y-48257150D01*
X71667132Y-48236107D01*
X71681747Y-48216401D01*
X71698223Y-48198223D01*
X71716401Y-48181747D01*
X71736107Y-48167132D01*
X71757150Y-48154520D01*
X71779329Y-48144030D01*
X71802428Y-48135765D01*
X71826227Y-48129804D01*
X71850495Y-48126204D01*
X71874999Y-48125000D01*
X74725001Y-48125000D01*
X74749505Y-48126204D01*
X74749505Y-48126204D01*
G37*
D12*
X73300000Y-48800000D03*
D10*
G36*
X70580142Y-54113674D02*
G01*
X70603803Y-54117184D01*
X70627007Y-54122996D01*
X70649529Y-54131054D01*
X70671153Y-54141282D01*
X70691670Y-54153579D01*
X70710883Y-54167829D01*
X70728607Y-54183893D01*
X70744671Y-54201617D01*
X70758921Y-54220830D01*
X70771218Y-54241347D01*
X70781446Y-54262971D01*
X70789504Y-54285493D01*
X70795316Y-54308697D01*
X70798826Y-54332358D01*
X70800000Y-54356250D01*
X70800000Y-54843750D01*
X70798826Y-54867642D01*
X70795316Y-54891303D01*
X70789504Y-54914507D01*
X70781446Y-54937029D01*
X70771218Y-54958653D01*
X70758921Y-54979170D01*
X70744671Y-54998383D01*
X70728607Y-55016107D01*
X70710883Y-55032171D01*
X70691670Y-55046421D01*
X70671153Y-55058718D01*
X70649529Y-55068946D01*
X70627007Y-55077004D01*
X70603803Y-55082816D01*
X70580142Y-55086326D01*
X70556250Y-55087500D01*
X69643750Y-55087500D01*
X69619858Y-55086326D01*
X69596197Y-55082816D01*
X69572993Y-55077004D01*
X69550471Y-55068946D01*
X69528847Y-55058718D01*
X69508330Y-55046421D01*
X69489117Y-55032171D01*
X69471393Y-55016107D01*
X69455329Y-54998383D01*
X69441079Y-54979170D01*
X69428782Y-54958653D01*
X69418554Y-54937029D01*
X69410496Y-54914507D01*
X69404684Y-54891303D01*
X69401174Y-54867642D01*
X69400000Y-54843750D01*
X69400000Y-54356250D01*
X69401174Y-54332358D01*
X69404684Y-54308697D01*
X69410496Y-54285493D01*
X69418554Y-54262971D01*
X69428782Y-54241347D01*
X69441079Y-54220830D01*
X69455329Y-54201617D01*
X69471393Y-54183893D01*
X69489117Y-54167829D01*
X69508330Y-54153579D01*
X69528847Y-54141282D01*
X69550471Y-54131054D01*
X69572993Y-54122996D01*
X69596197Y-54117184D01*
X69619858Y-54113674D01*
X69643750Y-54112500D01*
X70556250Y-54112500D01*
X70580142Y-54113674D01*
X70580142Y-54113674D01*
G37*
D13*
X70100000Y-54600000D03*
D10*
G36*
X70580142Y-52238674D02*
G01*
X70603803Y-52242184D01*
X70627007Y-52247996D01*
X70649529Y-52256054D01*
X70671153Y-52266282D01*
X70691670Y-52278579D01*
X70710883Y-52292829D01*
X70728607Y-52308893D01*
X70744671Y-52326617D01*
X70758921Y-52345830D01*
X70771218Y-52366347D01*
X70781446Y-52387971D01*
X70789504Y-52410493D01*
X70795316Y-52433697D01*
X70798826Y-52457358D01*
X70800000Y-52481250D01*
X70800000Y-52968750D01*
X70798826Y-52992642D01*
X70795316Y-53016303D01*
X70789504Y-53039507D01*
X70781446Y-53062029D01*
X70771218Y-53083653D01*
X70758921Y-53104170D01*
X70744671Y-53123383D01*
X70728607Y-53141107D01*
X70710883Y-53157171D01*
X70691670Y-53171421D01*
X70671153Y-53183718D01*
X70649529Y-53193946D01*
X70627007Y-53202004D01*
X70603803Y-53207816D01*
X70580142Y-53211326D01*
X70556250Y-53212500D01*
X69643750Y-53212500D01*
X69619858Y-53211326D01*
X69596197Y-53207816D01*
X69572993Y-53202004D01*
X69550471Y-53193946D01*
X69528847Y-53183718D01*
X69508330Y-53171421D01*
X69489117Y-53157171D01*
X69471393Y-53141107D01*
X69455329Y-53123383D01*
X69441079Y-53104170D01*
X69428782Y-53083653D01*
X69418554Y-53062029D01*
X69410496Y-53039507D01*
X69404684Y-53016303D01*
X69401174Y-52992642D01*
X69400000Y-52968750D01*
X69400000Y-52481250D01*
X69401174Y-52457358D01*
X69404684Y-52433697D01*
X69410496Y-52410493D01*
X69418554Y-52387971D01*
X69428782Y-52366347D01*
X69441079Y-52345830D01*
X69455329Y-52326617D01*
X69471393Y-52308893D01*
X69489117Y-52292829D01*
X69508330Y-52278579D01*
X69528847Y-52266282D01*
X69550471Y-52256054D01*
X69572993Y-52247996D01*
X69596197Y-52242184D01*
X69619858Y-52238674D01*
X69643750Y-52237500D01*
X70556250Y-52237500D01*
X70580142Y-52238674D01*
X70580142Y-52238674D01*
G37*
D13*
X70100000Y-52725000D03*
D10*
G36*
X68567642Y-56901174D02*
G01*
X68591303Y-56904684D01*
X68614507Y-56910496D01*
X68637029Y-56918554D01*
X68658653Y-56928782D01*
X68679170Y-56941079D01*
X68698383Y-56955329D01*
X68716107Y-56971393D01*
X68732171Y-56989117D01*
X68746421Y-57008330D01*
X68758718Y-57028847D01*
X68768946Y-57050471D01*
X68777004Y-57072993D01*
X68782816Y-57096197D01*
X68786326Y-57119858D01*
X68787500Y-57143750D01*
X68787500Y-58056250D01*
X68786326Y-58080142D01*
X68782816Y-58103803D01*
X68777004Y-58127007D01*
X68768946Y-58149529D01*
X68758718Y-58171153D01*
X68746421Y-58191670D01*
X68732171Y-58210883D01*
X68716107Y-58228607D01*
X68698383Y-58244671D01*
X68679170Y-58258921D01*
X68658653Y-58271218D01*
X68637029Y-58281446D01*
X68614507Y-58289504D01*
X68591303Y-58295316D01*
X68567642Y-58298826D01*
X68543750Y-58300000D01*
X68056250Y-58300000D01*
X68032358Y-58298826D01*
X68008697Y-58295316D01*
X67985493Y-58289504D01*
X67962971Y-58281446D01*
X67941347Y-58271218D01*
X67920830Y-58258921D01*
X67901617Y-58244671D01*
X67883893Y-58228607D01*
X67867829Y-58210883D01*
X67853579Y-58191670D01*
X67841282Y-58171153D01*
X67831054Y-58149529D01*
X67822996Y-58127007D01*
X67817184Y-58103803D01*
X67813674Y-58080142D01*
X67812500Y-58056250D01*
X67812500Y-57143750D01*
X67813674Y-57119858D01*
X67817184Y-57096197D01*
X67822996Y-57072993D01*
X67831054Y-57050471D01*
X67841282Y-57028847D01*
X67853579Y-57008330D01*
X67867829Y-56989117D01*
X67883893Y-56971393D01*
X67901617Y-56955329D01*
X67920830Y-56941079D01*
X67941347Y-56928782D01*
X67962971Y-56918554D01*
X67985493Y-56910496D01*
X68008697Y-56904684D01*
X68032358Y-56901174D01*
X68056250Y-56900000D01*
X68543750Y-56900000D01*
X68567642Y-56901174D01*
X68567642Y-56901174D01*
G37*
D13*
X68300000Y-57600000D03*
D10*
G36*
X70442642Y-56901174D02*
G01*
X70466303Y-56904684D01*
X70489507Y-56910496D01*
X70512029Y-56918554D01*
X70533653Y-56928782D01*
X70554170Y-56941079D01*
X70573383Y-56955329D01*
X70591107Y-56971393D01*
X70607171Y-56989117D01*
X70621421Y-57008330D01*
X70633718Y-57028847D01*
X70643946Y-57050471D01*
X70652004Y-57072993D01*
X70657816Y-57096197D01*
X70661326Y-57119858D01*
X70662500Y-57143750D01*
X70662500Y-58056250D01*
X70661326Y-58080142D01*
X70657816Y-58103803D01*
X70652004Y-58127007D01*
X70643946Y-58149529D01*
X70633718Y-58171153D01*
X70621421Y-58191670D01*
X70607171Y-58210883D01*
X70591107Y-58228607D01*
X70573383Y-58244671D01*
X70554170Y-58258921D01*
X70533653Y-58271218D01*
X70512029Y-58281446D01*
X70489507Y-58289504D01*
X70466303Y-58295316D01*
X70442642Y-58298826D01*
X70418750Y-58300000D01*
X69931250Y-58300000D01*
X69907358Y-58298826D01*
X69883697Y-58295316D01*
X69860493Y-58289504D01*
X69837971Y-58281446D01*
X69816347Y-58271218D01*
X69795830Y-58258921D01*
X69776617Y-58244671D01*
X69758893Y-58228607D01*
X69742829Y-58210883D01*
X69728579Y-58191670D01*
X69716282Y-58171153D01*
X69706054Y-58149529D01*
X69697996Y-58127007D01*
X69692184Y-58103803D01*
X69688674Y-58080142D01*
X69687500Y-58056250D01*
X69687500Y-57143750D01*
X69688674Y-57119858D01*
X69692184Y-57096197D01*
X69697996Y-57072993D01*
X69706054Y-57050471D01*
X69716282Y-57028847D01*
X69728579Y-57008330D01*
X69742829Y-56989117D01*
X69758893Y-56971393D01*
X69776617Y-56955329D01*
X69795830Y-56941079D01*
X69816347Y-56928782D01*
X69837971Y-56918554D01*
X69860493Y-56910496D01*
X69883697Y-56904684D01*
X69907358Y-56901174D01*
X69931250Y-56900000D01*
X70418750Y-56900000D01*
X70442642Y-56901174D01*
X70442642Y-56901174D01*
G37*
D13*
X70175000Y-57600000D03*
D14*
X70400000Y-63600000D03*
X70400000Y-62500000D03*
X70400000Y-61400000D03*
X69300000Y-63600000D03*
X69300000Y-62500000D03*
X69300000Y-61400000D03*
X68200000Y-63600000D03*
X68200000Y-62500000D03*
X68200000Y-61400000D03*
X67100000Y-63600000D03*
X67100000Y-62500000D03*
X67100000Y-61400000D03*
X66000000Y-61400000D03*
X66000000Y-62500000D03*
X66000000Y-63600000D03*
D15*
X68200000Y-62500000D03*
D16*
X70475000Y-59725000D03*
X69825000Y-59725000D03*
X69175000Y-59725000D03*
X68525000Y-59725000D03*
X67875000Y-59725000D03*
X67225000Y-59725000D03*
X66575000Y-59725000D03*
X65925000Y-59725000D03*
X65925000Y-65275000D03*
X66575000Y-65275000D03*
X67225000Y-65275000D03*
X67875000Y-65275000D03*
X68525000Y-65275000D03*
X69175000Y-65275000D03*
X69825000Y-65275000D03*
X70475000Y-65275000D03*
D10*
G36*
X61927691Y-68738553D02*
G01*
X61948926Y-68741703D01*
X61969750Y-68746919D01*
X61989962Y-68754151D01*
X62009368Y-68763330D01*
X62027781Y-68774366D01*
X62045024Y-68787154D01*
X62060930Y-68801570D01*
X62075346Y-68817476D01*
X62088134Y-68834719D01*
X62099170Y-68853132D01*
X62108349Y-68872538D01*
X62115581Y-68892750D01*
X62120797Y-68913574D01*
X62123947Y-68934809D01*
X62125000Y-68956250D01*
X62125000Y-69393750D01*
X62123947Y-69415191D01*
X62120797Y-69436426D01*
X62115581Y-69457250D01*
X62108349Y-69477462D01*
X62099170Y-69496868D01*
X62088134Y-69515281D01*
X62075346Y-69532524D01*
X62060930Y-69548430D01*
X62045024Y-69562846D01*
X62027781Y-69575634D01*
X62009368Y-69586670D01*
X61989962Y-69595849D01*
X61969750Y-69603081D01*
X61948926Y-69608297D01*
X61927691Y-69611447D01*
X61906250Y-69612500D01*
X61393750Y-69612500D01*
X61372309Y-69611447D01*
X61351074Y-69608297D01*
X61330250Y-69603081D01*
X61310038Y-69595849D01*
X61290632Y-69586670D01*
X61272219Y-69575634D01*
X61254976Y-69562846D01*
X61239070Y-69548430D01*
X61224654Y-69532524D01*
X61211866Y-69515281D01*
X61200830Y-69496868D01*
X61191651Y-69477462D01*
X61184419Y-69457250D01*
X61179203Y-69436426D01*
X61176053Y-69415191D01*
X61175000Y-69393750D01*
X61175000Y-68956250D01*
X61176053Y-68934809D01*
X61179203Y-68913574D01*
X61184419Y-68892750D01*
X61191651Y-68872538D01*
X61200830Y-68853132D01*
X61211866Y-68834719D01*
X61224654Y-68817476D01*
X61239070Y-68801570D01*
X61254976Y-68787154D01*
X61272219Y-68774366D01*
X61290632Y-68763330D01*
X61310038Y-68754151D01*
X61330250Y-68746919D01*
X61351074Y-68741703D01*
X61372309Y-68738553D01*
X61393750Y-68737500D01*
X61906250Y-68737500D01*
X61927691Y-68738553D01*
X61927691Y-68738553D01*
G37*
D11*
X61650000Y-69175000D03*
D10*
G36*
X61927691Y-70313553D02*
G01*
X61948926Y-70316703D01*
X61969750Y-70321919D01*
X61989962Y-70329151D01*
X62009368Y-70338330D01*
X62027781Y-70349366D01*
X62045024Y-70362154D01*
X62060930Y-70376570D01*
X62075346Y-70392476D01*
X62088134Y-70409719D01*
X62099170Y-70428132D01*
X62108349Y-70447538D01*
X62115581Y-70467750D01*
X62120797Y-70488574D01*
X62123947Y-70509809D01*
X62125000Y-70531250D01*
X62125000Y-70968750D01*
X62123947Y-70990191D01*
X62120797Y-71011426D01*
X62115581Y-71032250D01*
X62108349Y-71052462D01*
X62099170Y-71071868D01*
X62088134Y-71090281D01*
X62075346Y-71107524D01*
X62060930Y-71123430D01*
X62045024Y-71137846D01*
X62027781Y-71150634D01*
X62009368Y-71161670D01*
X61989962Y-71170849D01*
X61969750Y-71178081D01*
X61948926Y-71183297D01*
X61927691Y-71186447D01*
X61906250Y-71187500D01*
X61393750Y-71187500D01*
X61372309Y-71186447D01*
X61351074Y-71183297D01*
X61330250Y-71178081D01*
X61310038Y-71170849D01*
X61290632Y-71161670D01*
X61272219Y-71150634D01*
X61254976Y-71137846D01*
X61239070Y-71123430D01*
X61224654Y-71107524D01*
X61211866Y-71090281D01*
X61200830Y-71071868D01*
X61191651Y-71052462D01*
X61184419Y-71032250D01*
X61179203Y-71011426D01*
X61176053Y-70990191D01*
X61175000Y-70968750D01*
X61175000Y-70531250D01*
X61176053Y-70509809D01*
X61179203Y-70488574D01*
X61184419Y-70467750D01*
X61191651Y-70447538D01*
X61200830Y-70428132D01*
X61211866Y-70409719D01*
X61224654Y-70392476D01*
X61239070Y-70376570D01*
X61254976Y-70362154D01*
X61272219Y-70349366D01*
X61290632Y-70338330D01*
X61310038Y-70329151D01*
X61330250Y-70321919D01*
X61351074Y-70316703D01*
X61372309Y-70313553D01*
X61393750Y-70312500D01*
X61906250Y-70312500D01*
X61927691Y-70313553D01*
X61927691Y-70313553D01*
G37*
D11*
X61650000Y-70750000D03*
D10*
G36*
X65127691Y-70338553D02*
G01*
X65148926Y-70341703D01*
X65169750Y-70346919D01*
X65189962Y-70354151D01*
X65209368Y-70363330D01*
X65227781Y-70374366D01*
X65245024Y-70387154D01*
X65260930Y-70401570D01*
X65275346Y-70417476D01*
X65288134Y-70434719D01*
X65299170Y-70453132D01*
X65308349Y-70472538D01*
X65315581Y-70492750D01*
X65320797Y-70513574D01*
X65323947Y-70534809D01*
X65325000Y-70556250D01*
X65325000Y-70993750D01*
X65323947Y-71015191D01*
X65320797Y-71036426D01*
X65315581Y-71057250D01*
X65308349Y-71077462D01*
X65299170Y-71096868D01*
X65288134Y-71115281D01*
X65275346Y-71132524D01*
X65260930Y-71148430D01*
X65245024Y-71162846D01*
X65227781Y-71175634D01*
X65209368Y-71186670D01*
X65189962Y-71195849D01*
X65169750Y-71203081D01*
X65148926Y-71208297D01*
X65127691Y-71211447D01*
X65106250Y-71212500D01*
X64593750Y-71212500D01*
X64572309Y-71211447D01*
X64551074Y-71208297D01*
X64530250Y-71203081D01*
X64510038Y-71195849D01*
X64490632Y-71186670D01*
X64472219Y-71175634D01*
X64454976Y-71162846D01*
X64439070Y-71148430D01*
X64424654Y-71132524D01*
X64411866Y-71115281D01*
X64400830Y-71096868D01*
X64391651Y-71077462D01*
X64384419Y-71057250D01*
X64379203Y-71036426D01*
X64376053Y-71015191D01*
X64375000Y-70993750D01*
X64375000Y-70556250D01*
X64376053Y-70534809D01*
X64379203Y-70513574D01*
X64384419Y-70492750D01*
X64391651Y-70472538D01*
X64400830Y-70453132D01*
X64411866Y-70434719D01*
X64424654Y-70417476D01*
X64439070Y-70401570D01*
X64454976Y-70387154D01*
X64472219Y-70374366D01*
X64490632Y-70363330D01*
X64510038Y-70354151D01*
X64530250Y-70346919D01*
X64551074Y-70341703D01*
X64572309Y-70338553D01*
X64593750Y-70337500D01*
X65106250Y-70337500D01*
X65127691Y-70338553D01*
X65127691Y-70338553D01*
G37*
D11*
X64850000Y-70775000D03*
D10*
G36*
X65127691Y-68763553D02*
G01*
X65148926Y-68766703D01*
X65169750Y-68771919D01*
X65189962Y-68779151D01*
X65209368Y-68788330D01*
X65227781Y-68799366D01*
X65245024Y-68812154D01*
X65260930Y-68826570D01*
X65275346Y-68842476D01*
X65288134Y-68859719D01*
X65299170Y-68878132D01*
X65308349Y-68897538D01*
X65315581Y-68917750D01*
X65320797Y-68938574D01*
X65323947Y-68959809D01*
X65325000Y-68981250D01*
X65325000Y-69418750D01*
X65323947Y-69440191D01*
X65320797Y-69461426D01*
X65315581Y-69482250D01*
X65308349Y-69502462D01*
X65299170Y-69521868D01*
X65288134Y-69540281D01*
X65275346Y-69557524D01*
X65260930Y-69573430D01*
X65245024Y-69587846D01*
X65227781Y-69600634D01*
X65209368Y-69611670D01*
X65189962Y-69620849D01*
X65169750Y-69628081D01*
X65148926Y-69633297D01*
X65127691Y-69636447D01*
X65106250Y-69637500D01*
X64593750Y-69637500D01*
X64572309Y-69636447D01*
X64551074Y-69633297D01*
X64530250Y-69628081D01*
X64510038Y-69620849D01*
X64490632Y-69611670D01*
X64472219Y-69600634D01*
X64454976Y-69587846D01*
X64439070Y-69573430D01*
X64424654Y-69557524D01*
X64411866Y-69540281D01*
X64400830Y-69521868D01*
X64391651Y-69502462D01*
X64384419Y-69482250D01*
X64379203Y-69461426D01*
X64376053Y-69440191D01*
X64375000Y-69418750D01*
X64375000Y-68981250D01*
X64376053Y-68959809D01*
X64379203Y-68938574D01*
X64384419Y-68917750D01*
X64391651Y-68897538D01*
X64400830Y-68878132D01*
X64411866Y-68859719D01*
X64424654Y-68842476D01*
X64439070Y-68826570D01*
X64454976Y-68812154D01*
X64472219Y-68799366D01*
X64490632Y-68788330D01*
X64510038Y-68779151D01*
X64530250Y-68771919D01*
X64551074Y-68766703D01*
X64572309Y-68763553D01*
X64593750Y-68762500D01*
X65106250Y-68762500D01*
X65127691Y-68763553D01*
X65127691Y-68763553D01*
G37*
D11*
X64850000Y-69200000D03*
D10*
G36*
X102940191Y-96826053D02*
G01*
X102961426Y-96829203D01*
X102982250Y-96834419D01*
X103002462Y-96841651D01*
X103021868Y-96850830D01*
X103040281Y-96861866D01*
X103057524Y-96874654D01*
X103073430Y-96889070D01*
X103087846Y-96904976D01*
X103100634Y-96922219D01*
X103111670Y-96940632D01*
X103120849Y-96960038D01*
X103128081Y-96980250D01*
X103133297Y-97001074D01*
X103136447Y-97022309D01*
X103137500Y-97043750D01*
X103137500Y-97556250D01*
X103136447Y-97577691D01*
X103133297Y-97598926D01*
X103128081Y-97619750D01*
X103120849Y-97639962D01*
X103111670Y-97659368D01*
X103100634Y-97677781D01*
X103087846Y-97695024D01*
X103073430Y-97710930D01*
X103057524Y-97725346D01*
X103040281Y-97738134D01*
X103021868Y-97749170D01*
X103002462Y-97758349D01*
X102982250Y-97765581D01*
X102961426Y-97770797D01*
X102940191Y-97773947D01*
X102918750Y-97775000D01*
X102481250Y-97775000D01*
X102459809Y-97773947D01*
X102438574Y-97770797D01*
X102417750Y-97765581D01*
X102397538Y-97758349D01*
X102378132Y-97749170D01*
X102359719Y-97738134D01*
X102342476Y-97725346D01*
X102326570Y-97710930D01*
X102312154Y-97695024D01*
X102299366Y-97677781D01*
X102288330Y-97659368D01*
X102279151Y-97639962D01*
X102271919Y-97619750D01*
X102266703Y-97598926D01*
X102263553Y-97577691D01*
X102262500Y-97556250D01*
X102262500Y-97043750D01*
X102263553Y-97022309D01*
X102266703Y-97001074D01*
X102271919Y-96980250D01*
X102279151Y-96960038D01*
X102288330Y-96940632D01*
X102299366Y-96922219D01*
X102312154Y-96904976D01*
X102326570Y-96889070D01*
X102342476Y-96874654D01*
X102359719Y-96861866D01*
X102378132Y-96850830D01*
X102397538Y-96841651D01*
X102417750Y-96834419D01*
X102438574Y-96829203D01*
X102459809Y-96826053D01*
X102481250Y-96825000D01*
X102918750Y-96825000D01*
X102940191Y-96826053D01*
X102940191Y-96826053D01*
G37*
D11*
X102700000Y-97300000D03*
D10*
G36*
X104515191Y-96826053D02*
G01*
X104536426Y-96829203D01*
X104557250Y-96834419D01*
X104577462Y-96841651D01*
X104596868Y-96850830D01*
X104615281Y-96861866D01*
X104632524Y-96874654D01*
X104648430Y-96889070D01*
X104662846Y-96904976D01*
X104675634Y-96922219D01*
X104686670Y-96940632D01*
X104695849Y-96960038D01*
X104703081Y-96980250D01*
X104708297Y-97001074D01*
X104711447Y-97022309D01*
X104712500Y-97043750D01*
X104712500Y-97556250D01*
X104711447Y-97577691D01*
X104708297Y-97598926D01*
X104703081Y-97619750D01*
X104695849Y-97639962D01*
X104686670Y-97659368D01*
X104675634Y-97677781D01*
X104662846Y-97695024D01*
X104648430Y-97710930D01*
X104632524Y-97725346D01*
X104615281Y-97738134D01*
X104596868Y-97749170D01*
X104577462Y-97758349D01*
X104557250Y-97765581D01*
X104536426Y-97770797D01*
X104515191Y-97773947D01*
X104493750Y-97775000D01*
X104056250Y-97775000D01*
X104034809Y-97773947D01*
X104013574Y-97770797D01*
X103992750Y-97765581D01*
X103972538Y-97758349D01*
X103953132Y-97749170D01*
X103934719Y-97738134D01*
X103917476Y-97725346D01*
X103901570Y-97710930D01*
X103887154Y-97695024D01*
X103874366Y-97677781D01*
X103863330Y-97659368D01*
X103854151Y-97639962D01*
X103846919Y-97619750D01*
X103841703Y-97598926D01*
X103838553Y-97577691D01*
X103837500Y-97556250D01*
X103837500Y-97043750D01*
X103838553Y-97022309D01*
X103841703Y-97001074D01*
X103846919Y-96980250D01*
X103854151Y-96960038D01*
X103863330Y-96940632D01*
X103874366Y-96922219D01*
X103887154Y-96904976D01*
X103901570Y-96889070D01*
X103917476Y-96874654D01*
X103934719Y-96861866D01*
X103953132Y-96850830D01*
X103972538Y-96841651D01*
X103992750Y-96834419D01*
X104013574Y-96829203D01*
X104034809Y-96826053D01*
X104056250Y-96825000D01*
X104493750Y-96825000D01*
X104515191Y-96826053D01*
X104515191Y-96826053D01*
G37*
D11*
X104275000Y-97300000D03*
D10*
G36*
X68327691Y-70388553D02*
G01*
X68348926Y-70391703D01*
X68369750Y-70396919D01*
X68389962Y-70404151D01*
X68409368Y-70413330D01*
X68427781Y-70424366D01*
X68445024Y-70437154D01*
X68460930Y-70451570D01*
X68475346Y-70467476D01*
X68488134Y-70484719D01*
X68499170Y-70503132D01*
X68508349Y-70522538D01*
X68515581Y-70542750D01*
X68520797Y-70563574D01*
X68523947Y-70584809D01*
X68525000Y-70606250D01*
X68525000Y-71043750D01*
X68523947Y-71065191D01*
X68520797Y-71086426D01*
X68515581Y-71107250D01*
X68508349Y-71127462D01*
X68499170Y-71146868D01*
X68488134Y-71165281D01*
X68475346Y-71182524D01*
X68460930Y-71198430D01*
X68445024Y-71212846D01*
X68427781Y-71225634D01*
X68409368Y-71236670D01*
X68389962Y-71245849D01*
X68369750Y-71253081D01*
X68348926Y-71258297D01*
X68327691Y-71261447D01*
X68306250Y-71262500D01*
X67793750Y-71262500D01*
X67772309Y-71261447D01*
X67751074Y-71258297D01*
X67730250Y-71253081D01*
X67710038Y-71245849D01*
X67690632Y-71236670D01*
X67672219Y-71225634D01*
X67654976Y-71212846D01*
X67639070Y-71198430D01*
X67624654Y-71182524D01*
X67611866Y-71165281D01*
X67600830Y-71146868D01*
X67591651Y-71127462D01*
X67584419Y-71107250D01*
X67579203Y-71086426D01*
X67576053Y-71065191D01*
X67575000Y-71043750D01*
X67575000Y-70606250D01*
X67576053Y-70584809D01*
X67579203Y-70563574D01*
X67584419Y-70542750D01*
X67591651Y-70522538D01*
X67600830Y-70503132D01*
X67611866Y-70484719D01*
X67624654Y-70467476D01*
X67639070Y-70451570D01*
X67654976Y-70437154D01*
X67672219Y-70424366D01*
X67690632Y-70413330D01*
X67710038Y-70404151D01*
X67730250Y-70396919D01*
X67751074Y-70391703D01*
X67772309Y-70388553D01*
X67793750Y-70387500D01*
X68306250Y-70387500D01*
X68327691Y-70388553D01*
X68327691Y-70388553D01*
G37*
D11*
X68050000Y-70825000D03*
D10*
G36*
X68327691Y-68813553D02*
G01*
X68348926Y-68816703D01*
X68369750Y-68821919D01*
X68389962Y-68829151D01*
X68409368Y-68838330D01*
X68427781Y-68849366D01*
X68445024Y-68862154D01*
X68460930Y-68876570D01*
X68475346Y-68892476D01*
X68488134Y-68909719D01*
X68499170Y-68928132D01*
X68508349Y-68947538D01*
X68515581Y-68967750D01*
X68520797Y-68988574D01*
X68523947Y-69009809D01*
X68525000Y-69031250D01*
X68525000Y-69468750D01*
X68523947Y-69490191D01*
X68520797Y-69511426D01*
X68515581Y-69532250D01*
X68508349Y-69552462D01*
X68499170Y-69571868D01*
X68488134Y-69590281D01*
X68475346Y-69607524D01*
X68460930Y-69623430D01*
X68445024Y-69637846D01*
X68427781Y-69650634D01*
X68409368Y-69661670D01*
X68389962Y-69670849D01*
X68369750Y-69678081D01*
X68348926Y-69683297D01*
X68327691Y-69686447D01*
X68306250Y-69687500D01*
X67793750Y-69687500D01*
X67772309Y-69686447D01*
X67751074Y-69683297D01*
X67730250Y-69678081D01*
X67710038Y-69670849D01*
X67690632Y-69661670D01*
X67672219Y-69650634D01*
X67654976Y-69637846D01*
X67639070Y-69623430D01*
X67624654Y-69607524D01*
X67611866Y-69590281D01*
X67600830Y-69571868D01*
X67591651Y-69552462D01*
X67584419Y-69532250D01*
X67579203Y-69511426D01*
X67576053Y-69490191D01*
X67575000Y-69468750D01*
X67575000Y-69031250D01*
X67576053Y-69009809D01*
X67579203Y-68988574D01*
X67584419Y-68967750D01*
X67591651Y-68947538D01*
X67600830Y-68928132D01*
X67611866Y-68909719D01*
X67624654Y-68892476D01*
X67639070Y-68876570D01*
X67654976Y-68862154D01*
X67672219Y-68849366D01*
X67690632Y-68838330D01*
X67710038Y-68829151D01*
X67730250Y-68821919D01*
X67751074Y-68816703D01*
X67772309Y-68813553D01*
X67793750Y-68812500D01*
X68306250Y-68812500D01*
X68327691Y-68813553D01*
X68327691Y-68813553D01*
G37*
D11*
X68050000Y-69250000D03*
D10*
G36*
X96549505Y-111326204D02*
G01*
X96573773Y-111329804D01*
X96597572Y-111335765D01*
X96620671Y-111344030D01*
X96642850Y-111354520D01*
X96663893Y-111367132D01*
X96683599Y-111381747D01*
X96701777Y-111398223D01*
X96718253Y-111416401D01*
X96732868Y-111436107D01*
X96745480Y-111457150D01*
X96755970Y-111479329D01*
X96764235Y-111502428D01*
X96770196Y-111526227D01*
X96773796Y-111550495D01*
X96775000Y-111574999D01*
X96775000Y-114425001D01*
X96773796Y-114449505D01*
X96770196Y-114473773D01*
X96764235Y-114497572D01*
X96755970Y-114520671D01*
X96745480Y-114542850D01*
X96732868Y-114563893D01*
X96718253Y-114583599D01*
X96701777Y-114601777D01*
X96683599Y-114618253D01*
X96663893Y-114632868D01*
X96642850Y-114645480D01*
X96620671Y-114655970D01*
X96597572Y-114664235D01*
X96573773Y-114670196D01*
X96549505Y-114673796D01*
X96525001Y-114675000D01*
X95674999Y-114675000D01*
X95650495Y-114673796D01*
X95626227Y-114670196D01*
X95602428Y-114664235D01*
X95579329Y-114655970D01*
X95557150Y-114645480D01*
X95536107Y-114632868D01*
X95516401Y-114618253D01*
X95498223Y-114601777D01*
X95481747Y-114583599D01*
X95467132Y-114563893D01*
X95454520Y-114542850D01*
X95444030Y-114520671D01*
X95435765Y-114497572D01*
X95429804Y-114473773D01*
X95426204Y-114449505D01*
X95425000Y-114425001D01*
X95425000Y-111574999D01*
X95426204Y-111550495D01*
X95429804Y-111526227D01*
X95435765Y-111502428D01*
X95444030Y-111479329D01*
X95454520Y-111457150D01*
X95467132Y-111436107D01*
X95481747Y-111416401D01*
X95498223Y-111398223D01*
X95516401Y-111381747D01*
X95536107Y-111367132D01*
X95557150Y-111354520D01*
X95579329Y-111344030D01*
X95602428Y-111335765D01*
X95626227Y-111329804D01*
X95650495Y-111326204D01*
X95674999Y-111325000D01*
X96525001Y-111325000D01*
X96549505Y-111326204D01*
X96549505Y-111326204D01*
G37*
D12*
X96100000Y-113000000D03*
D10*
G36*
X90749505Y-111326204D02*
G01*
X90773773Y-111329804D01*
X90797572Y-111335765D01*
X90820671Y-111344030D01*
X90842850Y-111354520D01*
X90863893Y-111367132D01*
X90883599Y-111381747D01*
X90901777Y-111398223D01*
X90918253Y-111416401D01*
X90932868Y-111436107D01*
X90945480Y-111457150D01*
X90955970Y-111479329D01*
X90964235Y-111502428D01*
X90970196Y-111526227D01*
X90973796Y-111550495D01*
X90975000Y-111574999D01*
X90975000Y-114425001D01*
X90973796Y-114449505D01*
X90970196Y-114473773D01*
X90964235Y-114497572D01*
X90955970Y-114520671D01*
X90945480Y-114542850D01*
X90932868Y-114563893D01*
X90918253Y-114583599D01*
X90901777Y-114601777D01*
X90883599Y-114618253D01*
X90863893Y-114632868D01*
X90842850Y-114645480D01*
X90820671Y-114655970D01*
X90797572Y-114664235D01*
X90773773Y-114670196D01*
X90749505Y-114673796D01*
X90725001Y-114675000D01*
X89874999Y-114675000D01*
X89850495Y-114673796D01*
X89826227Y-114670196D01*
X89802428Y-114664235D01*
X89779329Y-114655970D01*
X89757150Y-114645480D01*
X89736107Y-114632868D01*
X89716401Y-114618253D01*
X89698223Y-114601777D01*
X89681747Y-114583599D01*
X89667132Y-114563893D01*
X89654520Y-114542850D01*
X89644030Y-114520671D01*
X89635765Y-114497572D01*
X89629804Y-114473773D01*
X89626204Y-114449505D01*
X89625000Y-114425001D01*
X89625000Y-111574999D01*
X89626204Y-111550495D01*
X89629804Y-111526227D01*
X89635765Y-111502428D01*
X89644030Y-111479329D01*
X89654520Y-111457150D01*
X89667132Y-111436107D01*
X89681747Y-111416401D01*
X89698223Y-111398223D01*
X89716401Y-111381747D01*
X89736107Y-111367132D01*
X89757150Y-111354520D01*
X89779329Y-111344030D01*
X89802428Y-111335765D01*
X89826227Y-111329804D01*
X89850495Y-111326204D01*
X89874999Y-111325000D01*
X90725001Y-111325000D01*
X90749505Y-111326204D01*
X90749505Y-111326204D01*
G37*
D12*
X90300000Y-113000000D03*
D10*
G36*
X96549505Y-115326204D02*
G01*
X96573773Y-115329804D01*
X96597572Y-115335765D01*
X96620671Y-115344030D01*
X96642850Y-115354520D01*
X96663893Y-115367132D01*
X96683599Y-115381747D01*
X96701777Y-115398223D01*
X96718253Y-115416401D01*
X96732868Y-115436107D01*
X96745480Y-115457150D01*
X96755970Y-115479329D01*
X96764235Y-115502428D01*
X96770196Y-115526227D01*
X96773796Y-115550495D01*
X96775000Y-115574999D01*
X96775000Y-118425001D01*
X96773796Y-118449505D01*
X96770196Y-118473773D01*
X96764235Y-118497572D01*
X96755970Y-118520671D01*
X96745480Y-118542850D01*
X96732868Y-118563893D01*
X96718253Y-118583599D01*
X96701777Y-118601777D01*
X96683599Y-118618253D01*
X96663893Y-118632868D01*
X96642850Y-118645480D01*
X96620671Y-118655970D01*
X96597572Y-118664235D01*
X96573773Y-118670196D01*
X96549505Y-118673796D01*
X96525001Y-118675000D01*
X95674999Y-118675000D01*
X95650495Y-118673796D01*
X95626227Y-118670196D01*
X95602428Y-118664235D01*
X95579329Y-118655970D01*
X95557150Y-118645480D01*
X95536107Y-118632868D01*
X95516401Y-118618253D01*
X95498223Y-118601777D01*
X95481747Y-118583599D01*
X95467132Y-118563893D01*
X95454520Y-118542850D01*
X95444030Y-118520671D01*
X95435765Y-118497572D01*
X95429804Y-118473773D01*
X95426204Y-118449505D01*
X95425000Y-118425001D01*
X95425000Y-115574999D01*
X95426204Y-115550495D01*
X95429804Y-115526227D01*
X95435765Y-115502428D01*
X95444030Y-115479329D01*
X95454520Y-115457150D01*
X95467132Y-115436107D01*
X95481747Y-115416401D01*
X95498223Y-115398223D01*
X95516401Y-115381747D01*
X95536107Y-115367132D01*
X95557150Y-115354520D01*
X95579329Y-115344030D01*
X95602428Y-115335765D01*
X95626227Y-115329804D01*
X95650495Y-115326204D01*
X95674999Y-115325000D01*
X96525001Y-115325000D01*
X96549505Y-115326204D01*
X96549505Y-115326204D01*
G37*
D12*
X96100000Y-117000000D03*
D10*
G36*
X90749505Y-115326204D02*
G01*
X90773773Y-115329804D01*
X90797572Y-115335765D01*
X90820671Y-115344030D01*
X90842850Y-115354520D01*
X90863893Y-115367132D01*
X90883599Y-115381747D01*
X90901777Y-115398223D01*
X90918253Y-115416401D01*
X90932868Y-115436107D01*
X90945480Y-115457150D01*
X90955970Y-115479329D01*
X90964235Y-115502428D01*
X90970196Y-115526227D01*
X90973796Y-115550495D01*
X90975000Y-115574999D01*
X90975000Y-118425001D01*
X90973796Y-118449505D01*
X90970196Y-118473773D01*
X90964235Y-118497572D01*
X90955970Y-118520671D01*
X90945480Y-118542850D01*
X90932868Y-118563893D01*
X90918253Y-118583599D01*
X90901777Y-118601777D01*
X90883599Y-118618253D01*
X90863893Y-118632868D01*
X90842850Y-118645480D01*
X90820671Y-118655970D01*
X90797572Y-118664235D01*
X90773773Y-118670196D01*
X90749505Y-118673796D01*
X90725001Y-118675000D01*
X89874999Y-118675000D01*
X89850495Y-118673796D01*
X89826227Y-118670196D01*
X89802428Y-118664235D01*
X89779329Y-118655970D01*
X89757150Y-118645480D01*
X89736107Y-118632868D01*
X89716401Y-118618253D01*
X89698223Y-118601777D01*
X89681747Y-118583599D01*
X89667132Y-118563893D01*
X89654520Y-118542850D01*
X89644030Y-118520671D01*
X89635765Y-118497572D01*
X89629804Y-118473773D01*
X89626204Y-118449505D01*
X89625000Y-118425001D01*
X89625000Y-115574999D01*
X89626204Y-115550495D01*
X89629804Y-115526227D01*
X89635765Y-115502428D01*
X89644030Y-115479329D01*
X89654520Y-115457150D01*
X89667132Y-115436107D01*
X89681747Y-115416401D01*
X89698223Y-115398223D01*
X89716401Y-115381747D01*
X89736107Y-115367132D01*
X89757150Y-115354520D01*
X89779329Y-115344030D01*
X89802428Y-115335765D01*
X89826227Y-115329804D01*
X89850495Y-115326204D01*
X89874999Y-115325000D01*
X90725001Y-115325000D01*
X90749505Y-115326204D01*
X90749505Y-115326204D01*
G37*
D12*
X90300000Y-117000000D03*
D10*
G36*
X71677691Y-68763553D02*
G01*
X71698926Y-68766703D01*
X71719750Y-68771919D01*
X71739962Y-68779151D01*
X71759368Y-68788330D01*
X71777781Y-68799366D01*
X71795024Y-68812154D01*
X71810930Y-68826570D01*
X71825346Y-68842476D01*
X71838134Y-68859719D01*
X71849170Y-68878132D01*
X71858349Y-68897538D01*
X71865581Y-68917750D01*
X71870797Y-68938574D01*
X71873947Y-68959809D01*
X71875000Y-68981250D01*
X71875000Y-69418750D01*
X71873947Y-69440191D01*
X71870797Y-69461426D01*
X71865581Y-69482250D01*
X71858349Y-69502462D01*
X71849170Y-69521868D01*
X71838134Y-69540281D01*
X71825346Y-69557524D01*
X71810930Y-69573430D01*
X71795024Y-69587846D01*
X71777781Y-69600634D01*
X71759368Y-69611670D01*
X71739962Y-69620849D01*
X71719750Y-69628081D01*
X71698926Y-69633297D01*
X71677691Y-69636447D01*
X71656250Y-69637500D01*
X71143750Y-69637500D01*
X71122309Y-69636447D01*
X71101074Y-69633297D01*
X71080250Y-69628081D01*
X71060038Y-69620849D01*
X71040632Y-69611670D01*
X71022219Y-69600634D01*
X71004976Y-69587846D01*
X70989070Y-69573430D01*
X70974654Y-69557524D01*
X70961866Y-69540281D01*
X70950830Y-69521868D01*
X70941651Y-69502462D01*
X70934419Y-69482250D01*
X70929203Y-69461426D01*
X70926053Y-69440191D01*
X70925000Y-69418750D01*
X70925000Y-68981250D01*
X70926053Y-68959809D01*
X70929203Y-68938574D01*
X70934419Y-68917750D01*
X70941651Y-68897538D01*
X70950830Y-68878132D01*
X70961866Y-68859719D01*
X70974654Y-68842476D01*
X70989070Y-68826570D01*
X71004976Y-68812154D01*
X71022219Y-68799366D01*
X71040632Y-68788330D01*
X71060038Y-68779151D01*
X71080250Y-68771919D01*
X71101074Y-68766703D01*
X71122309Y-68763553D01*
X71143750Y-68762500D01*
X71656250Y-68762500D01*
X71677691Y-68763553D01*
X71677691Y-68763553D01*
G37*
D11*
X71400000Y-69200000D03*
D10*
G36*
X71677691Y-70338553D02*
G01*
X71698926Y-70341703D01*
X71719750Y-70346919D01*
X71739962Y-70354151D01*
X71759368Y-70363330D01*
X71777781Y-70374366D01*
X71795024Y-70387154D01*
X71810930Y-70401570D01*
X71825346Y-70417476D01*
X71838134Y-70434719D01*
X71849170Y-70453132D01*
X71858349Y-70472538D01*
X71865581Y-70492750D01*
X71870797Y-70513574D01*
X71873947Y-70534809D01*
X71875000Y-70556250D01*
X71875000Y-70993750D01*
X71873947Y-71015191D01*
X71870797Y-71036426D01*
X71865581Y-71057250D01*
X71858349Y-71077462D01*
X71849170Y-71096868D01*
X71838134Y-71115281D01*
X71825346Y-71132524D01*
X71810930Y-71148430D01*
X71795024Y-71162846D01*
X71777781Y-71175634D01*
X71759368Y-71186670D01*
X71739962Y-71195849D01*
X71719750Y-71203081D01*
X71698926Y-71208297D01*
X71677691Y-71211447D01*
X71656250Y-71212500D01*
X71143750Y-71212500D01*
X71122309Y-71211447D01*
X71101074Y-71208297D01*
X71080250Y-71203081D01*
X71060038Y-71195849D01*
X71040632Y-71186670D01*
X71022219Y-71175634D01*
X71004976Y-71162846D01*
X70989070Y-71148430D01*
X70974654Y-71132524D01*
X70961866Y-71115281D01*
X70950830Y-71096868D01*
X70941651Y-71077462D01*
X70934419Y-71057250D01*
X70929203Y-71036426D01*
X70926053Y-71015191D01*
X70925000Y-70993750D01*
X70925000Y-70556250D01*
X70926053Y-70534809D01*
X70929203Y-70513574D01*
X70934419Y-70492750D01*
X70941651Y-70472538D01*
X70950830Y-70453132D01*
X70961866Y-70434719D01*
X70974654Y-70417476D01*
X70989070Y-70401570D01*
X71004976Y-70387154D01*
X71022219Y-70374366D01*
X71040632Y-70363330D01*
X71060038Y-70354151D01*
X71080250Y-70346919D01*
X71101074Y-70341703D01*
X71122309Y-70338553D01*
X71143750Y-70337500D01*
X71656250Y-70337500D01*
X71677691Y-70338553D01*
X71677691Y-70338553D01*
G37*
D11*
X71400000Y-70775000D03*
D10*
G36*
X73190191Y-67176053D02*
G01*
X73211426Y-67179203D01*
X73232250Y-67184419D01*
X73252462Y-67191651D01*
X73271868Y-67200830D01*
X73290281Y-67211866D01*
X73307524Y-67224654D01*
X73323430Y-67239070D01*
X73337846Y-67254976D01*
X73350634Y-67272219D01*
X73361670Y-67290632D01*
X73370849Y-67310038D01*
X73378081Y-67330250D01*
X73383297Y-67351074D01*
X73386447Y-67372309D01*
X73387500Y-67393750D01*
X73387500Y-67906250D01*
X73386447Y-67927691D01*
X73383297Y-67948926D01*
X73378081Y-67969750D01*
X73370849Y-67989962D01*
X73361670Y-68009368D01*
X73350634Y-68027781D01*
X73337846Y-68045024D01*
X73323430Y-68060930D01*
X73307524Y-68075346D01*
X73290281Y-68088134D01*
X73271868Y-68099170D01*
X73252462Y-68108349D01*
X73232250Y-68115581D01*
X73211426Y-68120797D01*
X73190191Y-68123947D01*
X73168750Y-68125000D01*
X72731250Y-68125000D01*
X72709809Y-68123947D01*
X72688574Y-68120797D01*
X72667750Y-68115581D01*
X72647538Y-68108349D01*
X72628132Y-68099170D01*
X72609719Y-68088134D01*
X72592476Y-68075346D01*
X72576570Y-68060930D01*
X72562154Y-68045024D01*
X72549366Y-68027781D01*
X72538330Y-68009368D01*
X72529151Y-67989962D01*
X72521919Y-67969750D01*
X72516703Y-67948926D01*
X72513553Y-67927691D01*
X72512500Y-67906250D01*
X72512500Y-67393750D01*
X72513553Y-67372309D01*
X72516703Y-67351074D01*
X72521919Y-67330250D01*
X72529151Y-67310038D01*
X72538330Y-67290632D01*
X72549366Y-67272219D01*
X72562154Y-67254976D01*
X72576570Y-67239070D01*
X72592476Y-67224654D01*
X72609719Y-67211866D01*
X72628132Y-67200830D01*
X72647538Y-67191651D01*
X72667750Y-67184419D01*
X72688574Y-67179203D01*
X72709809Y-67176053D01*
X72731250Y-67175000D01*
X73168750Y-67175000D01*
X73190191Y-67176053D01*
X73190191Y-67176053D01*
G37*
D11*
X72950000Y-67650000D03*
D10*
G36*
X71615191Y-67176053D02*
G01*
X71636426Y-67179203D01*
X71657250Y-67184419D01*
X71677462Y-67191651D01*
X71696868Y-67200830D01*
X71715281Y-67211866D01*
X71732524Y-67224654D01*
X71748430Y-67239070D01*
X71762846Y-67254976D01*
X71775634Y-67272219D01*
X71786670Y-67290632D01*
X71795849Y-67310038D01*
X71803081Y-67330250D01*
X71808297Y-67351074D01*
X71811447Y-67372309D01*
X71812500Y-67393750D01*
X71812500Y-67906250D01*
X71811447Y-67927691D01*
X71808297Y-67948926D01*
X71803081Y-67969750D01*
X71795849Y-67989962D01*
X71786670Y-68009368D01*
X71775634Y-68027781D01*
X71762846Y-68045024D01*
X71748430Y-68060930D01*
X71732524Y-68075346D01*
X71715281Y-68088134D01*
X71696868Y-68099170D01*
X71677462Y-68108349D01*
X71657250Y-68115581D01*
X71636426Y-68120797D01*
X71615191Y-68123947D01*
X71593750Y-68125000D01*
X71156250Y-68125000D01*
X71134809Y-68123947D01*
X71113574Y-68120797D01*
X71092750Y-68115581D01*
X71072538Y-68108349D01*
X71053132Y-68099170D01*
X71034719Y-68088134D01*
X71017476Y-68075346D01*
X71001570Y-68060930D01*
X70987154Y-68045024D01*
X70974366Y-68027781D01*
X70963330Y-68009368D01*
X70954151Y-67989962D01*
X70946919Y-67969750D01*
X70941703Y-67948926D01*
X70938553Y-67927691D01*
X70937500Y-67906250D01*
X70937500Y-67393750D01*
X70938553Y-67372309D01*
X70941703Y-67351074D01*
X70946919Y-67330250D01*
X70954151Y-67310038D01*
X70963330Y-67290632D01*
X70974366Y-67272219D01*
X70987154Y-67254976D01*
X71001570Y-67239070D01*
X71017476Y-67224654D01*
X71034719Y-67211866D01*
X71053132Y-67200830D01*
X71072538Y-67191651D01*
X71092750Y-67184419D01*
X71113574Y-67179203D01*
X71134809Y-67176053D01*
X71156250Y-67175000D01*
X71593750Y-67175000D01*
X71615191Y-67176053D01*
X71615191Y-67176053D01*
G37*
D11*
X71375000Y-67650000D03*
D10*
G36*
X63527691Y-68738553D02*
G01*
X63548926Y-68741703D01*
X63569750Y-68746919D01*
X63589962Y-68754151D01*
X63609368Y-68763330D01*
X63627781Y-68774366D01*
X63645024Y-68787154D01*
X63660930Y-68801570D01*
X63675346Y-68817476D01*
X63688134Y-68834719D01*
X63699170Y-68853132D01*
X63708349Y-68872538D01*
X63715581Y-68892750D01*
X63720797Y-68913574D01*
X63723947Y-68934809D01*
X63725000Y-68956250D01*
X63725000Y-69393750D01*
X63723947Y-69415191D01*
X63720797Y-69436426D01*
X63715581Y-69457250D01*
X63708349Y-69477462D01*
X63699170Y-69496868D01*
X63688134Y-69515281D01*
X63675346Y-69532524D01*
X63660930Y-69548430D01*
X63645024Y-69562846D01*
X63627781Y-69575634D01*
X63609368Y-69586670D01*
X63589962Y-69595849D01*
X63569750Y-69603081D01*
X63548926Y-69608297D01*
X63527691Y-69611447D01*
X63506250Y-69612500D01*
X62993750Y-69612500D01*
X62972309Y-69611447D01*
X62951074Y-69608297D01*
X62930250Y-69603081D01*
X62910038Y-69595849D01*
X62890632Y-69586670D01*
X62872219Y-69575634D01*
X62854976Y-69562846D01*
X62839070Y-69548430D01*
X62824654Y-69532524D01*
X62811866Y-69515281D01*
X62800830Y-69496868D01*
X62791651Y-69477462D01*
X62784419Y-69457250D01*
X62779203Y-69436426D01*
X62776053Y-69415191D01*
X62775000Y-69393750D01*
X62775000Y-68956250D01*
X62776053Y-68934809D01*
X62779203Y-68913574D01*
X62784419Y-68892750D01*
X62791651Y-68872538D01*
X62800830Y-68853132D01*
X62811866Y-68834719D01*
X62824654Y-68817476D01*
X62839070Y-68801570D01*
X62854976Y-68787154D01*
X62872219Y-68774366D01*
X62890632Y-68763330D01*
X62910038Y-68754151D01*
X62930250Y-68746919D01*
X62951074Y-68741703D01*
X62972309Y-68738553D01*
X62993750Y-68737500D01*
X63506250Y-68737500D01*
X63527691Y-68738553D01*
X63527691Y-68738553D01*
G37*
D11*
X63250000Y-69175000D03*
D10*
G36*
X63527691Y-70313553D02*
G01*
X63548926Y-70316703D01*
X63569750Y-70321919D01*
X63589962Y-70329151D01*
X63609368Y-70338330D01*
X63627781Y-70349366D01*
X63645024Y-70362154D01*
X63660930Y-70376570D01*
X63675346Y-70392476D01*
X63688134Y-70409719D01*
X63699170Y-70428132D01*
X63708349Y-70447538D01*
X63715581Y-70467750D01*
X63720797Y-70488574D01*
X63723947Y-70509809D01*
X63725000Y-70531250D01*
X63725000Y-70968750D01*
X63723947Y-70990191D01*
X63720797Y-71011426D01*
X63715581Y-71032250D01*
X63708349Y-71052462D01*
X63699170Y-71071868D01*
X63688134Y-71090281D01*
X63675346Y-71107524D01*
X63660930Y-71123430D01*
X63645024Y-71137846D01*
X63627781Y-71150634D01*
X63609368Y-71161670D01*
X63589962Y-71170849D01*
X63569750Y-71178081D01*
X63548926Y-71183297D01*
X63527691Y-71186447D01*
X63506250Y-71187500D01*
X62993750Y-71187500D01*
X62972309Y-71186447D01*
X62951074Y-71183297D01*
X62930250Y-71178081D01*
X62910038Y-71170849D01*
X62890632Y-71161670D01*
X62872219Y-71150634D01*
X62854976Y-71137846D01*
X62839070Y-71123430D01*
X62824654Y-71107524D01*
X62811866Y-71090281D01*
X62800830Y-71071868D01*
X62791651Y-71052462D01*
X62784419Y-71032250D01*
X62779203Y-71011426D01*
X62776053Y-70990191D01*
X62775000Y-70968750D01*
X62775000Y-70531250D01*
X62776053Y-70509809D01*
X62779203Y-70488574D01*
X62784419Y-70467750D01*
X62791651Y-70447538D01*
X62800830Y-70428132D01*
X62811866Y-70409719D01*
X62824654Y-70392476D01*
X62839070Y-70376570D01*
X62854976Y-70362154D01*
X62872219Y-70349366D01*
X62890632Y-70338330D01*
X62910038Y-70329151D01*
X62930250Y-70321919D01*
X62951074Y-70316703D01*
X62972309Y-70313553D01*
X62993750Y-70312500D01*
X63506250Y-70312500D01*
X63527691Y-70313553D01*
X63527691Y-70313553D01*
G37*
D11*
X63250000Y-70750000D03*
D10*
G36*
X58615191Y-70276053D02*
G01*
X58636426Y-70279203D01*
X58657250Y-70284419D01*
X58677462Y-70291651D01*
X58696868Y-70300830D01*
X58715281Y-70311866D01*
X58732524Y-70324654D01*
X58748430Y-70339070D01*
X58762846Y-70354976D01*
X58775634Y-70372219D01*
X58786670Y-70390632D01*
X58795849Y-70410038D01*
X58803081Y-70430250D01*
X58808297Y-70451074D01*
X58811447Y-70472309D01*
X58812500Y-70493750D01*
X58812500Y-71006250D01*
X58811447Y-71027691D01*
X58808297Y-71048926D01*
X58803081Y-71069750D01*
X58795849Y-71089962D01*
X58786670Y-71109368D01*
X58775634Y-71127781D01*
X58762846Y-71145024D01*
X58748430Y-71160930D01*
X58732524Y-71175346D01*
X58715281Y-71188134D01*
X58696868Y-71199170D01*
X58677462Y-71208349D01*
X58657250Y-71215581D01*
X58636426Y-71220797D01*
X58615191Y-71223947D01*
X58593750Y-71225000D01*
X58156250Y-71225000D01*
X58134809Y-71223947D01*
X58113574Y-71220797D01*
X58092750Y-71215581D01*
X58072538Y-71208349D01*
X58053132Y-71199170D01*
X58034719Y-71188134D01*
X58017476Y-71175346D01*
X58001570Y-71160930D01*
X57987154Y-71145024D01*
X57974366Y-71127781D01*
X57963330Y-71109368D01*
X57954151Y-71089962D01*
X57946919Y-71069750D01*
X57941703Y-71048926D01*
X57938553Y-71027691D01*
X57937500Y-71006250D01*
X57937500Y-70493750D01*
X57938553Y-70472309D01*
X57941703Y-70451074D01*
X57946919Y-70430250D01*
X57954151Y-70410038D01*
X57963330Y-70390632D01*
X57974366Y-70372219D01*
X57987154Y-70354976D01*
X58001570Y-70339070D01*
X58017476Y-70324654D01*
X58034719Y-70311866D01*
X58053132Y-70300830D01*
X58072538Y-70291651D01*
X58092750Y-70284419D01*
X58113574Y-70279203D01*
X58134809Y-70276053D01*
X58156250Y-70275000D01*
X58593750Y-70275000D01*
X58615191Y-70276053D01*
X58615191Y-70276053D01*
G37*
D11*
X58375000Y-70750000D03*
D10*
G36*
X57040191Y-70276053D02*
G01*
X57061426Y-70279203D01*
X57082250Y-70284419D01*
X57102462Y-70291651D01*
X57121868Y-70300830D01*
X57140281Y-70311866D01*
X57157524Y-70324654D01*
X57173430Y-70339070D01*
X57187846Y-70354976D01*
X57200634Y-70372219D01*
X57211670Y-70390632D01*
X57220849Y-70410038D01*
X57228081Y-70430250D01*
X57233297Y-70451074D01*
X57236447Y-70472309D01*
X57237500Y-70493750D01*
X57237500Y-71006250D01*
X57236447Y-71027691D01*
X57233297Y-71048926D01*
X57228081Y-71069750D01*
X57220849Y-71089962D01*
X57211670Y-71109368D01*
X57200634Y-71127781D01*
X57187846Y-71145024D01*
X57173430Y-71160930D01*
X57157524Y-71175346D01*
X57140281Y-71188134D01*
X57121868Y-71199170D01*
X57102462Y-71208349D01*
X57082250Y-71215581D01*
X57061426Y-71220797D01*
X57040191Y-71223947D01*
X57018750Y-71225000D01*
X56581250Y-71225000D01*
X56559809Y-71223947D01*
X56538574Y-71220797D01*
X56517750Y-71215581D01*
X56497538Y-71208349D01*
X56478132Y-71199170D01*
X56459719Y-71188134D01*
X56442476Y-71175346D01*
X56426570Y-71160930D01*
X56412154Y-71145024D01*
X56399366Y-71127781D01*
X56388330Y-71109368D01*
X56379151Y-71089962D01*
X56371919Y-71069750D01*
X56366703Y-71048926D01*
X56363553Y-71027691D01*
X56362500Y-71006250D01*
X56362500Y-70493750D01*
X56363553Y-70472309D01*
X56366703Y-70451074D01*
X56371919Y-70430250D01*
X56379151Y-70410038D01*
X56388330Y-70390632D01*
X56399366Y-70372219D01*
X56412154Y-70354976D01*
X56426570Y-70339070D01*
X56442476Y-70324654D01*
X56459719Y-70311866D01*
X56478132Y-70300830D01*
X56497538Y-70291651D01*
X56517750Y-70284419D01*
X56538574Y-70279203D01*
X56559809Y-70276053D01*
X56581250Y-70275000D01*
X57018750Y-70275000D01*
X57040191Y-70276053D01*
X57040191Y-70276053D01*
G37*
D11*
X56800000Y-70750000D03*
D17*
X102300000Y-108600000D03*
D18*
X104580000Y-102300000D03*
X100020000Y-102300000D03*
D19*
X102000000Y-43000000D03*
X102000000Y-117000000D03*
X53500000Y-43000000D03*
D20*
X100000000Y-97400000D03*
X96000000Y-97400000D03*
D21*
X78450000Y-59750000D03*
X76350000Y-59750000D03*
D22*
X94200000Y-104100000D03*
D23*
X89200000Y-104100000D03*
D22*
X74700000Y-104100000D03*
D23*
X79700000Y-104100000D03*
D22*
X94200000Y-90400000D03*
D23*
X89200000Y-90400000D03*
D10*
G36*
X60277691Y-68726053D02*
G01*
X60298926Y-68729203D01*
X60319750Y-68734419D01*
X60339962Y-68741651D01*
X60359368Y-68750830D01*
X60377781Y-68761866D01*
X60395024Y-68774654D01*
X60410930Y-68789070D01*
X60425346Y-68804976D01*
X60438134Y-68822219D01*
X60449170Y-68840632D01*
X60458349Y-68860038D01*
X60465581Y-68880250D01*
X60470797Y-68901074D01*
X60473947Y-68922309D01*
X60475000Y-68943750D01*
X60475000Y-69381250D01*
X60473947Y-69402691D01*
X60470797Y-69423926D01*
X60465581Y-69444750D01*
X60458349Y-69464962D01*
X60449170Y-69484368D01*
X60438134Y-69502781D01*
X60425346Y-69520024D01*
X60410930Y-69535930D01*
X60395024Y-69550346D01*
X60377781Y-69563134D01*
X60359368Y-69574170D01*
X60339962Y-69583349D01*
X60319750Y-69590581D01*
X60298926Y-69595797D01*
X60277691Y-69598947D01*
X60256250Y-69600000D01*
X59743750Y-69600000D01*
X59722309Y-69598947D01*
X59701074Y-69595797D01*
X59680250Y-69590581D01*
X59660038Y-69583349D01*
X59640632Y-69574170D01*
X59622219Y-69563134D01*
X59604976Y-69550346D01*
X59589070Y-69535930D01*
X59574654Y-69520024D01*
X59561866Y-69502781D01*
X59550830Y-69484368D01*
X59541651Y-69464962D01*
X59534419Y-69444750D01*
X59529203Y-69423926D01*
X59526053Y-69402691D01*
X59525000Y-69381250D01*
X59525000Y-68943750D01*
X59526053Y-68922309D01*
X59529203Y-68901074D01*
X59534419Y-68880250D01*
X59541651Y-68860038D01*
X59550830Y-68840632D01*
X59561866Y-68822219D01*
X59574654Y-68804976D01*
X59589070Y-68789070D01*
X59604976Y-68774654D01*
X59622219Y-68761866D01*
X59640632Y-68750830D01*
X59660038Y-68741651D01*
X59680250Y-68734419D01*
X59701074Y-68729203D01*
X59722309Y-68726053D01*
X59743750Y-68725000D01*
X60256250Y-68725000D01*
X60277691Y-68726053D01*
X60277691Y-68726053D01*
G37*
D11*
X60000000Y-69162500D03*
D10*
G36*
X60277691Y-70301053D02*
G01*
X60298926Y-70304203D01*
X60319750Y-70309419D01*
X60339962Y-70316651D01*
X60359368Y-70325830D01*
X60377781Y-70336866D01*
X60395024Y-70349654D01*
X60410930Y-70364070D01*
X60425346Y-70379976D01*
X60438134Y-70397219D01*
X60449170Y-70415632D01*
X60458349Y-70435038D01*
X60465581Y-70455250D01*
X60470797Y-70476074D01*
X60473947Y-70497309D01*
X60475000Y-70518750D01*
X60475000Y-70956250D01*
X60473947Y-70977691D01*
X60470797Y-70998926D01*
X60465581Y-71019750D01*
X60458349Y-71039962D01*
X60449170Y-71059368D01*
X60438134Y-71077781D01*
X60425346Y-71095024D01*
X60410930Y-71110930D01*
X60395024Y-71125346D01*
X60377781Y-71138134D01*
X60359368Y-71149170D01*
X60339962Y-71158349D01*
X60319750Y-71165581D01*
X60298926Y-71170797D01*
X60277691Y-71173947D01*
X60256250Y-71175000D01*
X59743750Y-71175000D01*
X59722309Y-71173947D01*
X59701074Y-71170797D01*
X59680250Y-71165581D01*
X59660038Y-71158349D01*
X59640632Y-71149170D01*
X59622219Y-71138134D01*
X59604976Y-71125346D01*
X59589070Y-71110930D01*
X59574654Y-71095024D01*
X59561866Y-71077781D01*
X59550830Y-71059368D01*
X59541651Y-71039962D01*
X59534419Y-71019750D01*
X59529203Y-70998926D01*
X59526053Y-70977691D01*
X59525000Y-70956250D01*
X59525000Y-70518750D01*
X59526053Y-70497309D01*
X59529203Y-70476074D01*
X59534419Y-70455250D01*
X59541651Y-70435038D01*
X59550830Y-70415632D01*
X59561866Y-70397219D01*
X59574654Y-70379976D01*
X59589070Y-70364070D01*
X59604976Y-70349654D01*
X59622219Y-70336866D01*
X59640632Y-70325830D01*
X59660038Y-70316651D01*
X59680250Y-70309419D01*
X59701074Y-70304203D01*
X59722309Y-70301053D01*
X59743750Y-70300000D01*
X60256250Y-70300000D01*
X60277691Y-70301053D01*
X60277691Y-70301053D01*
G37*
D11*
X60000000Y-70737500D03*
D10*
G36*
X60252691Y-67076053D02*
G01*
X60273926Y-67079203D01*
X60294750Y-67084419D01*
X60314962Y-67091651D01*
X60334368Y-67100830D01*
X60352781Y-67111866D01*
X60370024Y-67124654D01*
X60385930Y-67139070D01*
X60400346Y-67154976D01*
X60413134Y-67172219D01*
X60424170Y-67190632D01*
X60433349Y-67210038D01*
X60440581Y-67230250D01*
X60445797Y-67251074D01*
X60448947Y-67272309D01*
X60450000Y-67293750D01*
X60450000Y-67806250D01*
X60448947Y-67827691D01*
X60445797Y-67848926D01*
X60440581Y-67869750D01*
X60433349Y-67889962D01*
X60424170Y-67909368D01*
X60413134Y-67927781D01*
X60400346Y-67945024D01*
X60385930Y-67960930D01*
X60370024Y-67975346D01*
X60352781Y-67988134D01*
X60334368Y-67999170D01*
X60314962Y-68008349D01*
X60294750Y-68015581D01*
X60273926Y-68020797D01*
X60252691Y-68023947D01*
X60231250Y-68025000D01*
X59793750Y-68025000D01*
X59772309Y-68023947D01*
X59751074Y-68020797D01*
X59730250Y-68015581D01*
X59710038Y-68008349D01*
X59690632Y-67999170D01*
X59672219Y-67988134D01*
X59654976Y-67975346D01*
X59639070Y-67960930D01*
X59624654Y-67945024D01*
X59611866Y-67927781D01*
X59600830Y-67909368D01*
X59591651Y-67889962D01*
X59584419Y-67869750D01*
X59579203Y-67848926D01*
X59576053Y-67827691D01*
X59575000Y-67806250D01*
X59575000Y-67293750D01*
X59576053Y-67272309D01*
X59579203Y-67251074D01*
X59584419Y-67230250D01*
X59591651Y-67210038D01*
X59600830Y-67190632D01*
X59611866Y-67172219D01*
X59624654Y-67154976D01*
X59639070Y-67139070D01*
X59654976Y-67124654D01*
X59672219Y-67111866D01*
X59690632Y-67100830D01*
X59710038Y-67091651D01*
X59730250Y-67084419D01*
X59751074Y-67079203D01*
X59772309Y-67076053D01*
X59793750Y-67075000D01*
X60231250Y-67075000D01*
X60252691Y-67076053D01*
X60252691Y-67076053D01*
G37*
D11*
X60012500Y-67550000D03*
D10*
G36*
X61827691Y-67076053D02*
G01*
X61848926Y-67079203D01*
X61869750Y-67084419D01*
X61889962Y-67091651D01*
X61909368Y-67100830D01*
X61927781Y-67111866D01*
X61945024Y-67124654D01*
X61960930Y-67139070D01*
X61975346Y-67154976D01*
X61988134Y-67172219D01*
X61999170Y-67190632D01*
X62008349Y-67210038D01*
X62015581Y-67230250D01*
X62020797Y-67251074D01*
X62023947Y-67272309D01*
X62025000Y-67293750D01*
X62025000Y-67806250D01*
X62023947Y-67827691D01*
X62020797Y-67848926D01*
X62015581Y-67869750D01*
X62008349Y-67889962D01*
X61999170Y-67909368D01*
X61988134Y-67927781D01*
X61975346Y-67945024D01*
X61960930Y-67960930D01*
X61945024Y-67975346D01*
X61927781Y-67988134D01*
X61909368Y-67999170D01*
X61889962Y-68008349D01*
X61869750Y-68015581D01*
X61848926Y-68020797D01*
X61827691Y-68023947D01*
X61806250Y-68025000D01*
X61368750Y-68025000D01*
X61347309Y-68023947D01*
X61326074Y-68020797D01*
X61305250Y-68015581D01*
X61285038Y-68008349D01*
X61265632Y-67999170D01*
X61247219Y-67988134D01*
X61229976Y-67975346D01*
X61214070Y-67960930D01*
X61199654Y-67945024D01*
X61186866Y-67927781D01*
X61175830Y-67909368D01*
X61166651Y-67889962D01*
X61159419Y-67869750D01*
X61154203Y-67848926D01*
X61151053Y-67827691D01*
X61150000Y-67806250D01*
X61150000Y-67293750D01*
X61151053Y-67272309D01*
X61154203Y-67251074D01*
X61159419Y-67230250D01*
X61166651Y-67210038D01*
X61175830Y-67190632D01*
X61186866Y-67172219D01*
X61199654Y-67154976D01*
X61214070Y-67139070D01*
X61229976Y-67124654D01*
X61247219Y-67111866D01*
X61265632Y-67100830D01*
X61285038Y-67091651D01*
X61305250Y-67084419D01*
X61326074Y-67079203D01*
X61347309Y-67076053D01*
X61368750Y-67075000D01*
X61806250Y-67075000D01*
X61827691Y-67076053D01*
X61827691Y-67076053D01*
G37*
D11*
X61587500Y-67550000D03*
D10*
G36*
X69977691Y-70351053D02*
G01*
X69998926Y-70354203D01*
X70019750Y-70359419D01*
X70039962Y-70366651D01*
X70059368Y-70375830D01*
X70077781Y-70386866D01*
X70095024Y-70399654D01*
X70110930Y-70414070D01*
X70125346Y-70429976D01*
X70138134Y-70447219D01*
X70149170Y-70465632D01*
X70158349Y-70485038D01*
X70165581Y-70505250D01*
X70170797Y-70526074D01*
X70173947Y-70547309D01*
X70175000Y-70568750D01*
X70175000Y-71006250D01*
X70173947Y-71027691D01*
X70170797Y-71048926D01*
X70165581Y-71069750D01*
X70158349Y-71089962D01*
X70149170Y-71109368D01*
X70138134Y-71127781D01*
X70125346Y-71145024D01*
X70110930Y-71160930D01*
X70095024Y-71175346D01*
X70077781Y-71188134D01*
X70059368Y-71199170D01*
X70039962Y-71208349D01*
X70019750Y-71215581D01*
X69998926Y-71220797D01*
X69977691Y-71223947D01*
X69956250Y-71225000D01*
X69443750Y-71225000D01*
X69422309Y-71223947D01*
X69401074Y-71220797D01*
X69380250Y-71215581D01*
X69360038Y-71208349D01*
X69340632Y-71199170D01*
X69322219Y-71188134D01*
X69304976Y-71175346D01*
X69289070Y-71160930D01*
X69274654Y-71145024D01*
X69261866Y-71127781D01*
X69250830Y-71109368D01*
X69241651Y-71089962D01*
X69234419Y-71069750D01*
X69229203Y-71048926D01*
X69226053Y-71027691D01*
X69225000Y-71006250D01*
X69225000Y-70568750D01*
X69226053Y-70547309D01*
X69229203Y-70526074D01*
X69234419Y-70505250D01*
X69241651Y-70485038D01*
X69250830Y-70465632D01*
X69261866Y-70447219D01*
X69274654Y-70429976D01*
X69289070Y-70414070D01*
X69304976Y-70399654D01*
X69322219Y-70386866D01*
X69340632Y-70375830D01*
X69360038Y-70366651D01*
X69380250Y-70359419D01*
X69401074Y-70354203D01*
X69422309Y-70351053D01*
X69443750Y-70350000D01*
X69956250Y-70350000D01*
X69977691Y-70351053D01*
X69977691Y-70351053D01*
G37*
D11*
X69700000Y-70787500D03*
D10*
G36*
X69977691Y-68776053D02*
G01*
X69998926Y-68779203D01*
X70019750Y-68784419D01*
X70039962Y-68791651D01*
X70059368Y-68800830D01*
X70077781Y-68811866D01*
X70095024Y-68824654D01*
X70110930Y-68839070D01*
X70125346Y-68854976D01*
X70138134Y-68872219D01*
X70149170Y-68890632D01*
X70158349Y-68910038D01*
X70165581Y-68930250D01*
X70170797Y-68951074D01*
X70173947Y-68972309D01*
X70175000Y-68993750D01*
X70175000Y-69431250D01*
X70173947Y-69452691D01*
X70170797Y-69473926D01*
X70165581Y-69494750D01*
X70158349Y-69514962D01*
X70149170Y-69534368D01*
X70138134Y-69552781D01*
X70125346Y-69570024D01*
X70110930Y-69585930D01*
X70095024Y-69600346D01*
X70077781Y-69613134D01*
X70059368Y-69624170D01*
X70039962Y-69633349D01*
X70019750Y-69640581D01*
X69998926Y-69645797D01*
X69977691Y-69648947D01*
X69956250Y-69650000D01*
X69443750Y-69650000D01*
X69422309Y-69648947D01*
X69401074Y-69645797D01*
X69380250Y-69640581D01*
X69360038Y-69633349D01*
X69340632Y-69624170D01*
X69322219Y-69613134D01*
X69304976Y-69600346D01*
X69289070Y-69585930D01*
X69274654Y-69570024D01*
X69261866Y-69552781D01*
X69250830Y-69534368D01*
X69241651Y-69514962D01*
X69234419Y-69494750D01*
X69229203Y-69473926D01*
X69226053Y-69452691D01*
X69225000Y-69431250D01*
X69225000Y-68993750D01*
X69226053Y-68972309D01*
X69229203Y-68951074D01*
X69234419Y-68930250D01*
X69241651Y-68910038D01*
X69250830Y-68890632D01*
X69261866Y-68872219D01*
X69274654Y-68854976D01*
X69289070Y-68839070D01*
X69304976Y-68824654D01*
X69322219Y-68811866D01*
X69340632Y-68800830D01*
X69360038Y-68791651D01*
X69380250Y-68784419D01*
X69401074Y-68779203D01*
X69422309Y-68776053D01*
X69443750Y-68775000D01*
X69956250Y-68775000D01*
X69977691Y-68776053D01*
X69977691Y-68776053D01*
G37*
D11*
X69700000Y-69212500D03*
D10*
G36*
X66727691Y-70388553D02*
G01*
X66748926Y-70391703D01*
X66769750Y-70396919D01*
X66789962Y-70404151D01*
X66809368Y-70413330D01*
X66827781Y-70424366D01*
X66845024Y-70437154D01*
X66860930Y-70451570D01*
X66875346Y-70467476D01*
X66888134Y-70484719D01*
X66899170Y-70503132D01*
X66908349Y-70522538D01*
X66915581Y-70542750D01*
X66920797Y-70563574D01*
X66923947Y-70584809D01*
X66925000Y-70606250D01*
X66925000Y-71043750D01*
X66923947Y-71065191D01*
X66920797Y-71086426D01*
X66915581Y-71107250D01*
X66908349Y-71127462D01*
X66899170Y-71146868D01*
X66888134Y-71165281D01*
X66875346Y-71182524D01*
X66860930Y-71198430D01*
X66845024Y-71212846D01*
X66827781Y-71225634D01*
X66809368Y-71236670D01*
X66789962Y-71245849D01*
X66769750Y-71253081D01*
X66748926Y-71258297D01*
X66727691Y-71261447D01*
X66706250Y-71262500D01*
X66193750Y-71262500D01*
X66172309Y-71261447D01*
X66151074Y-71258297D01*
X66130250Y-71253081D01*
X66110038Y-71245849D01*
X66090632Y-71236670D01*
X66072219Y-71225634D01*
X66054976Y-71212846D01*
X66039070Y-71198430D01*
X66024654Y-71182524D01*
X66011866Y-71165281D01*
X66000830Y-71146868D01*
X65991651Y-71127462D01*
X65984419Y-71107250D01*
X65979203Y-71086426D01*
X65976053Y-71065191D01*
X65975000Y-71043750D01*
X65975000Y-70606250D01*
X65976053Y-70584809D01*
X65979203Y-70563574D01*
X65984419Y-70542750D01*
X65991651Y-70522538D01*
X66000830Y-70503132D01*
X66011866Y-70484719D01*
X66024654Y-70467476D01*
X66039070Y-70451570D01*
X66054976Y-70437154D01*
X66072219Y-70424366D01*
X66090632Y-70413330D01*
X66110038Y-70404151D01*
X66130250Y-70396919D01*
X66151074Y-70391703D01*
X66172309Y-70388553D01*
X66193750Y-70387500D01*
X66706250Y-70387500D01*
X66727691Y-70388553D01*
X66727691Y-70388553D01*
G37*
D11*
X66450000Y-70825000D03*
D10*
G36*
X66727691Y-68813553D02*
G01*
X66748926Y-68816703D01*
X66769750Y-68821919D01*
X66789962Y-68829151D01*
X66809368Y-68838330D01*
X66827781Y-68849366D01*
X66845024Y-68862154D01*
X66860930Y-68876570D01*
X66875346Y-68892476D01*
X66888134Y-68909719D01*
X66899170Y-68928132D01*
X66908349Y-68947538D01*
X66915581Y-68967750D01*
X66920797Y-68988574D01*
X66923947Y-69009809D01*
X66925000Y-69031250D01*
X66925000Y-69468750D01*
X66923947Y-69490191D01*
X66920797Y-69511426D01*
X66915581Y-69532250D01*
X66908349Y-69552462D01*
X66899170Y-69571868D01*
X66888134Y-69590281D01*
X66875346Y-69607524D01*
X66860930Y-69623430D01*
X66845024Y-69637846D01*
X66827781Y-69650634D01*
X66809368Y-69661670D01*
X66789962Y-69670849D01*
X66769750Y-69678081D01*
X66748926Y-69683297D01*
X66727691Y-69686447D01*
X66706250Y-69687500D01*
X66193750Y-69687500D01*
X66172309Y-69686447D01*
X66151074Y-69683297D01*
X66130250Y-69678081D01*
X66110038Y-69670849D01*
X66090632Y-69661670D01*
X66072219Y-69650634D01*
X66054976Y-69637846D01*
X66039070Y-69623430D01*
X66024654Y-69607524D01*
X66011866Y-69590281D01*
X66000830Y-69571868D01*
X65991651Y-69552462D01*
X65984419Y-69532250D01*
X65979203Y-69511426D01*
X65976053Y-69490191D01*
X65975000Y-69468750D01*
X65975000Y-69031250D01*
X65976053Y-69009809D01*
X65979203Y-68988574D01*
X65984419Y-68967750D01*
X65991651Y-68947538D01*
X66000830Y-68928132D01*
X66011866Y-68909719D01*
X66024654Y-68892476D01*
X66039070Y-68876570D01*
X66054976Y-68862154D01*
X66072219Y-68849366D01*
X66090632Y-68838330D01*
X66110038Y-68829151D01*
X66130250Y-68821919D01*
X66151074Y-68816703D01*
X66172309Y-68813553D01*
X66193750Y-68812500D01*
X66706250Y-68812500D01*
X66727691Y-68813553D01*
X66727691Y-68813553D01*
G37*
D11*
X66450000Y-69250000D03*
D10*
G36*
X75149504Y-61926204D02*
G01*
X75173773Y-61929804D01*
X75197571Y-61935765D01*
X75220671Y-61944030D01*
X75242849Y-61954520D01*
X75263893Y-61967133D01*
X75283598Y-61981747D01*
X75301777Y-61998223D01*
X75318253Y-62016402D01*
X75332867Y-62036107D01*
X75345480Y-62057151D01*
X75355970Y-62079329D01*
X75364235Y-62102429D01*
X75370196Y-62126227D01*
X75373796Y-62150496D01*
X75375000Y-62175000D01*
X75375000Y-62925000D01*
X75373796Y-62949504D01*
X75370196Y-62973773D01*
X75364235Y-62997571D01*
X75355970Y-63020671D01*
X75345480Y-63042849D01*
X75332867Y-63063893D01*
X75318253Y-63083598D01*
X75301777Y-63101777D01*
X75283598Y-63118253D01*
X75263893Y-63132867D01*
X75242849Y-63145480D01*
X75220671Y-63155970D01*
X75197571Y-63164235D01*
X75173773Y-63170196D01*
X75149504Y-63173796D01*
X75125000Y-63175000D01*
X73875000Y-63175000D01*
X73850496Y-63173796D01*
X73826227Y-63170196D01*
X73802429Y-63164235D01*
X73779329Y-63155970D01*
X73757151Y-63145480D01*
X73736107Y-63132867D01*
X73716402Y-63118253D01*
X73698223Y-63101777D01*
X73681747Y-63083598D01*
X73667133Y-63063893D01*
X73654520Y-63042849D01*
X73644030Y-63020671D01*
X73635765Y-62997571D01*
X73629804Y-62973773D01*
X73626204Y-62949504D01*
X73625000Y-62925000D01*
X73625000Y-62175000D01*
X73626204Y-62150496D01*
X73629804Y-62126227D01*
X73635765Y-62102429D01*
X73644030Y-62079329D01*
X73654520Y-62057151D01*
X73667133Y-62036107D01*
X73681747Y-62016402D01*
X73698223Y-61998223D01*
X73716402Y-61981747D01*
X73736107Y-61967133D01*
X73757151Y-61954520D01*
X73779329Y-61944030D01*
X73802429Y-61935765D01*
X73826227Y-61929804D01*
X73850496Y-61926204D01*
X73875000Y-61925000D01*
X75125000Y-61925000D01*
X75149504Y-61926204D01*
X75149504Y-61926204D01*
G37*
D24*
X74500000Y-62550000D03*
D10*
G36*
X75149504Y-59126204D02*
G01*
X75173773Y-59129804D01*
X75197571Y-59135765D01*
X75220671Y-59144030D01*
X75242849Y-59154520D01*
X75263893Y-59167133D01*
X75283598Y-59181747D01*
X75301777Y-59198223D01*
X75318253Y-59216402D01*
X75332867Y-59236107D01*
X75345480Y-59257151D01*
X75355970Y-59279329D01*
X75364235Y-59302429D01*
X75370196Y-59326227D01*
X75373796Y-59350496D01*
X75375000Y-59375000D01*
X75375000Y-60125000D01*
X75373796Y-60149504D01*
X75370196Y-60173773D01*
X75364235Y-60197571D01*
X75355970Y-60220671D01*
X75345480Y-60242849D01*
X75332867Y-60263893D01*
X75318253Y-60283598D01*
X75301777Y-60301777D01*
X75283598Y-60318253D01*
X75263893Y-60332867D01*
X75242849Y-60345480D01*
X75220671Y-60355970D01*
X75197571Y-60364235D01*
X75173773Y-60370196D01*
X75149504Y-60373796D01*
X75125000Y-60375000D01*
X73875000Y-60375000D01*
X73850496Y-60373796D01*
X73826227Y-60370196D01*
X73802429Y-60364235D01*
X73779329Y-60355970D01*
X73757151Y-60345480D01*
X73736107Y-60332867D01*
X73716402Y-60318253D01*
X73698223Y-60301777D01*
X73681747Y-60283598D01*
X73667133Y-60263893D01*
X73654520Y-60242849D01*
X73644030Y-60220671D01*
X73635765Y-60197571D01*
X73629804Y-60173773D01*
X73626204Y-60149504D01*
X73625000Y-60125000D01*
X73625000Y-59375000D01*
X73626204Y-59350496D01*
X73629804Y-59326227D01*
X73635765Y-59302429D01*
X73644030Y-59279329D01*
X73654520Y-59257151D01*
X73667133Y-59236107D01*
X73681747Y-59216402D01*
X73698223Y-59198223D01*
X73716402Y-59181747D01*
X73736107Y-59167133D01*
X73757151Y-59154520D01*
X73779329Y-59144030D01*
X73802429Y-59135765D01*
X73826227Y-59129804D01*
X73850496Y-59126204D01*
X73875000Y-59125000D01*
X75125000Y-59125000D01*
X75149504Y-59126204D01*
X75149504Y-59126204D01*
G37*
D24*
X74500000Y-59750000D03*
D10*
G36*
X64177691Y-59426053D02*
G01*
X64198926Y-59429203D01*
X64219750Y-59434419D01*
X64239962Y-59441651D01*
X64259368Y-59450830D01*
X64277781Y-59461866D01*
X64295024Y-59474654D01*
X64310930Y-59489070D01*
X64325346Y-59504976D01*
X64338134Y-59522219D01*
X64349170Y-59540632D01*
X64358349Y-59560038D01*
X64365581Y-59580250D01*
X64370797Y-59601074D01*
X64373947Y-59622309D01*
X64375000Y-59643750D01*
X64375000Y-60081250D01*
X64373947Y-60102691D01*
X64370797Y-60123926D01*
X64365581Y-60144750D01*
X64358349Y-60164962D01*
X64349170Y-60184368D01*
X64338134Y-60202781D01*
X64325346Y-60220024D01*
X64310930Y-60235930D01*
X64295024Y-60250346D01*
X64277781Y-60263134D01*
X64259368Y-60274170D01*
X64239962Y-60283349D01*
X64219750Y-60290581D01*
X64198926Y-60295797D01*
X64177691Y-60298947D01*
X64156250Y-60300000D01*
X63643750Y-60300000D01*
X63622309Y-60298947D01*
X63601074Y-60295797D01*
X63580250Y-60290581D01*
X63560038Y-60283349D01*
X63540632Y-60274170D01*
X63522219Y-60263134D01*
X63504976Y-60250346D01*
X63489070Y-60235930D01*
X63474654Y-60220024D01*
X63461866Y-60202781D01*
X63450830Y-60184368D01*
X63441651Y-60164962D01*
X63434419Y-60144750D01*
X63429203Y-60123926D01*
X63426053Y-60102691D01*
X63425000Y-60081250D01*
X63425000Y-59643750D01*
X63426053Y-59622309D01*
X63429203Y-59601074D01*
X63434419Y-59580250D01*
X63441651Y-59560038D01*
X63450830Y-59540632D01*
X63461866Y-59522219D01*
X63474654Y-59504976D01*
X63489070Y-59489070D01*
X63504976Y-59474654D01*
X63522219Y-59461866D01*
X63540632Y-59450830D01*
X63560038Y-59441651D01*
X63580250Y-59434419D01*
X63601074Y-59429203D01*
X63622309Y-59426053D01*
X63643750Y-59425000D01*
X64156250Y-59425000D01*
X64177691Y-59426053D01*
X64177691Y-59426053D01*
G37*
D11*
X63900000Y-59862500D03*
D10*
G36*
X64177691Y-61001053D02*
G01*
X64198926Y-61004203D01*
X64219750Y-61009419D01*
X64239962Y-61016651D01*
X64259368Y-61025830D01*
X64277781Y-61036866D01*
X64295024Y-61049654D01*
X64310930Y-61064070D01*
X64325346Y-61079976D01*
X64338134Y-61097219D01*
X64349170Y-61115632D01*
X64358349Y-61135038D01*
X64365581Y-61155250D01*
X64370797Y-61176074D01*
X64373947Y-61197309D01*
X64375000Y-61218750D01*
X64375000Y-61656250D01*
X64373947Y-61677691D01*
X64370797Y-61698926D01*
X64365581Y-61719750D01*
X64358349Y-61739962D01*
X64349170Y-61759368D01*
X64338134Y-61777781D01*
X64325346Y-61795024D01*
X64310930Y-61810930D01*
X64295024Y-61825346D01*
X64277781Y-61838134D01*
X64259368Y-61849170D01*
X64239962Y-61858349D01*
X64219750Y-61865581D01*
X64198926Y-61870797D01*
X64177691Y-61873947D01*
X64156250Y-61875000D01*
X63643750Y-61875000D01*
X63622309Y-61873947D01*
X63601074Y-61870797D01*
X63580250Y-61865581D01*
X63560038Y-61858349D01*
X63540632Y-61849170D01*
X63522219Y-61838134D01*
X63504976Y-61825346D01*
X63489070Y-61810930D01*
X63474654Y-61795024D01*
X63461866Y-61777781D01*
X63450830Y-61759368D01*
X63441651Y-61739962D01*
X63434419Y-61719750D01*
X63429203Y-61698926D01*
X63426053Y-61677691D01*
X63425000Y-61656250D01*
X63425000Y-61218750D01*
X63426053Y-61197309D01*
X63429203Y-61176074D01*
X63434419Y-61155250D01*
X63441651Y-61135038D01*
X63450830Y-61115632D01*
X63461866Y-61097219D01*
X63474654Y-61079976D01*
X63489070Y-61064070D01*
X63504976Y-61049654D01*
X63522219Y-61036866D01*
X63540632Y-61025830D01*
X63560038Y-61016651D01*
X63580250Y-61009419D01*
X63601074Y-61004203D01*
X63622309Y-61001053D01*
X63643750Y-61000000D01*
X64156250Y-61000000D01*
X64177691Y-61001053D01*
X64177691Y-61001053D01*
G37*
D11*
X63900000Y-61437500D03*
D22*
X74700000Y-90400000D03*
D23*
X79700000Y-90400000D03*
D22*
X94200000Y-76900000D03*
D23*
X89200000Y-76900000D03*
D22*
X74700000Y-76900000D03*
D23*
X79700000Y-76900000D03*
D22*
X65800000Y-77400000D03*
D23*
X60800000Y-77400000D03*
D22*
X65400000Y-99900000D03*
D23*
X60400000Y-99900000D03*
D25*
X53300000Y-82500000D03*
X54600000Y-82500000D03*
X56000000Y-82500000D03*
X58700000Y-82500000D03*
X57400000Y-82500000D03*
X63900000Y-62600000D03*
X74000000Y-115500000D03*
X70000000Y-119000000D03*
X74000000Y-112000000D03*
X66000000Y-112000000D03*
X74000000Y-119000000D03*
X70000000Y-112000000D03*
X70000000Y-115500000D03*
X66000000Y-115500000D03*
X66000000Y-119000000D03*
X64850000Y-72000000D03*
X94350000Y-67500000D03*
X94350000Y-68600000D03*
X74500000Y-63900000D03*
X72200000Y-62450000D03*
X69700000Y-71950000D03*
X65500000Y-67300000D03*
X66450000Y-72000000D03*
X71400000Y-71950000D03*
X95500000Y-68600000D03*
X95500000Y-67500000D03*
X104900000Y-100300000D03*
X104000000Y-100300000D03*
X104000000Y-99400000D03*
X104900000Y-99400000D03*
X104900000Y-98500000D03*
X104000000Y-98500000D03*
X103100000Y-99400000D03*
X103100000Y-100300000D03*
X61000000Y-112000000D03*
X57000000Y-112000000D03*
X53000000Y-112000000D03*
X61000000Y-115500000D03*
X57000000Y-115500000D03*
X53000000Y-115500000D03*
X61000000Y-119000000D03*
X57000000Y-119000000D03*
X53000000Y-119000000D03*
X59000000Y-94500000D03*
X57500000Y-94500000D03*
X56000000Y-94500000D03*
X54500000Y-94500000D03*
X53000000Y-94500000D03*
X50450000Y-59950000D03*
X50450000Y-50950000D03*
X50450000Y-58450000D03*
X50450000Y-53950000D03*
X50450000Y-56950000D03*
X50450000Y-52450000D03*
X50450000Y-55450000D03*
X59500000Y-60000000D03*
X61000000Y-60000000D03*
X58000000Y-60000000D03*
X56500000Y-60000000D03*
X55000000Y-60000000D03*
X52000000Y-60000000D03*
X53500000Y-60000000D03*
X56500000Y-55500000D03*
X52000000Y-55500000D03*
X55000000Y-55500000D03*
X53500000Y-55500000D03*
X55000000Y-57000000D03*
X52000000Y-58500000D03*
X52000000Y-57000000D03*
X53500000Y-58500000D03*
X56500000Y-57000000D03*
X56500000Y-58500000D03*
X53500000Y-57000000D03*
X55000000Y-58500000D03*
X58000000Y-55500000D03*
X61000000Y-55500000D03*
X59500000Y-55500000D03*
X61000000Y-57000000D03*
X58000000Y-58500000D03*
X58000000Y-57000000D03*
X59500000Y-58500000D03*
X59500000Y-57000000D03*
X61000000Y-58500000D03*
X56500000Y-52500000D03*
X52000000Y-52500000D03*
X55000000Y-52500000D03*
X53500000Y-52500000D03*
X56500000Y-54000000D03*
X52000000Y-54000000D03*
X55000000Y-54000000D03*
X53500000Y-54000000D03*
X56500000Y-51000000D03*
X55000000Y-51000000D03*
X53500000Y-51000000D03*
X52000000Y-51000000D03*
X61100000Y-53900000D03*
X59100000Y-53900000D03*
X60100000Y-53900000D03*
X58100000Y-53900000D03*
X61100000Y-52900000D03*
X59100000Y-52900000D03*
X60100000Y-52900000D03*
X58100000Y-52900000D03*
X61100000Y-51900000D03*
X59100000Y-51900000D03*
X60100000Y-51900000D03*
X58100000Y-51900000D03*
X58100000Y-50900000D03*
X59100000Y-50900000D03*
X60100000Y-50900000D03*
X61100000Y-50900000D03*
X72950000Y-73700000D03*
X72950000Y-71799998D03*
X58900000Y-72900000D03*
X87200000Y-115600000D03*
X83200000Y-119100000D03*
X87200000Y-112100000D03*
X79200000Y-112100000D03*
X87200000Y-119100000D03*
X83200000Y-112100000D03*
X83200000Y-115600000D03*
X79200000Y-115600000D03*
X79200000Y-119100000D03*
X82100000Y-68000000D03*
X87200000Y-113200000D03*
X87200000Y-118000000D03*
X89200000Y-97400000D03*
X87200000Y-116800000D03*
X87200000Y-114400000D03*
X77250000Y-40750000D03*
X77250000Y-46750000D03*
X77250000Y-45250000D03*
X77250000Y-48250000D03*
X77250000Y-42250000D03*
X77250000Y-43750000D03*
X75750000Y-45250000D03*
X74250000Y-45250000D03*
X75750000Y-46750000D03*
X74250000Y-48250000D03*
X75750000Y-48250000D03*
X74250000Y-46750000D03*
X68250000Y-40750000D03*
X71250000Y-40750000D03*
X69750000Y-40750000D03*
X71250000Y-42250000D03*
X69750000Y-43750000D03*
X68250000Y-42250000D03*
X69750000Y-42250000D03*
X68250000Y-43750000D03*
X71250000Y-43750000D03*
X72750000Y-40750000D03*
X75750000Y-40750000D03*
X74250000Y-40750000D03*
X75750000Y-42250000D03*
X74250000Y-43750000D03*
X72750000Y-42250000D03*
X74250000Y-42250000D03*
X72750000Y-43750000D03*
X75750000Y-43750000D03*
X63750000Y-40750000D03*
X66750000Y-40750000D03*
X65250000Y-40750000D03*
X66750000Y-42250000D03*
X65250000Y-43750000D03*
X63750000Y-42250000D03*
X65250000Y-42250000D03*
X63750000Y-43750000D03*
X66750000Y-43750000D03*
X62250000Y-40750000D03*
X59250000Y-40750000D03*
X60750000Y-40750000D03*
X59250000Y-42250000D03*
X60750000Y-42250000D03*
X59250000Y-43750000D03*
X62250000Y-43750000D03*
X60750000Y-43750000D03*
X62250000Y-42250000D03*
X62250000Y-45250000D03*
X59250000Y-45250000D03*
X60750000Y-45250000D03*
X71633332Y-47700000D03*
X72800000Y-47700000D03*
X71633332Y-45300000D03*
X71633332Y-46500000D03*
X69300000Y-46500000D03*
X72800000Y-46500000D03*
X70466666Y-45300000D03*
X69300000Y-47700000D03*
X69300000Y-45300000D03*
X72800000Y-45300000D03*
X69300000Y-48900000D03*
X70466666Y-48900000D03*
X70466666Y-47700000D03*
X70466666Y-46500000D03*
X71633332Y-48900000D03*
X72800000Y-48900000D03*
X65933332Y-48900000D03*
X64766666Y-48900000D03*
X63600000Y-48900000D03*
X67100000Y-48900000D03*
X65933332Y-47700000D03*
X64766666Y-47700000D03*
X63600000Y-47700000D03*
X67100000Y-47700000D03*
X65933332Y-46500000D03*
X64766666Y-46500000D03*
X63600000Y-46500000D03*
X67100000Y-46500000D03*
X67100000Y-45300000D03*
X65933332Y-45300000D03*
X64766666Y-45300000D03*
X63600000Y-45300000D03*
X59250000Y-46750000D03*
X60750000Y-46750000D03*
X62250000Y-46750000D03*
X64300000Y-56800000D03*
D26*
X68650000Y-52700000D03*
D25*
X64300000Y-54550000D03*
X57700000Y-47550004D03*
X100000000Y-111000000D03*
X101500000Y-111000000D03*
X103000000Y-111000000D03*
X104500000Y-111000000D03*
X104500000Y-109500000D03*
X104500000Y-108000000D03*
X104500000Y-106500000D03*
X100000000Y-109500000D03*
X101500000Y-109500000D03*
X103000000Y-109500000D03*
X103000000Y-108000000D03*
X101500000Y-108000000D03*
X100000000Y-108000000D03*
X100000000Y-106500000D03*
X101500000Y-106500000D03*
X103000000Y-106500000D03*
D27*
X67225000Y-59725000D02*
X67225000Y-60075000D01*
X67225000Y-60075000D02*
X67200000Y-60100000D01*
D28*
X67225000Y-65275000D02*
X67225000Y-63675000D01*
X67225000Y-63675000D02*
X67150000Y-63600000D01*
X67200000Y-60100000D02*
X67200000Y-61150000D01*
D29*
X72950000Y-67650000D02*
X72950000Y-66300000D01*
D28*
X60800000Y-76900000D02*
X60700000Y-76900000D01*
D29*
X72950000Y-66300000D02*
X72950000Y-65350000D01*
X72950000Y-67650000D02*
X72950000Y-71799998D01*
X59700000Y-73700000D02*
X58900000Y-72900000D01*
X72950000Y-73700000D02*
X59700000Y-73700000D01*
X70500000Y-65275000D02*
X72875000Y-65275000D01*
X96000000Y-97400000D02*
X89200000Y-97400000D01*
X89200000Y-97400000D02*
X89200000Y-97400000D01*
D28*
X65400000Y-59725000D02*
X65925000Y-59725000D01*
X63600000Y-64400000D02*
X65000000Y-63000000D01*
X65000000Y-63000000D02*
X65000000Y-60125000D01*
X59450000Y-64400000D02*
X63600000Y-64400000D01*
X79900000Y-68000000D02*
X73450000Y-74450000D01*
X82100000Y-68000000D02*
X79900000Y-68000000D01*
X73450000Y-74450000D02*
X58950000Y-74450000D01*
X58950000Y-74450000D02*
X56800000Y-72300000D01*
X56800000Y-72300000D02*
X56800000Y-67050000D01*
X65000000Y-60125000D02*
X65400000Y-59725000D01*
X56800000Y-67050000D02*
X59450000Y-64400000D01*
X78500000Y-63500000D02*
X78500000Y-59700000D01*
X82100000Y-68000000D02*
X82100000Y-67100000D01*
X82100000Y-67100000D02*
X78500000Y-63500000D01*
D30*
X68300000Y-58600000D02*
X68300000Y-57600000D01*
X68525000Y-59725000D02*
X68525000Y-58825000D01*
X68525000Y-58825000D02*
X68300000Y-58600000D01*
D29*
X67650000Y-56800000D02*
X64300000Y-56800000D01*
D28*
X68262500Y-57650000D02*
X68262500Y-57412500D01*
D29*
X68262500Y-57412500D02*
X67650000Y-56800000D01*
D30*
X70000000Y-58650000D02*
X70000000Y-57850000D01*
X69825000Y-59725000D02*
X69825000Y-58825000D01*
X69825000Y-58825000D02*
X70000000Y-58650000D01*
D27*
X63900000Y-58850000D02*
X63900000Y-59900000D01*
X64300000Y-58450000D02*
X63900000Y-58850000D01*
X66200000Y-58450000D02*
X64300000Y-58450000D01*
X66575000Y-59725000D02*
X66575000Y-58825000D01*
X66575000Y-58825000D02*
X66200000Y-58450000D01*
D28*
X74025000Y-59725000D02*
X74050000Y-59750000D01*
X76350000Y-59750000D02*
X74500000Y-59750000D01*
X74500000Y-59750000D02*
X72200000Y-59750000D01*
X72200000Y-59725000D02*
X70525000Y-59725000D01*
X68050000Y-72050000D02*
X68050000Y-70850000D01*
X68800000Y-72800000D02*
X68050000Y-72050000D01*
X73300000Y-72800000D02*
X68800000Y-72800000D01*
X76350000Y-59750000D02*
X76350000Y-69750000D01*
X76350000Y-69750000D02*
X73300000Y-72800000D01*
X68525000Y-65275000D02*
X68525000Y-66725000D01*
X68525000Y-66725000D02*
X68050000Y-67200000D01*
X68050000Y-67200000D02*
X68050000Y-69300000D01*
X66450000Y-69250000D02*
X68000000Y-69250000D01*
X69175000Y-65275000D02*
X69175000Y-66625000D01*
X69175000Y-66625000D02*
X69700000Y-67150000D01*
X69700000Y-67150000D02*
X69700000Y-69250000D01*
X66575000Y-66100000D02*
X66225000Y-66450000D01*
X66575000Y-65275000D02*
X66575000Y-66100000D01*
X66225000Y-66450000D02*
X60350000Y-66450000D01*
X60350000Y-66450000D02*
X60000000Y-66800000D01*
X60000000Y-66800000D02*
X60000000Y-67550000D01*
X60012500Y-68125000D02*
X60000000Y-68137500D01*
X60012500Y-67550000D02*
X60012500Y-68125000D01*
X60000000Y-68137500D02*
X60000000Y-69200000D01*
X61650000Y-69175000D02*
X61650000Y-67550000D01*
X58375000Y-70750000D02*
X58912500Y-70750000D01*
X58912500Y-70750000D02*
X63250000Y-70750000D01*
X58350000Y-66850000D02*
X58350000Y-70800000D01*
X65925000Y-65275000D02*
X59925000Y-65275000D01*
X59925000Y-65275000D02*
X58350000Y-66850000D01*
D31*
X68650000Y-52700000D02*
X69357106Y-52700000D01*
X69357106Y-52700000D02*
X70100000Y-52700000D01*
D27*
X63400000Y-55450000D02*
X64300000Y-54550000D01*
X63400000Y-57100000D02*
X63400000Y-55450000D01*
X64100000Y-57800000D02*
X63400000Y-57100000D01*
X66725000Y-57800000D02*
X64100000Y-57800000D01*
X67875000Y-59725000D02*
X67875000Y-58950000D01*
X67875000Y-58950000D02*
X66725000Y-57800000D01*
D29*
X100020000Y-102300000D02*
X100020000Y-97320000D01*
X102700000Y-97300000D02*
X100200000Y-97300000D01*
D27*
X69175000Y-59725000D02*
X69200000Y-59700000D01*
X69200000Y-59700000D02*
X69200000Y-56300000D01*
D29*
X57700004Y-47550004D02*
X57700000Y-47550004D01*
X59050000Y-48900000D02*
X57700004Y-47550004D01*
X69200000Y-56300000D02*
X61800000Y-48900000D01*
X61800000Y-48900000D02*
X59050000Y-48900000D01*
D28*
X69850000Y-66150000D02*
X69850000Y-65250000D01*
X71375000Y-67650000D02*
X71350000Y-67650000D01*
X71350000Y-67650000D02*
X69850000Y-66150000D01*
X71375000Y-67650000D02*
X71375000Y-69225000D01*
X64850000Y-68450000D02*
X64850000Y-69250000D01*
X65100000Y-68200000D02*
X64850000Y-68450000D01*
X65962500Y-68200000D02*
X65100000Y-68200000D01*
X67875000Y-65275000D02*
X67875000Y-66287500D01*
X67875000Y-66287500D02*
X65962500Y-68200000D01*
D31*
X70100000Y-54600000D02*
X73350000Y-54600000D01*
D32*
G36*
X62172951Y-50652557D02*
G01*
X62161202Y-63173022D01*
X58600001Y-63173000D01*
X58575224Y-63175440D01*
X58551400Y-63182667D01*
X58529443Y-63194403D01*
X58511568Y-63208847D01*
X55522324Y-66108847D01*
X55506241Y-66127851D01*
X55494173Y-66149627D01*
X55486586Y-66173339D01*
X55483756Y-66199814D01*
X55473000Y-73549814D01*
X55475404Y-73574594D01*
X55482596Y-73598429D01*
X55494300Y-73620403D01*
X55510066Y-73639671D01*
X55529288Y-73655493D01*
X55551228Y-73667261D01*
X55575041Y-73674523D01*
X55600000Y-73677000D01*
X57066843Y-73677000D01*
X58367658Y-74977816D01*
X58392236Y-75007764D01*
X58422184Y-75032342D01*
X58422187Y-75032345D01*
X58451559Y-75056450D01*
X58511767Y-75105862D01*
X58648140Y-75178754D01*
X58796112Y-75223641D01*
X58810490Y-75225057D01*
X58911439Y-75235000D01*
X58911446Y-75235000D01*
X58949999Y-75238797D01*
X58988552Y-75235000D01*
X62074626Y-75235000D01*
X62074949Y-75569310D01*
X62000000Y-75561928D01*
X61085750Y-75565000D01*
X60927000Y-75723750D01*
X60927000Y-77273000D01*
X60947000Y-77273000D01*
X60947000Y-77527000D01*
X60927000Y-77527000D01*
X60927000Y-79076250D01*
X61085750Y-79235000D01*
X62000000Y-79238072D01*
X62078482Y-79230342D01*
X62085377Y-86373000D01*
X50160000Y-86373000D01*
X50160000Y-78600000D01*
X58961928Y-78600000D01*
X58974188Y-78724482D01*
X59010498Y-78844180D01*
X59069463Y-78954494D01*
X59148815Y-79051185D01*
X59245506Y-79130537D01*
X59355820Y-79189502D01*
X59475518Y-79225812D01*
X59600000Y-79238072D01*
X60514250Y-79235000D01*
X60673000Y-79076250D01*
X60673000Y-77527000D01*
X59123750Y-77527000D01*
X58965000Y-77685750D01*
X58961928Y-78600000D01*
X50160000Y-78600000D01*
X50160000Y-76200000D01*
X58961928Y-76200000D01*
X58965000Y-77114250D01*
X59123750Y-77273000D01*
X60673000Y-77273000D01*
X60673000Y-75723750D01*
X60514250Y-75565000D01*
X59600000Y-75561928D01*
X59475518Y-75574188D01*
X59355820Y-75610498D01*
X59245506Y-75669463D01*
X59148815Y-75748815D01*
X59069463Y-75845506D01*
X59010498Y-75955820D01*
X58974188Y-76075518D01*
X58961928Y-76200000D01*
X50160000Y-76200000D01*
X50160000Y-50127000D01*
X61647394Y-50127000D01*
X62172951Y-50652557D01*
X62172951Y-50652557D01*
G37*
X62172951Y-50652557D02*
X62161202Y-63173022D01*
X58600001Y-63173000D01*
X58575224Y-63175440D01*
X58551400Y-63182667D01*
X58529443Y-63194403D01*
X58511568Y-63208847D01*
X55522324Y-66108847D01*
X55506241Y-66127851D01*
X55494173Y-66149627D01*
X55486586Y-66173339D01*
X55483756Y-66199814D01*
X55473000Y-73549814D01*
X55475404Y-73574594D01*
X55482596Y-73598429D01*
X55494300Y-73620403D01*
X55510066Y-73639671D01*
X55529288Y-73655493D01*
X55551228Y-73667261D01*
X55575041Y-73674523D01*
X55600000Y-73677000D01*
X57066843Y-73677000D01*
X58367658Y-74977816D01*
X58392236Y-75007764D01*
X58422184Y-75032342D01*
X58422187Y-75032345D01*
X58451559Y-75056450D01*
X58511767Y-75105862D01*
X58648140Y-75178754D01*
X58796112Y-75223641D01*
X58810490Y-75225057D01*
X58911439Y-75235000D01*
X58911446Y-75235000D01*
X58949999Y-75238797D01*
X58988552Y-75235000D01*
X62074626Y-75235000D01*
X62074949Y-75569310D01*
X62000000Y-75561928D01*
X61085750Y-75565000D01*
X60927000Y-75723750D01*
X60927000Y-77273000D01*
X60947000Y-77273000D01*
X60947000Y-77527000D01*
X60927000Y-77527000D01*
X60927000Y-79076250D01*
X61085750Y-79235000D01*
X62000000Y-79238072D01*
X62078482Y-79230342D01*
X62085377Y-86373000D01*
X50160000Y-86373000D01*
X50160000Y-78600000D01*
X58961928Y-78600000D01*
X58974188Y-78724482D01*
X59010498Y-78844180D01*
X59069463Y-78954494D01*
X59148815Y-79051185D01*
X59245506Y-79130537D01*
X59355820Y-79189502D01*
X59475518Y-79225812D01*
X59600000Y-79238072D01*
X60514250Y-79235000D01*
X60673000Y-79076250D01*
X60673000Y-77527000D01*
X59123750Y-77527000D01*
X58965000Y-77685750D01*
X58961928Y-78600000D01*
X50160000Y-78600000D01*
X50160000Y-76200000D01*
X58961928Y-76200000D01*
X58965000Y-77114250D01*
X59123750Y-77273000D01*
X60673000Y-77273000D01*
X60673000Y-75723750D01*
X60514250Y-75565000D01*
X59600000Y-75561928D01*
X59475518Y-75574188D01*
X59355820Y-75610498D01*
X59245506Y-75669463D01*
X59148815Y-75748815D01*
X59069463Y-75845506D01*
X59010498Y-75955820D01*
X58974188Y-76075518D01*
X58961928Y-76200000D01*
X50160000Y-76200000D01*
X50160000Y-50127000D01*
X61647394Y-50127000D01*
X62172951Y-50652557D01*
G36*
X90073000Y-49473000D02*
G01*
X63624578Y-49473000D01*
X63027000Y-48875422D01*
X63027000Y-48000000D01*
X63024560Y-47975224D01*
X63017333Y-47951399D01*
X63005597Y-47929443D01*
X62989803Y-47910197D01*
X62970557Y-47894403D01*
X62948601Y-47882667D01*
X62924776Y-47875440D01*
X62900000Y-47873000D01*
X59274579Y-47873000D01*
X58706534Y-47304956D01*
X58695226Y-47248106D01*
X58627000Y-47083395D01*
X58627000Y-39660000D01*
X90073000Y-39660000D01*
X90073000Y-49473000D01*
X90073000Y-49473000D01*
G37*
X90073000Y-49473000D02*
X63624578Y-49473000D01*
X63027000Y-48875422D01*
X63027000Y-48000000D01*
X63024560Y-47975224D01*
X63017333Y-47951399D01*
X63005597Y-47929443D01*
X62989803Y-47910197D01*
X62970557Y-47894403D01*
X62948601Y-47882667D01*
X62924776Y-47875440D01*
X62900000Y-47873000D01*
X59274579Y-47873000D01*
X58706534Y-47304956D01*
X58695226Y-47248106D01*
X58627000Y-47083395D01*
X58627000Y-39660000D01*
X90073000Y-39660000D01*
X90073000Y-49473000D01*
G36*
X102648126Y-39726714D02*
G01*
X103271572Y-39914943D01*
X103846579Y-40220681D01*
X104351247Y-40632279D01*
X104766362Y-41134067D01*
X105076105Y-41706924D01*
X105268682Y-42329039D01*
X105340000Y-43007584D01*
X105340001Y-104265000D01*
X97200000Y-104265000D01*
X97076118Y-104277201D01*
X96956996Y-104313336D01*
X96847213Y-104372017D01*
X96750987Y-104450987D01*
X94550987Y-106650987D01*
X94472017Y-106747213D01*
X94413336Y-106856996D01*
X94377201Y-106976118D01*
X94365000Y-107100000D01*
X94365000Y-119000000D01*
X94377201Y-119123882D01*
X94413336Y-119243004D01*
X94472017Y-119352787D01*
X94550987Y-119449013D01*
X94647213Y-119527983D01*
X94756996Y-119586664D01*
X94876118Y-119622799D01*
X95000000Y-119635000D01*
X97400000Y-119635000D01*
X97523882Y-119622799D01*
X97643004Y-119586664D01*
X97752787Y-119527983D01*
X97849013Y-119449013D01*
X97927983Y-119352787D01*
X97986664Y-119243004D01*
X98022799Y-119123882D01*
X98035000Y-119000000D01*
X98035000Y-113035000D01*
X105340001Y-113035000D01*
X105340001Y-116967711D01*
X105273286Y-117648126D01*
X105085057Y-118271570D01*
X104779323Y-118846573D01*
X104367721Y-119351248D01*
X103865933Y-119766362D01*
X103293077Y-120076104D01*
X102670961Y-120268682D01*
X101992417Y-120340000D01*
X91835000Y-120340000D01*
X91835000Y-110900000D01*
X91822799Y-110776118D01*
X91786664Y-110656996D01*
X91727983Y-110547213D01*
X91649013Y-110450987D01*
X91552787Y-110372017D01*
X91443004Y-110313336D01*
X91323882Y-110277201D01*
X91200000Y-110265000D01*
X86600000Y-110265000D01*
X86476118Y-110277201D01*
X86356996Y-110313336D01*
X86247213Y-110372017D01*
X86150987Y-110450987D01*
X86072017Y-110547213D01*
X86013336Y-110656996D01*
X85977201Y-110776118D01*
X85965000Y-110900000D01*
X85965000Y-120340000D01*
X63627000Y-120340000D01*
X63627000Y-118998061D01*
X78165000Y-118998061D01*
X78165000Y-119201939D01*
X78204774Y-119401898D01*
X78282795Y-119590256D01*
X78396063Y-119759774D01*
X78540226Y-119903937D01*
X78709744Y-120017205D01*
X78898102Y-120095226D01*
X79098061Y-120135000D01*
X79301939Y-120135000D01*
X79501898Y-120095226D01*
X79690256Y-120017205D01*
X79859774Y-119903937D01*
X80003937Y-119759774D01*
X80117205Y-119590256D01*
X80195226Y-119401898D01*
X80235000Y-119201939D01*
X80235000Y-118998061D01*
X82165000Y-118998061D01*
X82165000Y-119201939D01*
X82204774Y-119401898D01*
X82282795Y-119590256D01*
X82396063Y-119759774D01*
X82540226Y-119903937D01*
X82709744Y-120017205D01*
X82898102Y-120095226D01*
X83098061Y-120135000D01*
X83301939Y-120135000D01*
X83501898Y-120095226D01*
X83690256Y-120017205D01*
X83859774Y-119903937D01*
X84003937Y-119759774D01*
X84117205Y-119590256D01*
X84195226Y-119401898D01*
X84235000Y-119201939D01*
X84235000Y-118998061D01*
X84195226Y-118798102D01*
X84117205Y-118609744D01*
X84003937Y-118440226D01*
X83859774Y-118296063D01*
X83690256Y-118182795D01*
X83501898Y-118104774D01*
X83301939Y-118065000D01*
X83098061Y-118065000D01*
X82898102Y-118104774D01*
X82709744Y-118182795D01*
X82540226Y-118296063D01*
X82396063Y-118440226D01*
X82282795Y-118609744D01*
X82204774Y-118798102D01*
X82165000Y-118998061D01*
X80235000Y-118998061D01*
X80195226Y-118798102D01*
X80117205Y-118609744D01*
X80003937Y-118440226D01*
X79859774Y-118296063D01*
X79690256Y-118182795D01*
X79501898Y-118104774D01*
X79301939Y-118065000D01*
X79098061Y-118065000D01*
X78898102Y-118104774D01*
X78709744Y-118182795D01*
X78540226Y-118296063D01*
X78396063Y-118440226D01*
X78282795Y-118609744D01*
X78204774Y-118798102D01*
X78165000Y-118998061D01*
X63627000Y-118998061D01*
X63627000Y-115498061D01*
X78165000Y-115498061D01*
X78165000Y-115701939D01*
X78204774Y-115901898D01*
X78282795Y-116090256D01*
X78396063Y-116259774D01*
X78540226Y-116403937D01*
X78709744Y-116517205D01*
X78898102Y-116595226D01*
X79098061Y-116635000D01*
X79301939Y-116635000D01*
X79501898Y-116595226D01*
X79690256Y-116517205D01*
X79859774Y-116403937D01*
X80003937Y-116259774D01*
X80117205Y-116090256D01*
X80195226Y-115901898D01*
X80235000Y-115701939D01*
X80235000Y-115498061D01*
X82165000Y-115498061D01*
X82165000Y-115701939D01*
X82204774Y-115901898D01*
X82282795Y-116090256D01*
X82396063Y-116259774D01*
X82540226Y-116403937D01*
X82709744Y-116517205D01*
X82898102Y-116595226D01*
X83098061Y-116635000D01*
X83301939Y-116635000D01*
X83501898Y-116595226D01*
X83690256Y-116517205D01*
X83859774Y-116403937D01*
X84003937Y-116259774D01*
X84117205Y-116090256D01*
X84195226Y-115901898D01*
X84235000Y-115701939D01*
X84235000Y-115498061D01*
X84195226Y-115298102D01*
X84117205Y-115109744D01*
X84003937Y-114940226D01*
X83859774Y-114796063D01*
X83690256Y-114682795D01*
X83501898Y-114604774D01*
X83301939Y-114565000D01*
X83098061Y-114565000D01*
X82898102Y-114604774D01*
X82709744Y-114682795D01*
X82540226Y-114796063D01*
X82396063Y-114940226D01*
X82282795Y-115109744D01*
X82204774Y-115298102D01*
X82165000Y-115498061D01*
X80235000Y-115498061D01*
X80195226Y-115298102D01*
X80117205Y-115109744D01*
X80003937Y-114940226D01*
X79859774Y-114796063D01*
X79690256Y-114682795D01*
X79501898Y-114604774D01*
X79301939Y-114565000D01*
X79098061Y-114565000D01*
X78898102Y-114604774D01*
X78709744Y-114682795D01*
X78540226Y-114796063D01*
X78396063Y-114940226D01*
X78282795Y-115109744D01*
X78204774Y-115298102D01*
X78165000Y-115498061D01*
X63627000Y-115498061D01*
X63627000Y-111998061D01*
X78165000Y-111998061D01*
X78165000Y-112201939D01*
X78204774Y-112401898D01*
X78282795Y-112590256D01*
X78396063Y-112759774D01*
X78540226Y-112903937D01*
X78709744Y-113017205D01*
X78898102Y-113095226D01*
X79098061Y-113135000D01*
X79301939Y-113135000D01*
X79501898Y-113095226D01*
X79690256Y-113017205D01*
X79859774Y-112903937D01*
X80003937Y-112759774D01*
X80117205Y-112590256D01*
X80195226Y-112401898D01*
X80235000Y-112201939D01*
X80235000Y-111998061D01*
X82165000Y-111998061D01*
X82165000Y-112201939D01*
X82204774Y-112401898D01*
X82282795Y-112590256D01*
X82396063Y-112759774D01*
X82540226Y-112903937D01*
X82709744Y-113017205D01*
X82898102Y-113095226D01*
X83098061Y-113135000D01*
X83301939Y-113135000D01*
X83501898Y-113095226D01*
X83690256Y-113017205D01*
X83859774Y-112903937D01*
X84003937Y-112759774D01*
X84117205Y-112590256D01*
X84195226Y-112401898D01*
X84235000Y-112201939D01*
X84235000Y-111998061D01*
X84195226Y-111798102D01*
X84117205Y-111609744D01*
X84003937Y-111440226D01*
X83859774Y-111296063D01*
X83690256Y-111182795D01*
X83501898Y-111104774D01*
X83301939Y-111065000D01*
X83098061Y-111065000D01*
X82898102Y-111104774D01*
X82709744Y-111182795D01*
X82540226Y-111296063D01*
X82396063Y-111440226D01*
X82282795Y-111609744D01*
X82204774Y-111798102D01*
X82165000Y-111998061D01*
X80235000Y-111998061D01*
X80195226Y-111798102D01*
X80117205Y-111609744D01*
X80003937Y-111440226D01*
X79859774Y-111296063D01*
X79690256Y-111182795D01*
X79501898Y-111104774D01*
X79301939Y-111065000D01*
X79098061Y-111065000D01*
X78898102Y-111104774D01*
X78709744Y-111182795D01*
X78540226Y-111296063D01*
X78396063Y-111440226D01*
X78282795Y-111609744D01*
X78204774Y-111798102D01*
X78165000Y-111998061D01*
X63627000Y-111998061D01*
X63627000Y-105377980D01*
X73601626Y-105377980D01*
X73721514Y-105662836D01*
X74045210Y-105823699D01*
X74394069Y-105918322D01*
X74754684Y-105943067D01*
X75113198Y-105896985D01*
X75455833Y-105781846D01*
X75678486Y-105662836D01*
X75798374Y-105377980D01*
X74700000Y-104279605D01*
X73601626Y-105377980D01*
X63627000Y-105377980D01*
X63627000Y-104154684D01*
X72856933Y-104154684D01*
X72903015Y-104513198D01*
X73018154Y-104855833D01*
X73137164Y-105078486D01*
X73422020Y-105198374D01*
X74520395Y-104100000D01*
X74879605Y-104100000D01*
X75977980Y-105198374D01*
X76262836Y-105078486D01*
X76423699Y-104754790D01*
X76518322Y-104405931D01*
X76543067Y-104045316D01*
X76496985Y-103686802D01*
X76381846Y-103344167D01*
X76262836Y-103121514D01*
X75977980Y-103001626D01*
X74879605Y-104100000D01*
X74520395Y-104100000D01*
X73422020Y-103001626D01*
X73137164Y-103121514D01*
X72976301Y-103445210D01*
X72881678Y-103794069D01*
X72856933Y-104154684D01*
X63627000Y-104154684D01*
X63627000Y-102822020D01*
X73601626Y-102822020D01*
X74700000Y-103920395D01*
X75720394Y-102900000D01*
X77861928Y-102900000D01*
X77861928Y-105300000D01*
X77874188Y-105424482D01*
X77910498Y-105544180D01*
X77969463Y-105654494D01*
X78048815Y-105751185D01*
X78145506Y-105830537D01*
X78255820Y-105889502D01*
X78375518Y-105925812D01*
X78500000Y-105938072D01*
X80900000Y-105938072D01*
X81024482Y-105925812D01*
X81144180Y-105889502D01*
X81254494Y-105830537D01*
X81351185Y-105751185D01*
X81430537Y-105654494D01*
X81489502Y-105544180D01*
X81525812Y-105424482D01*
X81538072Y-105300000D01*
X81538072Y-102900000D01*
X87361928Y-102900000D01*
X87361928Y-105300000D01*
X87374188Y-105424482D01*
X87410498Y-105544180D01*
X87469463Y-105654494D01*
X87548815Y-105751185D01*
X87645506Y-105830537D01*
X87755820Y-105889502D01*
X87875518Y-105925812D01*
X88000000Y-105938072D01*
X90400000Y-105938072D01*
X90524482Y-105925812D01*
X90644180Y-105889502D01*
X90754494Y-105830537D01*
X90851185Y-105751185D01*
X90930537Y-105654494D01*
X90989502Y-105544180D01*
X91025812Y-105424482D01*
X91030391Y-105377980D01*
X93101626Y-105377980D01*
X93221514Y-105662836D01*
X93545210Y-105823699D01*
X93894069Y-105918322D01*
X94254684Y-105943067D01*
X94613198Y-105896985D01*
X94955833Y-105781846D01*
X95178486Y-105662836D01*
X95298374Y-105377980D01*
X94200000Y-104279605D01*
X93101626Y-105377980D01*
X91030391Y-105377980D01*
X91038072Y-105300000D01*
X91038072Y-104154684D01*
X92356933Y-104154684D01*
X92403015Y-104513198D01*
X92518154Y-104855833D01*
X92637164Y-105078486D01*
X92922020Y-105198374D01*
X94020395Y-104100000D01*
X94379605Y-104100000D01*
X95477980Y-105198374D01*
X95762836Y-105078486D01*
X95923699Y-104754790D01*
X96018322Y-104405931D01*
X96043067Y-104045316D01*
X95996985Y-103686802D01*
X95881846Y-103344167D01*
X95762836Y-103121514D01*
X95477980Y-103001626D01*
X94379605Y-104100000D01*
X94020395Y-104100000D01*
X92922020Y-103001626D01*
X92637164Y-103121514D01*
X92476301Y-103445210D01*
X92381678Y-103794069D01*
X92356933Y-104154684D01*
X91038072Y-104154684D01*
X91038072Y-102900000D01*
X91030392Y-102822020D01*
X93101626Y-102822020D01*
X94200000Y-103920395D01*
X95298374Y-102822020D01*
X95178486Y-102537164D01*
X94854790Y-102376301D01*
X94505931Y-102281678D01*
X94145316Y-102256933D01*
X93786802Y-102303015D01*
X93444167Y-102418154D01*
X93221514Y-102537164D01*
X93101626Y-102822020D01*
X91030392Y-102822020D01*
X91025812Y-102775518D01*
X90989502Y-102655820D01*
X90930537Y-102545506D01*
X90851185Y-102448815D01*
X90754494Y-102369463D01*
X90644180Y-102310498D01*
X90524482Y-102274188D01*
X90400000Y-102261928D01*
X88000000Y-102261928D01*
X87875518Y-102274188D01*
X87755820Y-102310498D01*
X87645506Y-102369463D01*
X87548815Y-102448815D01*
X87469463Y-102545506D01*
X87410498Y-102655820D01*
X87374188Y-102775518D01*
X87361928Y-102900000D01*
X81538072Y-102900000D01*
X81525812Y-102775518D01*
X81489502Y-102655820D01*
X81430537Y-102545506D01*
X81351185Y-102448815D01*
X81254494Y-102369463D01*
X81144180Y-102310498D01*
X81024482Y-102274188D01*
X80900000Y-102261928D01*
X78500000Y-102261928D01*
X78375518Y-102274188D01*
X78255820Y-102310498D01*
X78145506Y-102369463D01*
X78048815Y-102448815D01*
X77969463Y-102545506D01*
X77910498Y-102655820D01*
X77874188Y-102775518D01*
X77861928Y-102900000D01*
X75720394Y-102900000D01*
X75798374Y-102822020D01*
X75678486Y-102537164D01*
X75354790Y-102376301D01*
X75005931Y-102281678D01*
X74645316Y-102256933D01*
X74286802Y-102303015D01*
X73944167Y-102418154D01*
X73721514Y-102537164D01*
X73601626Y-102822020D01*
X63627000Y-102822020D01*
X63627000Y-101177980D01*
X64301626Y-101177980D01*
X64421514Y-101462836D01*
X64745210Y-101623699D01*
X65094069Y-101718322D01*
X65454684Y-101743067D01*
X65813198Y-101696985D01*
X66155833Y-101581846D01*
X66378486Y-101462836D01*
X66498374Y-101177980D01*
X65400000Y-100079605D01*
X64301626Y-101177980D01*
X63627000Y-101177980D01*
X63627000Y-100384573D01*
X63718154Y-100655833D01*
X63837164Y-100878486D01*
X64122020Y-100998374D01*
X65220395Y-99900000D01*
X65579605Y-99900000D01*
X66677980Y-100998374D01*
X66962836Y-100878486D01*
X67123699Y-100554790D01*
X67218322Y-100205931D01*
X67243067Y-99845316D01*
X67196985Y-99486802D01*
X67081846Y-99144167D01*
X66962836Y-98921514D01*
X66677980Y-98801626D01*
X65579605Y-99900000D01*
X65220395Y-99900000D01*
X64122020Y-98801626D01*
X63837164Y-98921514D01*
X63676301Y-99245210D01*
X63627000Y-99426974D01*
X63627000Y-98622020D01*
X64301626Y-98622020D01*
X65400000Y-99720395D01*
X66498374Y-98622020D01*
X66378486Y-98337164D01*
X66054790Y-98176301D01*
X65705931Y-98081678D01*
X65345316Y-98056933D01*
X64986802Y-98103015D01*
X64644167Y-98218154D01*
X64421514Y-98337164D01*
X64301626Y-98622020D01*
X63627000Y-98622020D01*
X63627000Y-97298061D01*
X88165000Y-97298061D01*
X88165000Y-97501939D01*
X88204774Y-97701898D01*
X88282795Y-97890256D01*
X88396063Y-98059774D01*
X88540226Y-98203937D01*
X88709744Y-98317205D01*
X88898102Y-98395226D01*
X89098061Y-98435000D01*
X89301939Y-98435000D01*
X89501898Y-98395226D01*
X89690256Y-98317205D01*
X89738454Y-98285000D01*
X94111928Y-98285000D01*
X94111928Y-98300000D01*
X94124188Y-98424482D01*
X94160498Y-98544180D01*
X94219463Y-98654494D01*
X94298815Y-98751185D01*
X94395506Y-98830537D01*
X94505820Y-98889502D01*
X94625518Y-98925812D01*
X94750000Y-98938072D01*
X97250000Y-98938072D01*
X97374482Y-98925812D01*
X97494180Y-98889502D01*
X97604494Y-98830537D01*
X97701185Y-98751185D01*
X97780537Y-98654494D01*
X97839502Y-98544180D01*
X97875812Y-98424482D01*
X97888072Y-98300000D01*
X97888072Y-96500000D01*
X98111928Y-96500000D01*
X98111928Y-98300000D01*
X98124188Y-98424482D01*
X98160498Y-98544180D01*
X98219463Y-98654494D01*
X98298815Y-98751185D01*
X98395506Y-98830537D01*
X98505820Y-98889502D01*
X98625518Y-98925812D01*
X98750000Y-98938072D01*
X99135001Y-98938072D01*
X99135000Y-100632317D01*
X99065506Y-100669463D01*
X98968815Y-100748815D01*
X98889463Y-100845506D01*
X98830498Y-100955820D01*
X98794188Y-101075518D01*
X98781928Y-101200000D01*
X98781928Y-103400000D01*
X98794188Y-103524482D01*
X98830498Y-103644180D01*
X98889463Y-103754494D01*
X98968815Y-103851185D01*
X99065506Y-103930537D01*
X99175820Y-103989502D01*
X99295518Y-104025812D01*
X99420000Y-104038072D01*
X100620000Y-104038072D01*
X100744482Y-104025812D01*
X100864180Y-103989502D01*
X100974494Y-103930537D01*
X101071185Y-103851185D01*
X101150537Y-103754494D01*
X101209502Y-103644180D01*
X101245812Y-103524482D01*
X101258072Y-103400000D01*
X101258072Y-101200000D01*
X101245812Y-101075518D01*
X101209502Y-100955820D01*
X101150537Y-100845506D01*
X101071185Y-100748815D01*
X100974494Y-100669463D01*
X100905000Y-100632317D01*
X100905000Y-98938072D01*
X101250000Y-98938072D01*
X101374482Y-98925812D01*
X101494180Y-98889502D01*
X101604494Y-98830537D01*
X101701185Y-98751185D01*
X101780537Y-98654494D01*
X101839502Y-98544180D01*
X101875812Y-98424482D01*
X101888072Y-98300000D01*
X101888072Y-98185000D01*
X101903271Y-98185000D01*
X102005225Y-98268671D01*
X102153358Y-98347850D01*
X102314092Y-98396608D01*
X102481250Y-98413072D01*
X102918750Y-98413072D01*
X103085908Y-98396608D01*
X103246642Y-98347850D01*
X103394775Y-98268671D01*
X103524615Y-98162115D01*
X103631171Y-98032275D01*
X103710350Y-97884142D01*
X103759108Y-97723408D01*
X103775572Y-97556250D01*
X103775572Y-97043750D01*
X103759108Y-96876592D01*
X103710350Y-96715858D01*
X103631171Y-96567725D01*
X103524615Y-96437885D01*
X103394775Y-96331329D01*
X103246642Y-96252150D01*
X103085908Y-96203392D01*
X102918750Y-96186928D01*
X102481250Y-96186928D01*
X102314092Y-96203392D01*
X102153358Y-96252150D01*
X102005225Y-96331329D01*
X101903271Y-96415000D01*
X101879701Y-96415000D01*
X101875812Y-96375518D01*
X101839502Y-96255820D01*
X101780537Y-96145506D01*
X101701185Y-96048815D01*
X101604494Y-95969463D01*
X101494180Y-95910498D01*
X101374482Y-95874188D01*
X101250000Y-95861928D01*
X98750000Y-95861928D01*
X98625518Y-95874188D01*
X98505820Y-95910498D01*
X98395506Y-95969463D01*
X98298815Y-96048815D01*
X98219463Y-96145506D01*
X98160498Y-96255820D01*
X98124188Y-96375518D01*
X98111928Y-96500000D01*
X97888072Y-96500000D01*
X97875812Y-96375518D01*
X97839502Y-96255820D01*
X97780537Y-96145506D01*
X97701185Y-96048815D01*
X97604494Y-95969463D01*
X97494180Y-95910498D01*
X97374482Y-95874188D01*
X97250000Y-95861928D01*
X94750000Y-95861928D01*
X94625518Y-95874188D01*
X94505820Y-95910498D01*
X94395506Y-95969463D01*
X94298815Y-96048815D01*
X94219463Y-96145506D01*
X94160498Y-96255820D01*
X94124188Y-96375518D01*
X94111928Y-96500000D01*
X94111928Y-96515000D01*
X89738454Y-96515000D01*
X89690256Y-96482795D01*
X89501898Y-96404774D01*
X89301939Y-96365000D01*
X89098061Y-96365000D01*
X88898102Y-96404774D01*
X88709744Y-96482795D01*
X88540226Y-96596063D01*
X88396063Y-96740226D01*
X88282795Y-96909744D01*
X88204774Y-97098102D01*
X88165000Y-97298061D01*
X63627000Y-97298061D01*
X63627000Y-91677980D01*
X73601626Y-91677980D01*
X73721514Y-91962836D01*
X74045210Y-92123699D01*
X74394069Y-92218322D01*
X74754684Y-92243067D01*
X75113198Y-92196985D01*
X75455833Y-92081846D01*
X75678486Y-91962836D01*
X75798374Y-91677980D01*
X74700000Y-90579605D01*
X73601626Y-91677980D01*
X63627000Y-91677980D01*
X63627000Y-90454684D01*
X72856933Y-90454684D01*
X72903015Y-90813198D01*
X73018154Y-91155833D01*
X73137164Y-91378486D01*
X73422020Y-91498374D01*
X74520395Y-90400000D01*
X74879605Y-90400000D01*
X75977980Y-91498374D01*
X76262836Y-91378486D01*
X76423699Y-91054790D01*
X76518322Y-90705931D01*
X76543067Y-90345316D01*
X76496985Y-89986802D01*
X76381846Y-89644167D01*
X76262836Y-89421514D01*
X75977980Y-89301626D01*
X74879605Y-90400000D01*
X74520395Y-90400000D01*
X73422020Y-89301626D01*
X73137164Y-89421514D01*
X72976301Y-89745210D01*
X72881678Y-90094069D01*
X72856933Y-90454684D01*
X63627000Y-90454684D01*
X63627000Y-89122020D01*
X73601626Y-89122020D01*
X74700000Y-90220395D01*
X75720394Y-89200000D01*
X77861928Y-89200000D01*
X77861928Y-91600000D01*
X77874188Y-91724482D01*
X77910498Y-91844180D01*
X77969463Y-91954494D01*
X78048815Y-92051185D01*
X78145506Y-92130537D01*
X78255820Y-92189502D01*
X78375518Y-92225812D01*
X78500000Y-92238072D01*
X80900000Y-92238072D01*
X81024482Y-92225812D01*
X81144180Y-92189502D01*
X81254494Y-92130537D01*
X81351185Y-92051185D01*
X81430537Y-91954494D01*
X81489502Y-91844180D01*
X81525812Y-91724482D01*
X81538072Y-91600000D01*
X81538072Y-89200000D01*
X87361928Y-89200000D01*
X87361928Y-91600000D01*
X87374188Y-91724482D01*
X87410498Y-91844180D01*
X87469463Y-91954494D01*
X87548815Y-92051185D01*
X87645506Y-92130537D01*
X87755820Y-92189502D01*
X87875518Y-92225812D01*
X88000000Y-92238072D01*
X90400000Y-92238072D01*
X90524482Y-92225812D01*
X90644180Y-92189502D01*
X90754494Y-92130537D01*
X90851185Y-92051185D01*
X90930537Y-91954494D01*
X90989502Y-91844180D01*
X91025812Y-91724482D01*
X91030391Y-91677980D01*
X93101626Y-91677980D01*
X93221514Y-91962836D01*
X93545210Y-92123699D01*
X93894069Y-92218322D01*
X94254684Y-92243067D01*
X94613198Y-92196985D01*
X94955833Y-92081846D01*
X95178486Y-91962836D01*
X95298374Y-91677980D01*
X94200000Y-90579605D01*
X93101626Y-91677980D01*
X91030391Y-91677980D01*
X91038072Y-91600000D01*
X91038072Y-90454684D01*
X92356933Y-90454684D01*
X92403015Y-90813198D01*
X92518154Y-91155833D01*
X92637164Y-91378486D01*
X92922020Y-91498374D01*
X94020395Y-90400000D01*
X94379605Y-90400000D01*
X95477980Y-91498374D01*
X95762836Y-91378486D01*
X95923699Y-91054790D01*
X96018322Y-90705931D01*
X96043067Y-90345316D01*
X95996985Y-89986802D01*
X95881846Y-89644167D01*
X95762836Y-89421514D01*
X95477980Y-89301626D01*
X94379605Y-90400000D01*
X94020395Y-90400000D01*
X92922020Y-89301626D01*
X92637164Y-89421514D01*
X92476301Y-89745210D01*
X92381678Y-90094069D01*
X92356933Y-90454684D01*
X91038072Y-90454684D01*
X91038072Y-89200000D01*
X91030392Y-89122020D01*
X93101626Y-89122020D01*
X94200000Y-90220395D01*
X95298374Y-89122020D01*
X95178486Y-88837164D01*
X94854790Y-88676301D01*
X94505931Y-88581678D01*
X94145316Y-88556933D01*
X93786802Y-88603015D01*
X93444167Y-88718154D01*
X93221514Y-88837164D01*
X93101626Y-89122020D01*
X91030392Y-89122020D01*
X91025812Y-89075518D01*
X90989502Y-88955820D01*
X90930537Y-88845506D01*
X90851185Y-88748815D01*
X90754494Y-88669463D01*
X90644180Y-88610498D01*
X90524482Y-88574188D01*
X90400000Y-88561928D01*
X88000000Y-88561928D01*
X87875518Y-88574188D01*
X87755820Y-88610498D01*
X87645506Y-88669463D01*
X87548815Y-88748815D01*
X87469463Y-88845506D01*
X87410498Y-88955820D01*
X87374188Y-89075518D01*
X87361928Y-89200000D01*
X81538072Y-89200000D01*
X81525812Y-89075518D01*
X81489502Y-88955820D01*
X81430537Y-88845506D01*
X81351185Y-88748815D01*
X81254494Y-88669463D01*
X81144180Y-88610498D01*
X81024482Y-88574188D01*
X80900000Y-88561928D01*
X78500000Y-88561928D01*
X78375518Y-88574188D01*
X78255820Y-88610498D01*
X78145506Y-88669463D01*
X78048815Y-88748815D01*
X77969463Y-88845506D01*
X77910498Y-88955820D01*
X77874188Y-89075518D01*
X77861928Y-89200000D01*
X75720394Y-89200000D01*
X75798374Y-89122020D01*
X75678486Y-88837164D01*
X75354790Y-88676301D01*
X75005931Y-88581678D01*
X74645316Y-88556933D01*
X74286802Y-88603015D01*
X73944167Y-88718154D01*
X73721514Y-88837164D01*
X73601626Y-89122020D01*
X63627000Y-89122020D01*
X63627000Y-78677980D01*
X64701626Y-78677980D01*
X64821514Y-78962836D01*
X65145210Y-79123699D01*
X65494069Y-79218322D01*
X65854684Y-79243067D01*
X66213198Y-79196985D01*
X66555833Y-79081846D01*
X66778486Y-78962836D01*
X66898374Y-78677980D01*
X65800000Y-77579605D01*
X64701626Y-78677980D01*
X63627000Y-78677980D01*
X63627000Y-77454684D01*
X63956933Y-77454684D01*
X64003015Y-77813198D01*
X64118154Y-78155833D01*
X64237164Y-78378486D01*
X64522020Y-78498374D01*
X65620395Y-77400000D01*
X65979605Y-77400000D01*
X67077980Y-78498374D01*
X67362836Y-78378486D01*
X67462478Y-78177980D01*
X73601626Y-78177980D01*
X73721514Y-78462836D01*
X74045210Y-78623699D01*
X74394069Y-78718322D01*
X74754684Y-78743067D01*
X75113198Y-78696985D01*
X75455833Y-78581846D01*
X75678486Y-78462836D01*
X75798374Y-78177980D01*
X74700000Y-77079605D01*
X73601626Y-78177980D01*
X67462478Y-78177980D01*
X67523699Y-78054790D01*
X67618322Y-77705931D01*
X67643067Y-77345316D01*
X67596985Y-76986802D01*
X67586193Y-76954684D01*
X72856933Y-76954684D01*
X72903015Y-77313198D01*
X73018154Y-77655833D01*
X73137164Y-77878486D01*
X73422020Y-77998374D01*
X74520395Y-76900000D01*
X74879605Y-76900000D01*
X75977980Y-77998374D01*
X76262836Y-77878486D01*
X76423699Y-77554790D01*
X76518322Y-77205931D01*
X76543067Y-76845316D01*
X76496985Y-76486802D01*
X76381846Y-76144167D01*
X76262836Y-75921514D01*
X75977980Y-75801626D01*
X74879605Y-76900000D01*
X74520395Y-76900000D01*
X73422020Y-75801626D01*
X73137164Y-75921514D01*
X72976301Y-76245210D01*
X72881678Y-76594069D01*
X72856933Y-76954684D01*
X67586193Y-76954684D01*
X67481846Y-76644167D01*
X67362836Y-76421514D01*
X67077980Y-76301626D01*
X65979605Y-77400000D01*
X65620395Y-77400000D01*
X64522020Y-76301626D01*
X64237164Y-76421514D01*
X64076301Y-76745210D01*
X63981678Y-77094069D01*
X63956933Y-77454684D01*
X63627000Y-77454684D01*
X63627000Y-76122020D01*
X64701626Y-76122020D01*
X65800000Y-77220395D01*
X66898374Y-76122020D01*
X66778486Y-75837164D01*
X66454790Y-75676301D01*
X66254666Y-75622020D01*
X73601626Y-75622020D01*
X74700000Y-76720395D01*
X75720394Y-75700000D01*
X77861928Y-75700000D01*
X77861928Y-78100000D01*
X77874188Y-78224482D01*
X77910498Y-78344180D01*
X77969463Y-78454494D01*
X78048815Y-78551185D01*
X78145506Y-78630537D01*
X78255820Y-78689502D01*
X78375518Y-78725812D01*
X78500000Y-78738072D01*
X80900000Y-78738072D01*
X81024482Y-78725812D01*
X81144180Y-78689502D01*
X81254494Y-78630537D01*
X81351185Y-78551185D01*
X81430537Y-78454494D01*
X81489502Y-78344180D01*
X81525812Y-78224482D01*
X81538072Y-78100000D01*
X81538072Y-75700000D01*
X87361928Y-75700000D01*
X87361928Y-78100000D01*
X87374188Y-78224482D01*
X87410498Y-78344180D01*
X87469463Y-78454494D01*
X87548815Y-78551185D01*
X87645506Y-78630537D01*
X87755820Y-78689502D01*
X87875518Y-78725812D01*
X88000000Y-78738072D01*
X90400000Y-78738072D01*
X90524482Y-78725812D01*
X90644180Y-78689502D01*
X90754494Y-78630537D01*
X90851185Y-78551185D01*
X90930537Y-78454494D01*
X90989502Y-78344180D01*
X91025812Y-78224482D01*
X91030391Y-78177980D01*
X93101626Y-78177980D01*
X93221514Y-78462836D01*
X93545210Y-78623699D01*
X93894069Y-78718322D01*
X94254684Y-78743067D01*
X94613198Y-78696985D01*
X94955833Y-78581846D01*
X95178486Y-78462836D01*
X95298374Y-78177980D01*
X94200000Y-77079605D01*
X93101626Y-78177980D01*
X91030391Y-78177980D01*
X91038072Y-78100000D01*
X91038072Y-76954684D01*
X92356933Y-76954684D01*
X92403015Y-77313198D01*
X92518154Y-77655833D01*
X92637164Y-77878486D01*
X92922020Y-77998374D01*
X94020395Y-76900000D01*
X94379605Y-76900000D01*
X95477980Y-77998374D01*
X95762836Y-77878486D01*
X95923699Y-77554790D01*
X96018322Y-77205931D01*
X96043067Y-76845316D01*
X95996985Y-76486802D01*
X95881846Y-76144167D01*
X95762836Y-75921514D01*
X95477980Y-75801626D01*
X94379605Y-76900000D01*
X94020395Y-76900000D01*
X92922020Y-75801626D01*
X92637164Y-75921514D01*
X92476301Y-76245210D01*
X92381678Y-76594069D01*
X92356933Y-76954684D01*
X91038072Y-76954684D01*
X91038072Y-75700000D01*
X91030392Y-75622020D01*
X93101626Y-75622020D01*
X94200000Y-76720395D01*
X95298374Y-75622020D01*
X95178486Y-75337164D01*
X94854790Y-75176301D01*
X94505931Y-75081678D01*
X94145316Y-75056933D01*
X93786802Y-75103015D01*
X93444167Y-75218154D01*
X93221514Y-75337164D01*
X93101626Y-75622020D01*
X91030392Y-75622020D01*
X91025812Y-75575518D01*
X90989502Y-75455820D01*
X90930537Y-75345506D01*
X90851185Y-75248815D01*
X90754494Y-75169463D01*
X90644180Y-75110498D01*
X90524482Y-75074188D01*
X90400000Y-75061928D01*
X88000000Y-75061928D01*
X87875518Y-75074188D01*
X87755820Y-75110498D01*
X87645506Y-75169463D01*
X87548815Y-75248815D01*
X87469463Y-75345506D01*
X87410498Y-75455820D01*
X87374188Y-75575518D01*
X87361928Y-75700000D01*
X81538072Y-75700000D01*
X81525812Y-75575518D01*
X81489502Y-75455820D01*
X81430537Y-75345506D01*
X81351185Y-75248815D01*
X81254494Y-75169463D01*
X81144180Y-75110498D01*
X81024482Y-75074188D01*
X80900000Y-75061928D01*
X78500000Y-75061928D01*
X78375518Y-75074188D01*
X78255820Y-75110498D01*
X78145506Y-75169463D01*
X78048815Y-75248815D01*
X77969463Y-75345506D01*
X77910498Y-75455820D01*
X77874188Y-75575518D01*
X77861928Y-75700000D01*
X75720394Y-75700000D01*
X75798374Y-75622020D01*
X75678486Y-75337164D01*
X75354790Y-75176301D01*
X75005931Y-75081678D01*
X74645316Y-75056933D01*
X74286802Y-75103015D01*
X73944167Y-75218154D01*
X73721514Y-75337164D01*
X73601626Y-75622020D01*
X66254666Y-75622020D01*
X66105931Y-75581678D01*
X65745316Y-75556933D01*
X65386802Y-75603015D01*
X65044167Y-75718154D01*
X64821514Y-75837164D01*
X64701626Y-76122020D01*
X63627000Y-76122020D01*
X63627000Y-75235000D01*
X73411447Y-75235000D01*
X73450000Y-75238797D01*
X73488553Y-75235000D01*
X73488561Y-75235000D01*
X73603887Y-75223641D01*
X73751860Y-75178754D01*
X73888233Y-75105862D01*
X74007764Y-75007764D01*
X74032347Y-74977810D01*
X80225158Y-68785000D01*
X81421289Y-68785000D01*
X81440226Y-68803937D01*
X81609744Y-68917205D01*
X81798102Y-68995226D01*
X81998061Y-69035000D01*
X82201939Y-69035000D01*
X82401898Y-68995226D01*
X82590256Y-68917205D01*
X82759774Y-68803937D01*
X82903937Y-68659774D01*
X83017205Y-68490256D01*
X83095226Y-68301898D01*
X83135000Y-68101939D01*
X83135000Y-67898061D01*
X83095226Y-67698102D01*
X83017205Y-67509744D01*
X82903937Y-67340226D01*
X82885000Y-67321289D01*
X82885000Y-67138556D01*
X82888797Y-67100000D01*
X82885000Y-67061444D01*
X82885000Y-67061439D01*
X82879419Y-67004774D01*
X82873642Y-66946113D01*
X82828754Y-66798140D01*
X82809312Y-66761767D01*
X82755862Y-66661767D01*
X82657764Y-66542236D01*
X82627810Y-66517653D01*
X79285000Y-63174843D01*
X79285000Y-60321144D01*
X79339502Y-60219180D01*
X79375812Y-60099482D01*
X79388072Y-59975000D01*
X79388072Y-59525000D01*
X79375812Y-59400518D01*
X79339502Y-59280820D01*
X79280537Y-59170506D01*
X79201185Y-59073815D01*
X79104494Y-58994463D01*
X78994180Y-58935498D01*
X78874482Y-58899188D01*
X78750000Y-58886928D01*
X78150000Y-58886928D01*
X78025518Y-58899188D01*
X77905820Y-58935498D01*
X77795506Y-58994463D01*
X77698815Y-59073815D01*
X77619463Y-59170506D01*
X77560498Y-59280820D01*
X77524188Y-59400518D01*
X77511928Y-59525000D01*
X77511928Y-59975000D01*
X77524188Y-60099482D01*
X77560498Y-60219180D01*
X77619463Y-60329494D01*
X77698815Y-60426185D01*
X77715001Y-60439468D01*
X77715000Y-63461447D01*
X77711203Y-63500000D01*
X77715000Y-63538553D01*
X77715000Y-63538560D01*
X77726359Y-63653886D01*
X77771246Y-63801859D01*
X77844138Y-63938232D01*
X77942236Y-64057764D01*
X77972190Y-64082347D01*
X81104843Y-67215000D01*
X79938552Y-67215000D01*
X79899999Y-67211203D01*
X79861446Y-67215000D01*
X79861439Y-67215000D01*
X79760490Y-67224943D01*
X79746112Y-67226359D01*
X79717627Y-67235000D01*
X79598140Y-67271246D01*
X79461767Y-67344138D01*
X79401559Y-67393550D01*
X79372187Y-67417655D01*
X79372184Y-67417658D01*
X79342236Y-67442236D01*
X79317658Y-67472184D01*
X77135000Y-69654842D01*
X77135000Y-60384981D01*
X77180537Y-60329494D01*
X77239502Y-60219180D01*
X77275812Y-60099482D01*
X77288072Y-59975000D01*
X77288072Y-59525000D01*
X77275812Y-59400518D01*
X77239502Y-59280820D01*
X77180537Y-59170506D01*
X77101185Y-59073815D01*
X77004494Y-58994463D01*
X76894180Y-58935498D01*
X76774482Y-58899188D01*
X76650000Y-58886928D01*
X76050000Y-58886928D01*
X75925518Y-58899188D01*
X75880154Y-58912949D01*
X75863405Y-58881614D01*
X75752962Y-58747038D01*
X75618386Y-58636595D01*
X75464850Y-58554528D01*
X75298254Y-58503992D01*
X75125000Y-58486928D01*
X73875000Y-58486928D01*
X73701746Y-58503992D01*
X73535150Y-58554528D01*
X73381614Y-58636595D01*
X73247038Y-58747038D01*
X73136595Y-58881614D01*
X73101143Y-58947941D01*
X73062115Y-58900385D01*
X72932275Y-58793829D01*
X72784142Y-58714650D01*
X72623408Y-58665892D01*
X72456250Y-58649428D01*
X71943750Y-58649428D01*
X71776592Y-58665892D01*
X71615858Y-58714650D01*
X71467725Y-58793829D01*
X71337885Y-58900385D01*
X71305374Y-58940000D01*
X71281046Y-58940000D01*
X71230537Y-58845506D01*
X71151185Y-58748815D01*
X71054494Y-58669463D01*
X71051905Y-58668079D01*
X71151958Y-58546164D01*
X71233447Y-58393709D01*
X71283628Y-58228285D01*
X71296189Y-58100751D01*
X78297571Y-58077177D01*
X87160197Y-66939803D01*
X87179443Y-66955597D01*
X87201399Y-66967333D01*
X87225224Y-66974560D01*
X87250000Y-66977000D01*
X98400000Y-66977000D01*
X98424776Y-66974560D01*
X98448601Y-66967333D01*
X98470557Y-66955597D01*
X98489803Y-66939803D01*
X98505597Y-66920557D01*
X98517333Y-66898601D01*
X98524560Y-66874776D01*
X98527000Y-66850000D01*
X98527000Y-39660000D01*
X101967722Y-39660000D01*
X102648126Y-39726714D01*
X102648126Y-39726714D01*
G37*
X102648126Y-39726714D02*
X103271572Y-39914943D01*
X103846579Y-40220681D01*
X104351247Y-40632279D01*
X104766362Y-41134067D01*
X105076105Y-41706924D01*
X105268682Y-42329039D01*
X105340000Y-43007584D01*
X105340001Y-104265000D01*
X97200000Y-104265000D01*
X97076118Y-104277201D01*
X96956996Y-104313336D01*
X96847213Y-104372017D01*
X96750987Y-104450987D01*
X94550987Y-106650987D01*
X94472017Y-106747213D01*
X94413336Y-106856996D01*
X94377201Y-106976118D01*
X94365000Y-107100000D01*
X94365000Y-119000000D01*
X94377201Y-119123882D01*
X94413336Y-119243004D01*
X94472017Y-119352787D01*
X94550987Y-119449013D01*
X94647213Y-119527983D01*
X94756996Y-119586664D01*
X94876118Y-119622799D01*
X95000000Y-119635000D01*
X97400000Y-119635000D01*
X97523882Y-119622799D01*
X97643004Y-119586664D01*
X97752787Y-119527983D01*
X97849013Y-119449013D01*
X97927983Y-119352787D01*
X97986664Y-119243004D01*
X98022799Y-119123882D01*
X98035000Y-119000000D01*
X98035000Y-113035000D01*
X105340001Y-113035000D01*
X105340001Y-116967711D01*
X105273286Y-117648126D01*
X105085057Y-118271570D01*
X104779323Y-118846573D01*
X104367721Y-119351248D01*
X103865933Y-119766362D01*
X103293077Y-120076104D01*
X102670961Y-120268682D01*
X101992417Y-120340000D01*
X91835000Y-120340000D01*
X91835000Y-110900000D01*
X91822799Y-110776118D01*
X91786664Y-110656996D01*
X91727983Y-110547213D01*
X91649013Y-110450987D01*
X91552787Y-110372017D01*
X91443004Y-110313336D01*
X91323882Y-110277201D01*
X91200000Y-110265000D01*
X86600000Y-110265000D01*
X86476118Y-110277201D01*
X86356996Y-110313336D01*
X86247213Y-110372017D01*
X86150987Y-110450987D01*
X86072017Y-110547213D01*
X86013336Y-110656996D01*
X85977201Y-110776118D01*
X85965000Y-110900000D01*
X85965000Y-120340000D01*
X63627000Y-120340000D01*
X63627000Y-118998061D01*
X78165000Y-118998061D01*
X78165000Y-119201939D01*
X78204774Y-119401898D01*
X78282795Y-119590256D01*
X78396063Y-119759774D01*
X78540226Y-119903937D01*
X78709744Y-120017205D01*
X78898102Y-120095226D01*
X79098061Y-120135000D01*
X79301939Y-120135000D01*
X79501898Y-120095226D01*
X79690256Y-120017205D01*
X79859774Y-119903937D01*
X80003937Y-119759774D01*
X80117205Y-119590256D01*
X80195226Y-119401898D01*
X80235000Y-119201939D01*
X80235000Y-118998061D01*
X82165000Y-118998061D01*
X82165000Y-119201939D01*
X82204774Y-119401898D01*
X82282795Y-119590256D01*
X82396063Y-119759774D01*
X82540226Y-119903937D01*
X82709744Y-120017205D01*
X82898102Y-120095226D01*
X83098061Y-120135000D01*
X83301939Y-120135000D01*
X83501898Y-120095226D01*
X83690256Y-120017205D01*
X83859774Y-119903937D01*
X84003937Y-119759774D01*
X84117205Y-119590256D01*
X84195226Y-119401898D01*
X84235000Y-119201939D01*
X84235000Y-118998061D01*
X84195226Y-118798102D01*
X84117205Y-118609744D01*
X84003937Y-118440226D01*
X83859774Y-118296063D01*
X83690256Y-118182795D01*
X83501898Y-118104774D01*
X83301939Y-118065000D01*
X83098061Y-118065000D01*
X82898102Y-118104774D01*
X82709744Y-118182795D01*
X82540226Y-118296063D01*
X82396063Y-118440226D01*
X82282795Y-118609744D01*
X82204774Y-118798102D01*
X82165000Y-118998061D01*
X80235000Y-118998061D01*
X80195226Y-118798102D01*
X80117205Y-118609744D01*
X80003937Y-118440226D01*
X79859774Y-118296063D01*
X79690256Y-118182795D01*
X79501898Y-118104774D01*
X79301939Y-118065000D01*
X79098061Y-118065000D01*
X78898102Y-118104774D01*
X78709744Y-118182795D01*
X78540226Y-118296063D01*
X78396063Y-118440226D01*
X78282795Y-118609744D01*
X78204774Y-118798102D01*
X78165000Y-118998061D01*
X63627000Y-118998061D01*
X63627000Y-115498061D01*
X78165000Y-115498061D01*
X78165000Y-115701939D01*
X78204774Y-115901898D01*
X78282795Y-116090256D01*
X78396063Y-116259774D01*
X78540226Y-116403937D01*
X78709744Y-116517205D01*
X78898102Y-116595226D01*
X79098061Y-116635000D01*
X79301939Y-116635000D01*
X79501898Y-116595226D01*
X79690256Y-116517205D01*
X79859774Y-116403937D01*
X80003937Y-116259774D01*
X80117205Y-116090256D01*
X80195226Y-115901898D01*
X80235000Y-115701939D01*
X80235000Y-115498061D01*
X82165000Y-115498061D01*
X82165000Y-115701939D01*
X82204774Y-115901898D01*
X82282795Y-116090256D01*
X82396063Y-116259774D01*
X82540226Y-116403937D01*
X82709744Y-116517205D01*
X82898102Y-116595226D01*
X83098061Y-116635000D01*
X83301939Y-116635000D01*
X83501898Y-116595226D01*
X83690256Y-116517205D01*
X83859774Y-116403937D01*
X84003937Y-116259774D01*
X84117205Y-116090256D01*
X84195226Y-115901898D01*
X84235000Y-115701939D01*
X84235000Y-115498061D01*
X84195226Y-115298102D01*
X84117205Y-115109744D01*
X84003937Y-114940226D01*
X83859774Y-114796063D01*
X83690256Y-114682795D01*
X83501898Y-114604774D01*
X83301939Y-114565000D01*
X83098061Y-114565000D01*
X82898102Y-114604774D01*
X82709744Y-114682795D01*
X82540226Y-114796063D01*
X82396063Y-114940226D01*
X82282795Y-115109744D01*
X82204774Y-115298102D01*
X82165000Y-115498061D01*
X80235000Y-115498061D01*
X80195226Y-115298102D01*
X80117205Y-115109744D01*
X80003937Y-114940226D01*
X79859774Y-114796063D01*
X79690256Y-114682795D01*
X79501898Y-114604774D01*
X79301939Y-114565000D01*
X79098061Y-114565000D01*
X78898102Y-114604774D01*
X78709744Y-114682795D01*
X78540226Y-114796063D01*
X78396063Y-114940226D01*
X78282795Y-115109744D01*
X78204774Y-115298102D01*
X78165000Y-115498061D01*
X63627000Y-115498061D01*
X63627000Y-111998061D01*
X78165000Y-111998061D01*
X78165000Y-112201939D01*
X78204774Y-112401898D01*
X78282795Y-112590256D01*
X78396063Y-112759774D01*
X78540226Y-112903937D01*
X78709744Y-113017205D01*
X78898102Y-113095226D01*
X79098061Y-113135000D01*
X79301939Y-113135000D01*
X79501898Y-113095226D01*
X79690256Y-113017205D01*
X79859774Y-112903937D01*
X80003937Y-112759774D01*
X80117205Y-112590256D01*
X80195226Y-112401898D01*
X80235000Y-112201939D01*
X80235000Y-111998061D01*
X82165000Y-111998061D01*
X82165000Y-112201939D01*
X82204774Y-112401898D01*
X82282795Y-112590256D01*
X82396063Y-112759774D01*
X82540226Y-112903937D01*
X82709744Y-113017205D01*
X82898102Y-113095226D01*
X83098061Y-113135000D01*
X83301939Y-113135000D01*
X83501898Y-113095226D01*
X83690256Y-113017205D01*
X83859774Y-112903937D01*
X84003937Y-112759774D01*
X84117205Y-112590256D01*
X84195226Y-112401898D01*
X84235000Y-112201939D01*
X84235000Y-111998061D01*
X84195226Y-111798102D01*
X84117205Y-111609744D01*
X84003937Y-111440226D01*
X83859774Y-111296063D01*
X83690256Y-111182795D01*
X83501898Y-111104774D01*
X83301939Y-111065000D01*
X83098061Y-111065000D01*
X82898102Y-111104774D01*
X82709744Y-111182795D01*
X82540226Y-111296063D01*
X82396063Y-111440226D01*
X82282795Y-111609744D01*
X82204774Y-111798102D01*
X82165000Y-111998061D01*
X80235000Y-111998061D01*
X80195226Y-111798102D01*
X80117205Y-111609744D01*
X80003937Y-111440226D01*
X79859774Y-111296063D01*
X79690256Y-111182795D01*
X79501898Y-111104774D01*
X79301939Y-111065000D01*
X79098061Y-111065000D01*
X78898102Y-111104774D01*
X78709744Y-111182795D01*
X78540226Y-111296063D01*
X78396063Y-111440226D01*
X78282795Y-111609744D01*
X78204774Y-111798102D01*
X78165000Y-111998061D01*
X63627000Y-111998061D01*
X63627000Y-105377980D01*
X73601626Y-105377980D01*
X73721514Y-105662836D01*
X74045210Y-105823699D01*
X74394069Y-105918322D01*
X74754684Y-105943067D01*
X75113198Y-105896985D01*
X75455833Y-105781846D01*
X75678486Y-105662836D01*
X75798374Y-105377980D01*
X74700000Y-104279605D01*
X73601626Y-105377980D01*
X63627000Y-105377980D01*
X63627000Y-104154684D01*
X72856933Y-104154684D01*
X72903015Y-104513198D01*
X73018154Y-104855833D01*
X73137164Y-105078486D01*
X73422020Y-105198374D01*
X74520395Y-104100000D01*
X74879605Y-104100000D01*
X75977980Y-105198374D01*
X76262836Y-105078486D01*
X76423699Y-104754790D01*
X76518322Y-104405931D01*
X76543067Y-104045316D01*
X76496985Y-103686802D01*
X76381846Y-103344167D01*
X76262836Y-103121514D01*
X75977980Y-103001626D01*
X74879605Y-104100000D01*
X74520395Y-104100000D01*
X73422020Y-103001626D01*
X73137164Y-103121514D01*
X72976301Y-103445210D01*
X72881678Y-103794069D01*
X72856933Y-104154684D01*
X63627000Y-104154684D01*
X63627000Y-102822020D01*
X73601626Y-102822020D01*
X74700000Y-103920395D01*
X75720394Y-102900000D01*
X77861928Y-102900000D01*
X77861928Y-105300000D01*
X77874188Y-105424482D01*
X77910498Y-105544180D01*
X77969463Y-105654494D01*
X78048815Y-105751185D01*
X78145506Y-105830537D01*
X78255820Y-105889502D01*
X78375518Y-105925812D01*
X78500000Y-105938072D01*
X80900000Y-105938072D01*
X81024482Y-105925812D01*
X81144180Y-105889502D01*
X81254494Y-105830537D01*
X81351185Y-105751185D01*
X81430537Y-105654494D01*
X81489502Y-105544180D01*
X81525812Y-105424482D01*
X81538072Y-105300000D01*
X81538072Y-102900000D01*
X87361928Y-102900000D01*
X87361928Y-105300000D01*
X87374188Y-105424482D01*
X87410498Y-105544180D01*
X87469463Y-105654494D01*
X87548815Y-105751185D01*
X87645506Y-105830537D01*
X87755820Y-105889502D01*
X87875518Y-105925812D01*
X88000000Y-105938072D01*
X90400000Y-105938072D01*
X90524482Y-105925812D01*
X90644180Y-105889502D01*
X90754494Y-105830537D01*
X90851185Y-105751185D01*
X90930537Y-105654494D01*
X90989502Y-105544180D01*
X91025812Y-105424482D01*
X91030391Y-105377980D01*
X93101626Y-105377980D01*
X93221514Y-105662836D01*
X93545210Y-105823699D01*
X93894069Y-105918322D01*
X94254684Y-105943067D01*
X94613198Y-105896985D01*
X94955833Y-105781846D01*
X95178486Y-105662836D01*
X95298374Y-105377980D01*
X94200000Y-104279605D01*
X93101626Y-105377980D01*
X91030391Y-105377980D01*
X91038072Y-105300000D01*
X91038072Y-104154684D01*
X92356933Y-104154684D01*
X92403015Y-104513198D01*
X92518154Y-104855833D01*
X92637164Y-105078486D01*
X92922020Y-105198374D01*
X94020395Y-104100000D01*
X94379605Y-104100000D01*
X95477980Y-105198374D01*
X95762836Y-105078486D01*
X95923699Y-104754790D01*
X96018322Y-104405931D01*
X96043067Y-104045316D01*
X95996985Y-103686802D01*
X95881846Y-103344167D01*
X95762836Y-103121514D01*
X95477980Y-103001626D01*
X94379605Y-104100000D01*
X94020395Y-104100000D01*
X92922020Y-103001626D01*
X92637164Y-103121514D01*
X92476301Y-103445210D01*
X92381678Y-103794069D01*
X92356933Y-104154684D01*
X91038072Y-104154684D01*
X91038072Y-102900000D01*
X91030392Y-102822020D01*
X93101626Y-102822020D01*
X94200000Y-103920395D01*
X95298374Y-102822020D01*
X95178486Y-102537164D01*
X94854790Y-102376301D01*
X94505931Y-102281678D01*
X94145316Y-102256933D01*
X93786802Y-102303015D01*
X93444167Y-102418154D01*
X93221514Y-102537164D01*
X93101626Y-102822020D01*
X91030392Y-102822020D01*
X91025812Y-102775518D01*
X90989502Y-102655820D01*
X90930537Y-102545506D01*
X90851185Y-102448815D01*
X90754494Y-102369463D01*
X90644180Y-102310498D01*
X90524482Y-102274188D01*
X90400000Y-102261928D01*
X88000000Y-102261928D01*
X87875518Y-102274188D01*
X87755820Y-102310498D01*
X87645506Y-102369463D01*
X87548815Y-102448815D01*
X87469463Y-102545506D01*
X87410498Y-102655820D01*
X87374188Y-102775518D01*
X87361928Y-102900000D01*
X81538072Y-102900000D01*
X81525812Y-102775518D01*
X81489502Y-102655820D01*
X81430537Y-102545506D01*
X81351185Y-102448815D01*
X81254494Y-102369463D01*
X81144180Y-102310498D01*
X81024482Y-102274188D01*
X80900000Y-102261928D01*
X78500000Y-102261928D01*
X78375518Y-102274188D01*
X78255820Y-102310498D01*
X78145506Y-102369463D01*
X78048815Y-102448815D01*
X77969463Y-102545506D01*
X77910498Y-102655820D01*
X77874188Y-102775518D01*
X77861928Y-102900000D01*
X75720394Y-102900000D01*
X75798374Y-102822020D01*
X75678486Y-102537164D01*
X75354790Y-102376301D01*
X75005931Y-102281678D01*
X74645316Y-102256933D01*
X74286802Y-102303015D01*
X73944167Y-102418154D01*
X73721514Y-102537164D01*
X73601626Y-102822020D01*
X63627000Y-102822020D01*
X63627000Y-101177980D01*
X64301626Y-101177980D01*
X64421514Y-101462836D01*
X64745210Y-101623699D01*
X65094069Y-101718322D01*
X65454684Y-101743067D01*
X65813198Y-101696985D01*
X66155833Y-101581846D01*
X66378486Y-101462836D01*
X66498374Y-101177980D01*
X65400000Y-100079605D01*
X64301626Y-101177980D01*
X63627000Y-101177980D01*
X63627000Y-100384573D01*
X63718154Y-100655833D01*
X63837164Y-100878486D01*
X64122020Y-100998374D01*
X65220395Y-99900000D01*
X65579605Y-99900000D01*
X66677980Y-100998374D01*
X66962836Y-100878486D01*
X67123699Y-100554790D01*
X67218322Y-100205931D01*
X67243067Y-99845316D01*
X67196985Y-99486802D01*
X67081846Y-99144167D01*
X66962836Y-98921514D01*
X66677980Y-98801626D01*
X65579605Y-99900000D01*
X65220395Y-99900000D01*
X64122020Y-98801626D01*
X63837164Y-98921514D01*
X63676301Y-99245210D01*
X63627000Y-99426974D01*
X63627000Y-98622020D01*
X64301626Y-98622020D01*
X65400000Y-99720395D01*
X66498374Y-98622020D01*
X66378486Y-98337164D01*
X66054790Y-98176301D01*
X65705931Y-98081678D01*
X65345316Y-98056933D01*
X64986802Y-98103015D01*
X64644167Y-98218154D01*
X64421514Y-98337164D01*
X64301626Y-98622020D01*
X63627000Y-98622020D01*
X63627000Y-97298061D01*
X88165000Y-97298061D01*
X88165000Y-97501939D01*
X88204774Y-97701898D01*
X88282795Y-97890256D01*
X88396063Y-98059774D01*
X88540226Y-98203937D01*
X88709744Y-98317205D01*
X88898102Y-98395226D01*
X89098061Y-98435000D01*
X89301939Y-98435000D01*
X89501898Y-98395226D01*
X89690256Y-98317205D01*
X89738454Y-98285000D01*
X94111928Y-98285000D01*
X94111928Y-98300000D01*
X94124188Y-98424482D01*
X94160498Y-98544180D01*
X94219463Y-98654494D01*
X94298815Y-98751185D01*
X94395506Y-98830537D01*
X94505820Y-98889502D01*
X94625518Y-98925812D01*
X94750000Y-98938072D01*
X97250000Y-98938072D01*
X97374482Y-98925812D01*
X97494180Y-98889502D01*
X97604494Y-98830537D01*
X97701185Y-98751185D01*
X97780537Y-98654494D01*
X97839502Y-98544180D01*
X97875812Y-98424482D01*
X97888072Y-98300000D01*
X97888072Y-96500000D01*
X98111928Y-96500000D01*
X98111928Y-98300000D01*
X98124188Y-98424482D01*
X98160498Y-98544180D01*
X98219463Y-98654494D01*
X98298815Y-98751185D01*
X98395506Y-98830537D01*
X98505820Y-98889502D01*
X98625518Y-98925812D01*
X98750000Y-98938072D01*
X99135001Y-98938072D01*
X99135000Y-100632317D01*
X99065506Y-100669463D01*
X98968815Y-100748815D01*
X98889463Y-100845506D01*
X98830498Y-100955820D01*
X98794188Y-101075518D01*
X98781928Y-101200000D01*
X98781928Y-103400000D01*
X98794188Y-103524482D01*
X98830498Y-103644180D01*
X98889463Y-103754494D01*
X98968815Y-103851185D01*
X99065506Y-103930537D01*
X99175820Y-103989502D01*
X99295518Y-104025812D01*
X99420000Y-104038072D01*
X100620000Y-104038072D01*
X100744482Y-104025812D01*
X100864180Y-103989502D01*
X100974494Y-103930537D01*
X101071185Y-103851185D01*
X101150537Y-103754494D01*
X101209502Y-103644180D01*
X101245812Y-103524482D01*
X101258072Y-103400000D01*
X101258072Y-101200000D01*
X101245812Y-101075518D01*
X101209502Y-100955820D01*
X101150537Y-100845506D01*
X101071185Y-100748815D01*
X100974494Y-100669463D01*
X100905000Y-100632317D01*
X100905000Y-98938072D01*
X101250000Y-98938072D01*
X101374482Y-98925812D01*
X101494180Y-98889502D01*
X101604494Y-98830537D01*
X101701185Y-98751185D01*
X101780537Y-98654494D01*
X101839502Y-98544180D01*
X101875812Y-98424482D01*
X101888072Y-98300000D01*
X101888072Y-98185000D01*
X101903271Y-98185000D01*
X102005225Y-98268671D01*
X102153358Y-98347850D01*
X102314092Y-98396608D01*
X102481250Y-98413072D01*
X102918750Y-98413072D01*
X103085908Y-98396608D01*
X103246642Y-98347850D01*
X103394775Y-98268671D01*
X103524615Y-98162115D01*
X103631171Y-98032275D01*
X103710350Y-97884142D01*
X103759108Y-97723408D01*
X103775572Y-97556250D01*
X103775572Y-97043750D01*
X103759108Y-96876592D01*
X103710350Y-96715858D01*
X103631171Y-96567725D01*
X103524615Y-96437885D01*
X103394775Y-96331329D01*
X103246642Y-96252150D01*
X103085908Y-96203392D01*
X102918750Y-96186928D01*
X102481250Y-96186928D01*
X102314092Y-96203392D01*
X102153358Y-96252150D01*
X102005225Y-96331329D01*
X101903271Y-96415000D01*
X101879701Y-96415000D01*
X101875812Y-96375518D01*
X101839502Y-96255820D01*
X101780537Y-96145506D01*
X101701185Y-96048815D01*
X101604494Y-95969463D01*
X101494180Y-95910498D01*
X101374482Y-95874188D01*
X101250000Y-95861928D01*
X98750000Y-95861928D01*
X98625518Y-95874188D01*
X98505820Y-95910498D01*
X98395506Y-95969463D01*
X98298815Y-96048815D01*
X98219463Y-96145506D01*
X98160498Y-96255820D01*
X98124188Y-96375518D01*
X98111928Y-96500000D01*
X97888072Y-96500000D01*
X97875812Y-96375518D01*
X97839502Y-96255820D01*
X97780537Y-96145506D01*
X97701185Y-96048815D01*
X97604494Y-95969463D01*
X97494180Y-95910498D01*
X97374482Y-95874188D01*
X97250000Y-95861928D01*
X94750000Y-95861928D01*
X94625518Y-95874188D01*
X94505820Y-95910498D01*
X94395506Y-95969463D01*
X94298815Y-96048815D01*
X94219463Y-96145506D01*
X94160498Y-96255820D01*
X94124188Y-96375518D01*
X94111928Y-96500000D01*
X94111928Y-96515000D01*
X89738454Y-96515000D01*
X89690256Y-96482795D01*
X89501898Y-96404774D01*
X89301939Y-96365000D01*
X89098061Y-96365000D01*
X88898102Y-96404774D01*
X88709744Y-96482795D01*
X88540226Y-96596063D01*
X88396063Y-96740226D01*
X88282795Y-96909744D01*
X88204774Y-97098102D01*
X88165000Y-97298061D01*
X63627000Y-97298061D01*
X63627000Y-91677980D01*
X73601626Y-91677980D01*
X73721514Y-91962836D01*
X74045210Y-92123699D01*
X74394069Y-92218322D01*
X74754684Y-92243067D01*
X75113198Y-92196985D01*
X75455833Y-92081846D01*
X75678486Y-91962836D01*
X75798374Y-91677980D01*
X74700000Y-90579605D01*
X73601626Y-91677980D01*
X63627000Y-91677980D01*
X63627000Y-90454684D01*
X72856933Y-90454684D01*
X72903015Y-90813198D01*
X73018154Y-91155833D01*
X73137164Y-91378486D01*
X73422020Y-91498374D01*
X74520395Y-90400000D01*
X74879605Y-90400000D01*
X75977980Y-91498374D01*
X76262836Y-91378486D01*
X76423699Y-91054790D01*
X76518322Y-90705931D01*
X76543067Y-90345316D01*
X76496985Y-89986802D01*
X76381846Y-89644167D01*
X76262836Y-89421514D01*
X75977980Y-89301626D01*
X74879605Y-90400000D01*
X74520395Y-90400000D01*
X73422020Y-89301626D01*
X73137164Y-89421514D01*
X72976301Y-89745210D01*
X72881678Y-90094069D01*
X72856933Y-90454684D01*
X63627000Y-90454684D01*
X63627000Y-89122020D01*
X73601626Y-89122020D01*
X74700000Y-90220395D01*
X75720394Y-89200000D01*
X77861928Y-89200000D01*
X77861928Y-91600000D01*
X77874188Y-91724482D01*
X77910498Y-91844180D01*
X77969463Y-91954494D01*
X78048815Y-92051185D01*
X78145506Y-92130537D01*
X78255820Y-92189502D01*
X78375518Y-92225812D01*
X78500000Y-92238072D01*
X80900000Y-92238072D01*
X81024482Y-92225812D01*
X81144180Y-92189502D01*
X81254494Y-92130537D01*
X81351185Y-92051185D01*
X81430537Y-91954494D01*
X81489502Y-91844180D01*
X81525812Y-91724482D01*
X81538072Y-91600000D01*
X81538072Y-89200000D01*
X87361928Y-89200000D01*
X87361928Y-91600000D01*
X87374188Y-91724482D01*
X87410498Y-91844180D01*
X87469463Y-91954494D01*
X87548815Y-92051185D01*
X87645506Y-92130537D01*
X87755820Y-92189502D01*
X87875518Y-92225812D01*
X88000000Y-92238072D01*
X90400000Y-92238072D01*
X90524482Y-92225812D01*
X90644180Y-92189502D01*
X90754494Y-92130537D01*
X90851185Y-92051185D01*
X90930537Y-91954494D01*
X90989502Y-91844180D01*
X91025812Y-91724482D01*
X91030391Y-91677980D01*
X93101626Y-91677980D01*
X93221514Y-91962836D01*
X93545210Y-92123699D01*
X93894069Y-92218322D01*
X94254684Y-92243067D01*
X94613198Y-92196985D01*
X94955833Y-92081846D01*
X95178486Y-91962836D01*
X95298374Y-91677980D01*
X94200000Y-90579605D01*
X93101626Y-91677980D01*
X91030391Y-91677980D01*
X91038072Y-91600000D01*
X91038072Y-90454684D01*
X92356933Y-90454684D01*
X92403015Y-90813198D01*
X92518154Y-91155833D01*
X92637164Y-91378486D01*
X92922020Y-91498374D01*
X94020395Y-90400000D01*
X94379605Y-90400000D01*
X95477980Y-91498374D01*
X95762836Y-91378486D01*
X95923699Y-91054790D01*
X96018322Y-90705931D01*
X96043067Y-90345316D01*
X95996985Y-89986802D01*
X95881846Y-89644167D01*
X95762836Y-89421514D01*
X95477980Y-89301626D01*
X94379605Y-90400000D01*
X94020395Y-90400000D01*
X92922020Y-89301626D01*
X92637164Y-89421514D01*
X92476301Y-89745210D01*
X92381678Y-90094069D01*
X92356933Y-90454684D01*
X91038072Y-90454684D01*
X91038072Y-89200000D01*
X91030392Y-89122020D01*
X93101626Y-89122020D01*
X94200000Y-90220395D01*
X95298374Y-89122020D01*
X95178486Y-88837164D01*
X94854790Y-88676301D01*
X94505931Y-88581678D01*
X94145316Y-88556933D01*
X93786802Y-88603015D01*
X93444167Y-88718154D01*
X93221514Y-88837164D01*
X93101626Y-89122020D01*
X91030392Y-89122020D01*
X91025812Y-89075518D01*
X90989502Y-88955820D01*
X90930537Y-88845506D01*
X90851185Y-88748815D01*
X90754494Y-88669463D01*
X90644180Y-88610498D01*
X90524482Y-88574188D01*
X90400000Y-88561928D01*
X88000000Y-88561928D01*
X87875518Y-88574188D01*
X87755820Y-88610498D01*
X87645506Y-88669463D01*
X87548815Y-88748815D01*
X87469463Y-88845506D01*
X87410498Y-88955820D01*
X87374188Y-89075518D01*
X87361928Y-89200000D01*
X81538072Y-89200000D01*
X81525812Y-89075518D01*
X81489502Y-88955820D01*
X81430537Y-88845506D01*
X81351185Y-88748815D01*
X81254494Y-88669463D01*
X81144180Y-88610498D01*
X81024482Y-88574188D01*
X80900000Y-88561928D01*
X78500000Y-88561928D01*
X78375518Y-88574188D01*
X78255820Y-88610498D01*
X78145506Y-88669463D01*
X78048815Y-88748815D01*
X77969463Y-88845506D01*
X77910498Y-88955820D01*
X77874188Y-89075518D01*
X77861928Y-89200000D01*
X75720394Y-89200000D01*
X75798374Y-89122020D01*
X75678486Y-88837164D01*
X75354790Y-88676301D01*
X75005931Y-88581678D01*
X74645316Y-88556933D01*
X74286802Y-88603015D01*
X73944167Y-88718154D01*
X73721514Y-88837164D01*
X73601626Y-89122020D01*
X63627000Y-89122020D01*
X63627000Y-78677980D01*
X64701626Y-78677980D01*
X64821514Y-78962836D01*
X65145210Y-79123699D01*
X65494069Y-79218322D01*
X65854684Y-79243067D01*
X66213198Y-79196985D01*
X66555833Y-79081846D01*
X66778486Y-78962836D01*
X66898374Y-78677980D01*
X65800000Y-77579605D01*
X64701626Y-78677980D01*
X63627000Y-78677980D01*
X63627000Y-77454684D01*
X63956933Y-77454684D01*
X64003015Y-77813198D01*
X64118154Y-78155833D01*
X64237164Y-78378486D01*
X64522020Y-78498374D01*
X65620395Y-77400000D01*
X65979605Y-77400000D01*
X67077980Y-78498374D01*
X67362836Y-78378486D01*
X67462478Y-78177980D01*
X73601626Y-78177980D01*
X73721514Y-78462836D01*
X74045210Y-78623699D01*
X74394069Y-78718322D01*
X74754684Y-78743067D01*
X75113198Y-78696985D01*
X75455833Y-78581846D01*
X75678486Y-78462836D01*
X75798374Y-78177980D01*
X74700000Y-77079605D01*
X73601626Y-78177980D01*
X67462478Y-78177980D01*
X67523699Y-78054790D01*
X67618322Y-77705931D01*
X67643067Y-77345316D01*
X67596985Y-76986802D01*
X67586193Y-76954684D01*
X72856933Y-76954684D01*
X72903015Y-77313198D01*
X73018154Y-77655833D01*
X73137164Y-77878486D01*
X73422020Y-77998374D01*
X74520395Y-76900000D01*
X74879605Y-76900000D01*
X75977980Y-77998374D01*
X76262836Y-77878486D01*
X76423699Y-77554790D01*
X76518322Y-77205931D01*
X76543067Y-76845316D01*
X76496985Y-76486802D01*
X76381846Y-76144167D01*
X76262836Y-75921514D01*
X75977980Y-75801626D01*
X74879605Y-76900000D01*
X74520395Y-76900000D01*
X73422020Y-75801626D01*
X73137164Y-75921514D01*
X72976301Y-76245210D01*
X72881678Y-76594069D01*
X72856933Y-76954684D01*
X67586193Y-76954684D01*
X67481846Y-76644167D01*
X67362836Y-76421514D01*
X67077980Y-76301626D01*
X65979605Y-77400000D01*
X65620395Y-77400000D01*
X64522020Y-76301626D01*
X64237164Y-76421514D01*
X64076301Y-76745210D01*
X63981678Y-77094069D01*
X63956933Y-77454684D01*
X63627000Y-77454684D01*
X63627000Y-76122020D01*
X64701626Y-76122020D01*
X65800000Y-77220395D01*
X66898374Y-76122020D01*
X66778486Y-75837164D01*
X66454790Y-75676301D01*
X66254666Y-75622020D01*
X73601626Y-75622020D01*
X74700000Y-76720395D01*
X75720394Y-75700000D01*
X77861928Y-75700000D01*
X77861928Y-78100000D01*
X77874188Y-78224482D01*
X77910498Y-78344180D01*
X77969463Y-78454494D01*
X78048815Y-78551185D01*
X78145506Y-78630537D01*
X78255820Y-78689502D01*
X78375518Y-78725812D01*
X78500000Y-78738072D01*
X80900000Y-78738072D01*
X81024482Y-78725812D01*
X81144180Y-78689502D01*
X81254494Y-78630537D01*
X81351185Y-78551185D01*
X81430537Y-78454494D01*
X81489502Y-78344180D01*
X81525812Y-78224482D01*
X81538072Y-78100000D01*
X81538072Y-75700000D01*
X87361928Y-75700000D01*
X87361928Y-78100000D01*
X87374188Y-78224482D01*
X87410498Y-78344180D01*
X87469463Y-78454494D01*
X87548815Y-78551185D01*
X87645506Y-78630537D01*
X87755820Y-78689502D01*
X87875518Y-78725812D01*
X88000000Y-78738072D01*
X90400000Y-78738072D01*
X90524482Y-78725812D01*
X90644180Y-78689502D01*
X90754494Y-78630537D01*
X90851185Y-78551185D01*
X90930537Y-78454494D01*
X90989502Y-78344180D01*
X91025812Y-78224482D01*
X91030391Y-78177980D01*
X93101626Y-78177980D01*
X93221514Y-78462836D01*
X93545210Y-78623699D01*
X93894069Y-78718322D01*
X94254684Y-78743067D01*
X94613198Y-78696985D01*
X94955833Y-78581846D01*
X95178486Y-78462836D01*
X95298374Y-78177980D01*
X94200000Y-77079605D01*
X93101626Y-78177980D01*
X91030391Y-78177980D01*
X91038072Y-78100000D01*
X91038072Y-76954684D01*
X92356933Y-76954684D01*
X92403015Y-77313198D01*
X92518154Y-77655833D01*
X92637164Y-77878486D01*
X92922020Y-77998374D01*
X94020395Y-76900000D01*
X94379605Y-76900000D01*
X95477980Y-77998374D01*
X95762836Y-77878486D01*
X95923699Y-77554790D01*
X96018322Y-77205931D01*
X96043067Y-76845316D01*
X95996985Y-76486802D01*
X95881846Y-76144167D01*
X95762836Y-75921514D01*
X95477980Y-75801626D01*
X94379605Y-76900000D01*
X94020395Y-76900000D01*
X92922020Y-75801626D01*
X92637164Y-75921514D01*
X92476301Y-76245210D01*
X92381678Y-76594069D01*
X92356933Y-76954684D01*
X91038072Y-76954684D01*
X91038072Y-75700000D01*
X91030392Y-75622020D01*
X93101626Y-75622020D01*
X94200000Y-76720395D01*
X95298374Y-75622020D01*
X95178486Y-75337164D01*
X94854790Y-75176301D01*
X94505931Y-75081678D01*
X94145316Y-75056933D01*
X93786802Y-75103015D01*
X93444167Y-75218154D01*
X93221514Y-75337164D01*
X93101626Y-75622020D01*
X91030392Y-75622020D01*
X91025812Y-75575518D01*
X90989502Y-75455820D01*
X90930537Y-75345506D01*
X90851185Y-75248815D01*
X90754494Y-75169463D01*
X90644180Y-75110498D01*
X90524482Y-75074188D01*
X90400000Y-75061928D01*
X88000000Y-75061928D01*
X87875518Y-75074188D01*
X87755820Y-75110498D01*
X87645506Y-75169463D01*
X87548815Y-75248815D01*
X87469463Y-75345506D01*
X87410498Y-75455820D01*
X87374188Y-75575518D01*
X87361928Y-75700000D01*
X81538072Y-75700000D01*
X81525812Y-75575518D01*
X81489502Y-75455820D01*
X81430537Y-75345506D01*
X81351185Y-75248815D01*
X81254494Y-75169463D01*
X81144180Y-75110498D01*
X81024482Y-75074188D01*
X80900000Y-75061928D01*
X78500000Y-75061928D01*
X78375518Y-75074188D01*
X78255820Y-75110498D01*
X78145506Y-75169463D01*
X78048815Y-75248815D01*
X77969463Y-75345506D01*
X77910498Y-75455820D01*
X77874188Y-75575518D01*
X77861928Y-75700000D01*
X75720394Y-75700000D01*
X75798374Y-75622020D01*
X75678486Y-75337164D01*
X75354790Y-75176301D01*
X75005931Y-75081678D01*
X74645316Y-75056933D01*
X74286802Y-75103015D01*
X73944167Y-75218154D01*
X73721514Y-75337164D01*
X73601626Y-75622020D01*
X66254666Y-75622020D01*
X66105931Y-75581678D01*
X65745316Y-75556933D01*
X65386802Y-75603015D01*
X65044167Y-75718154D01*
X64821514Y-75837164D01*
X64701626Y-76122020D01*
X63627000Y-76122020D01*
X63627000Y-75235000D01*
X73411447Y-75235000D01*
X73450000Y-75238797D01*
X73488553Y-75235000D01*
X73488561Y-75235000D01*
X73603887Y-75223641D01*
X73751860Y-75178754D01*
X73888233Y-75105862D01*
X74007764Y-75007764D01*
X74032347Y-74977810D01*
X80225158Y-68785000D01*
X81421289Y-68785000D01*
X81440226Y-68803937D01*
X81609744Y-68917205D01*
X81798102Y-68995226D01*
X81998061Y-69035000D01*
X82201939Y-69035000D01*
X82401898Y-68995226D01*
X82590256Y-68917205D01*
X82759774Y-68803937D01*
X82903937Y-68659774D01*
X83017205Y-68490256D01*
X83095226Y-68301898D01*
X83135000Y-68101939D01*
X83135000Y-67898061D01*
X83095226Y-67698102D01*
X83017205Y-67509744D01*
X82903937Y-67340226D01*
X82885000Y-67321289D01*
X82885000Y-67138556D01*
X82888797Y-67100000D01*
X82885000Y-67061444D01*
X82885000Y-67061439D01*
X82879419Y-67004774D01*
X82873642Y-66946113D01*
X82828754Y-66798140D01*
X82809312Y-66761767D01*
X82755862Y-66661767D01*
X82657764Y-66542236D01*
X82627810Y-66517653D01*
X79285000Y-63174843D01*
X79285000Y-60321144D01*
X79339502Y-60219180D01*
X79375812Y-60099482D01*
X79388072Y-59975000D01*
X79388072Y-59525000D01*
X79375812Y-59400518D01*
X79339502Y-59280820D01*
X79280537Y-59170506D01*
X79201185Y-59073815D01*
X79104494Y-58994463D01*
X78994180Y-58935498D01*
X78874482Y-58899188D01*
X78750000Y-58886928D01*
X78150000Y-58886928D01*
X78025518Y-58899188D01*
X77905820Y-58935498D01*
X77795506Y-58994463D01*
X77698815Y-59073815D01*
X77619463Y-59170506D01*
X77560498Y-59280820D01*
X77524188Y-59400518D01*
X77511928Y-59525000D01*
X77511928Y-59975000D01*
X77524188Y-60099482D01*
X77560498Y-60219180D01*
X77619463Y-60329494D01*
X77698815Y-60426185D01*
X77715001Y-60439468D01*
X77715000Y-63461447D01*
X77711203Y-63500000D01*
X77715000Y-63538553D01*
X77715000Y-63538560D01*
X77726359Y-63653886D01*
X77771246Y-63801859D01*
X77844138Y-63938232D01*
X77942236Y-64057764D01*
X77972190Y-64082347D01*
X81104843Y-67215000D01*
X79938552Y-67215000D01*
X79899999Y-67211203D01*
X79861446Y-67215000D01*
X79861439Y-67215000D01*
X79760490Y-67224943D01*
X79746112Y-67226359D01*
X79717627Y-67235000D01*
X79598140Y-67271246D01*
X79461767Y-67344138D01*
X79401559Y-67393550D01*
X79372187Y-67417655D01*
X79372184Y-67417658D01*
X79342236Y-67442236D01*
X79317658Y-67472184D01*
X77135000Y-69654842D01*
X77135000Y-60384981D01*
X77180537Y-60329494D01*
X77239502Y-60219180D01*
X77275812Y-60099482D01*
X77288072Y-59975000D01*
X77288072Y-59525000D01*
X77275812Y-59400518D01*
X77239502Y-59280820D01*
X77180537Y-59170506D01*
X77101185Y-59073815D01*
X77004494Y-58994463D01*
X76894180Y-58935498D01*
X76774482Y-58899188D01*
X76650000Y-58886928D01*
X76050000Y-58886928D01*
X75925518Y-58899188D01*
X75880154Y-58912949D01*
X75863405Y-58881614D01*
X75752962Y-58747038D01*
X75618386Y-58636595D01*
X75464850Y-58554528D01*
X75298254Y-58503992D01*
X75125000Y-58486928D01*
X73875000Y-58486928D01*
X73701746Y-58503992D01*
X73535150Y-58554528D01*
X73381614Y-58636595D01*
X73247038Y-58747038D01*
X73136595Y-58881614D01*
X73101143Y-58947941D01*
X73062115Y-58900385D01*
X72932275Y-58793829D01*
X72784142Y-58714650D01*
X72623408Y-58665892D01*
X72456250Y-58649428D01*
X71943750Y-58649428D01*
X71776592Y-58665892D01*
X71615858Y-58714650D01*
X71467725Y-58793829D01*
X71337885Y-58900385D01*
X71305374Y-58940000D01*
X71281046Y-58940000D01*
X71230537Y-58845506D01*
X71151185Y-58748815D01*
X71054494Y-58669463D01*
X71051905Y-58668079D01*
X71151958Y-58546164D01*
X71233447Y-58393709D01*
X71283628Y-58228285D01*
X71296189Y-58100751D01*
X78297571Y-58077177D01*
X87160197Y-66939803D01*
X87179443Y-66955597D01*
X87201399Y-66967333D01*
X87225224Y-66974560D01*
X87250000Y-66977000D01*
X98400000Y-66977000D01*
X98424776Y-66974560D01*
X98448601Y-66967333D01*
X98470557Y-66955597D01*
X98489803Y-66939803D01*
X98505597Y-66920557D01*
X98517333Y-66898601D01*
X98524560Y-66874776D01*
X98527000Y-66850000D01*
X98527000Y-39660000D01*
X101967722Y-39660000D01*
X102648126Y-39726714D01*
G36*
X65717725Y-70181171D02*
G01*
X65865858Y-70260350D01*
X66026592Y-70309108D01*
X66193750Y-70325572D01*
X66706250Y-70325572D01*
X66873408Y-70309108D01*
X67007447Y-70268448D01*
X67002150Y-70278358D01*
X66953392Y-70439092D01*
X66936928Y-70606250D01*
X66936928Y-71043750D01*
X66953392Y-71210908D01*
X67002150Y-71371642D01*
X67081329Y-71519775D01*
X67187885Y-71649615D01*
X67265000Y-71712901D01*
X67265000Y-72011447D01*
X67261203Y-72050000D01*
X67265000Y-72088553D01*
X67265000Y-72088560D01*
X67276359Y-72203886D01*
X67321246Y-72351859D01*
X67394138Y-72488232D01*
X67492236Y-72607764D01*
X67522189Y-72632347D01*
X67704843Y-72815000D01*
X63627000Y-72815000D01*
X63627000Y-72550000D01*
X63624560Y-72525224D01*
X63617333Y-72501399D01*
X63605597Y-72479443D01*
X63589803Y-72460197D01*
X63570557Y-72444403D01*
X63548601Y-72432667D01*
X63524776Y-72425440D01*
X63500000Y-72423000D01*
X59822696Y-72423000D01*
X59817205Y-72409744D01*
X59703937Y-72240226D01*
X59559774Y-72096063D01*
X59390256Y-71982795D01*
X59201898Y-71904774D01*
X59001939Y-71865000D01*
X58798061Y-71865000D01*
X58598102Y-71904774D01*
X58409744Y-71982795D01*
X58240226Y-72096063D01*
X58096063Y-72240226D01*
X57997658Y-72387500D01*
X57585000Y-71974843D01*
X57585000Y-71644626D01*
X57587500Y-71642574D01*
X57680225Y-71718671D01*
X57828358Y-71797850D01*
X57989092Y-71846608D01*
X58156250Y-71863072D01*
X58593750Y-71863072D01*
X58760908Y-71846608D01*
X58921642Y-71797850D01*
X59069775Y-71718671D01*
X59199213Y-71612445D01*
X59267725Y-71668671D01*
X59415858Y-71747850D01*
X59576592Y-71796608D01*
X59743750Y-71813072D01*
X60256250Y-71813072D01*
X60423408Y-71796608D01*
X60584142Y-71747850D01*
X60732275Y-71668671D01*
X60817384Y-71598824D01*
X60917725Y-71681171D01*
X61065858Y-71760350D01*
X61226592Y-71809108D01*
X61393750Y-71825572D01*
X61906250Y-71825572D01*
X62073408Y-71809108D01*
X62234142Y-71760350D01*
X62382275Y-71681171D01*
X62450000Y-71625591D01*
X62517725Y-71681171D01*
X62665858Y-71760350D01*
X62826592Y-71809108D01*
X62993750Y-71825572D01*
X63506250Y-71825572D01*
X63673408Y-71809108D01*
X63834142Y-71760350D01*
X63982275Y-71681171D01*
X64112115Y-71574615D01*
X64218671Y-71444775D01*
X64297850Y-71296642D01*
X64346608Y-71135908D01*
X64363072Y-70968750D01*
X64363072Y-70531250D01*
X64346608Y-70364092D01*
X64303428Y-70221747D01*
X64426592Y-70259108D01*
X64593750Y-70275572D01*
X65106250Y-70275572D01*
X65273408Y-70259108D01*
X65434142Y-70210350D01*
X65582275Y-70131171D01*
X65619537Y-70100591D01*
X65717725Y-70181171D01*
X65717725Y-70181171D01*
G37*
X65717725Y-70181171D02*
X65865858Y-70260350D01*
X66026592Y-70309108D01*
X66193750Y-70325572D01*
X66706250Y-70325572D01*
X66873408Y-70309108D01*
X67007447Y-70268448D01*
X67002150Y-70278358D01*
X66953392Y-70439092D01*
X66936928Y-70606250D01*
X66936928Y-71043750D01*
X66953392Y-71210908D01*
X67002150Y-71371642D01*
X67081329Y-71519775D01*
X67187885Y-71649615D01*
X67265000Y-71712901D01*
X67265000Y-72011447D01*
X67261203Y-72050000D01*
X67265000Y-72088553D01*
X67265000Y-72088560D01*
X67276359Y-72203886D01*
X67321246Y-72351859D01*
X67394138Y-72488232D01*
X67492236Y-72607764D01*
X67522189Y-72632347D01*
X67704843Y-72815000D01*
X63627000Y-72815000D01*
X63627000Y-72550000D01*
X63624560Y-72525224D01*
X63617333Y-72501399D01*
X63605597Y-72479443D01*
X63589803Y-72460197D01*
X63570557Y-72444403D01*
X63548601Y-72432667D01*
X63524776Y-72425440D01*
X63500000Y-72423000D01*
X59822696Y-72423000D01*
X59817205Y-72409744D01*
X59703937Y-72240226D01*
X59559774Y-72096063D01*
X59390256Y-71982795D01*
X59201898Y-71904774D01*
X59001939Y-71865000D01*
X58798061Y-71865000D01*
X58598102Y-71904774D01*
X58409744Y-71982795D01*
X58240226Y-72096063D01*
X58096063Y-72240226D01*
X57997658Y-72387500D01*
X57585000Y-71974843D01*
X57585000Y-71644626D01*
X57587500Y-71642574D01*
X57680225Y-71718671D01*
X57828358Y-71797850D01*
X57989092Y-71846608D01*
X58156250Y-71863072D01*
X58593750Y-71863072D01*
X58760908Y-71846608D01*
X58921642Y-71797850D01*
X59069775Y-71718671D01*
X59199213Y-71612445D01*
X59267725Y-71668671D01*
X59415858Y-71747850D01*
X59576592Y-71796608D01*
X59743750Y-71813072D01*
X60256250Y-71813072D01*
X60423408Y-71796608D01*
X60584142Y-71747850D01*
X60732275Y-71668671D01*
X60817384Y-71598824D01*
X60917725Y-71681171D01*
X61065858Y-71760350D01*
X61226592Y-71809108D01*
X61393750Y-71825572D01*
X61906250Y-71825572D01*
X62073408Y-71809108D01*
X62234142Y-71760350D01*
X62382275Y-71681171D01*
X62450000Y-71625591D01*
X62517725Y-71681171D01*
X62665858Y-71760350D01*
X62826592Y-71809108D01*
X62993750Y-71825572D01*
X63506250Y-71825572D01*
X63673408Y-71809108D01*
X63834142Y-71760350D01*
X63982275Y-71681171D01*
X64112115Y-71574615D01*
X64218671Y-71444775D01*
X64297850Y-71296642D01*
X64346608Y-71135908D01*
X64363072Y-70968750D01*
X64363072Y-70531250D01*
X64346608Y-70364092D01*
X64303428Y-70221747D01*
X64426592Y-70259108D01*
X64593750Y-70275572D01*
X65106250Y-70275572D01*
X65273408Y-70259108D01*
X65434142Y-70210350D01*
X65582275Y-70131171D01*
X65619537Y-70100591D01*
X65717725Y-70181171D01*
G36*
X70667725Y-70131171D02*
G01*
X70815858Y-70210350D01*
X70976592Y-70259108D01*
X71143750Y-70275572D01*
X71656250Y-70275572D01*
X71823408Y-70259108D01*
X71984142Y-70210350D01*
X72065001Y-70167130D01*
X72065001Y-71261542D01*
X72032795Y-71309742D01*
X71954774Y-71498100D01*
X71915000Y-71698059D01*
X71915000Y-71901937D01*
X71937489Y-72015000D01*
X69125158Y-72015000D01*
X68835000Y-71724843D01*
X68835000Y-71712901D01*
X68912115Y-71649615D01*
X69018671Y-71519775D01*
X69097850Y-71371642D01*
X69146608Y-71210908D01*
X69163072Y-71043750D01*
X69163072Y-70606250D01*
X69146608Y-70439092D01*
X69097850Y-70278358D01*
X69049110Y-70187172D01*
X69115858Y-70222850D01*
X69276592Y-70271608D01*
X69443750Y-70288072D01*
X69956250Y-70288072D01*
X70123408Y-70271608D01*
X70284142Y-70222850D01*
X70432275Y-70143671D01*
X70557616Y-70040807D01*
X70667725Y-70131171D01*
X70667725Y-70131171D01*
G37*
X70667725Y-70131171D02*
X70815858Y-70210350D01*
X70976592Y-70259108D01*
X71143750Y-70275572D01*
X71656250Y-70275572D01*
X71823408Y-70259108D01*
X71984142Y-70210350D01*
X72065001Y-70167130D01*
X72065001Y-71261542D01*
X72032795Y-71309742D01*
X71954774Y-71498100D01*
X71915000Y-71698059D01*
X71915000Y-71901937D01*
X71937489Y-72015000D01*
X69125158Y-72015000D01*
X68835000Y-71724843D01*
X68835000Y-71712901D01*
X68912115Y-71649615D01*
X69018671Y-71519775D01*
X69097850Y-71371642D01*
X69146608Y-71210908D01*
X69163072Y-71043750D01*
X69163072Y-70606250D01*
X69146608Y-70439092D01*
X69097850Y-70278358D01*
X69049110Y-70187172D01*
X69115858Y-70222850D01*
X69276592Y-70271608D01*
X69443750Y-70288072D01*
X69956250Y-70288072D01*
X70123408Y-70271608D01*
X70284142Y-70222850D01*
X70432275Y-70143671D01*
X70557616Y-70040807D01*
X70667725Y-70131171D01*
G36*
X71337885Y-60549615D02*
G01*
X71467725Y-60656171D01*
X71615858Y-60735350D01*
X71776592Y-60784108D01*
X71943750Y-60800572D01*
X72456250Y-60800572D01*
X72623408Y-60784108D01*
X72784142Y-60735350D01*
X72932275Y-60656171D01*
X73062115Y-60549615D01*
X73074109Y-60535000D01*
X73092024Y-60535000D01*
X73136595Y-60618386D01*
X73247038Y-60752962D01*
X73381614Y-60863405D01*
X73535150Y-60945472D01*
X73701746Y-60996008D01*
X73875000Y-61013072D01*
X75125000Y-61013072D01*
X75298254Y-60996008D01*
X75464850Y-60945472D01*
X75565000Y-60891940D01*
X75565001Y-69424841D01*
X73835000Y-71154843D01*
X73835000Y-68438535D01*
X73881171Y-68382275D01*
X73960350Y-68234142D01*
X74009108Y-68073408D01*
X74025572Y-67906250D01*
X74025572Y-67393750D01*
X74009108Y-67226592D01*
X73960350Y-67065858D01*
X73881171Y-66917725D01*
X73835000Y-66861465D01*
X73835000Y-66088535D01*
X73881171Y-66032275D01*
X73960350Y-65884142D01*
X74009108Y-65723408D01*
X74025572Y-65556250D01*
X74025572Y-65043750D01*
X74009108Y-64876592D01*
X73960350Y-64715858D01*
X73881171Y-64567725D01*
X73774615Y-64437885D01*
X73644775Y-64331329D01*
X73496642Y-64252150D01*
X73335908Y-64203392D01*
X73168750Y-64186928D01*
X72731250Y-64186928D01*
X72564092Y-64203392D01*
X72403358Y-64252150D01*
X72255225Y-64331329D01*
X72183734Y-64390000D01*
X71226018Y-64390000D01*
X71151185Y-64298815D01*
X71054494Y-64219463D01*
X70944180Y-64160498D01*
X70824482Y-64124188D01*
X70700000Y-64111928D01*
X70250000Y-64111928D01*
X70150000Y-64121777D01*
X70050000Y-64111928D01*
X69600000Y-64111928D01*
X69500000Y-64121777D01*
X69400000Y-64111928D01*
X68950000Y-64111928D01*
X68850000Y-64121777D01*
X68750000Y-64111928D01*
X68300000Y-64111928D01*
X68200000Y-64121777D01*
X68100000Y-64111928D01*
X67650000Y-64111928D01*
X67525518Y-64124188D01*
X67405820Y-64160498D01*
X67295506Y-64219463D01*
X67225000Y-64277326D01*
X67154494Y-64219463D01*
X67044180Y-64160498D01*
X66924482Y-64124188D01*
X66800000Y-64111928D01*
X66350000Y-64111928D01*
X66250000Y-64121777D01*
X66150000Y-64111928D01*
X65700000Y-64111928D01*
X65575518Y-64124188D01*
X65455820Y-64160498D01*
X65345506Y-64219463D01*
X65248815Y-64298815D01*
X65169463Y-64395506D01*
X65118954Y-64490000D01*
X64620157Y-64490000D01*
X65527817Y-63582341D01*
X65557764Y-63557764D01*
X65655862Y-63438233D01*
X65728754Y-63301860D01*
X65760217Y-63198141D01*
X65773642Y-63153887D01*
X65782714Y-63061768D01*
X65785000Y-63038561D01*
X65785000Y-63038556D01*
X65788797Y-63000000D01*
X65785000Y-62961445D01*
X65785000Y-60888072D01*
X66150000Y-60888072D01*
X66250000Y-60878223D01*
X66350000Y-60888072D01*
X66800000Y-60888072D01*
X66924482Y-60875812D01*
X67044180Y-60839502D01*
X67154494Y-60780537D01*
X67225000Y-60722674D01*
X67295506Y-60780537D01*
X67405820Y-60839502D01*
X67525518Y-60875812D01*
X67650000Y-60888072D01*
X68100000Y-60888072D01*
X68200000Y-60878223D01*
X68300000Y-60888072D01*
X68750000Y-60888072D01*
X68850000Y-60878223D01*
X68950000Y-60888072D01*
X69400000Y-60888072D01*
X69500000Y-60878223D01*
X69600000Y-60888072D01*
X70050000Y-60888072D01*
X70150000Y-60878223D01*
X70250000Y-60888072D01*
X70700000Y-60888072D01*
X70824482Y-60875812D01*
X70944180Y-60839502D01*
X71054494Y-60780537D01*
X71151185Y-60701185D01*
X71230537Y-60604494D01*
X71281046Y-60510000D01*
X71305374Y-60510000D01*
X71337885Y-60549615D01*
X71337885Y-60549615D01*
G37*
X71337885Y-60549615D02*
X71467725Y-60656171D01*
X71615858Y-60735350D01*
X71776592Y-60784108D01*
X71943750Y-60800572D01*
X72456250Y-60800572D01*
X72623408Y-60784108D01*
X72784142Y-60735350D01*
X72932275Y-60656171D01*
X73062115Y-60549615D01*
X73074109Y-60535000D01*
X73092024Y-60535000D01*
X73136595Y-60618386D01*
X73247038Y-60752962D01*
X73381614Y-60863405D01*
X73535150Y-60945472D01*
X73701746Y-60996008D01*
X73875000Y-61013072D01*
X75125000Y-61013072D01*
X75298254Y-60996008D01*
X75464850Y-60945472D01*
X75565000Y-60891940D01*
X75565001Y-69424841D01*
X73835000Y-71154843D01*
X73835000Y-68438535D01*
X73881171Y-68382275D01*
X73960350Y-68234142D01*
X74009108Y-68073408D01*
X74025572Y-67906250D01*
X74025572Y-67393750D01*
X74009108Y-67226592D01*
X73960350Y-67065858D01*
X73881171Y-66917725D01*
X73835000Y-66861465D01*
X73835000Y-66088535D01*
X73881171Y-66032275D01*
X73960350Y-65884142D01*
X74009108Y-65723408D01*
X74025572Y-65556250D01*
X74025572Y-65043750D01*
X74009108Y-64876592D01*
X73960350Y-64715858D01*
X73881171Y-64567725D01*
X73774615Y-64437885D01*
X73644775Y-64331329D01*
X73496642Y-64252150D01*
X73335908Y-64203392D01*
X73168750Y-64186928D01*
X72731250Y-64186928D01*
X72564092Y-64203392D01*
X72403358Y-64252150D01*
X72255225Y-64331329D01*
X72183734Y-64390000D01*
X71226018Y-64390000D01*
X71151185Y-64298815D01*
X71054494Y-64219463D01*
X70944180Y-64160498D01*
X70824482Y-64124188D01*
X70700000Y-64111928D01*
X70250000Y-64111928D01*
X70150000Y-64121777D01*
X70050000Y-64111928D01*
X69600000Y-64111928D01*
X69500000Y-64121777D01*
X69400000Y-64111928D01*
X68950000Y-64111928D01*
X68850000Y-64121777D01*
X68750000Y-64111928D01*
X68300000Y-64111928D01*
X68200000Y-64121777D01*
X68100000Y-64111928D01*
X67650000Y-64111928D01*
X67525518Y-64124188D01*
X67405820Y-64160498D01*
X67295506Y-64219463D01*
X67225000Y-64277326D01*
X67154494Y-64219463D01*
X67044180Y-64160498D01*
X66924482Y-64124188D01*
X66800000Y-64111928D01*
X66350000Y-64111928D01*
X66250000Y-64121777D01*
X66150000Y-64111928D01*
X65700000Y-64111928D01*
X65575518Y-64124188D01*
X65455820Y-64160498D01*
X65345506Y-64219463D01*
X65248815Y-64298815D01*
X65169463Y-64395506D01*
X65118954Y-64490000D01*
X64620157Y-64490000D01*
X65527817Y-63582341D01*
X65557764Y-63557764D01*
X65655862Y-63438233D01*
X65728754Y-63301860D01*
X65760217Y-63198141D01*
X65773642Y-63153887D01*
X65782714Y-63061768D01*
X65785000Y-63038561D01*
X65785000Y-63038556D01*
X65788797Y-63000000D01*
X65785000Y-62961445D01*
X65785000Y-60888072D01*
X66150000Y-60888072D01*
X66250000Y-60878223D01*
X66350000Y-60888072D01*
X66800000Y-60888072D01*
X66924482Y-60875812D01*
X67044180Y-60839502D01*
X67154494Y-60780537D01*
X67225000Y-60722674D01*
X67295506Y-60780537D01*
X67405820Y-60839502D01*
X67525518Y-60875812D01*
X67650000Y-60888072D01*
X68100000Y-60888072D01*
X68200000Y-60878223D01*
X68300000Y-60888072D01*
X68750000Y-60888072D01*
X68850000Y-60878223D01*
X68950000Y-60888072D01*
X69400000Y-60888072D01*
X69500000Y-60878223D01*
X69600000Y-60888072D01*
X70050000Y-60888072D01*
X70150000Y-60878223D01*
X70250000Y-60888072D01*
X70700000Y-60888072D01*
X70824482Y-60875812D01*
X70944180Y-60839502D01*
X71054494Y-60780537D01*
X71151185Y-60701185D01*
X71230537Y-60604494D01*
X71281046Y-60510000D01*
X71305374Y-60510000D01*
X71337885Y-60549615D01*
G36*
X65637343Y-67415000D02*
G01*
X65138552Y-67415000D01*
X65099999Y-67411203D01*
X65061446Y-67415000D01*
X65061439Y-67415000D01*
X64960490Y-67424943D01*
X64946112Y-67426359D01*
X64918175Y-67434834D01*
X64798140Y-67471246D01*
X64661767Y-67544138D01*
X64542236Y-67642236D01*
X64517655Y-67672188D01*
X64322190Y-67867653D01*
X64292236Y-67892236D01*
X64194138Y-68011768D01*
X64121246Y-68148141D01*
X64076359Y-68296114D01*
X64075645Y-68303363D01*
X63987885Y-68375385D01*
X63881329Y-68505225D01*
X63802150Y-68653358D01*
X63753392Y-68814092D01*
X63736928Y-68981250D01*
X63736928Y-69418750D01*
X63753392Y-69585908D01*
X63796572Y-69728253D01*
X63673408Y-69690892D01*
X63506250Y-69674428D01*
X62993750Y-69674428D01*
X62826592Y-69690892D01*
X62692553Y-69731552D01*
X62697850Y-69721642D01*
X62746608Y-69560908D01*
X62763072Y-69393750D01*
X62763072Y-68956250D01*
X62746608Y-68789092D01*
X62697850Y-68628358D01*
X62618671Y-68480225D01*
X62512115Y-68350385D01*
X62482632Y-68326189D01*
X62518671Y-68282275D01*
X62597850Y-68134142D01*
X62646608Y-67973408D01*
X62663072Y-67806250D01*
X62663072Y-67293750D01*
X62657285Y-67235000D01*
X65817343Y-67235000D01*
X65637343Y-67415000D01*
X65637343Y-67415000D01*
G37*
X65637343Y-67415000D02*
X65138552Y-67415000D01*
X65099999Y-67411203D01*
X65061446Y-67415000D01*
X65061439Y-67415000D01*
X64960490Y-67424943D01*
X64946112Y-67426359D01*
X64918175Y-67434834D01*
X64798140Y-67471246D01*
X64661767Y-67544138D01*
X64542236Y-67642236D01*
X64517655Y-67672188D01*
X64322190Y-67867653D01*
X64292236Y-67892236D01*
X64194138Y-68011768D01*
X64121246Y-68148141D01*
X64076359Y-68296114D01*
X64075645Y-68303363D01*
X63987885Y-68375385D01*
X63881329Y-68505225D01*
X63802150Y-68653358D01*
X63753392Y-68814092D01*
X63736928Y-68981250D01*
X63736928Y-69418750D01*
X63753392Y-69585908D01*
X63796572Y-69728253D01*
X63673408Y-69690892D01*
X63506250Y-69674428D01*
X62993750Y-69674428D01*
X62826592Y-69690892D01*
X62692553Y-69731552D01*
X62697850Y-69721642D01*
X62746608Y-69560908D01*
X62763072Y-69393750D01*
X62763072Y-68956250D01*
X62746608Y-68789092D01*
X62697850Y-68628358D01*
X62618671Y-68480225D01*
X62512115Y-68350385D01*
X62482632Y-68326189D01*
X62518671Y-68282275D01*
X62597850Y-68134142D01*
X62646608Y-67973408D01*
X62663072Y-67806250D01*
X62663072Y-67293750D01*
X62657285Y-67235000D01*
X65817343Y-67235000D01*
X65637343Y-67415000D01*
G36*
X64215000Y-62674842D02*
G01*
X63627000Y-63262843D01*
X63627000Y-60936422D01*
X63643750Y-60938072D01*
X64156250Y-60938072D01*
X64215001Y-60932285D01*
X64215000Y-62674842D01*
X64215000Y-62674842D01*
G37*
X64215000Y-62674842D02*
X63627000Y-63262843D01*
X63627000Y-60936422D01*
X63643750Y-60938072D01*
X64156250Y-60938072D01*
X64215001Y-60932285D01*
X64215000Y-62674842D01*
G36*
X62173000Y-98424947D02*
G01*
X62130537Y-98345506D01*
X62051185Y-98248815D01*
X61954494Y-98169463D01*
X61844180Y-98110498D01*
X61724482Y-98074188D01*
X61600000Y-98061928D01*
X60685750Y-98065000D01*
X60527000Y-98223750D01*
X60527000Y-99773000D01*
X60547000Y-99773000D01*
X60547000Y-100027000D01*
X60527000Y-100027000D01*
X60527000Y-101576250D01*
X60685750Y-101735000D01*
X61600000Y-101738072D01*
X61724482Y-101725812D01*
X61844180Y-101689502D01*
X61954494Y-101630537D01*
X62051185Y-101551185D01*
X62130537Y-101454494D01*
X62173000Y-101375053D01*
X62173000Y-120340000D01*
X53532279Y-120340000D01*
X52851874Y-120273286D01*
X52228430Y-120085057D01*
X51653427Y-119779323D01*
X51148752Y-119367721D01*
X50733638Y-118865933D01*
X50423896Y-118293077D01*
X50231318Y-117670961D01*
X50160000Y-116992417D01*
X50160000Y-101100000D01*
X58561928Y-101100000D01*
X58574188Y-101224482D01*
X58610498Y-101344180D01*
X58669463Y-101454494D01*
X58748815Y-101551185D01*
X58845506Y-101630537D01*
X58955820Y-101689502D01*
X59075518Y-101725812D01*
X59200000Y-101738072D01*
X60114250Y-101735000D01*
X60273000Y-101576250D01*
X60273000Y-100027000D01*
X58723750Y-100027000D01*
X58565000Y-100185750D01*
X58561928Y-101100000D01*
X50160000Y-101100000D01*
X50160000Y-98700000D01*
X58561928Y-98700000D01*
X58565000Y-99614250D01*
X58723750Y-99773000D01*
X60273000Y-99773000D01*
X60273000Y-98223750D01*
X60114250Y-98065000D01*
X59200000Y-98061928D01*
X59075518Y-98074188D01*
X58955820Y-98110498D01*
X58845506Y-98169463D01*
X58748815Y-98248815D01*
X58669463Y-98345506D01*
X58610498Y-98455820D01*
X58574188Y-98575518D01*
X58561928Y-98700000D01*
X50160000Y-98700000D01*
X50160000Y-90727000D01*
X62173000Y-90727000D01*
X62173000Y-98424947D01*
X62173000Y-98424947D01*
G37*
X62173000Y-98424947D02*
X62130537Y-98345506D01*
X62051185Y-98248815D01*
X61954494Y-98169463D01*
X61844180Y-98110498D01*
X61724482Y-98074188D01*
X61600000Y-98061928D01*
X60685750Y-98065000D01*
X60527000Y-98223750D01*
X60527000Y-99773000D01*
X60547000Y-99773000D01*
X60547000Y-100027000D01*
X60527000Y-100027000D01*
X60527000Y-101576250D01*
X60685750Y-101735000D01*
X61600000Y-101738072D01*
X61724482Y-101725812D01*
X61844180Y-101689502D01*
X61954494Y-101630537D01*
X62051185Y-101551185D01*
X62130537Y-101454494D01*
X62173000Y-101375053D01*
X62173000Y-120340000D01*
X53532279Y-120340000D01*
X52851874Y-120273286D01*
X52228430Y-120085057D01*
X51653427Y-119779323D01*
X51148752Y-119367721D01*
X50733638Y-118865933D01*
X50423896Y-118293077D01*
X50231318Y-117670961D01*
X50160000Y-116992417D01*
X50160000Y-101100000D01*
X58561928Y-101100000D01*
X58574188Y-101224482D01*
X58610498Y-101344180D01*
X58669463Y-101454494D01*
X58748815Y-101551185D01*
X58845506Y-101630537D01*
X58955820Y-101689502D01*
X59075518Y-101725812D01*
X59200000Y-101738072D01*
X60114250Y-101735000D01*
X60273000Y-101576250D01*
X60273000Y-100027000D01*
X58723750Y-100027000D01*
X58565000Y-100185750D01*
X58561928Y-101100000D01*
X50160000Y-101100000D01*
X50160000Y-98700000D01*
X58561928Y-98700000D01*
X58565000Y-99614250D01*
X58723750Y-99773000D01*
X60273000Y-99773000D01*
X60273000Y-98223750D01*
X60114250Y-98065000D01*
X59200000Y-98061928D01*
X59075518Y-98074188D01*
X58955820Y-98110498D01*
X58845506Y-98169463D01*
X58748815Y-98248815D01*
X58669463Y-98345506D01*
X58610498Y-98455820D01*
X58574188Y-98575518D01*
X58561928Y-98700000D01*
X50160000Y-98700000D01*
X50160000Y-90727000D01*
X62173000Y-90727000D01*
X62173000Y-98424947D01*
G36*
X91073000Y-120273000D02*
G01*
X86727000Y-120273000D01*
X86727000Y-111027000D01*
X91073000Y-111027000D01*
X91073000Y-120273000D01*
X91073000Y-120273000D01*
G37*
X91073000Y-120273000D02*
X86727000Y-120273000D01*
X86727000Y-111027000D01*
X91073000Y-111027000D01*
X91073000Y-120273000D01*
G36*
X105340001Y-112273000D02*
G01*
X97400000Y-112273000D01*
X97375224Y-112275440D01*
X97351399Y-112282667D01*
X97329443Y-112294403D01*
X97310197Y-112310197D01*
X97294403Y-112329443D01*
X97282667Y-112351399D01*
X97275440Y-112375224D01*
X97273000Y-112400000D01*
X97273000Y-118873000D01*
X95127000Y-118873000D01*
X95127000Y-107152606D01*
X97252606Y-105027000D01*
X105340001Y-105027000D01*
X105340001Y-112273000D01*
X105340001Y-112273000D01*
G37*
X105340001Y-112273000D02*
X97400000Y-112273000D01*
X97375224Y-112275440D01*
X97351399Y-112282667D01*
X97329443Y-112294403D01*
X97310197Y-112310197D01*
X97294403Y-112329443D01*
X97282667Y-112351399D01*
X97275440Y-112375224D01*
X97273000Y-112400000D01*
X97273000Y-118873000D01*
X95127000Y-118873000D01*
X95127000Y-107152606D01*
X97252606Y-105027000D01*
X105340001Y-105027000D01*
X105340001Y-112273000D01*
M02*
