G04 #@! TF.GenerationSoftware,KiCad,Pcbnew,(5.1.2)-2*
G04 #@! TF.CreationDate,2019-10-04T19:12:57-04:00*
G04 #@! TF.ProjectId,High_Current_Buck,48696768-5f43-4757-9272-656e745f4275,rev?*
G04 #@! TF.SameCoordinates,Original*
G04 #@! TF.FileFunction,Soldermask,Bot*
G04 #@! TF.FilePolarity,Negative*
%FSLAX46Y46*%
G04 Gerber Fmt 4.6, Leading zero omitted, Abs format (unit mm)*
G04 Created by KiCad (PCBNEW (5.1.2)-2) date 2019-10-04 19:12:57*
%MOMM*%
%LPD*%
G04 APERTURE LIST*
%ADD10C,0.100000*%
G04 APERTURE END LIST*
D10*
G36*
X78000000Y-47200000D02*
G01*
X59100000Y-47200000D01*
X58500000Y-46600000D01*
X58500000Y-39000000D01*
X78000000Y-39000000D01*
X78000000Y-47200000D01*
G37*
X78000000Y-47200000D02*
X59100000Y-47200000D01*
X58500000Y-46600000D01*
X58500000Y-39000000D01*
X78000000Y-39000000D01*
X78000000Y-47200000D01*
G36*
X62300000Y-50600000D02*
G01*
X62300000Y-60800000D01*
X49500000Y-60800000D01*
X49500000Y-50000000D01*
X61700000Y-50000000D01*
X62300000Y-50600000D01*
G37*
X62300000Y-50600000D02*
X62300000Y-60800000D01*
X49500000Y-60800000D01*
X49500000Y-50000000D01*
X61700000Y-50000000D01*
X62300000Y-50600000D01*
G36*
X102852564Y-113345099D02*
G01*
X103094126Y-113393149D01*
X103776765Y-113675907D01*
X104391123Y-114086408D01*
X104913592Y-114608877D01*
X105324093Y-115223235D01*
X105606851Y-115905874D01*
X105751000Y-116630559D01*
X105751000Y-117369441D01*
X105606851Y-118094126D01*
X105324093Y-118776765D01*
X104913592Y-119391123D01*
X104391123Y-119913592D01*
X103776765Y-120324093D01*
X103094126Y-120606851D01*
X102852564Y-120654901D01*
X102369443Y-120751000D01*
X101630557Y-120751000D01*
X101147436Y-120654901D01*
X100905874Y-120606851D01*
X100223235Y-120324093D01*
X99608877Y-119913592D01*
X99086408Y-119391123D01*
X98675907Y-118776765D01*
X98393149Y-118094126D01*
X98249000Y-117369441D01*
X98249000Y-116630559D01*
X98393149Y-115905874D01*
X98675907Y-115223235D01*
X99086408Y-114608877D01*
X99608877Y-114086408D01*
X100223235Y-113675907D01*
X100905874Y-113393149D01*
X101147436Y-113345099D01*
X101630557Y-113249000D01*
X102369443Y-113249000D01*
X102852564Y-113345099D01*
X102852564Y-113345099D01*
G37*
G36*
X96672798Y-115278247D02*
G01*
X96708367Y-115289037D01*
X96741139Y-115306554D01*
X96769869Y-115330131D01*
X96793446Y-115358861D01*
X96810963Y-115391633D01*
X96821753Y-115427202D01*
X96826000Y-115470325D01*
X96826000Y-118529675D01*
X96821753Y-118572798D01*
X96810963Y-118608367D01*
X96793446Y-118641139D01*
X96769869Y-118669869D01*
X96741139Y-118693446D01*
X96708367Y-118710963D01*
X96672798Y-118721753D01*
X96629675Y-118726000D01*
X95570325Y-118726000D01*
X95527202Y-118721753D01*
X95491633Y-118710963D01*
X95458861Y-118693446D01*
X95430131Y-118669869D01*
X95406554Y-118641139D01*
X95389037Y-118608367D01*
X95378247Y-118572798D01*
X95374000Y-118529675D01*
X95374000Y-115470325D01*
X95378247Y-115427202D01*
X95389037Y-115391633D01*
X95406554Y-115358861D01*
X95430131Y-115330131D01*
X95458861Y-115306554D01*
X95491633Y-115289037D01*
X95527202Y-115278247D01*
X95570325Y-115274000D01*
X96629675Y-115274000D01*
X96672798Y-115278247D01*
X96672798Y-115278247D01*
G37*
G36*
X90872798Y-115278247D02*
G01*
X90908367Y-115289037D01*
X90941139Y-115306554D01*
X90969869Y-115330131D01*
X90993446Y-115358861D01*
X91010963Y-115391633D01*
X91021753Y-115427202D01*
X91026000Y-115470325D01*
X91026000Y-118529675D01*
X91021753Y-118572798D01*
X91010963Y-118608367D01*
X90993446Y-118641139D01*
X90969869Y-118669869D01*
X90941139Y-118693446D01*
X90908367Y-118710963D01*
X90872798Y-118721753D01*
X90829675Y-118726000D01*
X89770325Y-118726000D01*
X89727202Y-118721753D01*
X89691633Y-118710963D01*
X89658861Y-118693446D01*
X89630131Y-118669869D01*
X89606554Y-118641139D01*
X89589037Y-118608367D01*
X89578247Y-118572798D01*
X89574000Y-118529675D01*
X89574000Y-115470325D01*
X89578247Y-115427202D01*
X89589037Y-115391633D01*
X89606554Y-115358861D01*
X89630131Y-115330131D01*
X89658861Y-115306554D01*
X89691633Y-115289037D01*
X89727202Y-115278247D01*
X89770325Y-115274000D01*
X90829675Y-115274000D01*
X90872798Y-115278247D01*
X90872798Y-115278247D01*
G37*
G36*
X96672798Y-111278247D02*
G01*
X96708367Y-111289037D01*
X96741139Y-111306554D01*
X96769869Y-111330131D01*
X96793446Y-111358861D01*
X96810963Y-111391633D01*
X96821753Y-111427202D01*
X96826000Y-111470325D01*
X96826000Y-114529675D01*
X96821753Y-114572798D01*
X96810963Y-114608367D01*
X96793446Y-114641139D01*
X96769869Y-114669869D01*
X96741139Y-114693446D01*
X96708367Y-114710963D01*
X96672798Y-114721753D01*
X96629675Y-114726000D01*
X95570325Y-114726000D01*
X95527202Y-114721753D01*
X95491633Y-114710963D01*
X95458861Y-114693446D01*
X95430131Y-114669869D01*
X95406554Y-114641139D01*
X95389037Y-114608367D01*
X95378247Y-114572798D01*
X95374000Y-114529675D01*
X95374000Y-111470325D01*
X95378247Y-111427202D01*
X95389037Y-111391633D01*
X95406554Y-111358861D01*
X95430131Y-111330131D01*
X95458861Y-111306554D01*
X95491633Y-111289037D01*
X95527202Y-111278247D01*
X95570325Y-111274000D01*
X96629675Y-111274000D01*
X96672798Y-111278247D01*
X96672798Y-111278247D01*
G37*
G36*
X90872798Y-111278247D02*
G01*
X90908367Y-111289037D01*
X90941139Y-111306554D01*
X90969869Y-111330131D01*
X90993446Y-111358861D01*
X91010963Y-111391633D01*
X91021753Y-111427202D01*
X91026000Y-111470325D01*
X91026000Y-114529675D01*
X91021753Y-114572798D01*
X91010963Y-114608367D01*
X90993446Y-114641139D01*
X90969869Y-114669869D01*
X90941139Y-114693446D01*
X90908367Y-114710963D01*
X90872798Y-114721753D01*
X90829675Y-114726000D01*
X89770325Y-114726000D01*
X89727202Y-114721753D01*
X89691633Y-114710963D01*
X89658861Y-114693446D01*
X89630131Y-114669869D01*
X89606554Y-114641139D01*
X89589037Y-114608367D01*
X89578247Y-114572798D01*
X89574000Y-114529675D01*
X89574000Y-111470325D01*
X89578247Y-111427202D01*
X89589037Y-111391633D01*
X89606554Y-111358861D01*
X89630131Y-111330131D01*
X89658861Y-111306554D01*
X89691633Y-111289037D01*
X89727202Y-111278247D01*
X89770325Y-111274000D01*
X90829675Y-111274000D01*
X90872798Y-111278247D01*
X90872798Y-111278247D01*
G37*
G36*
X105251000Y-111851000D02*
G01*
X99349000Y-111851000D01*
X99349000Y-105349000D01*
X105251000Y-105349000D01*
X105251000Y-111851000D01*
X105251000Y-111851000D01*
G37*
G36*
X75064903Y-102897075D02*
G01*
X75292571Y-102991378D01*
X75497466Y-103128285D01*
X75671715Y-103302534D01*
X75808622Y-103507429D01*
X75902925Y-103735097D01*
X75951000Y-103976787D01*
X75951000Y-104223213D01*
X75902925Y-104464903D01*
X75808622Y-104692571D01*
X75671715Y-104897466D01*
X75497466Y-105071715D01*
X75292571Y-105208622D01*
X75292570Y-105208623D01*
X75292569Y-105208623D01*
X75064903Y-105302925D01*
X74823214Y-105351000D01*
X74576786Y-105351000D01*
X74335097Y-105302925D01*
X74107431Y-105208623D01*
X74107430Y-105208623D01*
X74107429Y-105208622D01*
X73902534Y-105071715D01*
X73728285Y-104897466D01*
X73591378Y-104692571D01*
X73497075Y-104464903D01*
X73449000Y-104223213D01*
X73449000Y-103976787D01*
X73497075Y-103735097D01*
X73591378Y-103507429D01*
X73728285Y-103302534D01*
X73902534Y-103128285D01*
X74107429Y-102991378D01*
X74335097Y-102897075D01*
X74576786Y-102849000D01*
X74823214Y-102849000D01*
X75064903Y-102897075D01*
X75064903Y-102897075D01*
G37*
G36*
X94564903Y-102897075D02*
G01*
X94792571Y-102991378D01*
X94997466Y-103128285D01*
X95171715Y-103302534D01*
X95308622Y-103507429D01*
X95402925Y-103735097D01*
X95451000Y-103976787D01*
X95451000Y-104223213D01*
X95402925Y-104464903D01*
X95308622Y-104692571D01*
X95171715Y-104897466D01*
X94997466Y-105071715D01*
X94792571Y-105208622D01*
X94792570Y-105208623D01*
X94792569Y-105208623D01*
X94564903Y-105302925D01*
X94323214Y-105351000D01*
X94076786Y-105351000D01*
X93835097Y-105302925D01*
X93607431Y-105208623D01*
X93607430Y-105208623D01*
X93607429Y-105208622D01*
X93402534Y-105071715D01*
X93228285Y-104897466D01*
X93091378Y-104692571D01*
X92997075Y-104464903D01*
X92949000Y-104223213D01*
X92949000Y-103976787D01*
X92997075Y-103735097D01*
X93091378Y-103507429D01*
X93228285Y-103302534D01*
X93402534Y-103128285D01*
X93607429Y-102991378D01*
X93835097Y-102897075D01*
X94076786Y-102849000D01*
X94323214Y-102849000D01*
X94564903Y-102897075D01*
X94564903Y-102897075D01*
G37*
G36*
X90451000Y-105351000D02*
G01*
X87949000Y-105351000D01*
X87949000Y-102849000D01*
X90451000Y-102849000D01*
X90451000Y-105351000D01*
X90451000Y-105351000D01*
G37*
G36*
X80951000Y-105351000D02*
G01*
X78449000Y-105351000D01*
X78449000Y-102849000D01*
X80951000Y-102849000D01*
X80951000Y-105351000D01*
X80951000Y-105351000D01*
G37*
G36*
X100671000Y-103451000D02*
G01*
X99369000Y-103451000D01*
X99369000Y-101149000D01*
X100671000Y-101149000D01*
X100671000Y-103451000D01*
X100671000Y-103451000D01*
G37*
G36*
X105231000Y-103451000D02*
G01*
X103929000Y-103451000D01*
X103929000Y-101149000D01*
X105231000Y-101149000D01*
X105231000Y-103451000D01*
X105231000Y-103451000D01*
G37*
G36*
X65764903Y-98697075D02*
G01*
X65992571Y-98791378D01*
X66197466Y-98928285D01*
X66371715Y-99102534D01*
X66508622Y-99307429D01*
X66602925Y-99535097D01*
X66651000Y-99776787D01*
X66651000Y-100023213D01*
X66602925Y-100264903D01*
X66508622Y-100492571D01*
X66371715Y-100697466D01*
X66197466Y-100871715D01*
X65992571Y-101008622D01*
X65992570Y-101008623D01*
X65992569Y-101008623D01*
X65764903Y-101102925D01*
X65523214Y-101151000D01*
X65276786Y-101151000D01*
X65035097Y-101102925D01*
X64807431Y-101008623D01*
X64807430Y-101008623D01*
X64807429Y-101008622D01*
X64602534Y-100871715D01*
X64428285Y-100697466D01*
X64291378Y-100492571D01*
X64197075Y-100264903D01*
X64149000Y-100023213D01*
X64149000Y-99776787D01*
X64197075Y-99535097D01*
X64291378Y-99307429D01*
X64428285Y-99102534D01*
X64602534Y-98928285D01*
X64807429Y-98791378D01*
X65035097Y-98697075D01*
X65276786Y-98649000D01*
X65523214Y-98649000D01*
X65764903Y-98697075D01*
X65764903Y-98697075D01*
G37*
G36*
X61651000Y-101151000D02*
G01*
X59149000Y-101151000D01*
X59149000Y-98649000D01*
X61651000Y-98649000D01*
X61651000Y-101151000D01*
X61651000Y-101151000D01*
G37*
G36*
X97301000Y-98351000D02*
G01*
X94699000Y-98351000D01*
X94699000Y-96449000D01*
X97301000Y-96449000D01*
X97301000Y-98351000D01*
X97301000Y-98351000D01*
G37*
G36*
X101301000Y-98351000D02*
G01*
X98699000Y-98351000D01*
X98699000Y-96449000D01*
X101301000Y-96449000D01*
X101301000Y-98351000D01*
X101301000Y-98351000D01*
G37*
G36*
X103042091Y-96778085D02*
G01*
X103076069Y-96788393D01*
X103107390Y-96805134D01*
X103134839Y-96827661D01*
X103157366Y-96855110D01*
X103174107Y-96886431D01*
X103184415Y-96920409D01*
X103188500Y-96961890D01*
X103188500Y-97638110D01*
X103184415Y-97679591D01*
X103174107Y-97713569D01*
X103157366Y-97744890D01*
X103134839Y-97772339D01*
X103107390Y-97794866D01*
X103076069Y-97811607D01*
X103042091Y-97821915D01*
X103000610Y-97826000D01*
X102399390Y-97826000D01*
X102357909Y-97821915D01*
X102323931Y-97811607D01*
X102292610Y-97794866D01*
X102265161Y-97772339D01*
X102242634Y-97744890D01*
X102225893Y-97713569D01*
X102215585Y-97679591D01*
X102211500Y-97638110D01*
X102211500Y-96961890D01*
X102215585Y-96920409D01*
X102225893Y-96886431D01*
X102242634Y-96855110D01*
X102265161Y-96827661D01*
X102292610Y-96805134D01*
X102323931Y-96788393D01*
X102357909Y-96778085D01*
X102399390Y-96774000D01*
X103000610Y-96774000D01*
X103042091Y-96778085D01*
X103042091Y-96778085D01*
G37*
G36*
X104617091Y-96778085D02*
G01*
X104651069Y-96788393D01*
X104682390Y-96805134D01*
X104709839Y-96827661D01*
X104732366Y-96855110D01*
X104749107Y-96886431D01*
X104759415Y-96920409D01*
X104763500Y-96961890D01*
X104763500Y-97638110D01*
X104759415Y-97679591D01*
X104749107Y-97713569D01*
X104732366Y-97744890D01*
X104709839Y-97772339D01*
X104682390Y-97794866D01*
X104651069Y-97811607D01*
X104617091Y-97821915D01*
X104575610Y-97826000D01*
X103974390Y-97826000D01*
X103932909Y-97821915D01*
X103898931Y-97811607D01*
X103867610Y-97794866D01*
X103840161Y-97772339D01*
X103817634Y-97744890D01*
X103800893Y-97713569D01*
X103790585Y-97679591D01*
X103786500Y-97638110D01*
X103786500Y-96961890D01*
X103790585Y-96920409D01*
X103800893Y-96886431D01*
X103817634Y-96855110D01*
X103840161Y-96827661D01*
X103867610Y-96805134D01*
X103898931Y-96788393D01*
X103932909Y-96778085D01*
X103974390Y-96774000D01*
X104575610Y-96774000D01*
X104617091Y-96778085D01*
X104617091Y-96778085D01*
G37*
G36*
X94564903Y-89197075D02*
G01*
X94792571Y-89291378D01*
X94997466Y-89428285D01*
X95171715Y-89602534D01*
X95308622Y-89807429D01*
X95402925Y-90035097D01*
X95451000Y-90276787D01*
X95451000Y-90523213D01*
X95402925Y-90764903D01*
X95308622Y-90992571D01*
X95171715Y-91197466D01*
X94997466Y-91371715D01*
X94792571Y-91508622D01*
X94792570Y-91508623D01*
X94792569Y-91508623D01*
X94564903Y-91602925D01*
X94323214Y-91651000D01*
X94076786Y-91651000D01*
X93835097Y-91602925D01*
X93607431Y-91508623D01*
X93607430Y-91508623D01*
X93607429Y-91508622D01*
X93402534Y-91371715D01*
X93228285Y-91197466D01*
X93091378Y-90992571D01*
X92997075Y-90764903D01*
X92949000Y-90523213D01*
X92949000Y-90276787D01*
X92997075Y-90035097D01*
X93091378Y-89807429D01*
X93228285Y-89602534D01*
X93402534Y-89428285D01*
X93607429Y-89291378D01*
X93835097Y-89197075D01*
X94076786Y-89149000D01*
X94323214Y-89149000D01*
X94564903Y-89197075D01*
X94564903Y-89197075D01*
G37*
G36*
X75064903Y-89197075D02*
G01*
X75292571Y-89291378D01*
X75497466Y-89428285D01*
X75671715Y-89602534D01*
X75808622Y-89807429D01*
X75902925Y-90035097D01*
X75951000Y-90276787D01*
X75951000Y-90523213D01*
X75902925Y-90764903D01*
X75808622Y-90992571D01*
X75671715Y-91197466D01*
X75497466Y-91371715D01*
X75292571Y-91508622D01*
X75292570Y-91508623D01*
X75292569Y-91508623D01*
X75064903Y-91602925D01*
X74823214Y-91651000D01*
X74576786Y-91651000D01*
X74335097Y-91602925D01*
X74107431Y-91508623D01*
X74107430Y-91508623D01*
X74107429Y-91508622D01*
X73902534Y-91371715D01*
X73728285Y-91197466D01*
X73591378Y-90992571D01*
X73497075Y-90764903D01*
X73449000Y-90523213D01*
X73449000Y-90276787D01*
X73497075Y-90035097D01*
X73591378Y-89807429D01*
X73728285Y-89602534D01*
X73902534Y-89428285D01*
X74107429Y-89291378D01*
X74335097Y-89197075D01*
X74576786Y-89149000D01*
X74823214Y-89149000D01*
X75064903Y-89197075D01*
X75064903Y-89197075D01*
G37*
G36*
X90451000Y-91651000D02*
G01*
X87949000Y-91651000D01*
X87949000Y-89149000D01*
X90451000Y-89149000D01*
X90451000Y-91651000D01*
X90451000Y-91651000D01*
G37*
G36*
X80951000Y-91651000D02*
G01*
X78449000Y-91651000D01*
X78449000Y-89149000D01*
X80951000Y-89149000D01*
X80951000Y-91651000D01*
X80951000Y-91651000D01*
G37*
G36*
X66164903Y-76197075D02*
G01*
X66392571Y-76291378D01*
X66597466Y-76428285D01*
X66771715Y-76602534D01*
X66908622Y-76807429D01*
X66908623Y-76807431D01*
X66998003Y-77023214D01*
X67002925Y-77035097D01*
X67051000Y-77276787D01*
X67051000Y-77523213D01*
X67002925Y-77764903D01*
X66908622Y-77992571D01*
X66771715Y-78197466D01*
X66597466Y-78371715D01*
X66392571Y-78508622D01*
X66392570Y-78508623D01*
X66392569Y-78508623D01*
X66164903Y-78602925D01*
X65923214Y-78651000D01*
X65676786Y-78651000D01*
X65435097Y-78602925D01*
X65207431Y-78508623D01*
X65207430Y-78508623D01*
X65207429Y-78508622D01*
X65002534Y-78371715D01*
X64828285Y-78197466D01*
X64691378Y-77992571D01*
X64597075Y-77764903D01*
X64549000Y-77523213D01*
X64549000Y-77276787D01*
X64597075Y-77035097D01*
X64601997Y-77023214D01*
X64691377Y-76807431D01*
X64691378Y-76807429D01*
X64828285Y-76602534D01*
X65002534Y-76428285D01*
X65207429Y-76291378D01*
X65435097Y-76197075D01*
X65676786Y-76149000D01*
X65923214Y-76149000D01*
X66164903Y-76197075D01*
X66164903Y-76197075D01*
G37*
G36*
X62051000Y-78651000D02*
G01*
X59549000Y-78651000D01*
X59549000Y-76149000D01*
X62051000Y-76149000D01*
X62051000Y-78651000D01*
X62051000Y-78651000D01*
G37*
G36*
X75064903Y-75697075D02*
G01*
X75292571Y-75791378D01*
X75497466Y-75928285D01*
X75671715Y-76102534D01*
X75797896Y-76291377D01*
X75808623Y-76307431D01*
X75902925Y-76535097D01*
X75951000Y-76776786D01*
X75951000Y-77023214D01*
X75902925Y-77264903D01*
X75898003Y-77276787D01*
X75808622Y-77492571D01*
X75671715Y-77697466D01*
X75497466Y-77871715D01*
X75292571Y-78008622D01*
X75292570Y-78008623D01*
X75292569Y-78008623D01*
X75064903Y-78102925D01*
X74823214Y-78151000D01*
X74576786Y-78151000D01*
X74335097Y-78102925D01*
X74107431Y-78008623D01*
X74107430Y-78008623D01*
X74107429Y-78008622D01*
X73902534Y-77871715D01*
X73728285Y-77697466D01*
X73591378Y-77492571D01*
X73501998Y-77276787D01*
X73497075Y-77264903D01*
X73449000Y-77023214D01*
X73449000Y-76776786D01*
X73497075Y-76535097D01*
X73591377Y-76307431D01*
X73602104Y-76291377D01*
X73728285Y-76102534D01*
X73902534Y-75928285D01*
X74107429Y-75791378D01*
X74335097Y-75697075D01*
X74576786Y-75649000D01*
X74823214Y-75649000D01*
X75064903Y-75697075D01*
X75064903Y-75697075D01*
G37*
G36*
X80951000Y-78151000D02*
G01*
X78449000Y-78151000D01*
X78449000Y-75649000D01*
X80951000Y-75649000D01*
X80951000Y-78151000D01*
X80951000Y-78151000D01*
G37*
G36*
X94564903Y-75697075D02*
G01*
X94792571Y-75791378D01*
X94997466Y-75928285D01*
X95171715Y-76102534D01*
X95297896Y-76291377D01*
X95308623Y-76307431D01*
X95402925Y-76535097D01*
X95451000Y-76776786D01*
X95451000Y-77023214D01*
X95402925Y-77264903D01*
X95398003Y-77276787D01*
X95308622Y-77492571D01*
X95171715Y-77697466D01*
X94997466Y-77871715D01*
X94792571Y-78008622D01*
X94792570Y-78008623D01*
X94792569Y-78008623D01*
X94564903Y-78102925D01*
X94323214Y-78151000D01*
X94076786Y-78151000D01*
X93835097Y-78102925D01*
X93607431Y-78008623D01*
X93607430Y-78008623D01*
X93607429Y-78008622D01*
X93402534Y-77871715D01*
X93228285Y-77697466D01*
X93091378Y-77492571D01*
X93001998Y-77276787D01*
X92997075Y-77264903D01*
X92949000Y-77023214D01*
X92949000Y-76776786D01*
X92997075Y-76535097D01*
X93091377Y-76307431D01*
X93102104Y-76291377D01*
X93228285Y-76102534D01*
X93402534Y-75928285D01*
X93607429Y-75791378D01*
X93835097Y-75697075D01*
X94076786Y-75649000D01*
X94323214Y-75649000D01*
X94564903Y-75697075D01*
X94564903Y-75697075D01*
G37*
G36*
X90451000Y-78151000D02*
G01*
X87949000Y-78151000D01*
X87949000Y-75649000D01*
X90451000Y-75649000D01*
X90451000Y-78151000D01*
X90451000Y-78151000D01*
G37*
G36*
X66829591Y-70340585D02*
G01*
X66863569Y-70350893D01*
X66894890Y-70367634D01*
X66922339Y-70390161D01*
X66944866Y-70417610D01*
X66961607Y-70448931D01*
X66971915Y-70482909D01*
X66976000Y-70524390D01*
X66976000Y-71125610D01*
X66971915Y-71167091D01*
X66961607Y-71201069D01*
X66944866Y-71232390D01*
X66922339Y-71259839D01*
X66894890Y-71282366D01*
X66863569Y-71299107D01*
X66829591Y-71309415D01*
X66788110Y-71313500D01*
X66111890Y-71313500D01*
X66070409Y-71309415D01*
X66036431Y-71299107D01*
X66005110Y-71282366D01*
X65977661Y-71259839D01*
X65955134Y-71232390D01*
X65938393Y-71201069D01*
X65928085Y-71167091D01*
X65924000Y-71125610D01*
X65924000Y-70524390D01*
X65928085Y-70482909D01*
X65938393Y-70448931D01*
X65955134Y-70417610D01*
X65977661Y-70390161D01*
X66005110Y-70367634D01*
X66036431Y-70350893D01*
X66070409Y-70340585D01*
X66111890Y-70336500D01*
X66788110Y-70336500D01*
X66829591Y-70340585D01*
X66829591Y-70340585D01*
G37*
G36*
X68429591Y-70340585D02*
G01*
X68463569Y-70350893D01*
X68494890Y-70367634D01*
X68522339Y-70390161D01*
X68544866Y-70417610D01*
X68561607Y-70448931D01*
X68571915Y-70482909D01*
X68576000Y-70524390D01*
X68576000Y-71125610D01*
X68571915Y-71167091D01*
X68561607Y-71201069D01*
X68544866Y-71232390D01*
X68522339Y-71259839D01*
X68494890Y-71282366D01*
X68463569Y-71299107D01*
X68429591Y-71309415D01*
X68388110Y-71313500D01*
X67711890Y-71313500D01*
X67670409Y-71309415D01*
X67636431Y-71299107D01*
X67605110Y-71282366D01*
X67577661Y-71259839D01*
X67555134Y-71232390D01*
X67538393Y-71201069D01*
X67528085Y-71167091D01*
X67524000Y-71125610D01*
X67524000Y-70524390D01*
X67528085Y-70482909D01*
X67538393Y-70448931D01*
X67555134Y-70417610D01*
X67577661Y-70390161D01*
X67605110Y-70367634D01*
X67636431Y-70350893D01*
X67670409Y-70340585D01*
X67711890Y-70336500D01*
X68388110Y-70336500D01*
X68429591Y-70340585D01*
X68429591Y-70340585D01*
G37*
G36*
X70079591Y-70303085D02*
G01*
X70113569Y-70313393D01*
X70144890Y-70330134D01*
X70172339Y-70352661D01*
X70194866Y-70380110D01*
X70211607Y-70411431D01*
X70221915Y-70445409D01*
X70226000Y-70486890D01*
X70226000Y-71088110D01*
X70221915Y-71129591D01*
X70211607Y-71163569D01*
X70194866Y-71194890D01*
X70172339Y-71222339D01*
X70144890Y-71244866D01*
X70113569Y-71261607D01*
X70079591Y-71271915D01*
X70038110Y-71276000D01*
X69361890Y-71276000D01*
X69320409Y-71271915D01*
X69286431Y-71261607D01*
X69255110Y-71244866D01*
X69227661Y-71222339D01*
X69205134Y-71194890D01*
X69188393Y-71163569D01*
X69178085Y-71129591D01*
X69174000Y-71088110D01*
X69174000Y-70486890D01*
X69178085Y-70445409D01*
X69188393Y-70411431D01*
X69205134Y-70380110D01*
X69227661Y-70352661D01*
X69255110Y-70330134D01*
X69286431Y-70313393D01*
X69320409Y-70303085D01*
X69361890Y-70299000D01*
X70038110Y-70299000D01*
X70079591Y-70303085D01*
X70079591Y-70303085D01*
G37*
G36*
X58717091Y-70228085D02*
G01*
X58751069Y-70238393D01*
X58782390Y-70255134D01*
X58809839Y-70277661D01*
X58832366Y-70305110D01*
X58849107Y-70336431D01*
X58859415Y-70370409D01*
X58863500Y-70411890D01*
X58863500Y-71088110D01*
X58859415Y-71129591D01*
X58849107Y-71163569D01*
X58832366Y-71194890D01*
X58809839Y-71222339D01*
X58782390Y-71244866D01*
X58751069Y-71261607D01*
X58717091Y-71271915D01*
X58675610Y-71276000D01*
X58074390Y-71276000D01*
X58032909Y-71271915D01*
X57998931Y-71261607D01*
X57967610Y-71244866D01*
X57940161Y-71222339D01*
X57917634Y-71194890D01*
X57900893Y-71163569D01*
X57890585Y-71129591D01*
X57886500Y-71088110D01*
X57886500Y-70411890D01*
X57890585Y-70370409D01*
X57900893Y-70336431D01*
X57917634Y-70305110D01*
X57940161Y-70277661D01*
X57967610Y-70255134D01*
X57998931Y-70238393D01*
X58032909Y-70228085D01*
X58074390Y-70224000D01*
X58675610Y-70224000D01*
X58717091Y-70228085D01*
X58717091Y-70228085D01*
G37*
G36*
X57142091Y-70228085D02*
G01*
X57176069Y-70238393D01*
X57207390Y-70255134D01*
X57234839Y-70277661D01*
X57257366Y-70305110D01*
X57274107Y-70336431D01*
X57284415Y-70370409D01*
X57288500Y-70411890D01*
X57288500Y-71088110D01*
X57284415Y-71129591D01*
X57274107Y-71163569D01*
X57257366Y-71194890D01*
X57234839Y-71222339D01*
X57207390Y-71244866D01*
X57176069Y-71261607D01*
X57142091Y-71271915D01*
X57100610Y-71276000D01*
X56499390Y-71276000D01*
X56457909Y-71271915D01*
X56423931Y-71261607D01*
X56392610Y-71244866D01*
X56365161Y-71222339D01*
X56342634Y-71194890D01*
X56325893Y-71163569D01*
X56315585Y-71129591D01*
X56311500Y-71088110D01*
X56311500Y-70411890D01*
X56315585Y-70370409D01*
X56325893Y-70336431D01*
X56342634Y-70305110D01*
X56365161Y-70277661D01*
X56392610Y-70255134D01*
X56423931Y-70238393D01*
X56457909Y-70228085D01*
X56499390Y-70224000D01*
X57100610Y-70224000D01*
X57142091Y-70228085D01*
X57142091Y-70228085D01*
G37*
G36*
X71779591Y-70290585D02*
G01*
X71813569Y-70300893D01*
X71844890Y-70317634D01*
X71872339Y-70340161D01*
X71894866Y-70367610D01*
X71911607Y-70398931D01*
X71921915Y-70432909D01*
X71926000Y-70474390D01*
X71926000Y-71075610D01*
X71921915Y-71117091D01*
X71911607Y-71151069D01*
X71894866Y-71182390D01*
X71872339Y-71209839D01*
X71844890Y-71232366D01*
X71813569Y-71249107D01*
X71779591Y-71259415D01*
X71738110Y-71263500D01*
X71061890Y-71263500D01*
X71020409Y-71259415D01*
X70986431Y-71249107D01*
X70955110Y-71232366D01*
X70927661Y-71209839D01*
X70905134Y-71182390D01*
X70888393Y-71151069D01*
X70878085Y-71117091D01*
X70874000Y-71075610D01*
X70874000Y-70474390D01*
X70878085Y-70432909D01*
X70888393Y-70398931D01*
X70905134Y-70367610D01*
X70927661Y-70340161D01*
X70955110Y-70317634D01*
X70986431Y-70300893D01*
X71020409Y-70290585D01*
X71061890Y-70286500D01*
X71738110Y-70286500D01*
X71779591Y-70290585D01*
X71779591Y-70290585D01*
G37*
G36*
X65229591Y-70290585D02*
G01*
X65263569Y-70300893D01*
X65294890Y-70317634D01*
X65322339Y-70340161D01*
X65344866Y-70367610D01*
X65361607Y-70398931D01*
X65371915Y-70432909D01*
X65376000Y-70474390D01*
X65376000Y-71075610D01*
X65371915Y-71117091D01*
X65361607Y-71151069D01*
X65344866Y-71182390D01*
X65322339Y-71209839D01*
X65294890Y-71232366D01*
X65263569Y-71249107D01*
X65229591Y-71259415D01*
X65188110Y-71263500D01*
X64511890Y-71263500D01*
X64470409Y-71259415D01*
X64436431Y-71249107D01*
X64405110Y-71232366D01*
X64377661Y-71209839D01*
X64355134Y-71182390D01*
X64338393Y-71151069D01*
X64328085Y-71117091D01*
X64324000Y-71075610D01*
X64324000Y-70474390D01*
X64328085Y-70432909D01*
X64338393Y-70398931D01*
X64355134Y-70367610D01*
X64377661Y-70340161D01*
X64405110Y-70317634D01*
X64436431Y-70300893D01*
X64470409Y-70290585D01*
X64511890Y-70286500D01*
X65188110Y-70286500D01*
X65229591Y-70290585D01*
X65229591Y-70290585D01*
G37*
G36*
X62029591Y-70265585D02*
G01*
X62063569Y-70275893D01*
X62094890Y-70292634D01*
X62122339Y-70315161D01*
X62144866Y-70342610D01*
X62161607Y-70373931D01*
X62171915Y-70407909D01*
X62176000Y-70449390D01*
X62176000Y-71050610D01*
X62171915Y-71092091D01*
X62161607Y-71126069D01*
X62144866Y-71157390D01*
X62122339Y-71184839D01*
X62094890Y-71207366D01*
X62063569Y-71224107D01*
X62029591Y-71234415D01*
X61988110Y-71238500D01*
X61311890Y-71238500D01*
X61270409Y-71234415D01*
X61236431Y-71224107D01*
X61205110Y-71207366D01*
X61177661Y-71184839D01*
X61155134Y-71157390D01*
X61138393Y-71126069D01*
X61128085Y-71092091D01*
X61124000Y-71050610D01*
X61124000Y-70449390D01*
X61128085Y-70407909D01*
X61138393Y-70373931D01*
X61155134Y-70342610D01*
X61177661Y-70315161D01*
X61205110Y-70292634D01*
X61236431Y-70275893D01*
X61270409Y-70265585D01*
X61311890Y-70261500D01*
X61988110Y-70261500D01*
X62029591Y-70265585D01*
X62029591Y-70265585D01*
G37*
G36*
X63629591Y-70265585D02*
G01*
X63663569Y-70275893D01*
X63694890Y-70292634D01*
X63722339Y-70315161D01*
X63744866Y-70342610D01*
X63761607Y-70373931D01*
X63771915Y-70407909D01*
X63776000Y-70449390D01*
X63776000Y-71050610D01*
X63771915Y-71092091D01*
X63761607Y-71126069D01*
X63744866Y-71157390D01*
X63722339Y-71184839D01*
X63694890Y-71207366D01*
X63663569Y-71224107D01*
X63629591Y-71234415D01*
X63588110Y-71238500D01*
X62911890Y-71238500D01*
X62870409Y-71234415D01*
X62836431Y-71224107D01*
X62805110Y-71207366D01*
X62777661Y-71184839D01*
X62755134Y-71157390D01*
X62738393Y-71126069D01*
X62728085Y-71092091D01*
X62724000Y-71050610D01*
X62724000Y-70449390D01*
X62728085Y-70407909D01*
X62738393Y-70373931D01*
X62755134Y-70342610D01*
X62777661Y-70315161D01*
X62805110Y-70292634D01*
X62836431Y-70275893D01*
X62870409Y-70265585D01*
X62911890Y-70261500D01*
X63588110Y-70261500D01*
X63629591Y-70265585D01*
X63629591Y-70265585D01*
G37*
G36*
X60379591Y-70253085D02*
G01*
X60413569Y-70263393D01*
X60444890Y-70280134D01*
X60472339Y-70302661D01*
X60494866Y-70330110D01*
X60511607Y-70361431D01*
X60521915Y-70395409D01*
X60526000Y-70436890D01*
X60526000Y-71038110D01*
X60521915Y-71079591D01*
X60511607Y-71113569D01*
X60494866Y-71144890D01*
X60472339Y-71172339D01*
X60444890Y-71194866D01*
X60413569Y-71211607D01*
X60379591Y-71221915D01*
X60338110Y-71226000D01*
X59661890Y-71226000D01*
X59620409Y-71221915D01*
X59586431Y-71211607D01*
X59555110Y-71194866D01*
X59527661Y-71172339D01*
X59505134Y-71144890D01*
X59488393Y-71113569D01*
X59478085Y-71079591D01*
X59474000Y-71038110D01*
X59474000Y-70436890D01*
X59478085Y-70395409D01*
X59488393Y-70361431D01*
X59505134Y-70330110D01*
X59527661Y-70302661D01*
X59555110Y-70280134D01*
X59586431Y-70263393D01*
X59620409Y-70253085D01*
X59661890Y-70249000D01*
X60338110Y-70249000D01*
X60379591Y-70253085D01*
X60379591Y-70253085D01*
G37*
G36*
X66829591Y-68765585D02*
G01*
X66863569Y-68775893D01*
X66894890Y-68792634D01*
X66922339Y-68815161D01*
X66944866Y-68842610D01*
X66961607Y-68873931D01*
X66971915Y-68907909D01*
X66976000Y-68949390D01*
X66976000Y-69550610D01*
X66971915Y-69592091D01*
X66961607Y-69626069D01*
X66944866Y-69657390D01*
X66922339Y-69684839D01*
X66894890Y-69707366D01*
X66863569Y-69724107D01*
X66829591Y-69734415D01*
X66788110Y-69738500D01*
X66111890Y-69738500D01*
X66070409Y-69734415D01*
X66036431Y-69724107D01*
X66005110Y-69707366D01*
X65977661Y-69684839D01*
X65955134Y-69657390D01*
X65938393Y-69626069D01*
X65928085Y-69592091D01*
X65924000Y-69550610D01*
X65924000Y-68949390D01*
X65928085Y-68907909D01*
X65938393Y-68873931D01*
X65955134Y-68842610D01*
X65977661Y-68815161D01*
X66005110Y-68792634D01*
X66036431Y-68775893D01*
X66070409Y-68765585D01*
X66111890Y-68761500D01*
X66788110Y-68761500D01*
X66829591Y-68765585D01*
X66829591Y-68765585D01*
G37*
G36*
X68429591Y-68765585D02*
G01*
X68463569Y-68775893D01*
X68494890Y-68792634D01*
X68522339Y-68815161D01*
X68544866Y-68842610D01*
X68561607Y-68873931D01*
X68571915Y-68907909D01*
X68576000Y-68949390D01*
X68576000Y-69550610D01*
X68571915Y-69592091D01*
X68561607Y-69626069D01*
X68544866Y-69657390D01*
X68522339Y-69684839D01*
X68494890Y-69707366D01*
X68463569Y-69724107D01*
X68429591Y-69734415D01*
X68388110Y-69738500D01*
X67711890Y-69738500D01*
X67670409Y-69734415D01*
X67636431Y-69724107D01*
X67605110Y-69707366D01*
X67577661Y-69684839D01*
X67555134Y-69657390D01*
X67538393Y-69626069D01*
X67528085Y-69592091D01*
X67524000Y-69550610D01*
X67524000Y-68949390D01*
X67528085Y-68907909D01*
X67538393Y-68873931D01*
X67555134Y-68842610D01*
X67577661Y-68815161D01*
X67605110Y-68792634D01*
X67636431Y-68775893D01*
X67670409Y-68765585D01*
X67711890Y-68761500D01*
X68388110Y-68761500D01*
X68429591Y-68765585D01*
X68429591Y-68765585D01*
G37*
G36*
X70079591Y-68728085D02*
G01*
X70113569Y-68738393D01*
X70144890Y-68755134D01*
X70172339Y-68777661D01*
X70194866Y-68805110D01*
X70211607Y-68836431D01*
X70221915Y-68870409D01*
X70226000Y-68911890D01*
X70226000Y-69513110D01*
X70221915Y-69554591D01*
X70211607Y-69588569D01*
X70194866Y-69619890D01*
X70172339Y-69647339D01*
X70144890Y-69669866D01*
X70113569Y-69686607D01*
X70079591Y-69696915D01*
X70038110Y-69701000D01*
X69361890Y-69701000D01*
X69320409Y-69696915D01*
X69286431Y-69686607D01*
X69255110Y-69669866D01*
X69227661Y-69647339D01*
X69205134Y-69619890D01*
X69188393Y-69588569D01*
X69178085Y-69554591D01*
X69174000Y-69513110D01*
X69174000Y-68911890D01*
X69178085Y-68870409D01*
X69188393Y-68836431D01*
X69205134Y-68805110D01*
X69227661Y-68777661D01*
X69255110Y-68755134D01*
X69286431Y-68738393D01*
X69320409Y-68728085D01*
X69361890Y-68724000D01*
X70038110Y-68724000D01*
X70079591Y-68728085D01*
X70079591Y-68728085D01*
G37*
G36*
X71779591Y-68715585D02*
G01*
X71813569Y-68725893D01*
X71844890Y-68742634D01*
X71872339Y-68765161D01*
X71894866Y-68792610D01*
X71911607Y-68823931D01*
X71921915Y-68857909D01*
X71926000Y-68899390D01*
X71926000Y-69500610D01*
X71921915Y-69542091D01*
X71911607Y-69576069D01*
X71894866Y-69607390D01*
X71872339Y-69634839D01*
X71844890Y-69657366D01*
X71813569Y-69674107D01*
X71779591Y-69684415D01*
X71738110Y-69688500D01*
X71061890Y-69688500D01*
X71020409Y-69684415D01*
X70986431Y-69674107D01*
X70955110Y-69657366D01*
X70927661Y-69634839D01*
X70905134Y-69607390D01*
X70888393Y-69576069D01*
X70878085Y-69542091D01*
X70874000Y-69500610D01*
X70874000Y-68899390D01*
X70878085Y-68857909D01*
X70888393Y-68823931D01*
X70905134Y-68792610D01*
X70927661Y-68765161D01*
X70955110Y-68742634D01*
X70986431Y-68725893D01*
X71020409Y-68715585D01*
X71061890Y-68711500D01*
X71738110Y-68711500D01*
X71779591Y-68715585D01*
X71779591Y-68715585D01*
G37*
G36*
X65229591Y-68715585D02*
G01*
X65263569Y-68725893D01*
X65294890Y-68742634D01*
X65322339Y-68765161D01*
X65344866Y-68792610D01*
X65361607Y-68823931D01*
X65371915Y-68857909D01*
X65376000Y-68899390D01*
X65376000Y-69500610D01*
X65371915Y-69542091D01*
X65361607Y-69576069D01*
X65344866Y-69607390D01*
X65322339Y-69634839D01*
X65294890Y-69657366D01*
X65263569Y-69674107D01*
X65229591Y-69684415D01*
X65188110Y-69688500D01*
X64511890Y-69688500D01*
X64470409Y-69684415D01*
X64436431Y-69674107D01*
X64405110Y-69657366D01*
X64377661Y-69634839D01*
X64355134Y-69607390D01*
X64338393Y-69576069D01*
X64328085Y-69542091D01*
X64324000Y-69500610D01*
X64324000Y-68899390D01*
X64328085Y-68857909D01*
X64338393Y-68823931D01*
X64355134Y-68792610D01*
X64377661Y-68765161D01*
X64405110Y-68742634D01*
X64436431Y-68725893D01*
X64470409Y-68715585D01*
X64511890Y-68711500D01*
X65188110Y-68711500D01*
X65229591Y-68715585D01*
X65229591Y-68715585D01*
G37*
G36*
X63629591Y-68690585D02*
G01*
X63663569Y-68700893D01*
X63694890Y-68717634D01*
X63722339Y-68740161D01*
X63744866Y-68767610D01*
X63761607Y-68798931D01*
X63771915Y-68832909D01*
X63776000Y-68874390D01*
X63776000Y-69475610D01*
X63771915Y-69517091D01*
X63761607Y-69551069D01*
X63744866Y-69582390D01*
X63722339Y-69609839D01*
X63694890Y-69632366D01*
X63663569Y-69649107D01*
X63629591Y-69659415D01*
X63588110Y-69663500D01*
X62911890Y-69663500D01*
X62870409Y-69659415D01*
X62836431Y-69649107D01*
X62805110Y-69632366D01*
X62777661Y-69609839D01*
X62755134Y-69582390D01*
X62738393Y-69551069D01*
X62728085Y-69517091D01*
X62724000Y-69475610D01*
X62724000Y-68874390D01*
X62728085Y-68832909D01*
X62738393Y-68798931D01*
X62755134Y-68767610D01*
X62777661Y-68740161D01*
X62805110Y-68717634D01*
X62836431Y-68700893D01*
X62870409Y-68690585D01*
X62911890Y-68686500D01*
X63588110Y-68686500D01*
X63629591Y-68690585D01*
X63629591Y-68690585D01*
G37*
G36*
X62029591Y-68690585D02*
G01*
X62063569Y-68700893D01*
X62094890Y-68717634D01*
X62122339Y-68740161D01*
X62144866Y-68767610D01*
X62161607Y-68798931D01*
X62171915Y-68832909D01*
X62176000Y-68874390D01*
X62176000Y-69475610D01*
X62171915Y-69517091D01*
X62161607Y-69551069D01*
X62144866Y-69582390D01*
X62122339Y-69609839D01*
X62094890Y-69632366D01*
X62063569Y-69649107D01*
X62029591Y-69659415D01*
X61988110Y-69663500D01*
X61311890Y-69663500D01*
X61270409Y-69659415D01*
X61236431Y-69649107D01*
X61205110Y-69632366D01*
X61177661Y-69609839D01*
X61155134Y-69582390D01*
X61138393Y-69551069D01*
X61128085Y-69517091D01*
X61124000Y-69475610D01*
X61124000Y-68874390D01*
X61128085Y-68832909D01*
X61138393Y-68798931D01*
X61155134Y-68767610D01*
X61177661Y-68740161D01*
X61205110Y-68717634D01*
X61236431Y-68700893D01*
X61270409Y-68690585D01*
X61311890Y-68686500D01*
X61988110Y-68686500D01*
X62029591Y-68690585D01*
X62029591Y-68690585D01*
G37*
G36*
X60379591Y-68678085D02*
G01*
X60413569Y-68688393D01*
X60444890Y-68705134D01*
X60472339Y-68727661D01*
X60494866Y-68755110D01*
X60511607Y-68786431D01*
X60521915Y-68820409D01*
X60526000Y-68861890D01*
X60526000Y-69463110D01*
X60521915Y-69504591D01*
X60511607Y-69538569D01*
X60494866Y-69569890D01*
X60472339Y-69597339D01*
X60444890Y-69619866D01*
X60413569Y-69636607D01*
X60379591Y-69646915D01*
X60338110Y-69651000D01*
X59661890Y-69651000D01*
X59620409Y-69646915D01*
X59586431Y-69636607D01*
X59555110Y-69619866D01*
X59527661Y-69597339D01*
X59505134Y-69569890D01*
X59488393Y-69538569D01*
X59478085Y-69504591D01*
X59474000Y-69463110D01*
X59474000Y-68861890D01*
X59478085Y-68820409D01*
X59488393Y-68786431D01*
X59505134Y-68755110D01*
X59527661Y-68727661D01*
X59555110Y-68705134D01*
X59586431Y-68688393D01*
X59620409Y-68678085D01*
X59661890Y-68674000D01*
X60338110Y-68674000D01*
X60379591Y-68678085D01*
X60379591Y-68678085D01*
G37*
G36*
X71717091Y-67128085D02*
G01*
X71751069Y-67138393D01*
X71782390Y-67155134D01*
X71809839Y-67177661D01*
X71832366Y-67205110D01*
X71849107Y-67236431D01*
X71859415Y-67270409D01*
X71863500Y-67311890D01*
X71863500Y-67988110D01*
X71859415Y-68029591D01*
X71849107Y-68063569D01*
X71832366Y-68094890D01*
X71809839Y-68122339D01*
X71782390Y-68144866D01*
X71751069Y-68161607D01*
X71717091Y-68171915D01*
X71675610Y-68176000D01*
X71074390Y-68176000D01*
X71032909Y-68171915D01*
X70998931Y-68161607D01*
X70967610Y-68144866D01*
X70940161Y-68122339D01*
X70917634Y-68094890D01*
X70900893Y-68063569D01*
X70890585Y-68029591D01*
X70886500Y-67988110D01*
X70886500Y-67311890D01*
X70890585Y-67270409D01*
X70900893Y-67236431D01*
X70917634Y-67205110D01*
X70940161Y-67177661D01*
X70967610Y-67155134D01*
X70998931Y-67138393D01*
X71032909Y-67128085D01*
X71074390Y-67124000D01*
X71675610Y-67124000D01*
X71717091Y-67128085D01*
X71717091Y-67128085D01*
G37*
G36*
X73292091Y-67128085D02*
G01*
X73326069Y-67138393D01*
X73357390Y-67155134D01*
X73384839Y-67177661D01*
X73407366Y-67205110D01*
X73424107Y-67236431D01*
X73434415Y-67270409D01*
X73438500Y-67311890D01*
X73438500Y-67988110D01*
X73434415Y-68029591D01*
X73424107Y-68063569D01*
X73407366Y-68094890D01*
X73384839Y-68122339D01*
X73357390Y-68144866D01*
X73326069Y-68161607D01*
X73292091Y-68171915D01*
X73250610Y-68176000D01*
X72649390Y-68176000D01*
X72607909Y-68171915D01*
X72573931Y-68161607D01*
X72542610Y-68144866D01*
X72515161Y-68122339D01*
X72492634Y-68094890D01*
X72475893Y-68063569D01*
X72465585Y-68029591D01*
X72461500Y-67988110D01*
X72461500Y-67311890D01*
X72465585Y-67270409D01*
X72475893Y-67236431D01*
X72492634Y-67205110D01*
X72515161Y-67177661D01*
X72542610Y-67155134D01*
X72573931Y-67138393D01*
X72607909Y-67128085D01*
X72649390Y-67124000D01*
X73250610Y-67124000D01*
X73292091Y-67128085D01*
X73292091Y-67128085D01*
G37*
G36*
X61929591Y-67028085D02*
G01*
X61963569Y-67038393D01*
X61994890Y-67055134D01*
X62022339Y-67077661D01*
X62044866Y-67105110D01*
X62061607Y-67136431D01*
X62071915Y-67170409D01*
X62076000Y-67211890D01*
X62076000Y-67888110D01*
X62071915Y-67929591D01*
X62061607Y-67963569D01*
X62044866Y-67994890D01*
X62022339Y-68022339D01*
X61994890Y-68044866D01*
X61963569Y-68061607D01*
X61929591Y-68071915D01*
X61888110Y-68076000D01*
X61286890Y-68076000D01*
X61245409Y-68071915D01*
X61211431Y-68061607D01*
X61180110Y-68044866D01*
X61152661Y-68022339D01*
X61130134Y-67994890D01*
X61113393Y-67963569D01*
X61103085Y-67929591D01*
X61099000Y-67888110D01*
X61099000Y-67211890D01*
X61103085Y-67170409D01*
X61113393Y-67136431D01*
X61130134Y-67105110D01*
X61152661Y-67077661D01*
X61180110Y-67055134D01*
X61211431Y-67038393D01*
X61245409Y-67028085D01*
X61286890Y-67024000D01*
X61888110Y-67024000D01*
X61929591Y-67028085D01*
X61929591Y-67028085D01*
G37*
G36*
X60354591Y-67028085D02*
G01*
X60388569Y-67038393D01*
X60419890Y-67055134D01*
X60447339Y-67077661D01*
X60469866Y-67105110D01*
X60486607Y-67136431D01*
X60496915Y-67170409D01*
X60501000Y-67211890D01*
X60501000Y-67888110D01*
X60496915Y-67929591D01*
X60486607Y-67963569D01*
X60469866Y-67994890D01*
X60447339Y-68022339D01*
X60419890Y-68044866D01*
X60388569Y-68061607D01*
X60354591Y-68071915D01*
X60313110Y-68076000D01*
X59711890Y-68076000D01*
X59670409Y-68071915D01*
X59636431Y-68061607D01*
X59605110Y-68044866D01*
X59577661Y-68022339D01*
X59555134Y-67994890D01*
X59538393Y-67963569D01*
X59528085Y-67929591D01*
X59524000Y-67888110D01*
X59524000Y-67211890D01*
X59528085Y-67170409D01*
X59538393Y-67136431D01*
X59555134Y-67105110D01*
X59577661Y-67077661D01*
X59605110Y-67055134D01*
X59636431Y-67038393D01*
X59670409Y-67028085D01*
X59711890Y-67024000D01*
X60313110Y-67024000D01*
X60354591Y-67028085D01*
X60354591Y-67028085D01*
G37*
G36*
X70751000Y-65851000D02*
G01*
X65649000Y-65851000D01*
X65649000Y-64699000D01*
X70751000Y-64699000D01*
X70751000Y-65851000D01*
X70751000Y-65851000D01*
G37*
G36*
X73292091Y-64778085D02*
G01*
X73326069Y-64788393D01*
X73357390Y-64805134D01*
X73384839Y-64827661D01*
X73407366Y-64855110D01*
X73424107Y-64886431D01*
X73434415Y-64920409D01*
X73438500Y-64961890D01*
X73438500Y-65638110D01*
X73434415Y-65679591D01*
X73424107Y-65713569D01*
X73407366Y-65744890D01*
X73384839Y-65772339D01*
X73357390Y-65794866D01*
X73326069Y-65811607D01*
X73292091Y-65821915D01*
X73250610Y-65826000D01*
X72649390Y-65826000D01*
X72607909Y-65821915D01*
X72573931Y-65811607D01*
X72542610Y-65794866D01*
X72515161Y-65772339D01*
X72492634Y-65744890D01*
X72475893Y-65713569D01*
X72465585Y-65679591D01*
X72461500Y-65638110D01*
X72461500Y-64961890D01*
X72465585Y-64920409D01*
X72475893Y-64886431D01*
X72492634Y-64855110D01*
X72515161Y-64827661D01*
X72542610Y-64805134D01*
X72573931Y-64788393D01*
X72607909Y-64778085D01*
X72649390Y-64774000D01*
X73250610Y-64774000D01*
X73292091Y-64778085D01*
X73292091Y-64778085D01*
G37*
G36*
X74867091Y-64778085D02*
G01*
X74901069Y-64788393D01*
X74932390Y-64805134D01*
X74959839Y-64827661D01*
X74982366Y-64855110D01*
X74999107Y-64886431D01*
X75009415Y-64920409D01*
X75013500Y-64961890D01*
X75013500Y-65638110D01*
X75009415Y-65679591D01*
X74999107Y-65713569D01*
X74982366Y-65744890D01*
X74959839Y-65772339D01*
X74932390Y-65794866D01*
X74901069Y-65811607D01*
X74867091Y-65821915D01*
X74825610Y-65826000D01*
X74224390Y-65826000D01*
X74182909Y-65821915D01*
X74148931Y-65811607D01*
X74117610Y-65794866D01*
X74090161Y-65772339D01*
X74067634Y-65744890D01*
X74050893Y-65713569D01*
X74040585Y-65679591D01*
X74036500Y-65638110D01*
X74036500Y-64961890D01*
X74040585Y-64920409D01*
X74050893Y-64886431D01*
X74067634Y-64855110D01*
X74090161Y-64827661D01*
X74117610Y-64805134D01*
X74148931Y-64788393D01*
X74182909Y-64778085D01*
X74224390Y-64774000D01*
X74825610Y-64774000D01*
X74867091Y-64778085D01*
X74867091Y-64778085D01*
G37*
G36*
X69700000Y-64000000D02*
G01*
X66700000Y-64000000D01*
X66700000Y-61000000D01*
X69700000Y-61000000D01*
X69700000Y-64000000D01*
X69700000Y-64000000D01*
G37*
G36*
X75268604Y-61878347D02*
G01*
X75305144Y-61889432D01*
X75338821Y-61907433D01*
X75368341Y-61931659D01*
X75392567Y-61961179D01*
X75410568Y-61994856D01*
X75421653Y-62031396D01*
X75426000Y-62075538D01*
X75426000Y-63024462D01*
X75421653Y-63068604D01*
X75410568Y-63105144D01*
X75392567Y-63138821D01*
X75368341Y-63168341D01*
X75338821Y-63192567D01*
X75305144Y-63210568D01*
X75268604Y-63221653D01*
X75224462Y-63226000D01*
X73775538Y-63226000D01*
X73731396Y-63221653D01*
X73694856Y-63210568D01*
X73661179Y-63192567D01*
X73631659Y-63168341D01*
X73607433Y-63138821D01*
X73589432Y-63105144D01*
X73578347Y-63068604D01*
X73574000Y-63024462D01*
X73574000Y-62075538D01*
X73578347Y-62031396D01*
X73589432Y-61994856D01*
X73607433Y-61961179D01*
X73631659Y-61931659D01*
X73661179Y-61907433D01*
X73694856Y-61889432D01*
X73731396Y-61878347D01*
X73775538Y-61874000D01*
X75224462Y-61874000D01*
X75268604Y-61878347D01*
X75268604Y-61878347D01*
G37*
G36*
X64279591Y-60953085D02*
G01*
X64313569Y-60963393D01*
X64344890Y-60980134D01*
X64372339Y-61002661D01*
X64394866Y-61030110D01*
X64411607Y-61061431D01*
X64421915Y-61095409D01*
X64426000Y-61136890D01*
X64426000Y-61738110D01*
X64421915Y-61779591D01*
X64411607Y-61813569D01*
X64394866Y-61844890D01*
X64372339Y-61872339D01*
X64344890Y-61894866D01*
X64313569Y-61911607D01*
X64279591Y-61921915D01*
X64238110Y-61926000D01*
X63561890Y-61926000D01*
X63520409Y-61921915D01*
X63486431Y-61911607D01*
X63455110Y-61894866D01*
X63427661Y-61872339D01*
X63405134Y-61844890D01*
X63388393Y-61813569D01*
X63378085Y-61779591D01*
X63374000Y-61738110D01*
X63374000Y-61136890D01*
X63378085Y-61095409D01*
X63388393Y-61061431D01*
X63405134Y-61030110D01*
X63427661Y-61002661D01*
X63455110Y-60980134D01*
X63486431Y-60963393D01*
X63520409Y-60953085D01*
X63561890Y-60949000D01*
X64238110Y-60949000D01*
X64279591Y-60953085D01*
X64279591Y-60953085D01*
G37*
G36*
X72579591Y-60815585D02*
G01*
X72613569Y-60825893D01*
X72644890Y-60842634D01*
X72672339Y-60865161D01*
X72694866Y-60892610D01*
X72711607Y-60923931D01*
X72721915Y-60957909D01*
X72726000Y-60999390D01*
X72726000Y-61600610D01*
X72721915Y-61642091D01*
X72711607Y-61676069D01*
X72694866Y-61707390D01*
X72672339Y-61734839D01*
X72644890Y-61757366D01*
X72613569Y-61774107D01*
X72579591Y-61784415D01*
X72538110Y-61788500D01*
X71861890Y-61788500D01*
X71820409Y-61784415D01*
X71786431Y-61774107D01*
X71755110Y-61757366D01*
X71727661Y-61734839D01*
X71705134Y-61707390D01*
X71688393Y-61676069D01*
X71678085Y-61642091D01*
X71674000Y-61600610D01*
X71674000Y-60999390D01*
X71678085Y-60957909D01*
X71688393Y-60923931D01*
X71705134Y-60892610D01*
X71727661Y-60865161D01*
X71755110Y-60842634D01*
X71786431Y-60825893D01*
X71820409Y-60815585D01*
X71861890Y-60811500D01*
X72538110Y-60811500D01*
X72579591Y-60815585D01*
X72579591Y-60815585D01*
G37*
G36*
X75268604Y-59078347D02*
G01*
X75305144Y-59089432D01*
X75338821Y-59107433D01*
X75368341Y-59131659D01*
X75392567Y-59161179D01*
X75410568Y-59194856D01*
X75421653Y-59231396D01*
X75426000Y-59275538D01*
X75426000Y-60224462D01*
X75421653Y-60268604D01*
X75410568Y-60305144D01*
X75392567Y-60338821D01*
X75368341Y-60368341D01*
X75338821Y-60392567D01*
X75305144Y-60410568D01*
X75268604Y-60421653D01*
X75224462Y-60426000D01*
X73775538Y-60426000D01*
X73731396Y-60421653D01*
X73694856Y-60410568D01*
X73661179Y-60392567D01*
X73631659Y-60368341D01*
X73607433Y-60338821D01*
X73589432Y-60305144D01*
X73578347Y-60268604D01*
X73574000Y-60224462D01*
X73574000Y-59275538D01*
X73578347Y-59231396D01*
X73589432Y-59194856D01*
X73607433Y-59161179D01*
X73631659Y-59131659D01*
X73661179Y-59107433D01*
X73694856Y-59089432D01*
X73731396Y-59078347D01*
X73775538Y-59074000D01*
X75224462Y-59074000D01*
X75268604Y-59078347D01*
X75268604Y-59078347D01*
G37*
G36*
X64279591Y-59378085D02*
G01*
X64313569Y-59388393D01*
X64344890Y-59405134D01*
X64372339Y-59427661D01*
X64394866Y-59455110D01*
X64411607Y-59486431D01*
X64421915Y-59520409D01*
X64426000Y-59561890D01*
X64426000Y-60163110D01*
X64421915Y-60204591D01*
X64411607Y-60238569D01*
X64394866Y-60269890D01*
X64372339Y-60297339D01*
X64344890Y-60319866D01*
X64313569Y-60336607D01*
X64279591Y-60346915D01*
X64238110Y-60351000D01*
X63561890Y-60351000D01*
X63520409Y-60346915D01*
X63486431Y-60336607D01*
X63455110Y-60319866D01*
X63427661Y-60297339D01*
X63405134Y-60269890D01*
X63388393Y-60238569D01*
X63378085Y-60204591D01*
X63374000Y-60163110D01*
X63374000Y-59561890D01*
X63378085Y-59520409D01*
X63388393Y-59486431D01*
X63405134Y-59455110D01*
X63427661Y-59427661D01*
X63455110Y-59405134D01*
X63486431Y-59388393D01*
X63520409Y-59378085D01*
X63561890Y-59374000D01*
X64238110Y-59374000D01*
X64279591Y-59378085D01*
X64279591Y-59378085D01*
G37*
G36*
X70751000Y-60301000D02*
G01*
X65649000Y-60301000D01*
X65649000Y-59149000D01*
X70751000Y-59149000D01*
X70751000Y-60301000D01*
X70751000Y-60301000D01*
G37*
G36*
X72579591Y-59240585D02*
G01*
X72613569Y-59250893D01*
X72644890Y-59267634D01*
X72672339Y-59290161D01*
X72694866Y-59317610D01*
X72711607Y-59348931D01*
X72721915Y-59382909D01*
X72726000Y-59424390D01*
X72726000Y-60025610D01*
X72721915Y-60067091D01*
X72711607Y-60101069D01*
X72694866Y-60132390D01*
X72672339Y-60159839D01*
X72644890Y-60182366D01*
X72613569Y-60199107D01*
X72579591Y-60209415D01*
X72538110Y-60213500D01*
X71861890Y-60213500D01*
X71820409Y-60209415D01*
X71786431Y-60199107D01*
X71755110Y-60182366D01*
X71727661Y-60159839D01*
X71705134Y-60132390D01*
X71688393Y-60101069D01*
X71678085Y-60067091D01*
X71674000Y-60025610D01*
X71674000Y-59424390D01*
X71678085Y-59382909D01*
X71688393Y-59348931D01*
X71705134Y-59317610D01*
X71727661Y-59290161D01*
X71755110Y-59267634D01*
X71786431Y-59250893D01*
X71820409Y-59240585D01*
X71861890Y-59236500D01*
X72538110Y-59236500D01*
X72579591Y-59240585D01*
X72579591Y-59240585D01*
G37*
G36*
X76701000Y-60026000D02*
G01*
X75999000Y-60026000D01*
X75999000Y-59474000D01*
X76701000Y-59474000D01*
X76701000Y-60026000D01*
X76701000Y-60026000D01*
G37*
G36*
X78801000Y-60026000D02*
G01*
X78099000Y-60026000D01*
X78099000Y-59474000D01*
X78801000Y-59474000D01*
X78801000Y-60026000D01*
X78801000Y-60026000D01*
G37*
G36*
X70546968Y-56853565D02*
G01*
X70585638Y-56865296D01*
X70621277Y-56884346D01*
X70652517Y-56909983D01*
X70678154Y-56941223D01*
X70697204Y-56976862D01*
X70708935Y-57015532D01*
X70713500Y-57061888D01*
X70713500Y-58138112D01*
X70708935Y-58184468D01*
X70697204Y-58223138D01*
X70678154Y-58258777D01*
X70652517Y-58290017D01*
X70621277Y-58315654D01*
X70585638Y-58334704D01*
X70546968Y-58346435D01*
X70500612Y-58351000D01*
X69849388Y-58351000D01*
X69803032Y-58346435D01*
X69764362Y-58334704D01*
X69728723Y-58315654D01*
X69697483Y-58290017D01*
X69671846Y-58258777D01*
X69652796Y-58223138D01*
X69641065Y-58184468D01*
X69636500Y-58138112D01*
X69636500Y-57061888D01*
X69641065Y-57015532D01*
X69652796Y-56976862D01*
X69671846Y-56941223D01*
X69697483Y-56909983D01*
X69728723Y-56884346D01*
X69764362Y-56865296D01*
X69803032Y-56853565D01*
X69849388Y-56849000D01*
X70500612Y-56849000D01*
X70546968Y-56853565D01*
X70546968Y-56853565D01*
G37*
G36*
X68671968Y-56853565D02*
G01*
X68710638Y-56865296D01*
X68746277Y-56884346D01*
X68777517Y-56909983D01*
X68803154Y-56941223D01*
X68822204Y-56976862D01*
X68833935Y-57015532D01*
X68838500Y-57061888D01*
X68838500Y-58138112D01*
X68833935Y-58184468D01*
X68822204Y-58223138D01*
X68803154Y-58258777D01*
X68777517Y-58290017D01*
X68746277Y-58315654D01*
X68710638Y-58334704D01*
X68671968Y-58346435D01*
X68625612Y-58351000D01*
X67974388Y-58351000D01*
X67928032Y-58346435D01*
X67889362Y-58334704D01*
X67853723Y-58315654D01*
X67822483Y-58290017D01*
X67796846Y-58258777D01*
X67777796Y-58223138D01*
X67766065Y-58184468D01*
X67761500Y-58138112D01*
X67761500Y-57061888D01*
X67766065Y-57015532D01*
X67777796Y-56976862D01*
X67796846Y-56941223D01*
X67822483Y-56909983D01*
X67853723Y-56884346D01*
X67889362Y-56865296D01*
X67928032Y-56853565D01*
X67974388Y-56849000D01*
X68625612Y-56849000D01*
X68671968Y-56853565D01*
X68671968Y-56853565D01*
G37*
G36*
X74872798Y-53878247D02*
G01*
X74908367Y-53889037D01*
X74941139Y-53906554D01*
X74969869Y-53930131D01*
X74993446Y-53958861D01*
X75010963Y-53991633D01*
X75021753Y-54027202D01*
X75026000Y-54070325D01*
X75026000Y-55129675D01*
X75021753Y-55172798D01*
X75010963Y-55208367D01*
X74993446Y-55241139D01*
X74969869Y-55269869D01*
X74941139Y-55293446D01*
X74908367Y-55310963D01*
X74872798Y-55321753D01*
X74829675Y-55326000D01*
X71770325Y-55326000D01*
X71727202Y-55321753D01*
X71691633Y-55310963D01*
X71658861Y-55293446D01*
X71630131Y-55269869D01*
X71606554Y-55241139D01*
X71589037Y-55208367D01*
X71578247Y-55172798D01*
X71574000Y-55129675D01*
X71574000Y-54070325D01*
X71578247Y-54027202D01*
X71589037Y-53991633D01*
X71606554Y-53958861D01*
X71630131Y-53930131D01*
X71658861Y-53906554D01*
X71691633Y-53889037D01*
X71727202Y-53878247D01*
X71770325Y-53874000D01*
X74829675Y-53874000D01*
X74872798Y-53878247D01*
X74872798Y-53878247D01*
G37*
G36*
X70684468Y-54066065D02*
G01*
X70723138Y-54077796D01*
X70758777Y-54096846D01*
X70790017Y-54122483D01*
X70815654Y-54153723D01*
X70834704Y-54189362D01*
X70846435Y-54228032D01*
X70851000Y-54274388D01*
X70851000Y-54925612D01*
X70846435Y-54971968D01*
X70834704Y-55010638D01*
X70815654Y-55046277D01*
X70790017Y-55077517D01*
X70758777Y-55103154D01*
X70723138Y-55122204D01*
X70684468Y-55133935D01*
X70638112Y-55138500D01*
X69561888Y-55138500D01*
X69515532Y-55133935D01*
X69476862Y-55122204D01*
X69441223Y-55103154D01*
X69409983Y-55077517D01*
X69384346Y-55046277D01*
X69365296Y-55010638D01*
X69353565Y-54971968D01*
X69349000Y-54925612D01*
X69349000Y-54274388D01*
X69353565Y-54228032D01*
X69365296Y-54189362D01*
X69384346Y-54153723D01*
X69409983Y-54122483D01*
X69441223Y-54096846D01*
X69476862Y-54077796D01*
X69515532Y-54066065D01*
X69561888Y-54061500D01*
X70638112Y-54061500D01*
X70684468Y-54066065D01*
X70684468Y-54066065D01*
G37*
G36*
X70684468Y-52191065D02*
G01*
X70723138Y-52202796D01*
X70758777Y-52221846D01*
X70790017Y-52247483D01*
X70815654Y-52278723D01*
X70834704Y-52314362D01*
X70846435Y-52353032D01*
X70851000Y-52399388D01*
X70851000Y-53050612D01*
X70846435Y-53096968D01*
X70834704Y-53135638D01*
X70815654Y-53171277D01*
X70790017Y-53202517D01*
X70758777Y-53228154D01*
X70723138Y-53247204D01*
X70684468Y-53258935D01*
X70638112Y-53263500D01*
X69561888Y-53263500D01*
X69515532Y-53258935D01*
X69476862Y-53247204D01*
X69441223Y-53228154D01*
X69409983Y-53202517D01*
X69384346Y-53171277D01*
X69365296Y-53135638D01*
X69353565Y-53096968D01*
X69349000Y-53050612D01*
X69349000Y-52399388D01*
X69353565Y-52353032D01*
X69365296Y-52314362D01*
X69384346Y-52278723D01*
X69409983Y-52247483D01*
X69441223Y-52221846D01*
X69476862Y-52202796D01*
X69515532Y-52191065D01*
X69561888Y-52186500D01*
X70638112Y-52186500D01*
X70684468Y-52191065D01*
X70684468Y-52191065D01*
G37*
G36*
X74872798Y-48078247D02*
G01*
X74908367Y-48089037D01*
X74941139Y-48106554D01*
X74969869Y-48130131D01*
X74993446Y-48158861D01*
X75010963Y-48191633D01*
X75021753Y-48227202D01*
X75026000Y-48270325D01*
X75026000Y-49329675D01*
X75021753Y-49372798D01*
X75010963Y-49408367D01*
X74993446Y-49441139D01*
X74969869Y-49469869D01*
X74941139Y-49493446D01*
X74908367Y-49510963D01*
X74872798Y-49521753D01*
X74829675Y-49526000D01*
X71770325Y-49526000D01*
X71727202Y-49521753D01*
X71691633Y-49510963D01*
X71658861Y-49493446D01*
X71630131Y-49469869D01*
X71606554Y-49441139D01*
X71589037Y-49408367D01*
X71578247Y-49372798D01*
X71574000Y-49329675D01*
X71574000Y-48270325D01*
X71578247Y-48227202D01*
X71589037Y-48191633D01*
X71606554Y-48158861D01*
X71630131Y-48130131D01*
X71658861Y-48106554D01*
X71691633Y-48089037D01*
X71727202Y-48078247D01*
X71770325Y-48074000D01*
X74829675Y-48074000D01*
X74872798Y-48078247D01*
X74872798Y-48078247D01*
G37*
G36*
X102852564Y-39345099D02*
G01*
X103094126Y-39393149D01*
X103776765Y-39675907D01*
X104391123Y-40086408D01*
X104913592Y-40608877D01*
X105324093Y-41223235D01*
X105606851Y-41905874D01*
X105751000Y-42630559D01*
X105751000Y-43369441D01*
X105606851Y-44094126D01*
X105324093Y-44776765D01*
X104913592Y-45391123D01*
X104391123Y-45913592D01*
X103776765Y-46324093D01*
X103094126Y-46606851D01*
X102852564Y-46654901D01*
X102369443Y-46751000D01*
X101630557Y-46751000D01*
X101147436Y-46654901D01*
X100905874Y-46606851D01*
X100223235Y-46324093D01*
X99608877Y-45913592D01*
X99086408Y-45391123D01*
X98675907Y-44776765D01*
X98393149Y-44094126D01*
X98249000Y-43369441D01*
X98249000Y-42630559D01*
X98393149Y-41905874D01*
X98675907Y-41223235D01*
X99086408Y-40608877D01*
X99608877Y-40086408D01*
X100223235Y-39675907D01*
X100905874Y-39393149D01*
X101147436Y-39345099D01*
X101630557Y-39249000D01*
X102369443Y-39249000D01*
X102852564Y-39345099D01*
X102852564Y-39345099D01*
G37*
G36*
X54352564Y-39345099D02*
G01*
X54594126Y-39393149D01*
X55276765Y-39675907D01*
X55891123Y-40086408D01*
X56413592Y-40608877D01*
X56824093Y-41223235D01*
X57106851Y-41905874D01*
X57251000Y-42630559D01*
X57251000Y-43369441D01*
X57106851Y-44094126D01*
X56824093Y-44776765D01*
X56413592Y-45391123D01*
X55891123Y-45913592D01*
X55276765Y-46324093D01*
X54594126Y-46606851D01*
X54352564Y-46654901D01*
X53869443Y-46751000D01*
X53130557Y-46751000D01*
X52647436Y-46654901D01*
X52405874Y-46606851D01*
X51723235Y-46324093D01*
X51108877Y-45913592D01*
X50586408Y-45391123D01*
X50175907Y-44776765D01*
X49893149Y-44094126D01*
X49749000Y-43369441D01*
X49749000Y-42630559D01*
X49893149Y-41905874D01*
X50175907Y-41223235D01*
X50586408Y-40608877D01*
X51108877Y-40086408D01*
X51723235Y-39675907D01*
X52405874Y-39393149D01*
X52647436Y-39345099D01*
X53130557Y-39249000D01*
X53869443Y-39249000D01*
X54352564Y-39345099D01*
X54352564Y-39345099D01*
G37*
M02*
