G04 #@! TF.GenerationSoftware,KiCad,Pcbnew,(5.1.2)-2*
G04 #@! TF.CreationDate,2019-10-04T19:12:57-04:00*
G04 #@! TF.ProjectId,High_Current_Buck,48696768-5f43-4757-9272-656e745f4275,rev?*
G04 #@! TF.SameCoordinates,Original*
G04 #@! TF.FileFunction,Paste,Bot*
G04 #@! TF.FilePolarity,Positive*
%FSLAX46Y46*%
G04 Gerber Fmt 4.6, Leading zero omitted, Abs format (unit mm)*
G04 Created by KiCad (PCBNEW (5.1.2)-2) date 2019-10-04 19:12:57*
%MOMM*%
%LPD*%
G04 APERTURE LIST*
%ADD10C,0.100000*%
%ADD11C,0.875000*%
%ADD12C,1.350000*%
%ADD13C,0.975000*%
%ADD14R,0.800000X0.250000*%
%ADD15R,0.250000X0.800000*%
%ADD16R,0.800000X0.850000*%
%ADD17R,0.850000X0.850000*%
%ADD18R,0.450000X1.050000*%
%ADD19R,2.750000X3.050000*%
%ADD20R,1.200000X2.200000*%
%ADD21R,2.500000X1.800000*%
%ADD22R,0.600000X0.450000*%
%ADD23C,1.250000*%
G04 APERTURE END LIST*
D10*
G36*
X74765191Y-64826053D02*
G01*
X74786426Y-64829203D01*
X74807250Y-64834419D01*
X74827462Y-64841651D01*
X74846868Y-64850830D01*
X74865281Y-64861866D01*
X74882524Y-64874654D01*
X74898430Y-64889070D01*
X74912846Y-64904976D01*
X74925634Y-64922219D01*
X74936670Y-64940632D01*
X74945849Y-64960038D01*
X74953081Y-64980250D01*
X74958297Y-65001074D01*
X74961447Y-65022309D01*
X74962500Y-65043750D01*
X74962500Y-65556250D01*
X74961447Y-65577691D01*
X74958297Y-65598926D01*
X74953081Y-65619750D01*
X74945849Y-65639962D01*
X74936670Y-65659368D01*
X74925634Y-65677781D01*
X74912846Y-65695024D01*
X74898430Y-65710930D01*
X74882524Y-65725346D01*
X74865281Y-65738134D01*
X74846868Y-65749170D01*
X74827462Y-65758349D01*
X74807250Y-65765581D01*
X74786426Y-65770797D01*
X74765191Y-65773947D01*
X74743750Y-65775000D01*
X74306250Y-65775000D01*
X74284809Y-65773947D01*
X74263574Y-65770797D01*
X74242750Y-65765581D01*
X74222538Y-65758349D01*
X74203132Y-65749170D01*
X74184719Y-65738134D01*
X74167476Y-65725346D01*
X74151570Y-65710930D01*
X74137154Y-65695024D01*
X74124366Y-65677781D01*
X74113330Y-65659368D01*
X74104151Y-65639962D01*
X74096919Y-65619750D01*
X74091703Y-65598926D01*
X74088553Y-65577691D01*
X74087500Y-65556250D01*
X74087500Y-65043750D01*
X74088553Y-65022309D01*
X74091703Y-65001074D01*
X74096919Y-64980250D01*
X74104151Y-64960038D01*
X74113330Y-64940632D01*
X74124366Y-64922219D01*
X74137154Y-64904976D01*
X74151570Y-64889070D01*
X74167476Y-64874654D01*
X74184719Y-64861866D01*
X74203132Y-64850830D01*
X74222538Y-64841651D01*
X74242750Y-64834419D01*
X74263574Y-64829203D01*
X74284809Y-64826053D01*
X74306250Y-64825000D01*
X74743750Y-64825000D01*
X74765191Y-64826053D01*
X74765191Y-64826053D01*
G37*
D11*
X74525000Y-65300000D03*
D10*
G36*
X73190191Y-64826053D02*
G01*
X73211426Y-64829203D01*
X73232250Y-64834419D01*
X73252462Y-64841651D01*
X73271868Y-64850830D01*
X73290281Y-64861866D01*
X73307524Y-64874654D01*
X73323430Y-64889070D01*
X73337846Y-64904976D01*
X73350634Y-64922219D01*
X73361670Y-64940632D01*
X73370849Y-64960038D01*
X73378081Y-64980250D01*
X73383297Y-65001074D01*
X73386447Y-65022309D01*
X73387500Y-65043750D01*
X73387500Y-65556250D01*
X73386447Y-65577691D01*
X73383297Y-65598926D01*
X73378081Y-65619750D01*
X73370849Y-65639962D01*
X73361670Y-65659368D01*
X73350634Y-65677781D01*
X73337846Y-65695024D01*
X73323430Y-65710930D01*
X73307524Y-65725346D01*
X73290281Y-65738134D01*
X73271868Y-65749170D01*
X73252462Y-65758349D01*
X73232250Y-65765581D01*
X73211426Y-65770797D01*
X73190191Y-65773947D01*
X73168750Y-65775000D01*
X72731250Y-65775000D01*
X72709809Y-65773947D01*
X72688574Y-65770797D01*
X72667750Y-65765581D01*
X72647538Y-65758349D01*
X72628132Y-65749170D01*
X72609719Y-65738134D01*
X72592476Y-65725346D01*
X72576570Y-65710930D01*
X72562154Y-65695024D01*
X72549366Y-65677781D01*
X72538330Y-65659368D01*
X72529151Y-65639962D01*
X72521919Y-65619750D01*
X72516703Y-65598926D01*
X72513553Y-65577691D01*
X72512500Y-65556250D01*
X72512500Y-65043750D01*
X72513553Y-65022309D01*
X72516703Y-65001074D01*
X72521919Y-64980250D01*
X72529151Y-64960038D01*
X72538330Y-64940632D01*
X72549366Y-64922219D01*
X72562154Y-64904976D01*
X72576570Y-64889070D01*
X72592476Y-64874654D01*
X72609719Y-64861866D01*
X72628132Y-64850830D01*
X72647538Y-64841651D01*
X72667750Y-64834419D01*
X72688574Y-64829203D01*
X72709809Y-64826053D01*
X72731250Y-64825000D01*
X73168750Y-64825000D01*
X73190191Y-64826053D01*
X73190191Y-64826053D01*
G37*
D11*
X72950000Y-65300000D03*
D10*
G36*
X72477691Y-60863553D02*
G01*
X72498926Y-60866703D01*
X72519750Y-60871919D01*
X72539962Y-60879151D01*
X72559368Y-60888330D01*
X72577781Y-60899366D01*
X72595024Y-60912154D01*
X72610930Y-60926570D01*
X72625346Y-60942476D01*
X72638134Y-60959719D01*
X72649170Y-60978132D01*
X72658349Y-60997538D01*
X72665581Y-61017750D01*
X72670797Y-61038574D01*
X72673947Y-61059809D01*
X72675000Y-61081250D01*
X72675000Y-61518750D01*
X72673947Y-61540191D01*
X72670797Y-61561426D01*
X72665581Y-61582250D01*
X72658349Y-61602462D01*
X72649170Y-61621868D01*
X72638134Y-61640281D01*
X72625346Y-61657524D01*
X72610930Y-61673430D01*
X72595024Y-61687846D01*
X72577781Y-61700634D01*
X72559368Y-61711670D01*
X72539962Y-61720849D01*
X72519750Y-61728081D01*
X72498926Y-61733297D01*
X72477691Y-61736447D01*
X72456250Y-61737500D01*
X71943750Y-61737500D01*
X71922309Y-61736447D01*
X71901074Y-61733297D01*
X71880250Y-61728081D01*
X71860038Y-61720849D01*
X71840632Y-61711670D01*
X71822219Y-61700634D01*
X71804976Y-61687846D01*
X71789070Y-61673430D01*
X71774654Y-61657524D01*
X71761866Y-61640281D01*
X71750830Y-61621868D01*
X71741651Y-61602462D01*
X71734419Y-61582250D01*
X71729203Y-61561426D01*
X71726053Y-61540191D01*
X71725000Y-61518750D01*
X71725000Y-61081250D01*
X71726053Y-61059809D01*
X71729203Y-61038574D01*
X71734419Y-61017750D01*
X71741651Y-60997538D01*
X71750830Y-60978132D01*
X71761866Y-60959719D01*
X71774654Y-60942476D01*
X71789070Y-60926570D01*
X71804976Y-60912154D01*
X71822219Y-60899366D01*
X71840632Y-60888330D01*
X71860038Y-60879151D01*
X71880250Y-60871919D01*
X71901074Y-60866703D01*
X71922309Y-60863553D01*
X71943750Y-60862500D01*
X72456250Y-60862500D01*
X72477691Y-60863553D01*
X72477691Y-60863553D01*
G37*
D11*
X72200000Y-61300000D03*
D10*
G36*
X72477691Y-59288553D02*
G01*
X72498926Y-59291703D01*
X72519750Y-59296919D01*
X72539962Y-59304151D01*
X72559368Y-59313330D01*
X72577781Y-59324366D01*
X72595024Y-59337154D01*
X72610930Y-59351570D01*
X72625346Y-59367476D01*
X72638134Y-59384719D01*
X72649170Y-59403132D01*
X72658349Y-59422538D01*
X72665581Y-59442750D01*
X72670797Y-59463574D01*
X72673947Y-59484809D01*
X72675000Y-59506250D01*
X72675000Y-59943750D01*
X72673947Y-59965191D01*
X72670797Y-59986426D01*
X72665581Y-60007250D01*
X72658349Y-60027462D01*
X72649170Y-60046868D01*
X72638134Y-60065281D01*
X72625346Y-60082524D01*
X72610930Y-60098430D01*
X72595024Y-60112846D01*
X72577781Y-60125634D01*
X72559368Y-60136670D01*
X72539962Y-60145849D01*
X72519750Y-60153081D01*
X72498926Y-60158297D01*
X72477691Y-60161447D01*
X72456250Y-60162500D01*
X71943750Y-60162500D01*
X71922309Y-60161447D01*
X71901074Y-60158297D01*
X71880250Y-60153081D01*
X71860038Y-60145849D01*
X71840632Y-60136670D01*
X71822219Y-60125634D01*
X71804976Y-60112846D01*
X71789070Y-60098430D01*
X71774654Y-60082524D01*
X71761866Y-60065281D01*
X71750830Y-60046868D01*
X71741651Y-60027462D01*
X71734419Y-60007250D01*
X71729203Y-59986426D01*
X71726053Y-59965191D01*
X71725000Y-59943750D01*
X71725000Y-59506250D01*
X71726053Y-59484809D01*
X71729203Y-59463574D01*
X71734419Y-59442750D01*
X71741651Y-59422538D01*
X71750830Y-59403132D01*
X71761866Y-59384719D01*
X71774654Y-59367476D01*
X71789070Y-59351570D01*
X71804976Y-59337154D01*
X71822219Y-59324366D01*
X71840632Y-59313330D01*
X71860038Y-59304151D01*
X71880250Y-59296919D01*
X71901074Y-59291703D01*
X71922309Y-59288553D01*
X71943750Y-59287500D01*
X72456250Y-59287500D01*
X72477691Y-59288553D01*
X72477691Y-59288553D01*
G37*
D11*
X72200000Y-59725000D03*
D10*
G36*
X74749505Y-53926204D02*
G01*
X74773773Y-53929804D01*
X74797572Y-53935765D01*
X74820671Y-53944030D01*
X74842850Y-53954520D01*
X74863893Y-53967132D01*
X74883599Y-53981747D01*
X74901777Y-53998223D01*
X74918253Y-54016401D01*
X74932868Y-54036107D01*
X74945480Y-54057150D01*
X74955970Y-54079329D01*
X74964235Y-54102428D01*
X74970196Y-54126227D01*
X74973796Y-54150495D01*
X74975000Y-54174999D01*
X74975000Y-55025001D01*
X74973796Y-55049505D01*
X74970196Y-55073773D01*
X74964235Y-55097572D01*
X74955970Y-55120671D01*
X74945480Y-55142850D01*
X74932868Y-55163893D01*
X74918253Y-55183599D01*
X74901777Y-55201777D01*
X74883599Y-55218253D01*
X74863893Y-55232868D01*
X74842850Y-55245480D01*
X74820671Y-55255970D01*
X74797572Y-55264235D01*
X74773773Y-55270196D01*
X74749505Y-55273796D01*
X74725001Y-55275000D01*
X71874999Y-55275000D01*
X71850495Y-55273796D01*
X71826227Y-55270196D01*
X71802428Y-55264235D01*
X71779329Y-55255970D01*
X71757150Y-55245480D01*
X71736107Y-55232868D01*
X71716401Y-55218253D01*
X71698223Y-55201777D01*
X71681747Y-55183599D01*
X71667132Y-55163893D01*
X71654520Y-55142850D01*
X71644030Y-55120671D01*
X71635765Y-55097572D01*
X71629804Y-55073773D01*
X71626204Y-55049505D01*
X71625000Y-55025001D01*
X71625000Y-54174999D01*
X71626204Y-54150495D01*
X71629804Y-54126227D01*
X71635765Y-54102428D01*
X71644030Y-54079329D01*
X71654520Y-54057150D01*
X71667132Y-54036107D01*
X71681747Y-54016401D01*
X71698223Y-53998223D01*
X71716401Y-53981747D01*
X71736107Y-53967132D01*
X71757150Y-53954520D01*
X71779329Y-53944030D01*
X71802428Y-53935765D01*
X71826227Y-53929804D01*
X71850495Y-53926204D01*
X71874999Y-53925000D01*
X74725001Y-53925000D01*
X74749505Y-53926204D01*
X74749505Y-53926204D01*
G37*
D12*
X73300000Y-54600000D03*
D10*
G36*
X74749505Y-48126204D02*
G01*
X74773773Y-48129804D01*
X74797572Y-48135765D01*
X74820671Y-48144030D01*
X74842850Y-48154520D01*
X74863893Y-48167132D01*
X74883599Y-48181747D01*
X74901777Y-48198223D01*
X74918253Y-48216401D01*
X74932868Y-48236107D01*
X74945480Y-48257150D01*
X74955970Y-48279329D01*
X74964235Y-48302428D01*
X74970196Y-48326227D01*
X74973796Y-48350495D01*
X74975000Y-48374999D01*
X74975000Y-49225001D01*
X74973796Y-49249505D01*
X74970196Y-49273773D01*
X74964235Y-49297572D01*
X74955970Y-49320671D01*
X74945480Y-49342850D01*
X74932868Y-49363893D01*
X74918253Y-49383599D01*
X74901777Y-49401777D01*
X74883599Y-49418253D01*
X74863893Y-49432868D01*
X74842850Y-49445480D01*
X74820671Y-49455970D01*
X74797572Y-49464235D01*
X74773773Y-49470196D01*
X74749505Y-49473796D01*
X74725001Y-49475000D01*
X71874999Y-49475000D01*
X71850495Y-49473796D01*
X71826227Y-49470196D01*
X71802428Y-49464235D01*
X71779329Y-49455970D01*
X71757150Y-49445480D01*
X71736107Y-49432868D01*
X71716401Y-49418253D01*
X71698223Y-49401777D01*
X71681747Y-49383599D01*
X71667132Y-49363893D01*
X71654520Y-49342850D01*
X71644030Y-49320671D01*
X71635765Y-49297572D01*
X71629804Y-49273773D01*
X71626204Y-49249505D01*
X71625000Y-49225001D01*
X71625000Y-48374999D01*
X71626204Y-48350495D01*
X71629804Y-48326227D01*
X71635765Y-48302428D01*
X71644030Y-48279329D01*
X71654520Y-48257150D01*
X71667132Y-48236107D01*
X71681747Y-48216401D01*
X71698223Y-48198223D01*
X71716401Y-48181747D01*
X71736107Y-48167132D01*
X71757150Y-48154520D01*
X71779329Y-48144030D01*
X71802428Y-48135765D01*
X71826227Y-48129804D01*
X71850495Y-48126204D01*
X71874999Y-48125000D01*
X74725001Y-48125000D01*
X74749505Y-48126204D01*
X74749505Y-48126204D01*
G37*
D12*
X73300000Y-48800000D03*
D10*
G36*
X70580142Y-54113674D02*
G01*
X70603803Y-54117184D01*
X70627007Y-54122996D01*
X70649529Y-54131054D01*
X70671153Y-54141282D01*
X70691670Y-54153579D01*
X70710883Y-54167829D01*
X70728607Y-54183893D01*
X70744671Y-54201617D01*
X70758921Y-54220830D01*
X70771218Y-54241347D01*
X70781446Y-54262971D01*
X70789504Y-54285493D01*
X70795316Y-54308697D01*
X70798826Y-54332358D01*
X70800000Y-54356250D01*
X70800000Y-54843750D01*
X70798826Y-54867642D01*
X70795316Y-54891303D01*
X70789504Y-54914507D01*
X70781446Y-54937029D01*
X70771218Y-54958653D01*
X70758921Y-54979170D01*
X70744671Y-54998383D01*
X70728607Y-55016107D01*
X70710883Y-55032171D01*
X70691670Y-55046421D01*
X70671153Y-55058718D01*
X70649529Y-55068946D01*
X70627007Y-55077004D01*
X70603803Y-55082816D01*
X70580142Y-55086326D01*
X70556250Y-55087500D01*
X69643750Y-55087500D01*
X69619858Y-55086326D01*
X69596197Y-55082816D01*
X69572993Y-55077004D01*
X69550471Y-55068946D01*
X69528847Y-55058718D01*
X69508330Y-55046421D01*
X69489117Y-55032171D01*
X69471393Y-55016107D01*
X69455329Y-54998383D01*
X69441079Y-54979170D01*
X69428782Y-54958653D01*
X69418554Y-54937029D01*
X69410496Y-54914507D01*
X69404684Y-54891303D01*
X69401174Y-54867642D01*
X69400000Y-54843750D01*
X69400000Y-54356250D01*
X69401174Y-54332358D01*
X69404684Y-54308697D01*
X69410496Y-54285493D01*
X69418554Y-54262971D01*
X69428782Y-54241347D01*
X69441079Y-54220830D01*
X69455329Y-54201617D01*
X69471393Y-54183893D01*
X69489117Y-54167829D01*
X69508330Y-54153579D01*
X69528847Y-54141282D01*
X69550471Y-54131054D01*
X69572993Y-54122996D01*
X69596197Y-54117184D01*
X69619858Y-54113674D01*
X69643750Y-54112500D01*
X70556250Y-54112500D01*
X70580142Y-54113674D01*
X70580142Y-54113674D01*
G37*
D13*
X70100000Y-54600000D03*
D10*
G36*
X70580142Y-52238674D02*
G01*
X70603803Y-52242184D01*
X70627007Y-52247996D01*
X70649529Y-52256054D01*
X70671153Y-52266282D01*
X70691670Y-52278579D01*
X70710883Y-52292829D01*
X70728607Y-52308893D01*
X70744671Y-52326617D01*
X70758921Y-52345830D01*
X70771218Y-52366347D01*
X70781446Y-52387971D01*
X70789504Y-52410493D01*
X70795316Y-52433697D01*
X70798826Y-52457358D01*
X70800000Y-52481250D01*
X70800000Y-52968750D01*
X70798826Y-52992642D01*
X70795316Y-53016303D01*
X70789504Y-53039507D01*
X70781446Y-53062029D01*
X70771218Y-53083653D01*
X70758921Y-53104170D01*
X70744671Y-53123383D01*
X70728607Y-53141107D01*
X70710883Y-53157171D01*
X70691670Y-53171421D01*
X70671153Y-53183718D01*
X70649529Y-53193946D01*
X70627007Y-53202004D01*
X70603803Y-53207816D01*
X70580142Y-53211326D01*
X70556250Y-53212500D01*
X69643750Y-53212500D01*
X69619858Y-53211326D01*
X69596197Y-53207816D01*
X69572993Y-53202004D01*
X69550471Y-53193946D01*
X69528847Y-53183718D01*
X69508330Y-53171421D01*
X69489117Y-53157171D01*
X69471393Y-53141107D01*
X69455329Y-53123383D01*
X69441079Y-53104170D01*
X69428782Y-53083653D01*
X69418554Y-53062029D01*
X69410496Y-53039507D01*
X69404684Y-53016303D01*
X69401174Y-52992642D01*
X69400000Y-52968750D01*
X69400000Y-52481250D01*
X69401174Y-52457358D01*
X69404684Y-52433697D01*
X69410496Y-52410493D01*
X69418554Y-52387971D01*
X69428782Y-52366347D01*
X69441079Y-52345830D01*
X69455329Y-52326617D01*
X69471393Y-52308893D01*
X69489117Y-52292829D01*
X69508330Y-52278579D01*
X69528847Y-52266282D01*
X69550471Y-52256054D01*
X69572993Y-52247996D01*
X69596197Y-52242184D01*
X69619858Y-52238674D01*
X69643750Y-52237500D01*
X70556250Y-52237500D01*
X70580142Y-52238674D01*
X70580142Y-52238674D01*
G37*
D13*
X70100000Y-52725000D03*
D10*
G36*
X68567642Y-56901174D02*
G01*
X68591303Y-56904684D01*
X68614507Y-56910496D01*
X68637029Y-56918554D01*
X68658653Y-56928782D01*
X68679170Y-56941079D01*
X68698383Y-56955329D01*
X68716107Y-56971393D01*
X68732171Y-56989117D01*
X68746421Y-57008330D01*
X68758718Y-57028847D01*
X68768946Y-57050471D01*
X68777004Y-57072993D01*
X68782816Y-57096197D01*
X68786326Y-57119858D01*
X68787500Y-57143750D01*
X68787500Y-58056250D01*
X68786326Y-58080142D01*
X68782816Y-58103803D01*
X68777004Y-58127007D01*
X68768946Y-58149529D01*
X68758718Y-58171153D01*
X68746421Y-58191670D01*
X68732171Y-58210883D01*
X68716107Y-58228607D01*
X68698383Y-58244671D01*
X68679170Y-58258921D01*
X68658653Y-58271218D01*
X68637029Y-58281446D01*
X68614507Y-58289504D01*
X68591303Y-58295316D01*
X68567642Y-58298826D01*
X68543750Y-58300000D01*
X68056250Y-58300000D01*
X68032358Y-58298826D01*
X68008697Y-58295316D01*
X67985493Y-58289504D01*
X67962971Y-58281446D01*
X67941347Y-58271218D01*
X67920830Y-58258921D01*
X67901617Y-58244671D01*
X67883893Y-58228607D01*
X67867829Y-58210883D01*
X67853579Y-58191670D01*
X67841282Y-58171153D01*
X67831054Y-58149529D01*
X67822996Y-58127007D01*
X67817184Y-58103803D01*
X67813674Y-58080142D01*
X67812500Y-58056250D01*
X67812500Y-57143750D01*
X67813674Y-57119858D01*
X67817184Y-57096197D01*
X67822996Y-57072993D01*
X67831054Y-57050471D01*
X67841282Y-57028847D01*
X67853579Y-57008330D01*
X67867829Y-56989117D01*
X67883893Y-56971393D01*
X67901617Y-56955329D01*
X67920830Y-56941079D01*
X67941347Y-56928782D01*
X67962971Y-56918554D01*
X67985493Y-56910496D01*
X68008697Y-56904684D01*
X68032358Y-56901174D01*
X68056250Y-56900000D01*
X68543750Y-56900000D01*
X68567642Y-56901174D01*
X68567642Y-56901174D01*
G37*
D13*
X68300000Y-57600000D03*
D10*
G36*
X70442642Y-56901174D02*
G01*
X70466303Y-56904684D01*
X70489507Y-56910496D01*
X70512029Y-56918554D01*
X70533653Y-56928782D01*
X70554170Y-56941079D01*
X70573383Y-56955329D01*
X70591107Y-56971393D01*
X70607171Y-56989117D01*
X70621421Y-57008330D01*
X70633718Y-57028847D01*
X70643946Y-57050471D01*
X70652004Y-57072993D01*
X70657816Y-57096197D01*
X70661326Y-57119858D01*
X70662500Y-57143750D01*
X70662500Y-58056250D01*
X70661326Y-58080142D01*
X70657816Y-58103803D01*
X70652004Y-58127007D01*
X70643946Y-58149529D01*
X70633718Y-58171153D01*
X70621421Y-58191670D01*
X70607171Y-58210883D01*
X70591107Y-58228607D01*
X70573383Y-58244671D01*
X70554170Y-58258921D01*
X70533653Y-58271218D01*
X70512029Y-58281446D01*
X70489507Y-58289504D01*
X70466303Y-58295316D01*
X70442642Y-58298826D01*
X70418750Y-58300000D01*
X69931250Y-58300000D01*
X69907358Y-58298826D01*
X69883697Y-58295316D01*
X69860493Y-58289504D01*
X69837971Y-58281446D01*
X69816347Y-58271218D01*
X69795830Y-58258921D01*
X69776617Y-58244671D01*
X69758893Y-58228607D01*
X69742829Y-58210883D01*
X69728579Y-58191670D01*
X69716282Y-58171153D01*
X69706054Y-58149529D01*
X69697996Y-58127007D01*
X69692184Y-58103803D01*
X69688674Y-58080142D01*
X69687500Y-58056250D01*
X69687500Y-57143750D01*
X69688674Y-57119858D01*
X69692184Y-57096197D01*
X69697996Y-57072993D01*
X69706054Y-57050471D01*
X69716282Y-57028847D01*
X69728579Y-57008330D01*
X69742829Y-56989117D01*
X69758893Y-56971393D01*
X69776617Y-56955329D01*
X69795830Y-56941079D01*
X69816347Y-56928782D01*
X69837971Y-56918554D01*
X69860493Y-56910496D01*
X69883697Y-56904684D01*
X69907358Y-56901174D01*
X69931250Y-56900000D01*
X70418750Y-56900000D01*
X70442642Y-56901174D01*
X70442642Y-56901174D01*
G37*
D13*
X70175000Y-57600000D03*
D14*
X67650000Y-63825000D03*
X67650000Y-61175000D03*
X68750000Y-61175000D03*
X68750000Y-63825000D03*
D15*
X66875000Y-63050000D03*
X66875000Y-61950000D03*
X69525000Y-61950000D03*
X69525000Y-63050000D03*
D16*
X68750000Y-63050000D03*
D17*
X68750000Y-61950000D03*
X67650000Y-61950000D03*
X67650000Y-63050000D03*
D18*
X70475000Y-59725000D03*
X69825000Y-59725000D03*
X69175000Y-59725000D03*
X68525000Y-59725000D03*
X67875000Y-59725000D03*
X67225000Y-59725000D03*
X66575000Y-59725000D03*
X65925000Y-59725000D03*
X65925000Y-65275000D03*
X66575000Y-65275000D03*
X67225000Y-65275000D03*
X67875000Y-65275000D03*
X68525000Y-65275000D03*
X69175000Y-65275000D03*
X69825000Y-65275000D03*
X70475000Y-65275000D03*
D10*
G36*
X61927691Y-68738553D02*
G01*
X61948926Y-68741703D01*
X61969750Y-68746919D01*
X61989962Y-68754151D01*
X62009368Y-68763330D01*
X62027781Y-68774366D01*
X62045024Y-68787154D01*
X62060930Y-68801570D01*
X62075346Y-68817476D01*
X62088134Y-68834719D01*
X62099170Y-68853132D01*
X62108349Y-68872538D01*
X62115581Y-68892750D01*
X62120797Y-68913574D01*
X62123947Y-68934809D01*
X62125000Y-68956250D01*
X62125000Y-69393750D01*
X62123947Y-69415191D01*
X62120797Y-69436426D01*
X62115581Y-69457250D01*
X62108349Y-69477462D01*
X62099170Y-69496868D01*
X62088134Y-69515281D01*
X62075346Y-69532524D01*
X62060930Y-69548430D01*
X62045024Y-69562846D01*
X62027781Y-69575634D01*
X62009368Y-69586670D01*
X61989962Y-69595849D01*
X61969750Y-69603081D01*
X61948926Y-69608297D01*
X61927691Y-69611447D01*
X61906250Y-69612500D01*
X61393750Y-69612500D01*
X61372309Y-69611447D01*
X61351074Y-69608297D01*
X61330250Y-69603081D01*
X61310038Y-69595849D01*
X61290632Y-69586670D01*
X61272219Y-69575634D01*
X61254976Y-69562846D01*
X61239070Y-69548430D01*
X61224654Y-69532524D01*
X61211866Y-69515281D01*
X61200830Y-69496868D01*
X61191651Y-69477462D01*
X61184419Y-69457250D01*
X61179203Y-69436426D01*
X61176053Y-69415191D01*
X61175000Y-69393750D01*
X61175000Y-68956250D01*
X61176053Y-68934809D01*
X61179203Y-68913574D01*
X61184419Y-68892750D01*
X61191651Y-68872538D01*
X61200830Y-68853132D01*
X61211866Y-68834719D01*
X61224654Y-68817476D01*
X61239070Y-68801570D01*
X61254976Y-68787154D01*
X61272219Y-68774366D01*
X61290632Y-68763330D01*
X61310038Y-68754151D01*
X61330250Y-68746919D01*
X61351074Y-68741703D01*
X61372309Y-68738553D01*
X61393750Y-68737500D01*
X61906250Y-68737500D01*
X61927691Y-68738553D01*
X61927691Y-68738553D01*
G37*
D11*
X61650000Y-69175000D03*
D10*
G36*
X61927691Y-70313553D02*
G01*
X61948926Y-70316703D01*
X61969750Y-70321919D01*
X61989962Y-70329151D01*
X62009368Y-70338330D01*
X62027781Y-70349366D01*
X62045024Y-70362154D01*
X62060930Y-70376570D01*
X62075346Y-70392476D01*
X62088134Y-70409719D01*
X62099170Y-70428132D01*
X62108349Y-70447538D01*
X62115581Y-70467750D01*
X62120797Y-70488574D01*
X62123947Y-70509809D01*
X62125000Y-70531250D01*
X62125000Y-70968750D01*
X62123947Y-70990191D01*
X62120797Y-71011426D01*
X62115581Y-71032250D01*
X62108349Y-71052462D01*
X62099170Y-71071868D01*
X62088134Y-71090281D01*
X62075346Y-71107524D01*
X62060930Y-71123430D01*
X62045024Y-71137846D01*
X62027781Y-71150634D01*
X62009368Y-71161670D01*
X61989962Y-71170849D01*
X61969750Y-71178081D01*
X61948926Y-71183297D01*
X61927691Y-71186447D01*
X61906250Y-71187500D01*
X61393750Y-71187500D01*
X61372309Y-71186447D01*
X61351074Y-71183297D01*
X61330250Y-71178081D01*
X61310038Y-71170849D01*
X61290632Y-71161670D01*
X61272219Y-71150634D01*
X61254976Y-71137846D01*
X61239070Y-71123430D01*
X61224654Y-71107524D01*
X61211866Y-71090281D01*
X61200830Y-71071868D01*
X61191651Y-71052462D01*
X61184419Y-71032250D01*
X61179203Y-71011426D01*
X61176053Y-70990191D01*
X61175000Y-70968750D01*
X61175000Y-70531250D01*
X61176053Y-70509809D01*
X61179203Y-70488574D01*
X61184419Y-70467750D01*
X61191651Y-70447538D01*
X61200830Y-70428132D01*
X61211866Y-70409719D01*
X61224654Y-70392476D01*
X61239070Y-70376570D01*
X61254976Y-70362154D01*
X61272219Y-70349366D01*
X61290632Y-70338330D01*
X61310038Y-70329151D01*
X61330250Y-70321919D01*
X61351074Y-70316703D01*
X61372309Y-70313553D01*
X61393750Y-70312500D01*
X61906250Y-70312500D01*
X61927691Y-70313553D01*
X61927691Y-70313553D01*
G37*
D11*
X61650000Y-70750000D03*
D10*
G36*
X65127691Y-70338553D02*
G01*
X65148926Y-70341703D01*
X65169750Y-70346919D01*
X65189962Y-70354151D01*
X65209368Y-70363330D01*
X65227781Y-70374366D01*
X65245024Y-70387154D01*
X65260930Y-70401570D01*
X65275346Y-70417476D01*
X65288134Y-70434719D01*
X65299170Y-70453132D01*
X65308349Y-70472538D01*
X65315581Y-70492750D01*
X65320797Y-70513574D01*
X65323947Y-70534809D01*
X65325000Y-70556250D01*
X65325000Y-70993750D01*
X65323947Y-71015191D01*
X65320797Y-71036426D01*
X65315581Y-71057250D01*
X65308349Y-71077462D01*
X65299170Y-71096868D01*
X65288134Y-71115281D01*
X65275346Y-71132524D01*
X65260930Y-71148430D01*
X65245024Y-71162846D01*
X65227781Y-71175634D01*
X65209368Y-71186670D01*
X65189962Y-71195849D01*
X65169750Y-71203081D01*
X65148926Y-71208297D01*
X65127691Y-71211447D01*
X65106250Y-71212500D01*
X64593750Y-71212500D01*
X64572309Y-71211447D01*
X64551074Y-71208297D01*
X64530250Y-71203081D01*
X64510038Y-71195849D01*
X64490632Y-71186670D01*
X64472219Y-71175634D01*
X64454976Y-71162846D01*
X64439070Y-71148430D01*
X64424654Y-71132524D01*
X64411866Y-71115281D01*
X64400830Y-71096868D01*
X64391651Y-71077462D01*
X64384419Y-71057250D01*
X64379203Y-71036426D01*
X64376053Y-71015191D01*
X64375000Y-70993750D01*
X64375000Y-70556250D01*
X64376053Y-70534809D01*
X64379203Y-70513574D01*
X64384419Y-70492750D01*
X64391651Y-70472538D01*
X64400830Y-70453132D01*
X64411866Y-70434719D01*
X64424654Y-70417476D01*
X64439070Y-70401570D01*
X64454976Y-70387154D01*
X64472219Y-70374366D01*
X64490632Y-70363330D01*
X64510038Y-70354151D01*
X64530250Y-70346919D01*
X64551074Y-70341703D01*
X64572309Y-70338553D01*
X64593750Y-70337500D01*
X65106250Y-70337500D01*
X65127691Y-70338553D01*
X65127691Y-70338553D01*
G37*
D11*
X64850000Y-70775000D03*
D10*
G36*
X65127691Y-68763553D02*
G01*
X65148926Y-68766703D01*
X65169750Y-68771919D01*
X65189962Y-68779151D01*
X65209368Y-68788330D01*
X65227781Y-68799366D01*
X65245024Y-68812154D01*
X65260930Y-68826570D01*
X65275346Y-68842476D01*
X65288134Y-68859719D01*
X65299170Y-68878132D01*
X65308349Y-68897538D01*
X65315581Y-68917750D01*
X65320797Y-68938574D01*
X65323947Y-68959809D01*
X65325000Y-68981250D01*
X65325000Y-69418750D01*
X65323947Y-69440191D01*
X65320797Y-69461426D01*
X65315581Y-69482250D01*
X65308349Y-69502462D01*
X65299170Y-69521868D01*
X65288134Y-69540281D01*
X65275346Y-69557524D01*
X65260930Y-69573430D01*
X65245024Y-69587846D01*
X65227781Y-69600634D01*
X65209368Y-69611670D01*
X65189962Y-69620849D01*
X65169750Y-69628081D01*
X65148926Y-69633297D01*
X65127691Y-69636447D01*
X65106250Y-69637500D01*
X64593750Y-69637500D01*
X64572309Y-69636447D01*
X64551074Y-69633297D01*
X64530250Y-69628081D01*
X64510038Y-69620849D01*
X64490632Y-69611670D01*
X64472219Y-69600634D01*
X64454976Y-69587846D01*
X64439070Y-69573430D01*
X64424654Y-69557524D01*
X64411866Y-69540281D01*
X64400830Y-69521868D01*
X64391651Y-69502462D01*
X64384419Y-69482250D01*
X64379203Y-69461426D01*
X64376053Y-69440191D01*
X64375000Y-69418750D01*
X64375000Y-68981250D01*
X64376053Y-68959809D01*
X64379203Y-68938574D01*
X64384419Y-68917750D01*
X64391651Y-68897538D01*
X64400830Y-68878132D01*
X64411866Y-68859719D01*
X64424654Y-68842476D01*
X64439070Y-68826570D01*
X64454976Y-68812154D01*
X64472219Y-68799366D01*
X64490632Y-68788330D01*
X64510038Y-68779151D01*
X64530250Y-68771919D01*
X64551074Y-68766703D01*
X64572309Y-68763553D01*
X64593750Y-68762500D01*
X65106250Y-68762500D01*
X65127691Y-68763553D01*
X65127691Y-68763553D01*
G37*
D11*
X64850000Y-69200000D03*
D10*
G36*
X102940191Y-96826053D02*
G01*
X102961426Y-96829203D01*
X102982250Y-96834419D01*
X103002462Y-96841651D01*
X103021868Y-96850830D01*
X103040281Y-96861866D01*
X103057524Y-96874654D01*
X103073430Y-96889070D01*
X103087846Y-96904976D01*
X103100634Y-96922219D01*
X103111670Y-96940632D01*
X103120849Y-96960038D01*
X103128081Y-96980250D01*
X103133297Y-97001074D01*
X103136447Y-97022309D01*
X103137500Y-97043750D01*
X103137500Y-97556250D01*
X103136447Y-97577691D01*
X103133297Y-97598926D01*
X103128081Y-97619750D01*
X103120849Y-97639962D01*
X103111670Y-97659368D01*
X103100634Y-97677781D01*
X103087846Y-97695024D01*
X103073430Y-97710930D01*
X103057524Y-97725346D01*
X103040281Y-97738134D01*
X103021868Y-97749170D01*
X103002462Y-97758349D01*
X102982250Y-97765581D01*
X102961426Y-97770797D01*
X102940191Y-97773947D01*
X102918750Y-97775000D01*
X102481250Y-97775000D01*
X102459809Y-97773947D01*
X102438574Y-97770797D01*
X102417750Y-97765581D01*
X102397538Y-97758349D01*
X102378132Y-97749170D01*
X102359719Y-97738134D01*
X102342476Y-97725346D01*
X102326570Y-97710930D01*
X102312154Y-97695024D01*
X102299366Y-97677781D01*
X102288330Y-97659368D01*
X102279151Y-97639962D01*
X102271919Y-97619750D01*
X102266703Y-97598926D01*
X102263553Y-97577691D01*
X102262500Y-97556250D01*
X102262500Y-97043750D01*
X102263553Y-97022309D01*
X102266703Y-97001074D01*
X102271919Y-96980250D01*
X102279151Y-96960038D01*
X102288330Y-96940632D01*
X102299366Y-96922219D01*
X102312154Y-96904976D01*
X102326570Y-96889070D01*
X102342476Y-96874654D01*
X102359719Y-96861866D01*
X102378132Y-96850830D01*
X102397538Y-96841651D01*
X102417750Y-96834419D01*
X102438574Y-96829203D01*
X102459809Y-96826053D01*
X102481250Y-96825000D01*
X102918750Y-96825000D01*
X102940191Y-96826053D01*
X102940191Y-96826053D01*
G37*
D11*
X102700000Y-97300000D03*
D10*
G36*
X104515191Y-96826053D02*
G01*
X104536426Y-96829203D01*
X104557250Y-96834419D01*
X104577462Y-96841651D01*
X104596868Y-96850830D01*
X104615281Y-96861866D01*
X104632524Y-96874654D01*
X104648430Y-96889070D01*
X104662846Y-96904976D01*
X104675634Y-96922219D01*
X104686670Y-96940632D01*
X104695849Y-96960038D01*
X104703081Y-96980250D01*
X104708297Y-97001074D01*
X104711447Y-97022309D01*
X104712500Y-97043750D01*
X104712500Y-97556250D01*
X104711447Y-97577691D01*
X104708297Y-97598926D01*
X104703081Y-97619750D01*
X104695849Y-97639962D01*
X104686670Y-97659368D01*
X104675634Y-97677781D01*
X104662846Y-97695024D01*
X104648430Y-97710930D01*
X104632524Y-97725346D01*
X104615281Y-97738134D01*
X104596868Y-97749170D01*
X104577462Y-97758349D01*
X104557250Y-97765581D01*
X104536426Y-97770797D01*
X104515191Y-97773947D01*
X104493750Y-97775000D01*
X104056250Y-97775000D01*
X104034809Y-97773947D01*
X104013574Y-97770797D01*
X103992750Y-97765581D01*
X103972538Y-97758349D01*
X103953132Y-97749170D01*
X103934719Y-97738134D01*
X103917476Y-97725346D01*
X103901570Y-97710930D01*
X103887154Y-97695024D01*
X103874366Y-97677781D01*
X103863330Y-97659368D01*
X103854151Y-97639962D01*
X103846919Y-97619750D01*
X103841703Y-97598926D01*
X103838553Y-97577691D01*
X103837500Y-97556250D01*
X103837500Y-97043750D01*
X103838553Y-97022309D01*
X103841703Y-97001074D01*
X103846919Y-96980250D01*
X103854151Y-96960038D01*
X103863330Y-96940632D01*
X103874366Y-96922219D01*
X103887154Y-96904976D01*
X103901570Y-96889070D01*
X103917476Y-96874654D01*
X103934719Y-96861866D01*
X103953132Y-96850830D01*
X103972538Y-96841651D01*
X103992750Y-96834419D01*
X104013574Y-96829203D01*
X104034809Y-96826053D01*
X104056250Y-96825000D01*
X104493750Y-96825000D01*
X104515191Y-96826053D01*
X104515191Y-96826053D01*
G37*
D11*
X104275000Y-97300000D03*
D10*
G36*
X68327691Y-70388553D02*
G01*
X68348926Y-70391703D01*
X68369750Y-70396919D01*
X68389962Y-70404151D01*
X68409368Y-70413330D01*
X68427781Y-70424366D01*
X68445024Y-70437154D01*
X68460930Y-70451570D01*
X68475346Y-70467476D01*
X68488134Y-70484719D01*
X68499170Y-70503132D01*
X68508349Y-70522538D01*
X68515581Y-70542750D01*
X68520797Y-70563574D01*
X68523947Y-70584809D01*
X68525000Y-70606250D01*
X68525000Y-71043750D01*
X68523947Y-71065191D01*
X68520797Y-71086426D01*
X68515581Y-71107250D01*
X68508349Y-71127462D01*
X68499170Y-71146868D01*
X68488134Y-71165281D01*
X68475346Y-71182524D01*
X68460930Y-71198430D01*
X68445024Y-71212846D01*
X68427781Y-71225634D01*
X68409368Y-71236670D01*
X68389962Y-71245849D01*
X68369750Y-71253081D01*
X68348926Y-71258297D01*
X68327691Y-71261447D01*
X68306250Y-71262500D01*
X67793750Y-71262500D01*
X67772309Y-71261447D01*
X67751074Y-71258297D01*
X67730250Y-71253081D01*
X67710038Y-71245849D01*
X67690632Y-71236670D01*
X67672219Y-71225634D01*
X67654976Y-71212846D01*
X67639070Y-71198430D01*
X67624654Y-71182524D01*
X67611866Y-71165281D01*
X67600830Y-71146868D01*
X67591651Y-71127462D01*
X67584419Y-71107250D01*
X67579203Y-71086426D01*
X67576053Y-71065191D01*
X67575000Y-71043750D01*
X67575000Y-70606250D01*
X67576053Y-70584809D01*
X67579203Y-70563574D01*
X67584419Y-70542750D01*
X67591651Y-70522538D01*
X67600830Y-70503132D01*
X67611866Y-70484719D01*
X67624654Y-70467476D01*
X67639070Y-70451570D01*
X67654976Y-70437154D01*
X67672219Y-70424366D01*
X67690632Y-70413330D01*
X67710038Y-70404151D01*
X67730250Y-70396919D01*
X67751074Y-70391703D01*
X67772309Y-70388553D01*
X67793750Y-70387500D01*
X68306250Y-70387500D01*
X68327691Y-70388553D01*
X68327691Y-70388553D01*
G37*
D11*
X68050000Y-70825000D03*
D10*
G36*
X68327691Y-68813553D02*
G01*
X68348926Y-68816703D01*
X68369750Y-68821919D01*
X68389962Y-68829151D01*
X68409368Y-68838330D01*
X68427781Y-68849366D01*
X68445024Y-68862154D01*
X68460930Y-68876570D01*
X68475346Y-68892476D01*
X68488134Y-68909719D01*
X68499170Y-68928132D01*
X68508349Y-68947538D01*
X68515581Y-68967750D01*
X68520797Y-68988574D01*
X68523947Y-69009809D01*
X68525000Y-69031250D01*
X68525000Y-69468750D01*
X68523947Y-69490191D01*
X68520797Y-69511426D01*
X68515581Y-69532250D01*
X68508349Y-69552462D01*
X68499170Y-69571868D01*
X68488134Y-69590281D01*
X68475346Y-69607524D01*
X68460930Y-69623430D01*
X68445024Y-69637846D01*
X68427781Y-69650634D01*
X68409368Y-69661670D01*
X68389962Y-69670849D01*
X68369750Y-69678081D01*
X68348926Y-69683297D01*
X68327691Y-69686447D01*
X68306250Y-69687500D01*
X67793750Y-69687500D01*
X67772309Y-69686447D01*
X67751074Y-69683297D01*
X67730250Y-69678081D01*
X67710038Y-69670849D01*
X67690632Y-69661670D01*
X67672219Y-69650634D01*
X67654976Y-69637846D01*
X67639070Y-69623430D01*
X67624654Y-69607524D01*
X67611866Y-69590281D01*
X67600830Y-69571868D01*
X67591651Y-69552462D01*
X67584419Y-69532250D01*
X67579203Y-69511426D01*
X67576053Y-69490191D01*
X67575000Y-69468750D01*
X67575000Y-69031250D01*
X67576053Y-69009809D01*
X67579203Y-68988574D01*
X67584419Y-68967750D01*
X67591651Y-68947538D01*
X67600830Y-68928132D01*
X67611866Y-68909719D01*
X67624654Y-68892476D01*
X67639070Y-68876570D01*
X67654976Y-68862154D01*
X67672219Y-68849366D01*
X67690632Y-68838330D01*
X67710038Y-68829151D01*
X67730250Y-68821919D01*
X67751074Y-68816703D01*
X67772309Y-68813553D01*
X67793750Y-68812500D01*
X68306250Y-68812500D01*
X68327691Y-68813553D01*
X68327691Y-68813553D01*
G37*
D11*
X68050000Y-69250000D03*
D10*
G36*
X96549505Y-111326204D02*
G01*
X96573773Y-111329804D01*
X96597572Y-111335765D01*
X96620671Y-111344030D01*
X96642850Y-111354520D01*
X96663893Y-111367132D01*
X96683599Y-111381747D01*
X96701777Y-111398223D01*
X96718253Y-111416401D01*
X96732868Y-111436107D01*
X96745480Y-111457150D01*
X96755970Y-111479329D01*
X96764235Y-111502428D01*
X96770196Y-111526227D01*
X96773796Y-111550495D01*
X96775000Y-111574999D01*
X96775000Y-114425001D01*
X96773796Y-114449505D01*
X96770196Y-114473773D01*
X96764235Y-114497572D01*
X96755970Y-114520671D01*
X96745480Y-114542850D01*
X96732868Y-114563893D01*
X96718253Y-114583599D01*
X96701777Y-114601777D01*
X96683599Y-114618253D01*
X96663893Y-114632868D01*
X96642850Y-114645480D01*
X96620671Y-114655970D01*
X96597572Y-114664235D01*
X96573773Y-114670196D01*
X96549505Y-114673796D01*
X96525001Y-114675000D01*
X95674999Y-114675000D01*
X95650495Y-114673796D01*
X95626227Y-114670196D01*
X95602428Y-114664235D01*
X95579329Y-114655970D01*
X95557150Y-114645480D01*
X95536107Y-114632868D01*
X95516401Y-114618253D01*
X95498223Y-114601777D01*
X95481747Y-114583599D01*
X95467132Y-114563893D01*
X95454520Y-114542850D01*
X95444030Y-114520671D01*
X95435765Y-114497572D01*
X95429804Y-114473773D01*
X95426204Y-114449505D01*
X95425000Y-114425001D01*
X95425000Y-111574999D01*
X95426204Y-111550495D01*
X95429804Y-111526227D01*
X95435765Y-111502428D01*
X95444030Y-111479329D01*
X95454520Y-111457150D01*
X95467132Y-111436107D01*
X95481747Y-111416401D01*
X95498223Y-111398223D01*
X95516401Y-111381747D01*
X95536107Y-111367132D01*
X95557150Y-111354520D01*
X95579329Y-111344030D01*
X95602428Y-111335765D01*
X95626227Y-111329804D01*
X95650495Y-111326204D01*
X95674999Y-111325000D01*
X96525001Y-111325000D01*
X96549505Y-111326204D01*
X96549505Y-111326204D01*
G37*
D12*
X96100000Y-113000000D03*
D10*
G36*
X90749505Y-111326204D02*
G01*
X90773773Y-111329804D01*
X90797572Y-111335765D01*
X90820671Y-111344030D01*
X90842850Y-111354520D01*
X90863893Y-111367132D01*
X90883599Y-111381747D01*
X90901777Y-111398223D01*
X90918253Y-111416401D01*
X90932868Y-111436107D01*
X90945480Y-111457150D01*
X90955970Y-111479329D01*
X90964235Y-111502428D01*
X90970196Y-111526227D01*
X90973796Y-111550495D01*
X90975000Y-111574999D01*
X90975000Y-114425001D01*
X90973796Y-114449505D01*
X90970196Y-114473773D01*
X90964235Y-114497572D01*
X90955970Y-114520671D01*
X90945480Y-114542850D01*
X90932868Y-114563893D01*
X90918253Y-114583599D01*
X90901777Y-114601777D01*
X90883599Y-114618253D01*
X90863893Y-114632868D01*
X90842850Y-114645480D01*
X90820671Y-114655970D01*
X90797572Y-114664235D01*
X90773773Y-114670196D01*
X90749505Y-114673796D01*
X90725001Y-114675000D01*
X89874999Y-114675000D01*
X89850495Y-114673796D01*
X89826227Y-114670196D01*
X89802428Y-114664235D01*
X89779329Y-114655970D01*
X89757150Y-114645480D01*
X89736107Y-114632868D01*
X89716401Y-114618253D01*
X89698223Y-114601777D01*
X89681747Y-114583599D01*
X89667132Y-114563893D01*
X89654520Y-114542850D01*
X89644030Y-114520671D01*
X89635765Y-114497572D01*
X89629804Y-114473773D01*
X89626204Y-114449505D01*
X89625000Y-114425001D01*
X89625000Y-111574999D01*
X89626204Y-111550495D01*
X89629804Y-111526227D01*
X89635765Y-111502428D01*
X89644030Y-111479329D01*
X89654520Y-111457150D01*
X89667132Y-111436107D01*
X89681747Y-111416401D01*
X89698223Y-111398223D01*
X89716401Y-111381747D01*
X89736107Y-111367132D01*
X89757150Y-111354520D01*
X89779329Y-111344030D01*
X89802428Y-111335765D01*
X89826227Y-111329804D01*
X89850495Y-111326204D01*
X89874999Y-111325000D01*
X90725001Y-111325000D01*
X90749505Y-111326204D01*
X90749505Y-111326204D01*
G37*
D12*
X90300000Y-113000000D03*
D10*
G36*
X96549505Y-115326204D02*
G01*
X96573773Y-115329804D01*
X96597572Y-115335765D01*
X96620671Y-115344030D01*
X96642850Y-115354520D01*
X96663893Y-115367132D01*
X96683599Y-115381747D01*
X96701777Y-115398223D01*
X96718253Y-115416401D01*
X96732868Y-115436107D01*
X96745480Y-115457150D01*
X96755970Y-115479329D01*
X96764235Y-115502428D01*
X96770196Y-115526227D01*
X96773796Y-115550495D01*
X96775000Y-115574999D01*
X96775000Y-118425001D01*
X96773796Y-118449505D01*
X96770196Y-118473773D01*
X96764235Y-118497572D01*
X96755970Y-118520671D01*
X96745480Y-118542850D01*
X96732868Y-118563893D01*
X96718253Y-118583599D01*
X96701777Y-118601777D01*
X96683599Y-118618253D01*
X96663893Y-118632868D01*
X96642850Y-118645480D01*
X96620671Y-118655970D01*
X96597572Y-118664235D01*
X96573773Y-118670196D01*
X96549505Y-118673796D01*
X96525001Y-118675000D01*
X95674999Y-118675000D01*
X95650495Y-118673796D01*
X95626227Y-118670196D01*
X95602428Y-118664235D01*
X95579329Y-118655970D01*
X95557150Y-118645480D01*
X95536107Y-118632868D01*
X95516401Y-118618253D01*
X95498223Y-118601777D01*
X95481747Y-118583599D01*
X95467132Y-118563893D01*
X95454520Y-118542850D01*
X95444030Y-118520671D01*
X95435765Y-118497572D01*
X95429804Y-118473773D01*
X95426204Y-118449505D01*
X95425000Y-118425001D01*
X95425000Y-115574999D01*
X95426204Y-115550495D01*
X95429804Y-115526227D01*
X95435765Y-115502428D01*
X95444030Y-115479329D01*
X95454520Y-115457150D01*
X95467132Y-115436107D01*
X95481747Y-115416401D01*
X95498223Y-115398223D01*
X95516401Y-115381747D01*
X95536107Y-115367132D01*
X95557150Y-115354520D01*
X95579329Y-115344030D01*
X95602428Y-115335765D01*
X95626227Y-115329804D01*
X95650495Y-115326204D01*
X95674999Y-115325000D01*
X96525001Y-115325000D01*
X96549505Y-115326204D01*
X96549505Y-115326204D01*
G37*
D12*
X96100000Y-117000000D03*
D10*
G36*
X90749505Y-115326204D02*
G01*
X90773773Y-115329804D01*
X90797572Y-115335765D01*
X90820671Y-115344030D01*
X90842850Y-115354520D01*
X90863893Y-115367132D01*
X90883599Y-115381747D01*
X90901777Y-115398223D01*
X90918253Y-115416401D01*
X90932868Y-115436107D01*
X90945480Y-115457150D01*
X90955970Y-115479329D01*
X90964235Y-115502428D01*
X90970196Y-115526227D01*
X90973796Y-115550495D01*
X90975000Y-115574999D01*
X90975000Y-118425001D01*
X90973796Y-118449505D01*
X90970196Y-118473773D01*
X90964235Y-118497572D01*
X90955970Y-118520671D01*
X90945480Y-118542850D01*
X90932868Y-118563893D01*
X90918253Y-118583599D01*
X90901777Y-118601777D01*
X90883599Y-118618253D01*
X90863893Y-118632868D01*
X90842850Y-118645480D01*
X90820671Y-118655970D01*
X90797572Y-118664235D01*
X90773773Y-118670196D01*
X90749505Y-118673796D01*
X90725001Y-118675000D01*
X89874999Y-118675000D01*
X89850495Y-118673796D01*
X89826227Y-118670196D01*
X89802428Y-118664235D01*
X89779329Y-118655970D01*
X89757150Y-118645480D01*
X89736107Y-118632868D01*
X89716401Y-118618253D01*
X89698223Y-118601777D01*
X89681747Y-118583599D01*
X89667132Y-118563893D01*
X89654520Y-118542850D01*
X89644030Y-118520671D01*
X89635765Y-118497572D01*
X89629804Y-118473773D01*
X89626204Y-118449505D01*
X89625000Y-118425001D01*
X89625000Y-115574999D01*
X89626204Y-115550495D01*
X89629804Y-115526227D01*
X89635765Y-115502428D01*
X89644030Y-115479329D01*
X89654520Y-115457150D01*
X89667132Y-115436107D01*
X89681747Y-115416401D01*
X89698223Y-115398223D01*
X89716401Y-115381747D01*
X89736107Y-115367132D01*
X89757150Y-115354520D01*
X89779329Y-115344030D01*
X89802428Y-115335765D01*
X89826227Y-115329804D01*
X89850495Y-115326204D01*
X89874999Y-115325000D01*
X90725001Y-115325000D01*
X90749505Y-115326204D01*
X90749505Y-115326204D01*
G37*
D12*
X90300000Y-117000000D03*
D10*
G36*
X71677691Y-68763553D02*
G01*
X71698926Y-68766703D01*
X71719750Y-68771919D01*
X71739962Y-68779151D01*
X71759368Y-68788330D01*
X71777781Y-68799366D01*
X71795024Y-68812154D01*
X71810930Y-68826570D01*
X71825346Y-68842476D01*
X71838134Y-68859719D01*
X71849170Y-68878132D01*
X71858349Y-68897538D01*
X71865581Y-68917750D01*
X71870797Y-68938574D01*
X71873947Y-68959809D01*
X71875000Y-68981250D01*
X71875000Y-69418750D01*
X71873947Y-69440191D01*
X71870797Y-69461426D01*
X71865581Y-69482250D01*
X71858349Y-69502462D01*
X71849170Y-69521868D01*
X71838134Y-69540281D01*
X71825346Y-69557524D01*
X71810930Y-69573430D01*
X71795024Y-69587846D01*
X71777781Y-69600634D01*
X71759368Y-69611670D01*
X71739962Y-69620849D01*
X71719750Y-69628081D01*
X71698926Y-69633297D01*
X71677691Y-69636447D01*
X71656250Y-69637500D01*
X71143750Y-69637500D01*
X71122309Y-69636447D01*
X71101074Y-69633297D01*
X71080250Y-69628081D01*
X71060038Y-69620849D01*
X71040632Y-69611670D01*
X71022219Y-69600634D01*
X71004976Y-69587846D01*
X70989070Y-69573430D01*
X70974654Y-69557524D01*
X70961866Y-69540281D01*
X70950830Y-69521868D01*
X70941651Y-69502462D01*
X70934419Y-69482250D01*
X70929203Y-69461426D01*
X70926053Y-69440191D01*
X70925000Y-69418750D01*
X70925000Y-68981250D01*
X70926053Y-68959809D01*
X70929203Y-68938574D01*
X70934419Y-68917750D01*
X70941651Y-68897538D01*
X70950830Y-68878132D01*
X70961866Y-68859719D01*
X70974654Y-68842476D01*
X70989070Y-68826570D01*
X71004976Y-68812154D01*
X71022219Y-68799366D01*
X71040632Y-68788330D01*
X71060038Y-68779151D01*
X71080250Y-68771919D01*
X71101074Y-68766703D01*
X71122309Y-68763553D01*
X71143750Y-68762500D01*
X71656250Y-68762500D01*
X71677691Y-68763553D01*
X71677691Y-68763553D01*
G37*
D11*
X71400000Y-69200000D03*
D10*
G36*
X71677691Y-70338553D02*
G01*
X71698926Y-70341703D01*
X71719750Y-70346919D01*
X71739962Y-70354151D01*
X71759368Y-70363330D01*
X71777781Y-70374366D01*
X71795024Y-70387154D01*
X71810930Y-70401570D01*
X71825346Y-70417476D01*
X71838134Y-70434719D01*
X71849170Y-70453132D01*
X71858349Y-70472538D01*
X71865581Y-70492750D01*
X71870797Y-70513574D01*
X71873947Y-70534809D01*
X71875000Y-70556250D01*
X71875000Y-70993750D01*
X71873947Y-71015191D01*
X71870797Y-71036426D01*
X71865581Y-71057250D01*
X71858349Y-71077462D01*
X71849170Y-71096868D01*
X71838134Y-71115281D01*
X71825346Y-71132524D01*
X71810930Y-71148430D01*
X71795024Y-71162846D01*
X71777781Y-71175634D01*
X71759368Y-71186670D01*
X71739962Y-71195849D01*
X71719750Y-71203081D01*
X71698926Y-71208297D01*
X71677691Y-71211447D01*
X71656250Y-71212500D01*
X71143750Y-71212500D01*
X71122309Y-71211447D01*
X71101074Y-71208297D01*
X71080250Y-71203081D01*
X71060038Y-71195849D01*
X71040632Y-71186670D01*
X71022219Y-71175634D01*
X71004976Y-71162846D01*
X70989070Y-71148430D01*
X70974654Y-71132524D01*
X70961866Y-71115281D01*
X70950830Y-71096868D01*
X70941651Y-71077462D01*
X70934419Y-71057250D01*
X70929203Y-71036426D01*
X70926053Y-71015191D01*
X70925000Y-70993750D01*
X70925000Y-70556250D01*
X70926053Y-70534809D01*
X70929203Y-70513574D01*
X70934419Y-70492750D01*
X70941651Y-70472538D01*
X70950830Y-70453132D01*
X70961866Y-70434719D01*
X70974654Y-70417476D01*
X70989070Y-70401570D01*
X71004976Y-70387154D01*
X71022219Y-70374366D01*
X71040632Y-70363330D01*
X71060038Y-70354151D01*
X71080250Y-70346919D01*
X71101074Y-70341703D01*
X71122309Y-70338553D01*
X71143750Y-70337500D01*
X71656250Y-70337500D01*
X71677691Y-70338553D01*
X71677691Y-70338553D01*
G37*
D11*
X71400000Y-70775000D03*
D10*
G36*
X73190191Y-67176053D02*
G01*
X73211426Y-67179203D01*
X73232250Y-67184419D01*
X73252462Y-67191651D01*
X73271868Y-67200830D01*
X73290281Y-67211866D01*
X73307524Y-67224654D01*
X73323430Y-67239070D01*
X73337846Y-67254976D01*
X73350634Y-67272219D01*
X73361670Y-67290632D01*
X73370849Y-67310038D01*
X73378081Y-67330250D01*
X73383297Y-67351074D01*
X73386447Y-67372309D01*
X73387500Y-67393750D01*
X73387500Y-67906250D01*
X73386447Y-67927691D01*
X73383297Y-67948926D01*
X73378081Y-67969750D01*
X73370849Y-67989962D01*
X73361670Y-68009368D01*
X73350634Y-68027781D01*
X73337846Y-68045024D01*
X73323430Y-68060930D01*
X73307524Y-68075346D01*
X73290281Y-68088134D01*
X73271868Y-68099170D01*
X73252462Y-68108349D01*
X73232250Y-68115581D01*
X73211426Y-68120797D01*
X73190191Y-68123947D01*
X73168750Y-68125000D01*
X72731250Y-68125000D01*
X72709809Y-68123947D01*
X72688574Y-68120797D01*
X72667750Y-68115581D01*
X72647538Y-68108349D01*
X72628132Y-68099170D01*
X72609719Y-68088134D01*
X72592476Y-68075346D01*
X72576570Y-68060930D01*
X72562154Y-68045024D01*
X72549366Y-68027781D01*
X72538330Y-68009368D01*
X72529151Y-67989962D01*
X72521919Y-67969750D01*
X72516703Y-67948926D01*
X72513553Y-67927691D01*
X72512500Y-67906250D01*
X72512500Y-67393750D01*
X72513553Y-67372309D01*
X72516703Y-67351074D01*
X72521919Y-67330250D01*
X72529151Y-67310038D01*
X72538330Y-67290632D01*
X72549366Y-67272219D01*
X72562154Y-67254976D01*
X72576570Y-67239070D01*
X72592476Y-67224654D01*
X72609719Y-67211866D01*
X72628132Y-67200830D01*
X72647538Y-67191651D01*
X72667750Y-67184419D01*
X72688574Y-67179203D01*
X72709809Y-67176053D01*
X72731250Y-67175000D01*
X73168750Y-67175000D01*
X73190191Y-67176053D01*
X73190191Y-67176053D01*
G37*
D11*
X72950000Y-67650000D03*
D10*
G36*
X71615191Y-67176053D02*
G01*
X71636426Y-67179203D01*
X71657250Y-67184419D01*
X71677462Y-67191651D01*
X71696868Y-67200830D01*
X71715281Y-67211866D01*
X71732524Y-67224654D01*
X71748430Y-67239070D01*
X71762846Y-67254976D01*
X71775634Y-67272219D01*
X71786670Y-67290632D01*
X71795849Y-67310038D01*
X71803081Y-67330250D01*
X71808297Y-67351074D01*
X71811447Y-67372309D01*
X71812500Y-67393750D01*
X71812500Y-67906250D01*
X71811447Y-67927691D01*
X71808297Y-67948926D01*
X71803081Y-67969750D01*
X71795849Y-67989962D01*
X71786670Y-68009368D01*
X71775634Y-68027781D01*
X71762846Y-68045024D01*
X71748430Y-68060930D01*
X71732524Y-68075346D01*
X71715281Y-68088134D01*
X71696868Y-68099170D01*
X71677462Y-68108349D01*
X71657250Y-68115581D01*
X71636426Y-68120797D01*
X71615191Y-68123947D01*
X71593750Y-68125000D01*
X71156250Y-68125000D01*
X71134809Y-68123947D01*
X71113574Y-68120797D01*
X71092750Y-68115581D01*
X71072538Y-68108349D01*
X71053132Y-68099170D01*
X71034719Y-68088134D01*
X71017476Y-68075346D01*
X71001570Y-68060930D01*
X70987154Y-68045024D01*
X70974366Y-68027781D01*
X70963330Y-68009368D01*
X70954151Y-67989962D01*
X70946919Y-67969750D01*
X70941703Y-67948926D01*
X70938553Y-67927691D01*
X70937500Y-67906250D01*
X70937500Y-67393750D01*
X70938553Y-67372309D01*
X70941703Y-67351074D01*
X70946919Y-67330250D01*
X70954151Y-67310038D01*
X70963330Y-67290632D01*
X70974366Y-67272219D01*
X70987154Y-67254976D01*
X71001570Y-67239070D01*
X71017476Y-67224654D01*
X71034719Y-67211866D01*
X71053132Y-67200830D01*
X71072538Y-67191651D01*
X71092750Y-67184419D01*
X71113574Y-67179203D01*
X71134809Y-67176053D01*
X71156250Y-67175000D01*
X71593750Y-67175000D01*
X71615191Y-67176053D01*
X71615191Y-67176053D01*
G37*
D11*
X71375000Y-67650000D03*
D10*
G36*
X63527691Y-68738553D02*
G01*
X63548926Y-68741703D01*
X63569750Y-68746919D01*
X63589962Y-68754151D01*
X63609368Y-68763330D01*
X63627781Y-68774366D01*
X63645024Y-68787154D01*
X63660930Y-68801570D01*
X63675346Y-68817476D01*
X63688134Y-68834719D01*
X63699170Y-68853132D01*
X63708349Y-68872538D01*
X63715581Y-68892750D01*
X63720797Y-68913574D01*
X63723947Y-68934809D01*
X63725000Y-68956250D01*
X63725000Y-69393750D01*
X63723947Y-69415191D01*
X63720797Y-69436426D01*
X63715581Y-69457250D01*
X63708349Y-69477462D01*
X63699170Y-69496868D01*
X63688134Y-69515281D01*
X63675346Y-69532524D01*
X63660930Y-69548430D01*
X63645024Y-69562846D01*
X63627781Y-69575634D01*
X63609368Y-69586670D01*
X63589962Y-69595849D01*
X63569750Y-69603081D01*
X63548926Y-69608297D01*
X63527691Y-69611447D01*
X63506250Y-69612500D01*
X62993750Y-69612500D01*
X62972309Y-69611447D01*
X62951074Y-69608297D01*
X62930250Y-69603081D01*
X62910038Y-69595849D01*
X62890632Y-69586670D01*
X62872219Y-69575634D01*
X62854976Y-69562846D01*
X62839070Y-69548430D01*
X62824654Y-69532524D01*
X62811866Y-69515281D01*
X62800830Y-69496868D01*
X62791651Y-69477462D01*
X62784419Y-69457250D01*
X62779203Y-69436426D01*
X62776053Y-69415191D01*
X62775000Y-69393750D01*
X62775000Y-68956250D01*
X62776053Y-68934809D01*
X62779203Y-68913574D01*
X62784419Y-68892750D01*
X62791651Y-68872538D01*
X62800830Y-68853132D01*
X62811866Y-68834719D01*
X62824654Y-68817476D01*
X62839070Y-68801570D01*
X62854976Y-68787154D01*
X62872219Y-68774366D01*
X62890632Y-68763330D01*
X62910038Y-68754151D01*
X62930250Y-68746919D01*
X62951074Y-68741703D01*
X62972309Y-68738553D01*
X62993750Y-68737500D01*
X63506250Y-68737500D01*
X63527691Y-68738553D01*
X63527691Y-68738553D01*
G37*
D11*
X63250000Y-69175000D03*
D10*
G36*
X63527691Y-70313553D02*
G01*
X63548926Y-70316703D01*
X63569750Y-70321919D01*
X63589962Y-70329151D01*
X63609368Y-70338330D01*
X63627781Y-70349366D01*
X63645024Y-70362154D01*
X63660930Y-70376570D01*
X63675346Y-70392476D01*
X63688134Y-70409719D01*
X63699170Y-70428132D01*
X63708349Y-70447538D01*
X63715581Y-70467750D01*
X63720797Y-70488574D01*
X63723947Y-70509809D01*
X63725000Y-70531250D01*
X63725000Y-70968750D01*
X63723947Y-70990191D01*
X63720797Y-71011426D01*
X63715581Y-71032250D01*
X63708349Y-71052462D01*
X63699170Y-71071868D01*
X63688134Y-71090281D01*
X63675346Y-71107524D01*
X63660930Y-71123430D01*
X63645024Y-71137846D01*
X63627781Y-71150634D01*
X63609368Y-71161670D01*
X63589962Y-71170849D01*
X63569750Y-71178081D01*
X63548926Y-71183297D01*
X63527691Y-71186447D01*
X63506250Y-71187500D01*
X62993750Y-71187500D01*
X62972309Y-71186447D01*
X62951074Y-71183297D01*
X62930250Y-71178081D01*
X62910038Y-71170849D01*
X62890632Y-71161670D01*
X62872219Y-71150634D01*
X62854976Y-71137846D01*
X62839070Y-71123430D01*
X62824654Y-71107524D01*
X62811866Y-71090281D01*
X62800830Y-71071868D01*
X62791651Y-71052462D01*
X62784419Y-71032250D01*
X62779203Y-71011426D01*
X62776053Y-70990191D01*
X62775000Y-70968750D01*
X62775000Y-70531250D01*
X62776053Y-70509809D01*
X62779203Y-70488574D01*
X62784419Y-70467750D01*
X62791651Y-70447538D01*
X62800830Y-70428132D01*
X62811866Y-70409719D01*
X62824654Y-70392476D01*
X62839070Y-70376570D01*
X62854976Y-70362154D01*
X62872219Y-70349366D01*
X62890632Y-70338330D01*
X62910038Y-70329151D01*
X62930250Y-70321919D01*
X62951074Y-70316703D01*
X62972309Y-70313553D01*
X62993750Y-70312500D01*
X63506250Y-70312500D01*
X63527691Y-70313553D01*
X63527691Y-70313553D01*
G37*
D11*
X63250000Y-70750000D03*
D10*
G36*
X58615191Y-70276053D02*
G01*
X58636426Y-70279203D01*
X58657250Y-70284419D01*
X58677462Y-70291651D01*
X58696868Y-70300830D01*
X58715281Y-70311866D01*
X58732524Y-70324654D01*
X58748430Y-70339070D01*
X58762846Y-70354976D01*
X58775634Y-70372219D01*
X58786670Y-70390632D01*
X58795849Y-70410038D01*
X58803081Y-70430250D01*
X58808297Y-70451074D01*
X58811447Y-70472309D01*
X58812500Y-70493750D01*
X58812500Y-71006250D01*
X58811447Y-71027691D01*
X58808297Y-71048926D01*
X58803081Y-71069750D01*
X58795849Y-71089962D01*
X58786670Y-71109368D01*
X58775634Y-71127781D01*
X58762846Y-71145024D01*
X58748430Y-71160930D01*
X58732524Y-71175346D01*
X58715281Y-71188134D01*
X58696868Y-71199170D01*
X58677462Y-71208349D01*
X58657250Y-71215581D01*
X58636426Y-71220797D01*
X58615191Y-71223947D01*
X58593750Y-71225000D01*
X58156250Y-71225000D01*
X58134809Y-71223947D01*
X58113574Y-71220797D01*
X58092750Y-71215581D01*
X58072538Y-71208349D01*
X58053132Y-71199170D01*
X58034719Y-71188134D01*
X58017476Y-71175346D01*
X58001570Y-71160930D01*
X57987154Y-71145024D01*
X57974366Y-71127781D01*
X57963330Y-71109368D01*
X57954151Y-71089962D01*
X57946919Y-71069750D01*
X57941703Y-71048926D01*
X57938553Y-71027691D01*
X57937500Y-71006250D01*
X57937500Y-70493750D01*
X57938553Y-70472309D01*
X57941703Y-70451074D01*
X57946919Y-70430250D01*
X57954151Y-70410038D01*
X57963330Y-70390632D01*
X57974366Y-70372219D01*
X57987154Y-70354976D01*
X58001570Y-70339070D01*
X58017476Y-70324654D01*
X58034719Y-70311866D01*
X58053132Y-70300830D01*
X58072538Y-70291651D01*
X58092750Y-70284419D01*
X58113574Y-70279203D01*
X58134809Y-70276053D01*
X58156250Y-70275000D01*
X58593750Y-70275000D01*
X58615191Y-70276053D01*
X58615191Y-70276053D01*
G37*
D11*
X58375000Y-70750000D03*
D10*
G36*
X57040191Y-70276053D02*
G01*
X57061426Y-70279203D01*
X57082250Y-70284419D01*
X57102462Y-70291651D01*
X57121868Y-70300830D01*
X57140281Y-70311866D01*
X57157524Y-70324654D01*
X57173430Y-70339070D01*
X57187846Y-70354976D01*
X57200634Y-70372219D01*
X57211670Y-70390632D01*
X57220849Y-70410038D01*
X57228081Y-70430250D01*
X57233297Y-70451074D01*
X57236447Y-70472309D01*
X57237500Y-70493750D01*
X57237500Y-71006250D01*
X57236447Y-71027691D01*
X57233297Y-71048926D01*
X57228081Y-71069750D01*
X57220849Y-71089962D01*
X57211670Y-71109368D01*
X57200634Y-71127781D01*
X57187846Y-71145024D01*
X57173430Y-71160930D01*
X57157524Y-71175346D01*
X57140281Y-71188134D01*
X57121868Y-71199170D01*
X57102462Y-71208349D01*
X57082250Y-71215581D01*
X57061426Y-71220797D01*
X57040191Y-71223947D01*
X57018750Y-71225000D01*
X56581250Y-71225000D01*
X56559809Y-71223947D01*
X56538574Y-71220797D01*
X56517750Y-71215581D01*
X56497538Y-71208349D01*
X56478132Y-71199170D01*
X56459719Y-71188134D01*
X56442476Y-71175346D01*
X56426570Y-71160930D01*
X56412154Y-71145024D01*
X56399366Y-71127781D01*
X56388330Y-71109368D01*
X56379151Y-71089962D01*
X56371919Y-71069750D01*
X56366703Y-71048926D01*
X56363553Y-71027691D01*
X56362500Y-71006250D01*
X56362500Y-70493750D01*
X56363553Y-70472309D01*
X56366703Y-70451074D01*
X56371919Y-70430250D01*
X56379151Y-70410038D01*
X56388330Y-70390632D01*
X56399366Y-70372219D01*
X56412154Y-70354976D01*
X56426570Y-70339070D01*
X56442476Y-70324654D01*
X56459719Y-70311866D01*
X56478132Y-70300830D01*
X56497538Y-70291651D01*
X56517750Y-70284419D01*
X56538574Y-70279203D01*
X56559809Y-70276053D01*
X56581250Y-70275000D01*
X57018750Y-70275000D01*
X57040191Y-70276053D01*
X57040191Y-70276053D01*
G37*
D11*
X56800000Y-70750000D03*
D19*
X103825000Y-106925000D03*
X100775000Y-110275000D03*
X100775000Y-106925000D03*
X103825000Y-110275000D03*
D20*
X104580000Y-102300000D03*
X100020000Y-102300000D03*
D21*
X100000000Y-97400000D03*
X96000000Y-97400000D03*
D22*
X78450000Y-59750000D03*
X76350000Y-59750000D03*
D10*
G36*
X60277691Y-68726053D02*
G01*
X60298926Y-68729203D01*
X60319750Y-68734419D01*
X60339962Y-68741651D01*
X60359368Y-68750830D01*
X60377781Y-68761866D01*
X60395024Y-68774654D01*
X60410930Y-68789070D01*
X60425346Y-68804976D01*
X60438134Y-68822219D01*
X60449170Y-68840632D01*
X60458349Y-68860038D01*
X60465581Y-68880250D01*
X60470797Y-68901074D01*
X60473947Y-68922309D01*
X60475000Y-68943750D01*
X60475000Y-69381250D01*
X60473947Y-69402691D01*
X60470797Y-69423926D01*
X60465581Y-69444750D01*
X60458349Y-69464962D01*
X60449170Y-69484368D01*
X60438134Y-69502781D01*
X60425346Y-69520024D01*
X60410930Y-69535930D01*
X60395024Y-69550346D01*
X60377781Y-69563134D01*
X60359368Y-69574170D01*
X60339962Y-69583349D01*
X60319750Y-69590581D01*
X60298926Y-69595797D01*
X60277691Y-69598947D01*
X60256250Y-69600000D01*
X59743750Y-69600000D01*
X59722309Y-69598947D01*
X59701074Y-69595797D01*
X59680250Y-69590581D01*
X59660038Y-69583349D01*
X59640632Y-69574170D01*
X59622219Y-69563134D01*
X59604976Y-69550346D01*
X59589070Y-69535930D01*
X59574654Y-69520024D01*
X59561866Y-69502781D01*
X59550830Y-69484368D01*
X59541651Y-69464962D01*
X59534419Y-69444750D01*
X59529203Y-69423926D01*
X59526053Y-69402691D01*
X59525000Y-69381250D01*
X59525000Y-68943750D01*
X59526053Y-68922309D01*
X59529203Y-68901074D01*
X59534419Y-68880250D01*
X59541651Y-68860038D01*
X59550830Y-68840632D01*
X59561866Y-68822219D01*
X59574654Y-68804976D01*
X59589070Y-68789070D01*
X59604976Y-68774654D01*
X59622219Y-68761866D01*
X59640632Y-68750830D01*
X59660038Y-68741651D01*
X59680250Y-68734419D01*
X59701074Y-68729203D01*
X59722309Y-68726053D01*
X59743750Y-68725000D01*
X60256250Y-68725000D01*
X60277691Y-68726053D01*
X60277691Y-68726053D01*
G37*
D11*
X60000000Y-69162500D03*
D10*
G36*
X60277691Y-70301053D02*
G01*
X60298926Y-70304203D01*
X60319750Y-70309419D01*
X60339962Y-70316651D01*
X60359368Y-70325830D01*
X60377781Y-70336866D01*
X60395024Y-70349654D01*
X60410930Y-70364070D01*
X60425346Y-70379976D01*
X60438134Y-70397219D01*
X60449170Y-70415632D01*
X60458349Y-70435038D01*
X60465581Y-70455250D01*
X60470797Y-70476074D01*
X60473947Y-70497309D01*
X60475000Y-70518750D01*
X60475000Y-70956250D01*
X60473947Y-70977691D01*
X60470797Y-70998926D01*
X60465581Y-71019750D01*
X60458349Y-71039962D01*
X60449170Y-71059368D01*
X60438134Y-71077781D01*
X60425346Y-71095024D01*
X60410930Y-71110930D01*
X60395024Y-71125346D01*
X60377781Y-71138134D01*
X60359368Y-71149170D01*
X60339962Y-71158349D01*
X60319750Y-71165581D01*
X60298926Y-71170797D01*
X60277691Y-71173947D01*
X60256250Y-71175000D01*
X59743750Y-71175000D01*
X59722309Y-71173947D01*
X59701074Y-71170797D01*
X59680250Y-71165581D01*
X59660038Y-71158349D01*
X59640632Y-71149170D01*
X59622219Y-71138134D01*
X59604976Y-71125346D01*
X59589070Y-71110930D01*
X59574654Y-71095024D01*
X59561866Y-71077781D01*
X59550830Y-71059368D01*
X59541651Y-71039962D01*
X59534419Y-71019750D01*
X59529203Y-70998926D01*
X59526053Y-70977691D01*
X59525000Y-70956250D01*
X59525000Y-70518750D01*
X59526053Y-70497309D01*
X59529203Y-70476074D01*
X59534419Y-70455250D01*
X59541651Y-70435038D01*
X59550830Y-70415632D01*
X59561866Y-70397219D01*
X59574654Y-70379976D01*
X59589070Y-70364070D01*
X59604976Y-70349654D01*
X59622219Y-70336866D01*
X59640632Y-70325830D01*
X59660038Y-70316651D01*
X59680250Y-70309419D01*
X59701074Y-70304203D01*
X59722309Y-70301053D01*
X59743750Y-70300000D01*
X60256250Y-70300000D01*
X60277691Y-70301053D01*
X60277691Y-70301053D01*
G37*
D11*
X60000000Y-70737500D03*
D10*
G36*
X60252691Y-67076053D02*
G01*
X60273926Y-67079203D01*
X60294750Y-67084419D01*
X60314962Y-67091651D01*
X60334368Y-67100830D01*
X60352781Y-67111866D01*
X60370024Y-67124654D01*
X60385930Y-67139070D01*
X60400346Y-67154976D01*
X60413134Y-67172219D01*
X60424170Y-67190632D01*
X60433349Y-67210038D01*
X60440581Y-67230250D01*
X60445797Y-67251074D01*
X60448947Y-67272309D01*
X60450000Y-67293750D01*
X60450000Y-67806250D01*
X60448947Y-67827691D01*
X60445797Y-67848926D01*
X60440581Y-67869750D01*
X60433349Y-67889962D01*
X60424170Y-67909368D01*
X60413134Y-67927781D01*
X60400346Y-67945024D01*
X60385930Y-67960930D01*
X60370024Y-67975346D01*
X60352781Y-67988134D01*
X60334368Y-67999170D01*
X60314962Y-68008349D01*
X60294750Y-68015581D01*
X60273926Y-68020797D01*
X60252691Y-68023947D01*
X60231250Y-68025000D01*
X59793750Y-68025000D01*
X59772309Y-68023947D01*
X59751074Y-68020797D01*
X59730250Y-68015581D01*
X59710038Y-68008349D01*
X59690632Y-67999170D01*
X59672219Y-67988134D01*
X59654976Y-67975346D01*
X59639070Y-67960930D01*
X59624654Y-67945024D01*
X59611866Y-67927781D01*
X59600830Y-67909368D01*
X59591651Y-67889962D01*
X59584419Y-67869750D01*
X59579203Y-67848926D01*
X59576053Y-67827691D01*
X59575000Y-67806250D01*
X59575000Y-67293750D01*
X59576053Y-67272309D01*
X59579203Y-67251074D01*
X59584419Y-67230250D01*
X59591651Y-67210038D01*
X59600830Y-67190632D01*
X59611866Y-67172219D01*
X59624654Y-67154976D01*
X59639070Y-67139070D01*
X59654976Y-67124654D01*
X59672219Y-67111866D01*
X59690632Y-67100830D01*
X59710038Y-67091651D01*
X59730250Y-67084419D01*
X59751074Y-67079203D01*
X59772309Y-67076053D01*
X59793750Y-67075000D01*
X60231250Y-67075000D01*
X60252691Y-67076053D01*
X60252691Y-67076053D01*
G37*
D11*
X60012500Y-67550000D03*
D10*
G36*
X61827691Y-67076053D02*
G01*
X61848926Y-67079203D01*
X61869750Y-67084419D01*
X61889962Y-67091651D01*
X61909368Y-67100830D01*
X61927781Y-67111866D01*
X61945024Y-67124654D01*
X61960930Y-67139070D01*
X61975346Y-67154976D01*
X61988134Y-67172219D01*
X61999170Y-67190632D01*
X62008349Y-67210038D01*
X62015581Y-67230250D01*
X62020797Y-67251074D01*
X62023947Y-67272309D01*
X62025000Y-67293750D01*
X62025000Y-67806250D01*
X62023947Y-67827691D01*
X62020797Y-67848926D01*
X62015581Y-67869750D01*
X62008349Y-67889962D01*
X61999170Y-67909368D01*
X61988134Y-67927781D01*
X61975346Y-67945024D01*
X61960930Y-67960930D01*
X61945024Y-67975346D01*
X61927781Y-67988134D01*
X61909368Y-67999170D01*
X61889962Y-68008349D01*
X61869750Y-68015581D01*
X61848926Y-68020797D01*
X61827691Y-68023947D01*
X61806250Y-68025000D01*
X61368750Y-68025000D01*
X61347309Y-68023947D01*
X61326074Y-68020797D01*
X61305250Y-68015581D01*
X61285038Y-68008349D01*
X61265632Y-67999170D01*
X61247219Y-67988134D01*
X61229976Y-67975346D01*
X61214070Y-67960930D01*
X61199654Y-67945024D01*
X61186866Y-67927781D01*
X61175830Y-67909368D01*
X61166651Y-67889962D01*
X61159419Y-67869750D01*
X61154203Y-67848926D01*
X61151053Y-67827691D01*
X61150000Y-67806250D01*
X61150000Y-67293750D01*
X61151053Y-67272309D01*
X61154203Y-67251074D01*
X61159419Y-67230250D01*
X61166651Y-67210038D01*
X61175830Y-67190632D01*
X61186866Y-67172219D01*
X61199654Y-67154976D01*
X61214070Y-67139070D01*
X61229976Y-67124654D01*
X61247219Y-67111866D01*
X61265632Y-67100830D01*
X61285038Y-67091651D01*
X61305250Y-67084419D01*
X61326074Y-67079203D01*
X61347309Y-67076053D01*
X61368750Y-67075000D01*
X61806250Y-67075000D01*
X61827691Y-67076053D01*
X61827691Y-67076053D01*
G37*
D11*
X61587500Y-67550000D03*
D10*
G36*
X69977691Y-70351053D02*
G01*
X69998926Y-70354203D01*
X70019750Y-70359419D01*
X70039962Y-70366651D01*
X70059368Y-70375830D01*
X70077781Y-70386866D01*
X70095024Y-70399654D01*
X70110930Y-70414070D01*
X70125346Y-70429976D01*
X70138134Y-70447219D01*
X70149170Y-70465632D01*
X70158349Y-70485038D01*
X70165581Y-70505250D01*
X70170797Y-70526074D01*
X70173947Y-70547309D01*
X70175000Y-70568750D01*
X70175000Y-71006250D01*
X70173947Y-71027691D01*
X70170797Y-71048926D01*
X70165581Y-71069750D01*
X70158349Y-71089962D01*
X70149170Y-71109368D01*
X70138134Y-71127781D01*
X70125346Y-71145024D01*
X70110930Y-71160930D01*
X70095024Y-71175346D01*
X70077781Y-71188134D01*
X70059368Y-71199170D01*
X70039962Y-71208349D01*
X70019750Y-71215581D01*
X69998926Y-71220797D01*
X69977691Y-71223947D01*
X69956250Y-71225000D01*
X69443750Y-71225000D01*
X69422309Y-71223947D01*
X69401074Y-71220797D01*
X69380250Y-71215581D01*
X69360038Y-71208349D01*
X69340632Y-71199170D01*
X69322219Y-71188134D01*
X69304976Y-71175346D01*
X69289070Y-71160930D01*
X69274654Y-71145024D01*
X69261866Y-71127781D01*
X69250830Y-71109368D01*
X69241651Y-71089962D01*
X69234419Y-71069750D01*
X69229203Y-71048926D01*
X69226053Y-71027691D01*
X69225000Y-71006250D01*
X69225000Y-70568750D01*
X69226053Y-70547309D01*
X69229203Y-70526074D01*
X69234419Y-70505250D01*
X69241651Y-70485038D01*
X69250830Y-70465632D01*
X69261866Y-70447219D01*
X69274654Y-70429976D01*
X69289070Y-70414070D01*
X69304976Y-70399654D01*
X69322219Y-70386866D01*
X69340632Y-70375830D01*
X69360038Y-70366651D01*
X69380250Y-70359419D01*
X69401074Y-70354203D01*
X69422309Y-70351053D01*
X69443750Y-70350000D01*
X69956250Y-70350000D01*
X69977691Y-70351053D01*
X69977691Y-70351053D01*
G37*
D11*
X69700000Y-70787500D03*
D10*
G36*
X69977691Y-68776053D02*
G01*
X69998926Y-68779203D01*
X70019750Y-68784419D01*
X70039962Y-68791651D01*
X70059368Y-68800830D01*
X70077781Y-68811866D01*
X70095024Y-68824654D01*
X70110930Y-68839070D01*
X70125346Y-68854976D01*
X70138134Y-68872219D01*
X70149170Y-68890632D01*
X70158349Y-68910038D01*
X70165581Y-68930250D01*
X70170797Y-68951074D01*
X70173947Y-68972309D01*
X70175000Y-68993750D01*
X70175000Y-69431250D01*
X70173947Y-69452691D01*
X70170797Y-69473926D01*
X70165581Y-69494750D01*
X70158349Y-69514962D01*
X70149170Y-69534368D01*
X70138134Y-69552781D01*
X70125346Y-69570024D01*
X70110930Y-69585930D01*
X70095024Y-69600346D01*
X70077781Y-69613134D01*
X70059368Y-69624170D01*
X70039962Y-69633349D01*
X70019750Y-69640581D01*
X69998926Y-69645797D01*
X69977691Y-69648947D01*
X69956250Y-69650000D01*
X69443750Y-69650000D01*
X69422309Y-69648947D01*
X69401074Y-69645797D01*
X69380250Y-69640581D01*
X69360038Y-69633349D01*
X69340632Y-69624170D01*
X69322219Y-69613134D01*
X69304976Y-69600346D01*
X69289070Y-69585930D01*
X69274654Y-69570024D01*
X69261866Y-69552781D01*
X69250830Y-69534368D01*
X69241651Y-69514962D01*
X69234419Y-69494750D01*
X69229203Y-69473926D01*
X69226053Y-69452691D01*
X69225000Y-69431250D01*
X69225000Y-68993750D01*
X69226053Y-68972309D01*
X69229203Y-68951074D01*
X69234419Y-68930250D01*
X69241651Y-68910038D01*
X69250830Y-68890632D01*
X69261866Y-68872219D01*
X69274654Y-68854976D01*
X69289070Y-68839070D01*
X69304976Y-68824654D01*
X69322219Y-68811866D01*
X69340632Y-68800830D01*
X69360038Y-68791651D01*
X69380250Y-68784419D01*
X69401074Y-68779203D01*
X69422309Y-68776053D01*
X69443750Y-68775000D01*
X69956250Y-68775000D01*
X69977691Y-68776053D01*
X69977691Y-68776053D01*
G37*
D11*
X69700000Y-69212500D03*
D10*
G36*
X66727691Y-70388553D02*
G01*
X66748926Y-70391703D01*
X66769750Y-70396919D01*
X66789962Y-70404151D01*
X66809368Y-70413330D01*
X66827781Y-70424366D01*
X66845024Y-70437154D01*
X66860930Y-70451570D01*
X66875346Y-70467476D01*
X66888134Y-70484719D01*
X66899170Y-70503132D01*
X66908349Y-70522538D01*
X66915581Y-70542750D01*
X66920797Y-70563574D01*
X66923947Y-70584809D01*
X66925000Y-70606250D01*
X66925000Y-71043750D01*
X66923947Y-71065191D01*
X66920797Y-71086426D01*
X66915581Y-71107250D01*
X66908349Y-71127462D01*
X66899170Y-71146868D01*
X66888134Y-71165281D01*
X66875346Y-71182524D01*
X66860930Y-71198430D01*
X66845024Y-71212846D01*
X66827781Y-71225634D01*
X66809368Y-71236670D01*
X66789962Y-71245849D01*
X66769750Y-71253081D01*
X66748926Y-71258297D01*
X66727691Y-71261447D01*
X66706250Y-71262500D01*
X66193750Y-71262500D01*
X66172309Y-71261447D01*
X66151074Y-71258297D01*
X66130250Y-71253081D01*
X66110038Y-71245849D01*
X66090632Y-71236670D01*
X66072219Y-71225634D01*
X66054976Y-71212846D01*
X66039070Y-71198430D01*
X66024654Y-71182524D01*
X66011866Y-71165281D01*
X66000830Y-71146868D01*
X65991651Y-71127462D01*
X65984419Y-71107250D01*
X65979203Y-71086426D01*
X65976053Y-71065191D01*
X65975000Y-71043750D01*
X65975000Y-70606250D01*
X65976053Y-70584809D01*
X65979203Y-70563574D01*
X65984419Y-70542750D01*
X65991651Y-70522538D01*
X66000830Y-70503132D01*
X66011866Y-70484719D01*
X66024654Y-70467476D01*
X66039070Y-70451570D01*
X66054976Y-70437154D01*
X66072219Y-70424366D01*
X66090632Y-70413330D01*
X66110038Y-70404151D01*
X66130250Y-70396919D01*
X66151074Y-70391703D01*
X66172309Y-70388553D01*
X66193750Y-70387500D01*
X66706250Y-70387500D01*
X66727691Y-70388553D01*
X66727691Y-70388553D01*
G37*
D11*
X66450000Y-70825000D03*
D10*
G36*
X66727691Y-68813553D02*
G01*
X66748926Y-68816703D01*
X66769750Y-68821919D01*
X66789962Y-68829151D01*
X66809368Y-68838330D01*
X66827781Y-68849366D01*
X66845024Y-68862154D01*
X66860930Y-68876570D01*
X66875346Y-68892476D01*
X66888134Y-68909719D01*
X66899170Y-68928132D01*
X66908349Y-68947538D01*
X66915581Y-68967750D01*
X66920797Y-68988574D01*
X66923947Y-69009809D01*
X66925000Y-69031250D01*
X66925000Y-69468750D01*
X66923947Y-69490191D01*
X66920797Y-69511426D01*
X66915581Y-69532250D01*
X66908349Y-69552462D01*
X66899170Y-69571868D01*
X66888134Y-69590281D01*
X66875346Y-69607524D01*
X66860930Y-69623430D01*
X66845024Y-69637846D01*
X66827781Y-69650634D01*
X66809368Y-69661670D01*
X66789962Y-69670849D01*
X66769750Y-69678081D01*
X66748926Y-69683297D01*
X66727691Y-69686447D01*
X66706250Y-69687500D01*
X66193750Y-69687500D01*
X66172309Y-69686447D01*
X66151074Y-69683297D01*
X66130250Y-69678081D01*
X66110038Y-69670849D01*
X66090632Y-69661670D01*
X66072219Y-69650634D01*
X66054976Y-69637846D01*
X66039070Y-69623430D01*
X66024654Y-69607524D01*
X66011866Y-69590281D01*
X66000830Y-69571868D01*
X65991651Y-69552462D01*
X65984419Y-69532250D01*
X65979203Y-69511426D01*
X65976053Y-69490191D01*
X65975000Y-69468750D01*
X65975000Y-69031250D01*
X65976053Y-69009809D01*
X65979203Y-68988574D01*
X65984419Y-68967750D01*
X65991651Y-68947538D01*
X66000830Y-68928132D01*
X66011866Y-68909719D01*
X66024654Y-68892476D01*
X66039070Y-68876570D01*
X66054976Y-68862154D01*
X66072219Y-68849366D01*
X66090632Y-68838330D01*
X66110038Y-68829151D01*
X66130250Y-68821919D01*
X66151074Y-68816703D01*
X66172309Y-68813553D01*
X66193750Y-68812500D01*
X66706250Y-68812500D01*
X66727691Y-68813553D01*
X66727691Y-68813553D01*
G37*
D11*
X66450000Y-69250000D03*
D10*
G36*
X75149504Y-61926204D02*
G01*
X75173773Y-61929804D01*
X75197571Y-61935765D01*
X75220671Y-61944030D01*
X75242849Y-61954520D01*
X75263893Y-61967133D01*
X75283598Y-61981747D01*
X75301777Y-61998223D01*
X75318253Y-62016402D01*
X75332867Y-62036107D01*
X75345480Y-62057151D01*
X75355970Y-62079329D01*
X75364235Y-62102429D01*
X75370196Y-62126227D01*
X75373796Y-62150496D01*
X75375000Y-62175000D01*
X75375000Y-62925000D01*
X75373796Y-62949504D01*
X75370196Y-62973773D01*
X75364235Y-62997571D01*
X75355970Y-63020671D01*
X75345480Y-63042849D01*
X75332867Y-63063893D01*
X75318253Y-63083598D01*
X75301777Y-63101777D01*
X75283598Y-63118253D01*
X75263893Y-63132867D01*
X75242849Y-63145480D01*
X75220671Y-63155970D01*
X75197571Y-63164235D01*
X75173773Y-63170196D01*
X75149504Y-63173796D01*
X75125000Y-63175000D01*
X73875000Y-63175000D01*
X73850496Y-63173796D01*
X73826227Y-63170196D01*
X73802429Y-63164235D01*
X73779329Y-63155970D01*
X73757151Y-63145480D01*
X73736107Y-63132867D01*
X73716402Y-63118253D01*
X73698223Y-63101777D01*
X73681747Y-63083598D01*
X73667133Y-63063893D01*
X73654520Y-63042849D01*
X73644030Y-63020671D01*
X73635765Y-62997571D01*
X73629804Y-62973773D01*
X73626204Y-62949504D01*
X73625000Y-62925000D01*
X73625000Y-62175000D01*
X73626204Y-62150496D01*
X73629804Y-62126227D01*
X73635765Y-62102429D01*
X73644030Y-62079329D01*
X73654520Y-62057151D01*
X73667133Y-62036107D01*
X73681747Y-62016402D01*
X73698223Y-61998223D01*
X73716402Y-61981747D01*
X73736107Y-61967133D01*
X73757151Y-61954520D01*
X73779329Y-61944030D01*
X73802429Y-61935765D01*
X73826227Y-61929804D01*
X73850496Y-61926204D01*
X73875000Y-61925000D01*
X75125000Y-61925000D01*
X75149504Y-61926204D01*
X75149504Y-61926204D01*
G37*
D23*
X74500000Y-62550000D03*
D10*
G36*
X75149504Y-59126204D02*
G01*
X75173773Y-59129804D01*
X75197571Y-59135765D01*
X75220671Y-59144030D01*
X75242849Y-59154520D01*
X75263893Y-59167133D01*
X75283598Y-59181747D01*
X75301777Y-59198223D01*
X75318253Y-59216402D01*
X75332867Y-59236107D01*
X75345480Y-59257151D01*
X75355970Y-59279329D01*
X75364235Y-59302429D01*
X75370196Y-59326227D01*
X75373796Y-59350496D01*
X75375000Y-59375000D01*
X75375000Y-60125000D01*
X75373796Y-60149504D01*
X75370196Y-60173773D01*
X75364235Y-60197571D01*
X75355970Y-60220671D01*
X75345480Y-60242849D01*
X75332867Y-60263893D01*
X75318253Y-60283598D01*
X75301777Y-60301777D01*
X75283598Y-60318253D01*
X75263893Y-60332867D01*
X75242849Y-60345480D01*
X75220671Y-60355970D01*
X75197571Y-60364235D01*
X75173773Y-60370196D01*
X75149504Y-60373796D01*
X75125000Y-60375000D01*
X73875000Y-60375000D01*
X73850496Y-60373796D01*
X73826227Y-60370196D01*
X73802429Y-60364235D01*
X73779329Y-60355970D01*
X73757151Y-60345480D01*
X73736107Y-60332867D01*
X73716402Y-60318253D01*
X73698223Y-60301777D01*
X73681747Y-60283598D01*
X73667133Y-60263893D01*
X73654520Y-60242849D01*
X73644030Y-60220671D01*
X73635765Y-60197571D01*
X73629804Y-60173773D01*
X73626204Y-60149504D01*
X73625000Y-60125000D01*
X73625000Y-59375000D01*
X73626204Y-59350496D01*
X73629804Y-59326227D01*
X73635765Y-59302429D01*
X73644030Y-59279329D01*
X73654520Y-59257151D01*
X73667133Y-59236107D01*
X73681747Y-59216402D01*
X73698223Y-59198223D01*
X73716402Y-59181747D01*
X73736107Y-59167133D01*
X73757151Y-59154520D01*
X73779329Y-59144030D01*
X73802429Y-59135765D01*
X73826227Y-59129804D01*
X73850496Y-59126204D01*
X73875000Y-59125000D01*
X75125000Y-59125000D01*
X75149504Y-59126204D01*
X75149504Y-59126204D01*
G37*
D23*
X74500000Y-59750000D03*
D10*
G36*
X64177691Y-59426053D02*
G01*
X64198926Y-59429203D01*
X64219750Y-59434419D01*
X64239962Y-59441651D01*
X64259368Y-59450830D01*
X64277781Y-59461866D01*
X64295024Y-59474654D01*
X64310930Y-59489070D01*
X64325346Y-59504976D01*
X64338134Y-59522219D01*
X64349170Y-59540632D01*
X64358349Y-59560038D01*
X64365581Y-59580250D01*
X64370797Y-59601074D01*
X64373947Y-59622309D01*
X64375000Y-59643750D01*
X64375000Y-60081250D01*
X64373947Y-60102691D01*
X64370797Y-60123926D01*
X64365581Y-60144750D01*
X64358349Y-60164962D01*
X64349170Y-60184368D01*
X64338134Y-60202781D01*
X64325346Y-60220024D01*
X64310930Y-60235930D01*
X64295024Y-60250346D01*
X64277781Y-60263134D01*
X64259368Y-60274170D01*
X64239962Y-60283349D01*
X64219750Y-60290581D01*
X64198926Y-60295797D01*
X64177691Y-60298947D01*
X64156250Y-60300000D01*
X63643750Y-60300000D01*
X63622309Y-60298947D01*
X63601074Y-60295797D01*
X63580250Y-60290581D01*
X63560038Y-60283349D01*
X63540632Y-60274170D01*
X63522219Y-60263134D01*
X63504976Y-60250346D01*
X63489070Y-60235930D01*
X63474654Y-60220024D01*
X63461866Y-60202781D01*
X63450830Y-60184368D01*
X63441651Y-60164962D01*
X63434419Y-60144750D01*
X63429203Y-60123926D01*
X63426053Y-60102691D01*
X63425000Y-60081250D01*
X63425000Y-59643750D01*
X63426053Y-59622309D01*
X63429203Y-59601074D01*
X63434419Y-59580250D01*
X63441651Y-59560038D01*
X63450830Y-59540632D01*
X63461866Y-59522219D01*
X63474654Y-59504976D01*
X63489070Y-59489070D01*
X63504976Y-59474654D01*
X63522219Y-59461866D01*
X63540632Y-59450830D01*
X63560038Y-59441651D01*
X63580250Y-59434419D01*
X63601074Y-59429203D01*
X63622309Y-59426053D01*
X63643750Y-59425000D01*
X64156250Y-59425000D01*
X64177691Y-59426053D01*
X64177691Y-59426053D01*
G37*
D11*
X63900000Y-59862500D03*
D10*
G36*
X64177691Y-61001053D02*
G01*
X64198926Y-61004203D01*
X64219750Y-61009419D01*
X64239962Y-61016651D01*
X64259368Y-61025830D01*
X64277781Y-61036866D01*
X64295024Y-61049654D01*
X64310930Y-61064070D01*
X64325346Y-61079976D01*
X64338134Y-61097219D01*
X64349170Y-61115632D01*
X64358349Y-61135038D01*
X64365581Y-61155250D01*
X64370797Y-61176074D01*
X64373947Y-61197309D01*
X64375000Y-61218750D01*
X64375000Y-61656250D01*
X64373947Y-61677691D01*
X64370797Y-61698926D01*
X64365581Y-61719750D01*
X64358349Y-61739962D01*
X64349170Y-61759368D01*
X64338134Y-61777781D01*
X64325346Y-61795024D01*
X64310930Y-61810930D01*
X64295024Y-61825346D01*
X64277781Y-61838134D01*
X64259368Y-61849170D01*
X64239962Y-61858349D01*
X64219750Y-61865581D01*
X64198926Y-61870797D01*
X64177691Y-61873947D01*
X64156250Y-61875000D01*
X63643750Y-61875000D01*
X63622309Y-61873947D01*
X63601074Y-61870797D01*
X63580250Y-61865581D01*
X63560038Y-61858349D01*
X63540632Y-61849170D01*
X63522219Y-61838134D01*
X63504976Y-61825346D01*
X63489070Y-61810930D01*
X63474654Y-61795024D01*
X63461866Y-61777781D01*
X63450830Y-61759368D01*
X63441651Y-61739962D01*
X63434419Y-61719750D01*
X63429203Y-61698926D01*
X63426053Y-61677691D01*
X63425000Y-61656250D01*
X63425000Y-61218750D01*
X63426053Y-61197309D01*
X63429203Y-61176074D01*
X63434419Y-61155250D01*
X63441651Y-61135038D01*
X63450830Y-61115632D01*
X63461866Y-61097219D01*
X63474654Y-61079976D01*
X63489070Y-61064070D01*
X63504976Y-61049654D01*
X63522219Y-61036866D01*
X63540632Y-61025830D01*
X63560038Y-61016651D01*
X63580250Y-61009419D01*
X63601074Y-61004203D01*
X63622309Y-61001053D01*
X63643750Y-61000000D01*
X64156250Y-61000000D01*
X64177691Y-61001053D01*
X64177691Y-61001053D01*
G37*
D11*
X63900000Y-61437500D03*
M02*
