G04 #@! TF.GenerationSoftware,KiCad,Pcbnew,(5.1.2)-2*
G04 #@! TF.CreationDate,2019-10-04T19:12:57-04:00*
G04 #@! TF.ProjectId,High_Current_Buck,48696768-5f43-4757-9272-656e745f4275,rev?*
G04 #@! TF.SameCoordinates,Original*
G04 #@! TF.FileFunction,Paste,Top*
G04 #@! TF.FilePolarity,Positive*
%FSLAX46Y46*%
G04 Gerber Fmt 4.6, Leading zero omitted, Abs format (unit mm)*
G04 Created by KiCad (PCBNEW (5.1.2)-2) date 2019-10-04 19:12:57*
%MOMM*%
%LPD*%
G04 APERTURE LIST*
%ADD10C,0.100000*%
%ADD11C,1.350000*%
%ADD12R,0.600000X0.610000*%
%ADD13R,4.000000X3.810000*%
%ADD14R,5.000000X0.510000*%
%ADD15R,0.610000X1.270000*%
%ADD16R,7.000000X7.000000*%
%ADD17R,5.334000X2.413000*%
%ADD18R,1.250000X1.200000*%
%ADD19R,1.400000X1.270000*%
%ADD20C,1.250000*%
G04 APERTURE END LIST*
D10*
G36*
X96549505Y-113026204D02*
G01*
X96573773Y-113029804D01*
X96597572Y-113035765D01*
X96620671Y-113044030D01*
X96642850Y-113054520D01*
X96663893Y-113067132D01*
X96683599Y-113081747D01*
X96701777Y-113098223D01*
X96718253Y-113116401D01*
X96732868Y-113136107D01*
X96745480Y-113157150D01*
X96755970Y-113179329D01*
X96764235Y-113202428D01*
X96770196Y-113226227D01*
X96773796Y-113250495D01*
X96775000Y-113274999D01*
X96775000Y-116125001D01*
X96773796Y-116149505D01*
X96770196Y-116173773D01*
X96764235Y-116197572D01*
X96755970Y-116220671D01*
X96745480Y-116242850D01*
X96732868Y-116263893D01*
X96718253Y-116283599D01*
X96701777Y-116301777D01*
X96683599Y-116318253D01*
X96663893Y-116332868D01*
X96642850Y-116345480D01*
X96620671Y-116355970D01*
X96597572Y-116364235D01*
X96573773Y-116370196D01*
X96549505Y-116373796D01*
X96525001Y-116375000D01*
X95674999Y-116375000D01*
X95650495Y-116373796D01*
X95626227Y-116370196D01*
X95602428Y-116364235D01*
X95579329Y-116355970D01*
X95557150Y-116345480D01*
X95536107Y-116332868D01*
X95516401Y-116318253D01*
X95498223Y-116301777D01*
X95481747Y-116283599D01*
X95467132Y-116263893D01*
X95454520Y-116242850D01*
X95444030Y-116220671D01*
X95435765Y-116197572D01*
X95429804Y-116173773D01*
X95426204Y-116149505D01*
X95425000Y-116125001D01*
X95425000Y-113274999D01*
X95426204Y-113250495D01*
X95429804Y-113226227D01*
X95435765Y-113202428D01*
X95444030Y-113179329D01*
X95454520Y-113157150D01*
X95467132Y-113136107D01*
X95481747Y-113116401D01*
X95498223Y-113098223D01*
X95516401Y-113081747D01*
X95536107Y-113067132D01*
X95557150Y-113054520D01*
X95579329Y-113044030D01*
X95602428Y-113035765D01*
X95626227Y-113029804D01*
X95650495Y-113026204D01*
X95674999Y-113025000D01*
X96525001Y-113025000D01*
X96549505Y-113026204D01*
X96549505Y-113026204D01*
G37*
D11*
X96100000Y-114700000D03*
D10*
G36*
X90749505Y-113026204D02*
G01*
X90773773Y-113029804D01*
X90797572Y-113035765D01*
X90820671Y-113044030D01*
X90842850Y-113054520D01*
X90863893Y-113067132D01*
X90883599Y-113081747D01*
X90901777Y-113098223D01*
X90918253Y-113116401D01*
X90932868Y-113136107D01*
X90945480Y-113157150D01*
X90955970Y-113179329D01*
X90964235Y-113202428D01*
X90970196Y-113226227D01*
X90973796Y-113250495D01*
X90975000Y-113274999D01*
X90975000Y-116125001D01*
X90973796Y-116149505D01*
X90970196Y-116173773D01*
X90964235Y-116197572D01*
X90955970Y-116220671D01*
X90945480Y-116242850D01*
X90932868Y-116263893D01*
X90918253Y-116283599D01*
X90901777Y-116301777D01*
X90883599Y-116318253D01*
X90863893Y-116332868D01*
X90842850Y-116345480D01*
X90820671Y-116355970D01*
X90797572Y-116364235D01*
X90773773Y-116370196D01*
X90749505Y-116373796D01*
X90725001Y-116375000D01*
X89874999Y-116375000D01*
X89850495Y-116373796D01*
X89826227Y-116370196D01*
X89802428Y-116364235D01*
X89779329Y-116355970D01*
X89757150Y-116345480D01*
X89736107Y-116332868D01*
X89716401Y-116318253D01*
X89698223Y-116301777D01*
X89681747Y-116283599D01*
X89667132Y-116263893D01*
X89654520Y-116242850D01*
X89644030Y-116220671D01*
X89635765Y-116197572D01*
X89629804Y-116173773D01*
X89626204Y-116149505D01*
X89625000Y-116125001D01*
X89625000Y-113274999D01*
X89626204Y-113250495D01*
X89629804Y-113226227D01*
X89635765Y-113202428D01*
X89644030Y-113179329D01*
X89654520Y-113157150D01*
X89667132Y-113136107D01*
X89681747Y-113116401D01*
X89698223Y-113098223D01*
X89716401Y-113081747D01*
X89736107Y-113067132D01*
X89757150Y-113054520D01*
X89779329Y-113044030D01*
X89802428Y-113035765D01*
X89826227Y-113029804D01*
X89850495Y-113026204D01*
X89874999Y-113025000D01*
X90725001Y-113025000D01*
X90749505Y-113026204D01*
X90749505Y-113026204D01*
G37*
D11*
X90300000Y-114700000D03*
D10*
G36*
X96549505Y-117026204D02*
G01*
X96573773Y-117029804D01*
X96597572Y-117035765D01*
X96620671Y-117044030D01*
X96642850Y-117054520D01*
X96663893Y-117067132D01*
X96683599Y-117081747D01*
X96701777Y-117098223D01*
X96718253Y-117116401D01*
X96732868Y-117136107D01*
X96745480Y-117157150D01*
X96755970Y-117179329D01*
X96764235Y-117202428D01*
X96770196Y-117226227D01*
X96773796Y-117250495D01*
X96775000Y-117274999D01*
X96775000Y-120125001D01*
X96773796Y-120149505D01*
X96770196Y-120173773D01*
X96764235Y-120197572D01*
X96755970Y-120220671D01*
X96745480Y-120242850D01*
X96732868Y-120263893D01*
X96718253Y-120283599D01*
X96701777Y-120301777D01*
X96683599Y-120318253D01*
X96663893Y-120332868D01*
X96642850Y-120345480D01*
X96620671Y-120355970D01*
X96597572Y-120364235D01*
X96573773Y-120370196D01*
X96549505Y-120373796D01*
X96525001Y-120375000D01*
X95674999Y-120375000D01*
X95650495Y-120373796D01*
X95626227Y-120370196D01*
X95602428Y-120364235D01*
X95579329Y-120355970D01*
X95557150Y-120345480D01*
X95536107Y-120332868D01*
X95516401Y-120318253D01*
X95498223Y-120301777D01*
X95481747Y-120283599D01*
X95467132Y-120263893D01*
X95454520Y-120242850D01*
X95444030Y-120220671D01*
X95435765Y-120197572D01*
X95429804Y-120173773D01*
X95426204Y-120149505D01*
X95425000Y-120125001D01*
X95425000Y-117274999D01*
X95426204Y-117250495D01*
X95429804Y-117226227D01*
X95435765Y-117202428D01*
X95444030Y-117179329D01*
X95454520Y-117157150D01*
X95467132Y-117136107D01*
X95481747Y-117116401D01*
X95498223Y-117098223D01*
X95516401Y-117081747D01*
X95536107Y-117067132D01*
X95557150Y-117054520D01*
X95579329Y-117044030D01*
X95602428Y-117035765D01*
X95626227Y-117029804D01*
X95650495Y-117026204D01*
X95674999Y-117025000D01*
X96525001Y-117025000D01*
X96549505Y-117026204D01*
X96549505Y-117026204D01*
G37*
D11*
X96100000Y-118700000D03*
D10*
G36*
X90749505Y-117026204D02*
G01*
X90773773Y-117029804D01*
X90797572Y-117035765D01*
X90820671Y-117044030D01*
X90842850Y-117054520D01*
X90863893Y-117067132D01*
X90883599Y-117081747D01*
X90901777Y-117098223D01*
X90918253Y-117116401D01*
X90932868Y-117136107D01*
X90945480Y-117157150D01*
X90955970Y-117179329D01*
X90964235Y-117202428D01*
X90970196Y-117226227D01*
X90973796Y-117250495D01*
X90975000Y-117274999D01*
X90975000Y-120125001D01*
X90973796Y-120149505D01*
X90970196Y-120173773D01*
X90964235Y-120197572D01*
X90955970Y-120220671D01*
X90945480Y-120242850D01*
X90932868Y-120263893D01*
X90918253Y-120283599D01*
X90901777Y-120301777D01*
X90883599Y-120318253D01*
X90863893Y-120332868D01*
X90842850Y-120345480D01*
X90820671Y-120355970D01*
X90797572Y-120364235D01*
X90773773Y-120370196D01*
X90749505Y-120373796D01*
X90725001Y-120375000D01*
X89874999Y-120375000D01*
X89850495Y-120373796D01*
X89826227Y-120370196D01*
X89802428Y-120364235D01*
X89779329Y-120355970D01*
X89757150Y-120345480D01*
X89736107Y-120332868D01*
X89716401Y-120318253D01*
X89698223Y-120301777D01*
X89681747Y-120283599D01*
X89667132Y-120263893D01*
X89654520Y-120242850D01*
X89644030Y-120220671D01*
X89635765Y-120197572D01*
X89629804Y-120173773D01*
X89626204Y-120149505D01*
X89625000Y-120125001D01*
X89625000Y-117274999D01*
X89626204Y-117250495D01*
X89629804Y-117226227D01*
X89635765Y-117202428D01*
X89644030Y-117179329D01*
X89654520Y-117157150D01*
X89667132Y-117136107D01*
X89681747Y-117116401D01*
X89698223Y-117098223D01*
X89716401Y-117081747D01*
X89736107Y-117067132D01*
X89757150Y-117054520D01*
X89779329Y-117044030D01*
X89802428Y-117035765D01*
X89826227Y-117029804D01*
X89850495Y-117026204D01*
X89874999Y-117025000D01*
X90725001Y-117025000D01*
X90749505Y-117026204D01*
X90749505Y-117026204D01*
G37*
D11*
X90300000Y-118700000D03*
D10*
G36*
X72549505Y-58226204D02*
G01*
X72573773Y-58229804D01*
X72597572Y-58235765D01*
X72620671Y-58244030D01*
X72642850Y-58254520D01*
X72663893Y-58267132D01*
X72683599Y-58281747D01*
X72701777Y-58298223D01*
X72718253Y-58316401D01*
X72732868Y-58336107D01*
X72745480Y-58357150D01*
X72755970Y-58379329D01*
X72764235Y-58402428D01*
X72770196Y-58426227D01*
X72773796Y-58450495D01*
X72775000Y-58474999D01*
X72775000Y-59325001D01*
X72773796Y-59349505D01*
X72770196Y-59373773D01*
X72764235Y-59397572D01*
X72755970Y-59420671D01*
X72745480Y-59442850D01*
X72732868Y-59463893D01*
X72718253Y-59483599D01*
X72701777Y-59501777D01*
X72683599Y-59518253D01*
X72663893Y-59532868D01*
X72642850Y-59545480D01*
X72620671Y-59555970D01*
X72597572Y-59564235D01*
X72573773Y-59570196D01*
X72549505Y-59573796D01*
X72525001Y-59575000D01*
X69674999Y-59575000D01*
X69650495Y-59573796D01*
X69626227Y-59570196D01*
X69602428Y-59564235D01*
X69579329Y-59555970D01*
X69557150Y-59545480D01*
X69536107Y-59532868D01*
X69516401Y-59518253D01*
X69498223Y-59501777D01*
X69481747Y-59483599D01*
X69467132Y-59463893D01*
X69454520Y-59442850D01*
X69444030Y-59420671D01*
X69435765Y-59397572D01*
X69429804Y-59373773D01*
X69426204Y-59349505D01*
X69425000Y-59325001D01*
X69425000Y-58474999D01*
X69426204Y-58450495D01*
X69429804Y-58426227D01*
X69435765Y-58402428D01*
X69444030Y-58379329D01*
X69454520Y-58357150D01*
X69467132Y-58336107D01*
X69481747Y-58316401D01*
X69498223Y-58298223D01*
X69516401Y-58281747D01*
X69536107Y-58267132D01*
X69557150Y-58254520D01*
X69579329Y-58244030D01*
X69602428Y-58235765D01*
X69626227Y-58229804D01*
X69650495Y-58226204D01*
X69674999Y-58225000D01*
X72525001Y-58225000D01*
X72549505Y-58226204D01*
X72549505Y-58226204D01*
G37*
D11*
X71100000Y-58900000D03*
D10*
G36*
X72549505Y-52426204D02*
G01*
X72573773Y-52429804D01*
X72597572Y-52435765D01*
X72620671Y-52444030D01*
X72642850Y-52454520D01*
X72663893Y-52467132D01*
X72683599Y-52481747D01*
X72701777Y-52498223D01*
X72718253Y-52516401D01*
X72732868Y-52536107D01*
X72745480Y-52557150D01*
X72755970Y-52579329D01*
X72764235Y-52602428D01*
X72770196Y-52626227D01*
X72773796Y-52650495D01*
X72775000Y-52674999D01*
X72775000Y-53525001D01*
X72773796Y-53549505D01*
X72770196Y-53573773D01*
X72764235Y-53597572D01*
X72755970Y-53620671D01*
X72745480Y-53642850D01*
X72732868Y-53663893D01*
X72718253Y-53683599D01*
X72701777Y-53701777D01*
X72683599Y-53718253D01*
X72663893Y-53732868D01*
X72642850Y-53745480D01*
X72620671Y-53755970D01*
X72597572Y-53764235D01*
X72573773Y-53770196D01*
X72549505Y-53773796D01*
X72525001Y-53775000D01*
X69674999Y-53775000D01*
X69650495Y-53773796D01*
X69626227Y-53770196D01*
X69602428Y-53764235D01*
X69579329Y-53755970D01*
X69557150Y-53745480D01*
X69536107Y-53732868D01*
X69516401Y-53718253D01*
X69498223Y-53701777D01*
X69481747Y-53683599D01*
X69467132Y-53663893D01*
X69454520Y-53642850D01*
X69444030Y-53620671D01*
X69435765Y-53597572D01*
X69429804Y-53573773D01*
X69426204Y-53549505D01*
X69425000Y-53525001D01*
X69425000Y-52674999D01*
X69426204Y-52650495D01*
X69429804Y-52626227D01*
X69435765Y-52602428D01*
X69444030Y-52579329D01*
X69454520Y-52557150D01*
X69467132Y-52536107D01*
X69481747Y-52516401D01*
X69498223Y-52498223D01*
X69516401Y-52481747D01*
X69536107Y-52467132D01*
X69557150Y-52454520D01*
X69579329Y-52444030D01*
X69602428Y-52435765D01*
X69626227Y-52429804D01*
X69650495Y-52426204D01*
X69674999Y-52425000D01*
X72525001Y-52425000D01*
X72549505Y-52426204D01*
X72549505Y-52426204D01*
G37*
D11*
X71100000Y-53100000D03*
D10*
G36*
X66849505Y-58226204D02*
G01*
X66873773Y-58229804D01*
X66897572Y-58235765D01*
X66920671Y-58244030D01*
X66942850Y-58254520D01*
X66963893Y-58267132D01*
X66983599Y-58281747D01*
X67001777Y-58298223D01*
X67018253Y-58316401D01*
X67032868Y-58336107D01*
X67045480Y-58357150D01*
X67055970Y-58379329D01*
X67064235Y-58402428D01*
X67070196Y-58426227D01*
X67073796Y-58450495D01*
X67075000Y-58474999D01*
X67075000Y-59325001D01*
X67073796Y-59349505D01*
X67070196Y-59373773D01*
X67064235Y-59397572D01*
X67055970Y-59420671D01*
X67045480Y-59442850D01*
X67032868Y-59463893D01*
X67018253Y-59483599D01*
X67001777Y-59501777D01*
X66983599Y-59518253D01*
X66963893Y-59532868D01*
X66942850Y-59545480D01*
X66920671Y-59555970D01*
X66897572Y-59564235D01*
X66873773Y-59570196D01*
X66849505Y-59573796D01*
X66825001Y-59575000D01*
X63974999Y-59575000D01*
X63950495Y-59573796D01*
X63926227Y-59570196D01*
X63902428Y-59564235D01*
X63879329Y-59555970D01*
X63857150Y-59545480D01*
X63836107Y-59532868D01*
X63816401Y-59518253D01*
X63798223Y-59501777D01*
X63781747Y-59483599D01*
X63767132Y-59463893D01*
X63754520Y-59442850D01*
X63744030Y-59420671D01*
X63735765Y-59397572D01*
X63729804Y-59373773D01*
X63726204Y-59349505D01*
X63725000Y-59325001D01*
X63725000Y-58474999D01*
X63726204Y-58450495D01*
X63729804Y-58426227D01*
X63735765Y-58402428D01*
X63744030Y-58379329D01*
X63754520Y-58357150D01*
X63767132Y-58336107D01*
X63781747Y-58316401D01*
X63798223Y-58298223D01*
X63816401Y-58281747D01*
X63836107Y-58267132D01*
X63857150Y-58254520D01*
X63879329Y-58244030D01*
X63902428Y-58235765D01*
X63926227Y-58229804D01*
X63950495Y-58226204D01*
X63974999Y-58225000D01*
X66825001Y-58225000D01*
X66849505Y-58226204D01*
X66849505Y-58226204D01*
G37*
D11*
X65400000Y-58900000D03*
D10*
G36*
X66849505Y-52426204D02*
G01*
X66873773Y-52429804D01*
X66897572Y-52435765D01*
X66920671Y-52444030D01*
X66942850Y-52454520D01*
X66963893Y-52467132D01*
X66983599Y-52481747D01*
X67001777Y-52498223D01*
X67018253Y-52516401D01*
X67032868Y-52536107D01*
X67045480Y-52557150D01*
X67055970Y-52579329D01*
X67064235Y-52602428D01*
X67070196Y-52626227D01*
X67073796Y-52650495D01*
X67075000Y-52674999D01*
X67075000Y-53525001D01*
X67073796Y-53549505D01*
X67070196Y-53573773D01*
X67064235Y-53597572D01*
X67055970Y-53620671D01*
X67045480Y-53642850D01*
X67032868Y-53663893D01*
X67018253Y-53683599D01*
X67001777Y-53701777D01*
X66983599Y-53718253D01*
X66963893Y-53732868D01*
X66942850Y-53745480D01*
X66920671Y-53755970D01*
X66897572Y-53764235D01*
X66873773Y-53770196D01*
X66849505Y-53773796D01*
X66825001Y-53775000D01*
X63974999Y-53775000D01*
X63950495Y-53773796D01*
X63926227Y-53770196D01*
X63902428Y-53764235D01*
X63879329Y-53755970D01*
X63857150Y-53745480D01*
X63836107Y-53732868D01*
X63816401Y-53718253D01*
X63798223Y-53701777D01*
X63781747Y-53683599D01*
X63767132Y-53663893D01*
X63754520Y-53642850D01*
X63744030Y-53620671D01*
X63735765Y-53597572D01*
X63729804Y-53573773D01*
X63726204Y-53549505D01*
X63725000Y-53525001D01*
X63725000Y-52674999D01*
X63726204Y-52650495D01*
X63729804Y-52626227D01*
X63735765Y-52602428D01*
X63744030Y-52579329D01*
X63754520Y-52557150D01*
X63767132Y-52536107D01*
X63781747Y-52516401D01*
X63798223Y-52498223D01*
X63816401Y-52481747D01*
X63836107Y-52467132D01*
X63857150Y-52454520D01*
X63879329Y-52444030D01*
X63902428Y-52435765D01*
X63926227Y-52429804D01*
X63950495Y-52426204D01*
X63974999Y-52425000D01*
X66825001Y-52425000D01*
X66849505Y-52426204D01*
X66849505Y-52426204D01*
G37*
D11*
X65400000Y-53100000D03*
D12*
X57355000Y-51615000D03*
X61855000Y-51515000D03*
D13*
X59605000Y-52205000D03*
D14*
X59605000Y-54365000D03*
D15*
X57700000Y-48800000D03*
X58970000Y-48800000D03*
X60240000Y-48800000D03*
X61510000Y-48800000D03*
D16*
X86500000Y-62400000D03*
X86500000Y-45900000D03*
D17*
X56000000Y-84700000D03*
X56000000Y-91940000D03*
D18*
X69400000Y-45440000D03*
X72800000Y-45440000D03*
X71100000Y-45440000D03*
X69400000Y-47100000D03*
X71100000Y-47100000D03*
X72800000Y-47100000D03*
X69400000Y-48790000D03*
X71100000Y-48790000D03*
X72800000Y-48790000D03*
D19*
X70060000Y-50905000D03*
X72140000Y-50905000D03*
D18*
X63700000Y-45440000D03*
X67100000Y-45440000D03*
X65400000Y-45440000D03*
X63700000Y-47100000D03*
X65400000Y-47100000D03*
X67100000Y-47100000D03*
X63700000Y-48790000D03*
X65400000Y-48790000D03*
X67100000Y-48790000D03*
D19*
X64360000Y-50905000D03*
X66440000Y-50905000D03*
D10*
G36*
X93399504Y-67126204D02*
G01*
X93423773Y-67129804D01*
X93447571Y-67135765D01*
X93470671Y-67144030D01*
X93492849Y-67154520D01*
X93513893Y-67167133D01*
X93533598Y-67181747D01*
X93551777Y-67198223D01*
X93568253Y-67216402D01*
X93582867Y-67236107D01*
X93595480Y-67257151D01*
X93605970Y-67279329D01*
X93614235Y-67302429D01*
X93620196Y-67326227D01*
X93623796Y-67350496D01*
X93625000Y-67375000D01*
X93625000Y-68625000D01*
X93623796Y-68649504D01*
X93620196Y-68673773D01*
X93614235Y-68697571D01*
X93605970Y-68720671D01*
X93595480Y-68742849D01*
X93582867Y-68763893D01*
X93568253Y-68783598D01*
X93551777Y-68801777D01*
X93533598Y-68818253D01*
X93513893Y-68832867D01*
X93492849Y-68845480D01*
X93470671Y-68855970D01*
X93447571Y-68864235D01*
X93423773Y-68870196D01*
X93399504Y-68873796D01*
X93375000Y-68875000D01*
X92625000Y-68875000D01*
X92600496Y-68873796D01*
X92576227Y-68870196D01*
X92552429Y-68864235D01*
X92529329Y-68855970D01*
X92507151Y-68845480D01*
X92486107Y-68832867D01*
X92466402Y-68818253D01*
X92448223Y-68801777D01*
X92431747Y-68783598D01*
X92417133Y-68763893D01*
X92404520Y-68742849D01*
X92394030Y-68720671D01*
X92385765Y-68697571D01*
X92379804Y-68673773D01*
X92376204Y-68649504D01*
X92375000Y-68625000D01*
X92375000Y-67375000D01*
X92376204Y-67350496D01*
X92379804Y-67326227D01*
X92385765Y-67302429D01*
X92394030Y-67279329D01*
X92404520Y-67257151D01*
X92417133Y-67236107D01*
X92431747Y-67216402D01*
X92448223Y-67198223D01*
X92466402Y-67181747D01*
X92486107Y-67167133D01*
X92507151Y-67154520D01*
X92529329Y-67144030D01*
X92552429Y-67135765D01*
X92576227Y-67129804D01*
X92600496Y-67126204D01*
X92625000Y-67125000D01*
X93375000Y-67125000D01*
X93399504Y-67126204D01*
X93399504Y-67126204D01*
G37*
D20*
X93000000Y-68000000D03*
D10*
G36*
X90599504Y-67126204D02*
G01*
X90623773Y-67129804D01*
X90647571Y-67135765D01*
X90670671Y-67144030D01*
X90692849Y-67154520D01*
X90713893Y-67167133D01*
X90733598Y-67181747D01*
X90751777Y-67198223D01*
X90768253Y-67216402D01*
X90782867Y-67236107D01*
X90795480Y-67257151D01*
X90805970Y-67279329D01*
X90814235Y-67302429D01*
X90820196Y-67326227D01*
X90823796Y-67350496D01*
X90825000Y-67375000D01*
X90825000Y-68625000D01*
X90823796Y-68649504D01*
X90820196Y-68673773D01*
X90814235Y-68697571D01*
X90805970Y-68720671D01*
X90795480Y-68742849D01*
X90782867Y-68763893D01*
X90768253Y-68783598D01*
X90751777Y-68801777D01*
X90733598Y-68818253D01*
X90713893Y-68832867D01*
X90692849Y-68845480D01*
X90670671Y-68855970D01*
X90647571Y-68864235D01*
X90623773Y-68870196D01*
X90599504Y-68873796D01*
X90575000Y-68875000D01*
X89825000Y-68875000D01*
X89800496Y-68873796D01*
X89776227Y-68870196D01*
X89752429Y-68864235D01*
X89729329Y-68855970D01*
X89707151Y-68845480D01*
X89686107Y-68832867D01*
X89666402Y-68818253D01*
X89648223Y-68801777D01*
X89631747Y-68783598D01*
X89617133Y-68763893D01*
X89604520Y-68742849D01*
X89594030Y-68720671D01*
X89585765Y-68697571D01*
X89579804Y-68673773D01*
X89576204Y-68649504D01*
X89575000Y-68625000D01*
X89575000Y-67375000D01*
X89576204Y-67350496D01*
X89579804Y-67326227D01*
X89585765Y-67302429D01*
X89594030Y-67279329D01*
X89604520Y-67257151D01*
X89617133Y-67236107D01*
X89631747Y-67216402D01*
X89648223Y-67198223D01*
X89666402Y-67181747D01*
X89686107Y-67167133D01*
X89707151Y-67154520D01*
X89729329Y-67144030D01*
X89752429Y-67135765D01*
X89776227Y-67129804D01*
X89800496Y-67126204D01*
X89825000Y-67125000D01*
X90575000Y-67125000D01*
X90599504Y-67126204D01*
X90599504Y-67126204D01*
G37*
D20*
X90200000Y-68000000D03*
D10*
G36*
X76199504Y-67126204D02*
G01*
X76223773Y-67129804D01*
X76247571Y-67135765D01*
X76270671Y-67144030D01*
X76292849Y-67154520D01*
X76313893Y-67167133D01*
X76333598Y-67181747D01*
X76351777Y-67198223D01*
X76368253Y-67216402D01*
X76382867Y-67236107D01*
X76395480Y-67257151D01*
X76405970Y-67279329D01*
X76414235Y-67302429D01*
X76420196Y-67326227D01*
X76423796Y-67350496D01*
X76425000Y-67375000D01*
X76425000Y-68625000D01*
X76423796Y-68649504D01*
X76420196Y-68673773D01*
X76414235Y-68697571D01*
X76405970Y-68720671D01*
X76395480Y-68742849D01*
X76382867Y-68763893D01*
X76368253Y-68783598D01*
X76351777Y-68801777D01*
X76333598Y-68818253D01*
X76313893Y-68832867D01*
X76292849Y-68845480D01*
X76270671Y-68855970D01*
X76247571Y-68864235D01*
X76223773Y-68870196D01*
X76199504Y-68873796D01*
X76175000Y-68875000D01*
X75425000Y-68875000D01*
X75400496Y-68873796D01*
X75376227Y-68870196D01*
X75352429Y-68864235D01*
X75329329Y-68855970D01*
X75307151Y-68845480D01*
X75286107Y-68832867D01*
X75266402Y-68818253D01*
X75248223Y-68801777D01*
X75231747Y-68783598D01*
X75217133Y-68763893D01*
X75204520Y-68742849D01*
X75194030Y-68720671D01*
X75185765Y-68697571D01*
X75179804Y-68673773D01*
X75176204Y-68649504D01*
X75175000Y-68625000D01*
X75175000Y-67375000D01*
X75176204Y-67350496D01*
X75179804Y-67326227D01*
X75185765Y-67302429D01*
X75194030Y-67279329D01*
X75204520Y-67257151D01*
X75217133Y-67236107D01*
X75231747Y-67216402D01*
X75248223Y-67198223D01*
X75266402Y-67181747D01*
X75286107Y-67167133D01*
X75307151Y-67154520D01*
X75329329Y-67144030D01*
X75352429Y-67135765D01*
X75376227Y-67129804D01*
X75400496Y-67126204D01*
X75425000Y-67125000D01*
X76175000Y-67125000D01*
X76199504Y-67126204D01*
X76199504Y-67126204D01*
G37*
D20*
X75800000Y-68000000D03*
D10*
G36*
X78999504Y-67126204D02*
G01*
X79023773Y-67129804D01*
X79047571Y-67135765D01*
X79070671Y-67144030D01*
X79092849Y-67154520D01*
X79113893Y-67167133D01*
X79133598Y-67181747D01*
X79151777Y-67198223D01*
X79168253Y-67216402D01*
X79182867Y-67236107D01*
X79195480Y-67257151D01*
X79205970Y-67279329D01*
X79214235Y-67302429D01*
X79220196Y-67326227D01*
X79223796Y-67350496D01*
X79225000Y-67375000D01*
X79225000Y-68625000D01*
X79223796Y-68649504D01*
X79220196Y-68673773D01*
X79214235Y-68697571D01*
X79205970Y-68720671D01*
X79195480Y-68742849D01*
X79182867Y-68763893D01*
X79168253Y-68783598D01*
X79151777Y-68801777D01*
X79133598Y-68818253D01*
X79113893Y-68832867D01*
X79092849Y-68845480D01*
X79070671Y-68855970D01*
X79047571Y-68864235D01*
X79023773Y-68870196D01*
X78999504Y-68873796D01*
X78975000Y-68875000D01*
X78225000Y-68875000D01*
X78200496Y-68873796D01*
X78176227Y-68870196D01*
X78152429Y-68864235D01*
X78129329Y-68855970D01*
X78107151Y-68845480D01*
X78086107Y-68832867D01*
X78066402Y-68818253D01*
X78048223Y-68801777D01*
X78031747Y-68783598D01*
X78017133Y-68763893D01*
X78004520Y-68742849D01*
X77994030Y-68720671D01*
X77985765Y-68697571D01*
X77979804Y-68673773D01*
X77976204Y-68649504D01*
X77975000Y-68625000D01*
X77975000Y-67375000D01*
X77976204Y-67350496D01*
X77979804Y-67326227D01*
X77985765Y-67302429D01*
X77994030Y-67279329D01*
X78004520Y-67257151D01*
X78017133Y-67236107D01*
X78031747Y-67216402D01*
X78048223Y-67198223D01*
X78066402Y-67181747D01*
X78086107Y-67167133D01*
X78107151Y-67154520D01*
X78129329Y-67144030D01*
X78152429Y-67135765D01*
X78176227Y-67129804D01*
X78200496Y-67126204D01*
X78225000Y-67125000D01*
X78975000Y-67125000D01*
X78999504Y-67126204D01*
X78999504Y-67126204D01*
G37*
D20*
X78600000Y-68000000D03*
D10*
G36*
X64799504Y-61326204D02*
G01*
X64823773Y-61329804D01*
X64847571Y-61335765D01*
X64870671Y-61344030D01*
X64892849Y-61354520D01*
X64913893Y-61367133D01*
X64933598Y-61381747D01*
X64951777Y-61398223D01*
X64968253Y-61416402D01*
X64982867Y-61436107D01*
X64995480Y-61457151D01*
X65005970Y-61479329D01*
X65014235Y-61502429D01*
X65020196Y-61526227D01*
X65023796Y-61550496D01*
X65025000Y-61575000D01*
X65025000Y-62825000D01*
X65023796Y-62849504D01*
X65020196Y-62873773D01*
X65014235Y-62897571D01*
X65005970Y-62920671D01*
X64995480Y-62942849D01*
X64982867Y-62963893D01*
X64968253Y-62983598D01*
X64951777Y-63001777D01*
X64933598Y-63018253D01*
X64913893Y-63032867D01*
X64892849Y-63045480D01*
X64870671Y-63055970D01*
X64847571Y-63064235D01*
X64823773Y-63070196D01*
X64799504Y-63073796D01*
X64775000Y-63075000D01*
X64025000Y-63075000D01*
X64000496Y-63073796D01*
X63976227Y-63070196D01*
X63952429Y-63064235D01*
X63929329Y-63055970D01*
X63907151Y-63045480D01*
X63886107Y-63032867D01*
X63866402Y-63018253D01*
X63848223Y-63001777D01*
X63831747Y-62983598D01*
X63817133Y-62963893D01*
X63804520Y-62942849D01*
X63794030Y-62920671D01*
X63785765Y-62897571D01*
X63779804Y-62873773D01*
X63776204Y-62849504D01*
X63775000Y-62825000D01*
X63775000Y-61575000D01*
X63776204Y-61550496D01*
X63779804Y-61526227D01*
X63785765Y-61502429D01*
X63794030Y-61479329D01*
X63804520Y-61457151D01*
X63817133Y-61436107D01*
X63831747Y-61416402D01*
X63848223Y-61398223D01*
X63866402Y-61381747D01*
X63886107Y-61367133D01*
X63907151Y-61354520D01*
X63929329Y-61344030D01*
X63952429Y-61335765D01*
X63976227Y-61329804D01*
X64000496Y-61326204D01*
X64025000Y-61325000D01*
X64775000Y-61325000D01*
X64799504Y-61326204D01*
X64799504Y-61326204D01*
G37*
D20*
X64400000Y-62200000D03*
D10*
G36*
X61999504Y-61326204D02*
G01*
X62023773Y-61329804D01*
X62047571Y-61335765D01*
X62070671Y-61344030D01*
X62092849Y-61354520D01*
X62113893Y-61367133D01*
X62133598Y-61381747D01*
X62151777Y-61398223D01*
X62168253Y-61416402D01*
X62182867Y-61436107D01*
X62195480Y-61457151D01*
X62205970Y-61479329D01*
X62214235Y-61502429D01*
X62220196Y-61526227D01*
X62223796Y-61550496D01*
X62225000Y-61575000D01*
X62225000Y-62825000D01*
X62223796Y-62849504D01*
X62220196Y-62873773D01*
X62214235Y-62897571D01*
X62205970Y-62920671D01*
X62195480Y-62942849D01*
X62182867Y-62963893D01*
X62168253Y-62983598D01*
X62151777Y-63001777D01*
X62133598Y-63018253D01*
X62113893Y-63032867D01*
X62092849Y-63045480D01*
X62070671Y-63055970D01*
X62047571Y-63064235D01*
X62023773Y-63070196D01*
X61999504Y-63073796D01*
X61975000Y-63075000D01*
X61225000Y-63075000D01*
X61200496Y-63073796D01*
X61176227Y-63070196D01*
X61152429Y-63064235D01*
X61129329Y-63055970D01*
X61107151Y-63045480D01*
X61086107Y-63032867D01*
X61066402Y-63018253D01*
X61048223Y-63001777D01*
X61031747Y-62983598D01*
X61017133Y-62963893D01*
X61004520Y-62942849D01*
X60994030Y-62920671D01*
X60985765Y-62897571D01*
X60979804Y-62873773D01*
X60976204Y-62849504D01*
X60975000Y-62825000D01*
X60975000Y-61575000D01*
X60976204Y-61550496D01*
X60979804Y-61526227D01*
X60985765Y-61502429D01*
X60994030Y-61479329D01*
X61004520Y-61457151D01*
X61017133Y-61436107D01*
X61031747Y-61416402D01*
X61048223Y-61398223D01*
X61066402Y-61381747D01*
X61086107Y-61367133D01*
X61107151Y-61354520D01*
X61129329Y-61344030D01*
X61152429Y-61335765D01*
X61176227Y-61329804D01*
X61200496Y-61326204D01*
X61225000Y-61325000D01*
X61975000Y-61325000D01*
X61999504Y-61326204D01*
X61999504Y-61326204D01*
G37*
D20*
X61600000Y-62200000D03*
D10*
G36*
X64799504Y-63726204D02*
G01*
X64823773Y-63729804D01*
X64847571Y-63735765D01*
X64870671Y-63744030D01*
X64892849Y-63754520D01*
X64913893Y-63767133D01*
X64933598Y-63781747D01*
X64951777Y-63798223D01*
X64968253Y-63816402D01*
X64982867Y-63836107D01*
X64995480Y-63857151D01*
X65005970Y-63879329D01*
X65014235Y-63902429D01*
X65020196Y-63926227D01*
X65023796Y-63950496D01*
X65025000Y-63975000D01*
X65025000Y-65225000D01*
X65023796Y-65249504D01*
X65020196Y-65273773D01*
X65014235Y-65297571D01*
X65005970Y-65320671D01*
X64995480Y-65342849D01*
X64982867Y-65363893D01*
X64968253Y-65383598D01*
X64951777Y-65401777D01*
X64933598Y-65418253D01*
X64913893Y-65432867D01*
X64892849Y-65445480D01*
X64870671Y-65455970D01*
X64847571Y-65464235D01*
X64823773Y-65470196D01*
X64799504Y-65473796D01*
X64775000Y-65475000D01*
X64025000Y-65475000D01*
X64000496Y-65473796D01*
X63976227Y-65470196D01*
X63952429Y-65464235D01*
X63929329Y-65455970D01*
X63907151Y-65445480D01*
X63886107Y-65432867D01*
X63866402Y-65418253D01*
X63848223Y-65401777D01*
X63831747Y-65383598D01*
X63817133Y-65363893D01*
X63804520Y-65342849D01*
X63794030Y-65320671D01*
X63785765Y-65297571D01*
X63779804Y-65273773D01*
X63776204Y-65249504D01*
X63775000Y-65225000D01*
X63775000Y-63975000D01*
X63776204Y-63950496D01*
X63779804Y-63926227D01*
X63785765Y-63902429D01*
X63794030Y-63879329D01*
X63804520Y-63857151D01*
X63817133Y-63836107D01*
X63831747Y-63816402D01*
X63848223Y-63798223D01*
X63866402Y-63781747D01*
X63886107Y-63767133D01*
X63907151Y-63754520D01*
X63929329Y-63744030D01*
X63952429Y-63735765D01*
X63976227Y-63729804D01*
X64000496Y-63726204D01*
X64025000Y-63725000D01*
X64775000Y-63725000D01*
X64799504Y-63726204D01*
X64799504Y-63726204D01*
G37*
D20*
X64400000Y-64600000D03*
D10*
G36*
X61999504Y-63726204D02*
G01*
X62023773Y-63729804D01*
X62047571Y-63735765D01*
X62070671Y-63744030D01*
X62092849Y-63754520D01*
X62113893Y-63767133D01*
X62133598Y-63781747D01*
X62151777Y-63798223D01*
X62168253Y-63816402D01*
X62182867Y-63836107D01*
X62195480Y-63857151D01*
X62205970Y-63879329D01*
X62214235Y-63902429D01*
X62220196Y-63926227D01*
X62223796Y-63950496D01*
X62225000Y-63975000D01*
X62225000Y-65225000D01*
X62223796Y-65249504D01*
X62220196Y-65273773D01*
X62214235Y-65297571D01*
X62205970Y-65320671D01*
X62195480Y-65342849D01*
X62182867Y-65363893D01*
X62168253Y-65383598D01*
X62151777Y-65401777D01*
X62133598Y-65418253D01*
X62113893Y-65432867D01*
X62092849Y-65445480D01*
X62070671Y-65455970D01*
X62047571Y-65464235D01*
X62023773Y-65470196D01*
X61999504Y-65473796D01*
X61975000Y-65475000D01*
X61225000Y-65475000D01*
X61200496Y-65473796D01*
X61176227Y-65470196D01*
X61152429Y-65464235D01*
X61129329Y-65455970D01*
X61107151Y-65445480D01*
X61086107Y-65432867D01*
X61066402Y-65418253D01*
X61048223Y-65401777D01*
X61031747Y-65383598D01*
X61017133Y-65363893D01*
X61004520Y-65342849D01*
X60994030Y-65320671D01*
X60985765Y-65297571D01*
X60979804Y-65273773D01*
X60976204Y-65249504D01*
X60975000Y-65225000D01*
X60975000Y-63975000D01*
X60976204Y-63950496D01*
X60979804Y-63926227D01*
X60985765Y-63902429D01*
X60994030Y-63879329D01*
X61004520Y-63857151D01*
X61017133Y-63836107D01*
X61031747Y-63816402D01*
X61048223Y-63798223D01*
X61066402Y-63781747D01*
X61086107Y-63767133D01*
X61107151Y-63754520D01*
X61129329Y-63744030D01*
X61152429Y-63735765D01*
X61176227Y-63729804D01*
X61200496Y-63726204D01*
X61225000Y-63725000D01*
X61975000Y-63725000D01*
X61999504Y-63726204D01*
X61999504Y-63726204D01*
G37*
D20*
X61600000Y-64600000D03*
D10*
G36*
X64799504Y-66126204D02*
G01*
X64823773Y-66129804D01*
X64847571Y-66135765D01*
X64870671Y-66144030D01*
X64892849Y-66154520D01*
X64913893Y-66167133D01*
X64933598Y-66181747D01*
X64951777Y-66198223D01*
X64968253Y-66216402D01*
X64982867Y-66236107D01*
X64995480Y-66257151D01*
X65005970Y-66279329D01*
X65014235Y-66302429D01*
X65020196Y-66326227D01*
X65023796Y-66350496D01*
X65025000Y-66375000D01*
X65025000Y-67625000D01*
X65023796Y-67649504D01*
X65020196Y-67673773D01*
X65014235Y-67697571D01*
X65005970Y-67720671D01*
X64995480Y-67742849D01*
X64982867Y-67763893D01*
X64968253Y-67783598D01*
X64951777Y-67801777D01*
X64933598Y-67818253D01*
X64913893Y-67832867D01*
X64892849Y-67845480D01*
X64870671Y-67855970D01*
X64847571Y-67864235D01*
X64823773Y-67870196D01*
X64799504Y-67873796D01*
X64775000Y-67875000D01*
X64025000Y-67875000D01*
X64000496Y-67873796D01*
X63976227Y-67870196D01*
X63952429Y-67864235D01*
X63929329Y-67855970D01*
X63907151Y-67845480D01*
X63886107Y-67832867D01*
X63866402Y-67818253D01*
X63848223Y-67801777D01*
X63831747Y-67783598D01*
X63817133Y-67763893D01*
X63804520Y-67742849D01*
X63794030Y-67720671D01*
X63785765Y-67697571D01*
X63779804Y-67673773D01*
X63776204Y-67649504D01*
X63775000Y-67625000D01*
X63775000Y-66375000D01*
X63776204Y-66350496D01*
X63779804Y-66326227D01*
X63785765Y-66302429D01*
X63794030Y-66279329D01*
X63804520Y-66257151D01*
X63817133Y-66236107D01*
X63831747Y-66216402D01*
X63848223Y-66198223D01*
X63866402Y-66181747D01*
X63886107Y-66167133D01*
X63907151Y-66154520D01*
X63929329Y-66144030D01*
X63952429Y-66135765D01*
X63976227Y-66129804D01*
X64000496Y-66126204D01*
X64025000Y-66125000D01*
X64775000Y-66125000D01*
X64799504Y-66126204D01*
X64799504Y-66126204D01*
G37*
D20*
X64400000Y-67000000D03*
D10*
G36*
X61999504Y-66126204D02*
G01*
X62023773Y-66129804D01*
X62047571Y-66135765D01*
X62070671Y-66144030D01*
X62092849Y-66154520D01*
X62113893Y-66167133D01*
X62133598Y-66181747D01*
X62151777Y-66198223D01*
X62168253Y-66216402D01*
X62182867Y-66236107D01*
X62195480Y-66257151D01*
X62205970Y-66279329D01*
X62214235Y-66302429D01*
X62220196Y-66326227D01*
X62223796Y-66350496D01*
X62225000Y-66375000D01*
X62225000Y-67625000D01*
X62223796Y-67649504D01*
X62220196Y-67673773D01*
X62214235Y-67697571D01*
X62205970Y-67720671D01*
X62195480Y-67742849D01*
X62182867Y-67763893D01*
X62168253Y-67783598D01*
X62151777Y-67801777D01*
X62133598Y-67818253D01*
X62113893Y-67832867D01*
X62092849Y-67845480D01*
X62070671Y-67855970D01*
X62047571Y-67864235D01*
X62023773Y-67870196D01*
X61999504Y-67873796D01*
X61975000Y-67875000D01*
X61225000Y-67875000D01*
X61200496Y-67873796D01*
X61176227Y-67870196D01*
X61152429Y-67864235D01*
X61129329Y-67855970D01*
X61107151Y-67845480D01*
X61086107Y-67832867D01*
X61066402Y-67818253D01*
X61048223Y-67801777D01*
X61031747Y-67783598D01*
X61017133Y-67763893D01*
X61004520Y-67742849D01*
X60994030Y-67720671D01*
X60985765Y-67697571D01*
X60979804Y-67673773D01*
X60976204Y-67649504D01*
X60975000Y-67625000D01*
X60975000Y-66375000D01*
X60976204Y-66350496D01*
X60979804Y-66326227D01*
X60985765Y-66302429D01*
X60994030Y-66279329D01*
X61004520Y-66257151D01*
X61017133Y-66236107D01*
X61031747Y-66216402D01*
X61048223Y-66198223D01*
X61066402Y-66181747D01*
X61086107Y-66167133D01*
X61107151Y-66154520D01*
X61129329Y-66144030D01*
X61152429Y-66135765D01*
X61176227Y-66129804D01*
X61200496Y-66126204D01*
X61225000Y-66125000D01*
X61975000Y-66125000D01*
X61999504Y-66126204D01*
X61999504Y-66126204D01*
G37*
D20*
X61600000Y-67000000D03*
D10*
G36*
X64799504Y-68526204D02*
G01*
X64823773Y-68529804D01*
X64847571Y-68535765D01*
X64870671Y-68544030D01*
X64892849Y-68554520D01*
X64913893Y-68567133D01*
X64933598Y-68581747D01*
X64951777Y-68598223D01*
X64968253Y-68616402D01*
X64982867Y-68636107D01*
X64995480Y-68657151D01*
X65005970Y-68679329D01*
X65014235Y-68702429D01*
X65020196Y-68726227D01*
X65023796Y-68750496D01*
X65025000Y-68775000D01*
X65025000Y-70025000D01*
X65023796Y-70049504D01*
X65020196Y-70073773D01*
X65014235Y-70097571D01*
X65005970Y-70120671D01*
X64995480Y-70142849D01*
X64982867Y-70163893D01*
X64968253Y-70183598D01*
X64951777Y-70201777D01*
X64933598Y-70218253D01*
X64913893Y-70232867D01*
X64892849Y-70245480D01*
X64870671Y-70255970D01*
X64847571Y-70264235D01*
X64823773Y-70270196D01*
X64799504Y-70273796D01*
X64775000Y-70275000D01*
X64025000Y-70275000D01*
X64000496Y-70273796D01*
X63976227Y-70270196D01*
X63952429Y-70264235D01*
X63929329Y-70255970D01*
X63907151Y-70245480D01*
X63886107Y-70232867D01*
X63866402Y-70218253D01*
X63848223Y-70201777D01*
X63831747Y-70183598D01*
X63817133Y-70163893D01*
X63804520Y-70142849D01*
X63794030Y-70120671D01*
X63785765Y-70097571D01*
X63779804Y-70073773D01*
X63776204Y-70049504D01*
X63775000Y-70025000D01*
X63775000Y-68775000D01*
X63776204Y-68750496D01*
X63779804Y-68726227D01*
X63785765Y-68702429D01*
X63794030Y-68679329D01*
X63804520Y-68657151D01*
X63817133Y-68636107D01*
X63831747Y-68616402D01*
X63848223Y-68598223D01*
X63866402Y-68581747D01*
X63886107Y-68567133D01*
X63907151Y-68554520D01*
X63929329Y-68544030D01*
X63952429Y-68535765D01*
X63976227Y-68529804D01*
X64000496Y-68526204D01*
X64025000Y-68525000D01*
X64775000Y-68525000D01*
X64799504Y-68526204D01*
X64799504Y-68526204D01*
G37*
D20*
X64400000Y-69400000D03*
D10*
G36*
X61999504Y-68526204D02*
G01*
X62023773Y-68529804D01*
X62047571Y-68535765D01*
X62070671Y-68544030D01*
X62092849Y-68554520D01*
X62113893Y-68567133D01*
X62133598Y-68581747D01*
X62151777Y-68598223D01*
X62168253Y-68616402D01*
X62182867Y-68636107D01*
X62195480Y-68657151D01*
X62205970Y-68679329D01*
X62214235Y-68702429D01*
X62220196Y-68726227D01*
X62223796Y-68750496D01*
X62225000Y-68775000D01*
X62225000Y-70025000D01*
X62223796Y-70049504D01*
X62220196Y-70073773D01*
X62214235Y-70097571D01*
X62205970Y-70120671D01*
X62195480Y-70142849D01*
X62182867Y-70163893D01*
X62168253Y-70183598D01*
X62151777Y-70201777D01*
X62133598Y-70218253D01*
X62113893Y-70232867D01*
X62092849Y-70245480D01*
X62070671Y-70255970D01*
X62047571Y-70264235D01*
X62023773Y-70270196D01*
X61999504Y-70273796D01*
X61975000Y-70275000D01*
X61225000Y-70275000D01*
X61200496Y-70273796D01*
X61176227Y-70270196D01*
X61152429Y-70264235D01*
X61129329Y-70255970D01*
X61107151Y-70245480D01*
X61086107Y-70232867D01*
X61066402Y-70218253D01*
X61048223Y-70201777D01*
X61031747Y-70183598D01*
X61017133Y-70163893D01*
X61004520Y-70142849D01*
X60994030Y-70120671D01*
X60985765Y-70097571D01*
X60979804Y-70073773D01*
X60976204Y-70049504D01*
X60975000Y-70025000D01*
X60975000Y-68775000D01*
X60976204Y-68750496D01*
X60979804Y-68726227D01*
X60985765Y-68702429D01*
X60994030Y-68679329D01*
X61004520Y-68657151D01*
X61017133Y-68636107D01*
X61031747Y-68616402D01*
X61048223Y-68598223D01*
X61066402Y-68581747D01*
X61086107Y-68567133D01*
X61107151Y-68554520D01*
X61129329Y-68544030D01*
X61152429Y-68535765D01*
X61176227Y-68529804D01*
X61200496Y-68526204D01*
X61225000Y-68525000D01*
X61975000Y-68525000D01*
X61999504Y-68526204D01*
X61999504Y-68526204D01*
G37*
D20*
X61600000Y-69400000D03*
M02*
