G04 #@! TF.GenerationSoftware,KiCad,Pcbnew,(5.1.2)-2*
G04 #@! TF.CreationDate,2019-10-04T19:12:57-04:00*
G04 #@! TF.ProjectId,High_Current_Buck,48696768-5f43-4757-9272-656e745f4275,rev?*
G04 #@! TF.SameCoordinates,Original*
G04 #@! TF.FileFunction,Copper,L1,Top*
G04 #@! TF.FilePolarity,Positive*
%FSLAX46Y46*%
G04 Gerber Fmt 4.6, Leading zero omitted, Abs format (unit mm)*
G04 Created by KiCad (PCBNEW (5.1.2)-2) date 2019-10-04 19:12:57*
%MOMM*%
%LPD*%
G04 APERTURE LIST*
%ADD10C,0.600000*%
%ADD11R,5.000000X3.400000*%
%ADD12C,0.100000*%
%ADD13C,1.350000*%
%ADD14R,0.600000X0.610000*%
%ADD15R,4.000000X3.810000*%
%ADD16R,5.000000X0.510000*%
%ADD17R,0.610000X1.270000*%
%ADD18R,7.000000X7.000000*%
%ADD19R,5.334000X2.413000*%
%ADD20C,7.400000*%
%ADD21R,1.400000X1.270000*%
%ADD22R,4.800000X4.720000*%
%ADD23C,2.400000*%
%ADD24R,2.400000X2.400000*%
%ADD25C,1.250000*%
%ADD26C,0.800000*%
%ADD27C,1.000000*%
%ADD28C,0.500000*%
%ADD29C,0.250000*%
%ADD30C,0.254000*%
G04 APERTURE END LIST*
D10*
X70400000Y-63600000D03*
X70400000Y-62500000D03*
X70400000Y-61400000D03*
X69300000Y-63600000D03*
X69300000Y-62500000D03*
X69300000Y-61400000D03*
X68200000Y-63600000D03*
X68200000Y-62500000D03*
X68200000Y-61400000D03*
X67100000Y-63600000D03*
X67100000Y-62500000D03*
X67100000Y-61400000D03*
X66000000Y-61400000D03*
X66000000Y-62500000D03*
X66000000Y-63600000D03*
D11*
X68200000Y-62500000D03*
D12*
G36*
X96549505Y-113026204D02*
G01*
X96573773Y-113029804D01*
X96597572Y-113035765D01*
X96620671Y-113044030D01*
X96642850Y-113054520D01*
X96663893Y-113067132D01*
X96683599Y-113081747D01*
X96701777Y-113098223D01*
X96718253Y-113116401D01*
X96732868Y-113136107D01*
X96745480Y-113157150D01*
X96755970Y-113179329D01*
X96764235Y-113202428D01*
X96770196Y-113226227D01*
X96773796Y-113250495D01*
X96775000Y-113274999D01*
X96775000Y-116125001D01*
X96773796Y-116149505D01*
X96770196Y-116173773D01*
X96764235Y-116197572D01*
X96755970Y-116220671D01*
X96745480Y-116242850D01*
X96732868Y-116263893D01*
X96718253Y-116283599D01*
X96701777Y-116301777D01*
X96683599Y-116318253D01*
X96663893Y-116332868D01*
X96642850Y-116345480D01*
X96620671Y-116355970D01*
X96597572Y-116364235D01*
X96573773Y-116370196D01*
X96549505Y-116373796D01*
X96525001Y-116375000D01*
X95674999Y-116375000D01*
X95650495Y-116373796D01*
X95626227Y-116370196D01*
X95602428Y-116364235D01*
X95579329Y-116355970D01*
X95557150Y-116345480D01*
X95536107Y-116332868D01*
X95516401Y-116318253D01*
X95498223Y-116301777D01*
X95481747Y-116283599D01*
X95467132Y-116263893D01*
X95454520Y-116242850D01*
X95444030Y-116220671D01*
X95435765Y-116197572D01*
X95429804Y-116173773D01*
X95426204Y-116149505D01*
X95425000Y-116125001D01*
X95425000Y-113274999D01*
X95426204Y-113250495D01*
X95429804Y-113226227D01*
X95435765Y-113202428D01*
X95444030Y-113179329D01*
X95454520Y-113157150D01*
X95467132Y-113136107D01*
X95481747Y-113116401D01*
X95498223Y-113098223D01*
X95516401Y-113081747D01*
X95536107Y-113067132D01*
X95557150Y-113054520D01*
X95579329Y-113044030D01*
X95602428Y-113035765D01*
X95626227Y-113029804D01*
X95650495Y-113026204D01*
X95674999Y-113025000D01*
X96525001Y-113025000D01*
X96549505Y-113026204D01*
X96549505Y-113026204D01*
G37*
D13*
X96100000Y-114700000D03*
D12*
G36*
X90749505Y-113026204D02*
G01*
X90773773Y-113029804D01*
X90797572Y-113035765D01*
X90820671Y-113044030D01*
X90842850Y-113054520D01*
X90863893Y-113067132D01*
X90883599Y-113081747D01*
X90901777Y-113098223D01*
X90918253Y-113116401D01*
X90932868Y-113136107D01*
X90945480Y-113157150D01*
X90955970Y-113179329D01*
X90964235Y-113202428D01*
X90970196Y-113226227D01*
X90973796Y-113250495D01*
X90975000Y-113274999D01*
X90975000Y-116125001D01*
X90973796Y-116149505D01*
X90970196Y-116173773D01*
X90964235Y-116197572D01*
X90955970Y-116220671D01*
X90945480Y-116242850D01*
X90932868Y-116263893D01*
X90918253Y-116283599D01*
X90901777Y-116301777D01*
X90883599Y-116318253D01*
X90863893Y-116332868D01*
X90842850Y-116345480D01*
X90820671Y-116355970D01*
X90797572Y-116364235D01*
X90773773Y-116370196D01*
X90749505Y-116373796D01*
X90725001Y-116375000D01*
X89874999Y-116375000D01*
X89850495Y-116373796D01*
X89826227Y-116370196D01*
X89802428Y-116364235D01*
X89779329Y-116355970D01*
X89757150Y-116345480D01*
X89736107Y-116332868D01*
X89716401Y-116318253D01*
X89698223Y-116301777D01*
X89681747Y-116283599D01*
X89667132Y-116263893D01*
X89654520Y-116242850D01*
X89644030Y-116220671D01*
X89635765Y-116197572D01*
X89629804Y-116173773D01*
X89626204Y-116149505D01*
X89625000Y-116125001D01*
X89625000Y-113274999D01*
X89626204Y-113250495D01*
X89629804Y-113226227D01*
X89635765Y-113202428D01*
X89644030Y-113179329D01*
X89654520Y-113157150D01*
X89667132Y-113136107D01*
X89681747Y-113116401D01*
X89698223Y-113098223D01*
X89716401Y-113081747D01*
X89736107Y-113067132D01*
X89757150Y-113054520D01*
X89779329Y-113044030D01*
X89802428Y-113035765D01*
X89826227Y-113029804D01*
X89850495Y-113026204D01*
X89874999Y-113025000D01*
X90725001Y-113025000D01*
X90749505Y-113026204D01*
X90749505Y-113026204D01*
G37*
D13*
X90300000Y-114700000D03*
D12*
G36*
X96549505Y-117026204D02*
G01*
X96573773Y-117029804D01*
X96597572Y-117035765D01*
X96620671Y-117044030D01*
X96642850Y-117054520D01*
X96663893Y-117067132D01*
X96683599Y-117081747D01*
X96701777Y-117098223D01*
X96718253Y-117116401D01*
X96732868Y-117136107D01*
X96745480Y-117157150D01*
X96755970Y-117179329D01*
X96764235Y-117202428D01*
X96770196Y-117226227D01*
X96773796Y-117250495D01*
X96775000Y-117274999D01*
X96775000Y-120125001D01*
X96773796Y-120149505D01*
X96770196Y-120173773D01*
X96764235Y-120197572D01*
X96755970Y-120220671D01*
X96745480Y-120242850D01*
X96732868Y-120263893D01*
X96718253Y-120283599D01*
X96701777Y-120301777D01*
X96683599Y-120318253D01*
X96663893Y-120332868D01*
X96642850Y-120345480D01*
X96620671Y-120355970D01*
X96597572Y-120364235D01*
X96573773Y-120370196D01*
X96549505Y-120373796D01*
X96525001Y-120375000D01*
X95674999Y-120375000D01*
X95650495Y-120373796D01*
X95626227Y-120370196D01*
X95602428Y-120364235D01*
X95579329Y-120355970D01*
X95557150Y-120345480D01*
X95536107Y-120332868D01*
X95516401Y-120318253D01*
X95498223Y-120301777D01*
X95481747Y-120283599D01*
X95467132Y-120263893D01*
X95454520Y-120242850D01*
X95444030Y-120220671D01*
X95435765Y-120197572D01*
X95429804Y-120173773D01*
X95426204Y-120149505D01*
X95425000Y-120125001D01*
X95425000Y-117274999D01*
X95426204Y-117250495D01*
X95429804Y-117226227D01*
X95435765Y-117202428D01*
X95444030Y-117179329D01*
X95454520Y-117157150D01*
X95467132Y-117136107D01*
X95481747Y-117116401D01*
X95498223Y-117098223D01*
X95516401Y-117081747D01*
X95536107Y-117067132D01*
X95557150Y-117054520D01*
X95579329Y-117044030D01*
X95602428Y-117035765D01*
X95626227Y-117029804D01*
X95650495Y-117026204D01*
X95674999Y-117025000D01*
X96525001Y-117025000D01*
X96549505Y-117026204D01*
X96549505Y-117026204D01*
G37*
D13*
X96100000Y-118700000D03*
D12*
G36*
X90749505Y-117026204D02*
G01*
X90773773Y-117029804D01*
X90797572Y-117035765D01*
X90820671Y-117044030D01*
X90842850Y-117054520D01*
X90863893Y-117067132D01*
X90883599Y-117081747D01*
X90901777Y-117098223D01*
X90918253Y-117116401D01*
X90932868Y-117136107D01*
X90945480Y-117157150D01*
X90955970Y-117179329D01*
X90964235Y-117202428D01*
X90970196Y-117226227D01*
X90973796Y-117250495D01*
X90975000Y-117274999D01*
X90975000Y-120125001D01*
X90973796Y-120149505D01*
X90970196Y-120173773D01*
X90964235Y-120197572D01*
X90955970Y-120220671D01*
X90945480Y-120242850D01*
X90932868Y-120263893D01*
X90918253Y-120283599D01*
X90901777Y-120301777D01*
X90883599Y-120318253D01*
X90863893Y-120332868D01*
X90842850Y-120345480D01*
X90820671Y-120355970D01*
X90797572Y-120364235D01*
X90773773Y-120370196D01*
X90749505Y-120373796D01*
X90725001Y-120375000D01*
X89874999Y-120375000D01*
X89850495Y-120373796D01*
X89826227Y-120370196D01*
X89802428Y-120364235D01*
X89779329Y-120355970D01*
X89757150Y-120345480D01*
X89736107Y-120332868D01*
X89716401Y-120318253D01*
X89698223Y-120301777D01*
X89681747Y-120283599D01*
X89667132Y-120263893D01*
X89654520Y-120242850D01*
X89644030Y-120220671D01*
X89635765Y-120197572D01*
X89629804Y-120173773D01*
X89626204Y-120149505D01*
X89625000Y-120125001D01*
X89625000Y-117274999D01*
X89626204Y-117250495D01*
X89629804Y-117226227D01*
X89635765Y-117202428D01*
X89644030Y-117179329D01*
X89654520Y-117157150D01*
X89667132Y-117136107D01*
X89681747Y-117116401D01*
X89698223Y-117098223D01*
X89716401Y-117081747D01*
X89736107Y-117067132D01*
X89757150Y-117054520D01*
X89779329Y-117044030D01*
X89802428Y-117035765D01*
X89826227Y-117029804D01*
X89850495Y-117026204D01*
X89874999Y-117025000D01*
X90725001Y-117025000D01*
X90749505Y-117026204D01*
X90749505Y-117026204D01*
G37*
D13*
X90300000Y-118700000D03*
D12*
G36*
X72549505Y-58226204D02*
G01*
X72573773Y-58229804D01*
X72597572Y-58235765D01*
X72620671Y-58244030D01*
X72642850Y-58254520D01*
X72663893Y-58267132D01*
X72683599Y-58281747D01*
X72701777Y-58298223D01*
X72718253Y-58316401D01*
X72732868Y-58336107D01*
X72745480Y-58357150D01*
X72755970Y-58379329D01*
X72764235Y-58402428D01*
X72770196Y-58426227D01*
X72773796Y-58450495D01*
X72775000Y-58474999D01*
X72775000Y-59325001D01*
X72773796Y-59349505D01*
X72770196Y-59373773D01*
X72764235Y-59397572D01*
X72755970Y-59420671D01*
X72745480Y-59442850D01*
X72732868Y-59463893D01*
X72718253Y-59483599D01*
X72701777Y-59501777D01*
X72683599Y-59518253D01*
X72663893Y-59532868D01*
X72642850Y-59545480D01*
X72620671Y-59555970D01*
X72597572Y-59564235D01*
X72573773Y-59570196D01*
X72549505Y-59573796D01*
X72525001Y-59575000D01*
X69674999Y-59575000D01*
X69650495Y-59573796D01*
X69626227Y-59570196D01*
X69602428Y-59564235D01*
X69579329Y-59555970D01*
X69557150Y-59545480D01*
X69536107Y-59532868D01*
X69516401Y-59518253D01*
X69498223Y-59501777D01*
X69481747Y-59483599D01*
X69467132Y-59463893D01*
X69454520Y-59442850D01*
X69444030Y-59420671D01*
X69435765Y-59397572D01*
X69429804Y-59373773D01*
X69426204Y-59349505D01*
X69425000Y-59325001D01*
X69425000Y-58474999D01*
X69426204Y-58450495D01*
X69429804Y-58426227D01*
X69435765Y-58402428D01*
X69444030Y-58379329D01*
X69454520Y-58357150D01*
X69467132Y-58336107D01*
X69481747Y-58316401D01*
X69498223Y-58298223D01*
X69516401Y-58281747D01*
X69536107Y-58267132D01*
X69557150Y-58254520D01*
X69579329Y-58244030D01*
X69602428Y-58235765D01*
X69626227Y-58229804D01*
X69650495Y-58226204D01*
X69674999Y-58225000D01*
X72525001Y-58225000D01*
X72549505Y-58226204D01*
X72549505Y-58226204D01*
G37*
D13*
X71100000Y-58900000D03*
D12*
G36*
X72549505Y-52426204D02*
G01*
X72573773Y-52429804D01*
X72597572Y-52435765D01*
X72620671Y-52444030D01*
X72642850Y-52454520D01*
X72663893Y-52467132D01*
X72683599Y-52481747D01*
X72701777Y-52498223D01*
X72718253Y-52516401D01*
X72732868Y-52536107D01*
X72745480Y-52557150D01*
X72755970Y-52579329D01*
X72764235Y-52602428D01*
X72770196Y-52626227D01*
X72773796Y-52650495D01*
X72775000Y-52674999D01*
X72775000Y-53525001D01*
X72773796Y-53549505D01*
X72770196Y-53573773D01*
X72764235Y-53597572D01*
X72755970Y-53620671D01*
X72745480Y-53642850D01*
X72732868Y-53663893D01*
X72718253Y-53683599D01*
X72701777Y-53701777D01*
X72683599Y-53718253D01*
X72663893Y-53732868D01*
X72642850Y-53745480D01*
X72620671Y-53755970D01*
X72597572Y-53764235D01*
X72573773Y-53770196D01*
X72549505Y-53773796D01*
X72525001Y-53775000D01*
X69674999Y-53775000D01*
X69650495Y-53773796D01*
X69626227Y-53770196D01*
X69602428Y-53764235D01*
X69579329Y-53755970D01*
X69557150Y-53745480D01*
X69536107Y-53732868D01*
X69516401Y-53718253D01*
X69498223Y-53701777D01*
X69481747Y-53683599D01*
X69467132Y-53663893D01*
X69454520Y-53642850D01*
X69444030Y-53620671D01*
X69435765Y-53597572D01*
X69429804Y-53573773D01*
X69426204Y-53549505D01*
X69425000Y-53525001D01*
X69425000Y-52674999D01*
X69426204Y-52650495D01*
X69429804Y-52626227D01*
X69435765Y-52602428D01*
X69444030Y-52579329D01*
X69454520Y-52557150D01*
X69467132Y-52536107D01*
X69481747Y-52516401D01*
X69498223Y-52498223D01*
X69516401Y-52481747D01*
X69536107Y-52467132D01*
X69557150Y-52454520D01*
X69579329Y-52444030D01*
X69602428Y-52435765D01*
X69626227Y-52429804D01*
X69650495Y-52426204D01*
X69674999Y-52425000D01*
X72525001Y-52425000D01*
X72549505Y-52426204D01*
X72549505Y-52426204D01*
G37*
D13*
X71100000Y-53100000D03*
D12*
G36*
X66849505Y-58226204D02*
G01*
X66873773Y-58229804D01*
X66897572Y-58235765D01*
X66920671Y-58244030D01*
X66942850Y-58254520D01*
X66963893Y-58267132D01*
X66983599Y-58281747D01*
X67001777Y-58298223D01*
X67018253Y-58316401D01*
X67032868Y-58336107D01*
X67045480Y-58357150D01*
X67055970Y-58379329D01*
X67064235Y-58402428D01*
X67070196Y-58426227D01*
X67073796Y-58450495D01*
X67075000Y-58474999D01*
X67075000Y-59325001D01*
X67073796Y-59349505D01*
X67070196Y-59373773D01*
X67064235Y-59397572D01*
X67055970Y-59420671D01*
X67045480Y-59442850D01*
X67032868Y-59463893D01*
X67018253Y-59483599D01*
X67001777Y-59501777D01*
X66983599Y-59518253D01*
X66963893Y-59532868D01*
X66942850Y-59545480D01*
X66920671Y-59555970D01*
X66897572Y-59564235D01*
X66873773Y-59570196D01*
X66849505Y-59573796D01*
X66825001Y-59575000D01*
X63974999Y-59575000D01*
X63950495Y-59573796D01*
X63926227Y-59570196D01*
X63902428Y-59564235D01*
X63879329Y-59555970D01*
X63857150Y-59545480D01*
X63836107Y-59532868D01*
X63816401Y-59518253D01*
X63798223Y-59501777D01*
X63781747Y-59483599D01*
X63767132Y-59463893D01*
X63754520Y-59442850D01*
X63744030Y-59420671D01*
X63735765Y-59397572D01*
X63729804Y-59373773D01*
X63726204Y-59349505D01*
X63725000Y-59325001D01*
X63725000Y-58474999D01*
X63726204Y-58450495D01*
X63729804Y-58426227D01*
X63735765Y-58402428D01*
X63744030Y-58379329D01*
X63754520Y-58357150D01*
X63767132Y-58336107D01*
X63781747Y-58316401D01*
X63798223Y-58298223D01*
X63816401Y-58281747D01*
X63836107Y-58267132D01*
X63857150Y-58254520D01*
X63879329Y-58244030D01*
X63902428Y-58235765D01*
X63926227Y-58229804D01*
X63950495Y-58226204D01*
X63974999Y-58225000D01*
X66825001Y-58225000D01*
X66849505Y-58226204D01*
X66849505Y-58226204D01*
G37*
D13*
X65400000Y-58900000D03*
D12*
G36*
X66849505Y-52426204D02*
G01*
X66873773Y-52429804D01*
X66897572Y-52435765D01*
X66920671Y-52444030D01*
X66942850Y-52454520D01*
X66963893Y-52467132D01*
X66983599Y-52481747D01*
X67001777Y-52498223D01*
X67018253Y-52516401D01*
X67032868Y-52536107D01*
X67045480Y-52557150D01*
X67055970Y-52579329D01*
X67064235Y-52602428D01*
X67070196Y-52626227D01*
X67073796Y-52650495D01*
X67075000Y-52674999D01*
X67075000Y-53525001D01*
X67073796Y-53549505D01*
X67070196Y-53573773D01*
X67064235Y-53597572D01*
X67055970Y-53620671D01*
X67045480Y-53642850D01*
X67032868Y-53663893D01*
X67018253Y-53683599D01*
X67001777Y-53701777D01*
X66983599Y-53718253D01*
X66963893Y-53732868D01*
X66942850Y-53745480D01*
X66920671Y-53755970D01*
X66897572Y-53764235D01*
X66873773Y-53770196D01*
X66849505Y-53773796D01*
X66825001Y-53775000D01*
X63974999Y-53775000D01*
X63950495Y-53773796D01*
X63926227Y-53770196D01*
X63902428Y-53764235D01*
X63879329Y-53755970D01*
X63857150Y-53745480D01*
X63836107Y-53732868D01*
X63816401Y-53718253D01*
X63798223Y-53701777D01*
X63781747Y-53683599D01*
X63767132Y-53663893D01*
X63754520Y-53642850D01*
X63744030Y-53620671D01*
X63735765Y-53597572D01*
X63729804Y-53573773D01*
X63726204Y-53549505D01*
X63725000Y-53525001D01*
X63725000Y-52674999D01*
X63726204Y-52650495D01*
X63729804Y-52626227D01*
X63735765Y-52602428D01*
X63744030Y-52579329D01*
X63754520Y-52557150D01*
X63767132Y-52536107D01*
X63781747Y-52516401D01*
X63798223Y-52498223D01*
X63816401Y-52481747D01*
X63836107Y-52467132D01*
X63857150Y-52454520D01*
X63879329Y-52444030D01*
X63902428Y-52435765D01*
X63926227Y-52429804D01*
X63950495Y-52426204D01*
X63974999Y-52425000D01*
X66825001Y-52425000D01*
X66849505Y-52426204D01*
X66849505Y-52426204D01*
G37*
D13*
X65400000Y-53100000D03*
D14*
X57355000Y-51615000D03*
X61855000Y-51515000D03*
D15*
X59605000Y-52205000D03*
D16*
X59605000Y-54365000D03*
D17*
X57700000Y-48800000D03*
X58970000Y-48800000D03*
X60240000Y-48800000D03*
X61510000Y-48800000D03*
D18*
X86500000Y-62400000D03*
X86500000Y-45900000D03*
D19*
X56000000Y-84700000D03*
X56000000Y-91940000D03*
D20*
X102000000Y-43000000D03*
X102000000Y-117000000D03*
X53500000Y-43000000D03*
D21*
X70060000Y-50905000D03*
D22*
X71100000Y-47100000D03*
D21*
X72140000Y-50905000D03*
X64360000Y-50905000D03*
D22*
X65400000Y-47100000D03*
D21*
X66440000Y-50905000D03*
D23*
X94200000Y-104100000D03*
D24*
X89200000Y-104100000D03*
D23*
X74700000Y-104100000D03*
D24*
X79700000Y-104100000D03*
D23*
X94200000Y-90400000D03*
D24*
X89200000Y-90400000D03*
D23*
X74700000Y-90400000D03*
D24*
X79700000Y-90400000D03*
D23*
X94200000Y-76900000D03*
D24*
X89200000Y-76900000D03*
D23*
X74700000Y-76900000D03*
D24*
X79700000Y-76900000D03*
D12*
G36*
X93399504Y-67126204D02*
G01*
X93423773Y-67129804D01*
X93447571Y-67135765D01*
X93470671Y-67144030D01*
X93492849Y-67154520D01*
X93513893Y-67167133D01*
X93533598Y-67181747D01*
X93551777Y-67198223D01*
X93568253Y-67216402D01*
X93582867Y-67236107D01*
X93595480Y-67257151D01*
X93605970Y-67279329D01*
X93614235Y-67302429D01*
X93620196Y-67326227D01*
X93623796Y-67350496D01*
X93625000Y-67375000D01*
X93625000Y-68625000D01*
X93623796Y-68649504D01*
X93620196Y-68673773D01*
X93614235Y-68697571D01*
X93605970Y-68720671D01*
X93595480Y-68742849D01*
X93582867Y-68763893D01*
X93568253Y-68783598D01*
X93551777Y-68801777D01*
X93533598Y-68818253D01*
X93513893Y-68832867D01*
X93492849Y-68845480D01*
X93470671Y-68855970D01*
X93447571Y-68864235D01*
X93423773Y-68870196D01*
X93399504Y-68873796D01*
X93375000Y-68875000D01*
X92625000Y-68875000D01*
X92600496Y-68873796D01*
X92576227Y-68870196D01*
X92552429Y-68864235D01*
X92529329Y-68855970D01*
X92507151Y-68845480D01*
X92486107Y-68832867D01*
X92466402Y-68818253D01*
X92448223Y-68801777D01*
X92431747Y-68783598D01*
X92417133Y-68763893D01*
X92404520Y-68742849D01*
X92394030Y-68720671D01*
X92385765Y-68697571D01*
X92379804Y-68673773D01*
X92376204Y-68649504D01*
X92375000Y-68625000D01*
X92375000Y-67375000D01*
X92376204Y-67350496D01*
X92379804Y-67326227D01*
X92385765Y-67302429D01*
X92394030Y-67279329D01*
X92404520Y-67257151D01*
X92417133Y-67236107D01*
X92431747Y-67216402D01*
X92448223Y-67198223D01*
X92466402Y-67181747D01*
X92486107Y-67167133D01*
X92507151Y-67154520D01*
X92529329Y-67144030D01*
X92552429Y-67135765D01*
X92576227Y-67129804D01*
X92600496Y-67126204D01*
X92625000Y-67125000D01*
X93375000Y-67125000D01*
X93399504Y-67126204D01*
X93399504Y-67126204D01*
G37*
D25*
X93000000Y-68000000D03*
D12*
G36*
X90599504Y-67126204D02*
G01*
X90623773Y-67129804D01*
X90647571Y-67135765D01*
X90670671Y-67144030D01*
X90692849Y-67154520D01*
X90713893Y-67167133D01*
X90733598Y-67181747D01*
X90751777Y-67198223D01*
X90768253Y-67216402D01*
X90782867Y-67236107D01*
X90795480Y-67257151D01*
X90805970Y-67279329D01*
X90814235Y-67302429D01*
X90820196Y-67326227D01*
X90823796Y-67350496D01*
X90825000Y-67375000D01*
X90825000Y-68625000D01*
X90823796Y-68649504D01*
X90820196Y-68673773D01*
X90814235Y-68697571D01*
X90805970Y-68720671D01*
X90795480Y-68742849D01*
X90782867Y-68763893D01*
X90768253Y-68783598D01*
X90751777Y-68801777D01*
X90733598Y-68818253D01*
X90713893Y-68832867D01*
X90692849Y-68845480D01*
X90670671Y-68855970D01*
X90647571Y-68864235D01*
X90623773Y-68870196D01*
X90599504Y-68873796D01*
X90575000Y-68875000D01*
X89825000Y-68875000D01*
X89800496Y-68873796D01*
X89776227Y-68870196D01*
X89752429Y-68864235D01*
X89729329Y-68855970D01*
X89707151Y-68845480D01*
X89686107Y-68832867D01*
X89666402Y-68818253D01*
X89648223Y-68801777D01*
X89631747Y-68783598D01*
X89617133Y-68763893D01*
X89604520Y-68742849D01*
X89594030Y-68720671D01*
X89585765Y-68697571D01*
X89579804Y-68673773D01*
X89576204Y-68649504D01*
X89575000Y-68625000D01*
X89575000Y-67375000D01*
X89576204Y-67350496D01*
X89579804Y-67326227D01*
X89585765Y-67302429D01*
X89594030Y-67279329D01*
X89604520Y-67257151D01*
X89617133Y-67236107D01*
X89631747Y-67216402D01*
X89648223Y-67198223D01*
X89666402Y-67181747D01*
X89686107Y-67167133D01*
X89707151Y-67154520D01*
X89729329Y-67144030D01*
X89752429Y-67135765D01*
X89776227Y-67129804D01*
X89800496Y-67126204D01*
X89825000Y-67125000D01*
X90575000Y-67125000D01*
X90599504Y-67126204D01*
X90599504Y-67126204D01*
G37*
D25*
X90200000Y-68000000D03*
D12*
G36*
X76199504Y-67126204D02*
G01*
X76223773Y-67129804D01*
X76247571Y-67135765D01*
X76270671Y-67144030D01*
X76292849Y-67154520D01*
X76313893Y-67167133D01*
X76333598Y-67181747D01*
X76351777Y-67198223D01*
X76368253Y-67216402D01*
X76382867Y-67236107D01*
X76395480Y-67257151D01*
X76405970Y-67279329D01*
X76414235Y-67302429D01*
X76420196Y-67326227D01*
X76423796Y-67350496D01*
X76425000Y-67375000D01*
X76425000Y-68625000D01*
X76423796Y-68649504D01*
X76420196Y-68673773D01*
X76414235Y-68697571D01*
X76405970Y-68720671D01*
X76395480Y-68742849D01*
X76382867Y-68763893D01*
X76368253Y-68783598D01*
X76351777Y-68801777D01*
X76333598Y-68818253D01*
X76313893Y-68832867D01*
X76292849Y-68845480D01*
X76270671Y-68855970D01*
X76247571Y-68864235D01*
X76223773Y-68870196D01*
X76199504Y-68873796D01*
X76175000Y-68875000D01*
X75425000Y-68875000D01*
X75400496Y-68873796D01*
X75376227Y-68870196D01*
X75352429Y-68864235D01*
X75329329Y-68855970D01*
X75307151Y-68845480D01*
X75286107Y-68832867D01*
X75266402Y-68818253D01*
X75248223Y-68801777D01*
X75231747Y-68783598D01*
X75217133Y-68763893D01*
X75204520Y-68742849D01*
X75194030Y-68720671D01*
X75185765Y-68697571D01*
X75179804Y-68673773D01*
X75176204Y-68649504D01*
X75175000Y-68625000D01*
X75175000Y-67375000D01*
X75176204Y-67350496D01*
X75179804Y-67326227D01*
X75185765Y-67302429D01*
X75194030Y-67279329D01*
X75204520Y-67257151D01*
X75217133Y-67236107D01*
X75231747Y-67216402D01*
X75248223Y-67198223D01*
X75266402Y-67181747D01*
X75286107Y-67167133D01*
X75307151Y-67154520D01*
X75329329Y-67144030D01*
X75352429Y-67135765D01*
X75376227Y-67129804D01*
X75400496Y-67126204D01*
X75425000Y-67125000D01*
X76175000Y-67125000D01*
X76199504Y-67126204D01*
X76199504Y-67126204D01*
G37*
D25*
X75800000Y-68000000D03*
D12*
G36*
X78999504Y-67126204D02*
G01*
X79023773Y-67129804D01*
X79047571Y-67135765D01*
X79070671Y-67144030D01*
X79092849Y-67154520D01*
X79113893Y-67167133D01*
X79133598Y-67181747D01*
X79151777Y-67198223D01*
X79168253Y-67216402D01*
X79182867Y-67236107D01*
X79195480Y-67257151D01*
X79205970Y-67279329D01*
X79214235Y-67302429D01*
X79220196Y-67326227D01*
X79223796Y-67350496D01*
X79225000Y-67375000D01*
X79225000Y-68625000D01*
X79223796Y-68649504D01*
X79220196Y-68673773D01*
X79214235Y-68697571D01*
X79205970Y-68720671D01*
X79195480Y-68742849D01*
X79182867Y-68763893D01*
X79168253Y-68783598D01*
X79151777Y-68801777D01*
X79133598Y-68818253D01*
X79113893Y-68832867D01*
X79092849Y-68845480D01*
X79070671Y-68855970D01*
X79047571Y-68864235D01*
X79023773Y-68870196D01*
X78999504Y-68873796D01*
X78975000Y-68875000D01*
X78225000Y-68875000D01*
X78200496Y-68873796D01*
X78176227Y-68870196D01*
X78152429Y-68864235D01*
X78129329Y-68855970D01*
X78107151Y-68845480D01*
X78086107Y-68832867D01*
X78066402Y-68818253D01*
X78048223Y-68801777D01*
X78031747Y-68783598D01*
X78017133Y-68763893D01*
X78004520Y-68742849D01*
X77994030Y-68720671D01*
X77985765Y-68697571D01*
X77979804Y-68673773D01*
X77976204Y-68649504D01*
X77975000Y-68625000D01*
X77975000Y-67375000D01*
X77976204Y-67350496D01*
X77979804Y-67326227D01*
X77985765Y-67302429D01*
X77994030Y-67279329D01*
X78004520Y-67257151D01*
X78017133Y-67236107D01*
X78031747Y-67216402D01*
X78048223Y-67198223D01*
X78066402Y-67181747D01*
X78086107Y-67167133D01*
X78107151Y-67154520D01*
X78129329Y-67144030D01*
X78152429Y-67135765D01*
X78176227Y-67129804D01*
X78200496Y-67126204D01*
X78225000Y-67125000D01*
X78975000Y-67125000D01*
X78999504Y-67126204D01*
X78999504Y-67126204D01*
G37*
D25*
X78600000Y-68000000D03*
D12*
G36*
X64799504Y-61326204D02*
G01*
X64823773Y-61329804D01*
X64847571Y-61335765D01*
X64870671Y-61344030D01*
X64892849Y-61354520D01*
X64913893Y-61367133D01*
X64933598Y-61381747D01*
X64951777Y-61398223D01*
X64968253Y-61416402D01*
X64982867Y-61436107D01*
X64995480Y-61457151D01*
X65005970Y-61479329D01*
X65014235Y-61502429D01*
X65020196Y-61526227D01*
X65023796Y-61550496D01*
X65025000Y-61575000D01*
X65025000Y-62825000D01*
X65023796Y-62849504D01*
X65020196Y-62873773D01*
X65014235Y-62897571D01*
X65005970Y-62920671D01*
X64995480Y-62942849D01*
X64982867Y-62963893D01*
X64968253Y-62983598D01*
X64951777Y-63001777D01*
X64933598Y-63018253D01*
X64913893Y-63032867D01*
X64892849Y-63045480D01*
X64870671Y-63055970D01*
X64847571Y-63064235D01*
X64823773Y-63070196D01*
X64799504Y-63073796D01*
X64775000Y-63075000D01*
X64025000Y-63075000D01*
X64000496Y-63073796D01*
X63976227Y-63070196D01*
X63952429Y-63064235D01*
X63929329Y-63055970D01*
X63907151Y-63045480D01*
X63886107Y-63032867D01*
X63866402Y-63018253D01*
X63848223Y-63001777D01*
X63831747Y-62983598D01*
X63817133Y-62963893D01*
X63804520Y-62942849D01*
X63794030Y-62920671D01*
X63785765Y-62897571D01*
X63779804Y-62873773D01*
X63776204Y-62849504D01*
X63775000Y-62825000D01*
X63775000Y-61575000D01*
X63776204Y-61550496D01*
X63779804Y-61526227D01*
X63785765Y-61502429D01*
X63794030Y-61479329D01*
X63804520Y-61457151D01*
X63817133Y-61436107D01*
X63831747Y-61416402D01*
X63848223Y-61398223D01*
X63866402Y-61381747D01*
X63886107Y-61367133D01*
X63907151Y-61354520D01*
X63929329Y-61344030D01*
X63952429Y-61335765D01*
X63976227Y-61329804D01*
X64000496Y-61326204D01*
X64025000Y-61325000D01*
X64775000Y-61325000D01*
X64799504Y-61326204D01*
X64799504Y-61326204D01*
G37*
D25*
X64400000Y-62200000D03*
D12*
G36*
X61999504Y-61326204D02*
G01*
X62023773Y-61329804D01*
X62047571Y-61335765D01*
X62070671Y-61344030D01*
X62092849Y-61354520D01*
X62113893Y-61367133D01*
X62133598Y-61381747D01*
X62151777Y-61398223D01*
X62168253Y-61416402D01*
X62182867Y-61436107D01*
X62195480Y-61457151D01*
X62205970Y-61479329D01*
X62214235Y-61502429D01*
X62220196Y-61526227D01*
X62223796Y-61550496D01*
X62225000Y-61575000D01*
X62225000Y-62825000D01*
X62223796Y-62849504D01*
X62220196Y-62873773D01*
X62214235Y-62897571D01*
X62205970Y-62920671D01*
X62195480Y-62942849D01*
X62182867Y-62963893D01*
X62168253Y-62983598D01*
X62151777Y-63001777D01*
X62133598Y-63018253D01*
X62113893Y-63032867D01*
X62092849Y-63045480D01*
X62070671Y-63055970D01*
X62047571Y-63064235D01*
X62023773Y-63070196D01*
X61999504Y-63073796D01*
X61975000Y-63075000D01*
X61225000Y-63075000D01*
X61200496Y-63073796D01*
X61176227Y-63070196D01*
X61152429Y-63064235D01*
X61129329Y-63055970D01*
X61107151Y-63045480D01*
X61086107Y-63032867D01*
X61066402Y-63018253D01*
X61048223Y-63001777D01*
X61031747Y-62983598D01*
X61017133Y-62963893D01*
X61004520Y-62942849D01*
X60994030Y-62920671D01*
X60985765Y-62897571D01*
X60979804Y-62873773D01*
X60976204Y-62849504D01*
X60975000Y-62825000D01*
X60975000Y-61575000D01*
X60976204Y-61550496D01*
X60979804Y-61526227D01*
X60985765Y-61502429D01*
X60994030Y-61479329D01*
X61004520Y-61457151D01*
X61017133Y-61436107D01*
X61031747Y-61416402D01*
X61048223Y-61398223D01*
X61066402Y-61381747D01*
X61086107Y-61367133D01*
X61107151Y-61354520D01*
X61129329Y-61344030D01*
X61152429Y-61335765D01*
X61176227Y-61329804D01*
X61200496Y-61326204D01*
X61225000Y-61325000D01*
X61975000Y-61325000D01*
X61999504Y-61326204D01*
X61999504Y-61326204D01*
G37*
D25*
X61600000Y-62200000D03*
D12*
G36*
X64799504Y-63726204D02*
G01*
X64823773Y-63729804D01*
X64847571Y-63735765D01*
X64870671Y-63744030D01*
X64892849Y-63754520D01*
X64913893Y-63767133D01*
X64933598Y-63781747D01*
X64951777Y-63798223D01*
X64968253Y-63816402D01*
X64982867Y-63836107D01*
X64995480Y-63857151D01*
X65005970Y-63879329D01*
X65014235Y-63902429D01*
X65020196Y-63926227D01*
X65023796Y-63950496D01*
X65025000Y-63975000D01*
X65025000Y-65225000D01*
X65023796Y-65249504D01*
X65020196Y-65273773D01*
X65014235Y-65297571D01*
X65005970Y-65320671D01*
X64995480Y-65342849D01*
X64982867Y-65363893D01*
X64968253Y-65383598D01*
X64951777Y-65401777D01*
X64933598Y-65418253D01*
X64913893Y-65432867D01*
X64892849Y-65445480D01*
X64870671Y-65455970D01*
X64847571Y-65464235D01*
X64823773Y-65470196D01*
X64799504Y-65473796D01*
X64775000Y-65475000D01*
X64025000Y-65475000D01*
X64000496Y-65473796D01*
X63976227Y-65470196D01*
X63952429Y-65464235D01*
X63929329Y-65455970D01*
X63907151Y-65445480D01*
X63886107Y-65432867D01*
X63866402Y-65418253D01*
X63848223Y-65401777D01*
X63831747Y-65383598D01*
X63817133Y-65363893D01*
X63804520Y-65342849D01*
X63794030Y-65320671D01*
X63785765Y-65297571D01*
X63779804Y-65273773D01*
X63776204Y-65249504D01*
X63775000Y-65225000D01*
X63775000Y-63975000D01*
X63776204Y-63950496D01*
X63779804Y-63926227D01*
X63785765Y-63902429D01*
X63794030Y-63879329D01*
X63804520Y-63857151D01*
X63817133Y-63836107D01*
X63831747Y-63816402D01*
X63848223Y-63798223D01*
X63866402Y-63781747D01*
X63886107Y-63767133D01*
X63907151Y-63754520D01*
X63929329Y-63744030D01*
X63952429Y-63735765D01*
X63976227Y-63729804D01*
X64000496Y-63726204D01*
X64025000Y-63725000D01*
X64775000Y-63725000D01*
X64799504Y-63726204D01*
X64799504Y-63726204D01*
G37*
D25*
X64400000Y-64600000D03*
D12*
G36*
X61999504Y-63726204D02*
G01*
X62023773Y-63729804D01*
X62047571Y-63735765D01*
X62070671Y-63744030D01*
X62092849Y-63754520D01*
X62113893Y-63767133D01*
X62133598Y-63781747D01*
X62151777Y-63798223D01*
X62168253Y-63816402D01*
X62182867Y-63836107D01*
X62195480Y-63857151D01*
X62205970Y-63879329D01*
X62214235Y-63902429D01*
X62220196Y-63926227D01*
X62223796Y-63950496D01*
X62225000Y-63975000D01*
X62225000Y-65225000D01*
X62223796Y-65249504D01*
X62220196Y-65273773D01*
X62214235Y-65297571D01*
X62205970Y-65320671D01*
X62195480Y-65342849D01*
X62182867Y-65363893D01*
X62168253Y-65383598D01*
X62151777Y-65401777D01*
X62133598Y-65418253D01*
X62113893Y-65432867D01*
X62092849Y-65445480D01*
X62070671Y-65455970D01*
X62047571Y-65464235D01*
X62023773Y-65470196D01*
X61999504Y-65473796D01*
X61975000Y-65475000D01*
X61225000Y-65475000D01*
X61200496Y-65473796D01*
X61176227Y-65470196D01*
X61152429Y-65464235D01*
X61129329Y-65455970D01*
X61107151Y-65445480D01*
X61086107Y-65432867D01*
X61066402Y-65418253D01*
X61048223Y-65401777D01*
X61031747Y-65383598D01*
X61017133Y-65363893D01*
X61004520Y-65342849D01*
X60994030Y-65320671D01*
X60985765Y-65297571D01*
X60979804Y-65273773D01*
X60976204Y-65249504D01*
X60975000Y-65225000D01*
X60975000Y-63975000D01*
X60976204Y-63950496D01*
X60979804Y-63926227D01*
X60985765Y-63902429D01*
X60994030Y-63879329D01*
X61004520Y-63857151D01*
X61017133Y-63836107D01*
X61031747Y-63816402D01*
X61048223Y-63798223D01*
X61066402Y-63781747D01*
X61086107Y-63767133D01*
X61107151Y-63754520D01*
X61129329Y-63744030D01*
X61152429Y-63735765D01*
X61176227Y-63729804D01*
X61200496Y-63726204D01*
X61225000Y-63725000D01*
X61975000Y-63725000D01*
X61999504Y-63726204D01*
X61999504Y-63726204D01*
G37*
D25*
X61600000Y-64600000D03*
D12*
G36*
X64799504Y-66126204D02*
G01*
X64823773Y-66129804D01*
X64847571Y-66135765D01*
X64870671Y-66144030D01*
X64892849Y-66154520D01*
X64913893Y-66167133D01*
X64933598Y-66181747D01*
X64951777Y-66198223D01*
X64968253Y-66216402D01*
X64982867Y-66236107D01*
X64995480Y-66257151D01*
X65005970Y-66279329D01*
X65014235Y-66302429D01*
X65020196Y-66326227D01*
X65023796Y-66350496D01*
X65025000Y-66375000D01*
X65025000Y-67625000D01*
X65023796Y-67649504D01*
X65020196Y-67673773D01*
X65014235Y-67697571D01*
X65005970Y-67720671D01*
X64995480Y-67742849D01*
X64982867Y-67763893D01*
X64968253Y-67783598D01*
X64951777Y-67801777D01*
X64933598Y-67818253D01*
X64913893Y-67832867D01*
X64892849Y-67845480D01*
X64870671Y-67855970D01*
X64847571Y-67864235D01*
X64823773Y-67870196D01*
X64799504Y-67873796D01*
X64775000Y-67875000D01*
X64025000Y-67875000D01*
X64000496Y-67873796D01*
X63976227Y-67870196D01*
X63952429Y-67864235D01*
X63929329Y-67855970D01*
X63907151Y-67845480D01*
X63886107Y-67832867D01*
X63866402Y-67818253D01*
X63848223Y-67801777D01*
X63831747Y-67783598D01*
X63817133Y-67763893D01*
X63804520Y-67742849D01*
X63794030Y-67720671D01*
X63785765Y-67697571D01*
X63779804Y-67673773D01*
X63776204Y-67649504D01*
X63775000Y-67625000D01*
X63775000Y-66375000D01*
X63776204Y-66350496D01*
X63779804Y-66326227D01*
X63785765Y-66302429D01*
X63794030Y-66279329D01*
X63804520Y-66257151D01*
X63817133Y-66236107D01*
X63831747Y-66216402D01*
X63848223Y-66198223D01*
X63866402Y-66181747D01*
X63886107Y-66167133D01*
X63907151Y-66154520D01*
X63929329Y-66144030D01*
X63952429Y-66135765D01*
X63976227Y-66129804D01*
X64000496Y-66126204D01*
X64025000Y-66125000D01*
X64775000Y-66125000D01*
X64799504Y-66126204D01*
X64799504Y-66126204D01*
G37*
D25*
X64400000Y-67000000D03*
D12*
G36*
X61999504Y-66126204D02*
G01*
X62023773Y-66129804D01*
X62047571Y-66135765D01*
X62070671Y-66144030D01*
X62092849Y-66154520D01*
X62113893Y-66167133D01*
X62133598Y-66181747D01*
X62151777Y-66198223D01*
X62168253Y-66216402D01*
X62182867Y-66236107D01*
X62195480Y-66257151D01*
X62205970Y-66279329D01*
X62214235Y-66302429D01*
X62220196Y-66326227D01*
X62223796Y-66350496D01*
X62225000Y-66375000D01*
X62225000Y-67625000D01*
X62223796Y-67649504D01*
X62220196Y-67673773D01*
X62214235Y-67697571D01*
X62205970Y-67720671D01*
X62195480Y-67742849D01*
X62182867Y-67763893D01*
X62168253Y-67783598D01*
X62151777Y-67801777D01*
X62133598Y-67818253D01*
X62113893Y-67832867D01*
X62092849Y-67845480D01*
X62070671Y-67855970D01*
X62047571Y-67864235D01*
X62023773Y-67870196D01*
X61999504Y-67873796D01*
X61975000Y-67875000D01*
X61225000Y-67875000D01*
X61200496Y-67873796D01*
X61176227Y-67870196D01*
X61152429Y-67864235D01*
X61129329Y-67855970D01*
X61107151Y-67845480D01*
X61086107Y-67832867D01*
X61066402Y-67818253D01*
X61048223Y-67801777D01*
X61031747Y-67783598D01*
X61017133Y-67763893D01*
X61004520Y-67742849D01*
X60994030Y-67720671D01*
X60985765Y-67697571D01*
X60979804Y-67673773D01*
X60976204Y-67649504D01*
X60975000Y-67625000D01*
X60975000Y-66375000D01*
X60976204Y-66350496D01*
X60979804Y-66326227D01*
X60985765Y-66302429D01*
X60994030Y-66279329D01*
X61004520Y-66257151D01*
X61017133Y-66236107D01*
X61031747Y-66216402D01*
X61048223Y-66198223D01*
X61066402Y-66181747D01*
X61086107Y-66167133D01*
X61107151Y-66154520D01*
X61129329Y-66144030D01*
X61152429Y-66135765D01*
X61176227Y-66129804D01*
X61200496Y-66126204D01*
X61225000Y-66125000D01*
X61975000Y-66125000D01*
X61999504Y-66126204D01*
X61999504Y-66126204D01*
G37*
D25*
X61600000Y-67000000D03*
D12*
G36*
X64799504Y-68526204D02*
G01*
X64823773Y-68529804D01*
X64847571Y-68535765D01*
X64870671Y-68544030D01*
X64892849Y-68554520D01*
X64913893Y-68567133D01*
X64933598Y-68581747D01*
X64951777Y-68598223D01*
X64968253Y-68616402D01*
X64982867Y-68636107D01*
X64995480Y-68657151D01*
X65005970Y-68679329D01*
X65014235Y-68702429D01*
X65020196Y-68726227D01*
X65023796Y-68750496D01*
X65025000Y-68775000D01*
X65025000Y-70025000D01*
X65023796Y-70049504D01*
X65020196Y-70073773D01*
X65014235Y-70097571D01*
X65005970Y-70120671D01*
X64995480Y-70142849D01*
X64982867Y-70163893D01*
X64968253Y-70183598D01*
X64951777Y-70201777D01*
X64933598Y-70218253D01*
X64913893Y-70232867D01*
X64892849Y-70245480D01*
X64870671Y-70255970D01*
X64847571Y-70264235D01*
X64823773Y-70270196D01*
X64799504Y-70273796D01*
X64775000Y-70275000D01*
X64025000Y-70275000D01*
X64000496Y-70273796D01*
X63976227Y-70270196D01*
X63952429Y-70264235D01*
X63929329Y-70255970D01*
X63907151Y-70245480D01*
X63886107Y-70232867D01*
X63866402Y-70218253D01*
X63848223Y-70201777D01*
X63831747Y-70183598D01*
X63817133Y-70163893D01*
X63804520Y-70142849D01*
X63794030Y-70120671D01*
X63785765Y-70097571D01*
X63779804Y-70073773D01*
X63776204Y-70049504D01*
X63775000Y-70025000D01*
X63775000Y-68775000D01*
X63776204Y-68750496D01*
X63779804Y-68726227D01*
X63785765Y-68702429D01*
X63794030Y-68679329D01*
X63804520Y-68657151D01*
X63817133Y-68636107D01*
X63831747Y-68616402D01*
X63848223Y-68598223D01*
X63866402Y-68581747D01*
X63886107Y-68567133D01*
X63907151Y-68554520D01*
X63929329Y-68544030D01*
X63952429Y-68535765D01*
X63976227Y-68529804D01*
X64000496Y-68526204D01*
X64025000Y-68525000D01*
X64775000Y-68525000D01*
X64799504Y-68526204D01*
X64799504Y-68526204D01*
G37*
D25*
X64400000Y-69400000D03*
D12*
G36*
X61999504Y-68526204D02*
G01*
X62023773Y-68529804D01*
X62047571Y-68535765D01*
X62070671Y-68544030D01*
X62092849Y-68554520D01*
X62113893Y-68567133D01*
X62133598Y-68581747D01*
X62151777Y-68598223D01*
X62168253Y-68616402D01*
X62182867Y-68636107D01*
X62195480Y-68657151D01*
X62205970Y-68679329D01*
X62214235Y-68702429D01*
X62220196Y-68726227D01*
X62223796Y-68750496D01*
X62225000Y-68775000D01*
X62225000Y-70025000D01*
X62223796Y-70049504D01*
X62220196Y-70073773D01*
X62214235Y-70097571D01*
X62205970Y-70120671D01*
X62195480Y-70142849D01*
X62182867Y-70163893D01*
X62168253Y-70183598D01*
X62151777Y-70201777D01*
X62133598Y-70218253D01*
X62113893Y-70232867D01*
X62092849Y-70245480D01*
X62070671Y-70255970D01*
X62047571Y-70264235D01*
X62023773Y-70270196D01*
X61999504Y-70273796D01*
X61975000Y-70275000D01*
X61225000Y-70275000D01*
X61200496Y-70273796D01*
X61176227Y-70270196D01*
X61152429Y-70264235D01*
X61129329Y-70255970D01*
X61107151Y-70245480D01*
X61086107Y-70232867D01*
X61066402Y-70218253D01*
X61048223Y-70201777D01*
X61031747Y-70183598D01*
X61017133Y-70163893D01*
X61004520Y-70142849D01*
X60994030Y-70120671D01*
X60985765Y-70097571D01*
X60979804Y-70073773D01*
X60976204Y-70049504D01*
X60975000Y-70025000D01*
X60975000Y-68775000D01*
X60976204Y-68750496D01*
X60979804Y-68726227D01*
X60985765Y-68702429D01*
X60994030Y-68679329D01*
X61004520Y-68657151D01*
X61017133Y-68636107D01*
X61031747Y-68616402D01*
X61048223Y-68598223D01*
X61066402Y-68581747D01*
X61086107Y-68567133D01*
X61107151Y-68554520D01*
X61129329Y-68544030D01*
X61152429Y-68535765D01*
X61176227Y-68529804D01*
X61200496Y-68526204D01*
X61225000Y-68525000D01*
X61975000Y-68525000D01*
X61999504Y-68526204D01*
X61999504Y-68526204D01*
G37*
D25*
X61600000Y-69400000D03*
D23*
X65800000Y-77400000D03*
D24*
X60800000Y-77400000D03*
D23*
X65400000Y-99900000D03*
D24*
X60400000Y-99900000D03*
D26*
X53300000Y-82500000D03*
X54600000Y-82500000D03*
X56000000Y-82500000D03*
X58700000Y-82500000D03*
X57400000Y-82500000D03*
X63900000Y-62600000D03*
X74000000Y-115500000D03*
X70000000Y-119000000D03*
X74000000Y-112000000D03*
X66000000Y-112000000D03*
X74000000Y-119000000D03*
X70000000Y-112000000D03*
X70000000Y-115500000D03*
X66000000Y-115500000D03*
X66000000Y-119000000D03*
X64850000Y-72000000D03*
X94350000Y-67500000D03*
X94350000Y-68600000D03*
X74500000Y-63900000D03*
X72200000Y-62450000D03*
X69700000Y-71950000D03*
X65500000Y-67300000D03*
X66450000Y-72000000D03*
X71400000Y-71950000D03*
X95500000Y-68600000D03*
X95500000Y-67500000D03*
X104900000Y-100300000D03*
X104000000Y-100300000D03*
X104000000Y-99400000D03*
X104900000Y-99400000D03*
X104900000Y-98500000D03*
X104000000Y-98500000D03*
X103100000Y-99400000D03*
X103100000Y-100300000D03*
X61000000Y-112000000D03*
X57000000Y-112000000D03*
X53000000Y-112000000D03*
X61000000Y-115500000D03*
X57000000Y-115500000D03*
X53000000Y-115500000D03*
X61000000Y-119000000D03*
X57000000Y-119000000D03*
X53000000Y-119000000D03*
X59000000Y-94500000D03*
X57500000Y-94500000D03*
X56000000Y-94500000D03*
X54500000Y-94500000D03*
X53000000Y-94500000D03*
X50450000Y-59950000D03*
X50450000Y-50950000D03*
X50450000Y-58450000D03*
X50450000Y-53950000D03*
X50450000Y-56950000D03*
X50450000Y-52450000D03*
X50450000Y-55450000D03*
X59500000Y-60000000D03*
X61000000Y-60000000D03*
X58000000Y-60000000D03*
X56500000Y-60000000D03*
X55000000Y-60000000D03*
X52000000Y-60000000D03*
X53500000Y-60000000D03*
X56500000Y-55500000D03*
X52000000Y-55500000D03*
X55000000Y-55500000D03*
X53500000Y-55500000D03*
X55000000Y-57000000D03*
X52000000Y-58500000D03*
X52000000Y-57000000D03*
X53500000Y-58500000D03*
X56500000Y-57000000D03*
X56500000Y-58500000D03*
X53500000Y-57000000D03*
X55000000Y-58500000D03*
X58000000Y-55500000D03*
X61000000Y-55500000D03*
X59500000Y-55500000D03*
X61000000Y-57000000D03*
X58000000Y-58500000D03*
X58000000Y-57000000D03*
X59500000Y-58500000D03*
X59500000Y-57000000D03*
X61000000Y-58500000D03*
X56500000Y-52500000D03*
X52000000Y-52500000D03*
X55000000Y-52500000D03*
X53500000Y-52500000D03*
X56500000Y-54000000D03*
X52000000Y-54000000D03*
X55000000Y-54000000D03*
X53500000Y-54000000D03*
X56500000Y-51000000D03*
X55000000Y-51000000D03*
X53500000Y-51000000D03*
X52000000Y-51000000D03*
X61100000Y-53900000D03*
X59100000Y-53900000D03*
X60100000Y-53900000D03*
X58100000Y-53900000D03*
X61100000Y-52900000D03*
X59100000Y-52900000D03*
X60100000Y-52900000D03*
X58100000Y-52900000D03*
X61100000Y-51900000D03*
X59100000Y-51900000D03*
X60100000Y-51900000D03*
X58100000Y-51900000D03*
X58100000Y-50900000D03*
X59100000Y-50900000D03*
X60100000Y-50900000D03*
X61100000Y-50900000D03*
X72950000Y-73700000D03*
X72950000Y-71799998D03*
X58900000Y-72900000D03*
X87200000Y-115600000D03*
X83200000Y-119100000D03*
X87200000Y-112100000D03*
X79200000Y-112100000D03*
X87200000Y-119100000D03*
X83200000Y-112100000D03*
X83200000Y-115600000D03*
X79200000Y-115600000D03*
X79200000Y-119100000D03*
X82100000Y-68000000D03*
X87200000Y-113200000D03*
X87200000Y-118000000D03*
X89200000Y-97400000D03*
X87200000Y-116800000D03*
X87200000Y-114400000D03*
X77250000Y-40750000D03*
X77250000Y-46750000D03*
X77250000Y-45250000D03*
X77250000Y-48250000D03*
X77250000Y-42250000D03*
X77250000Y-43750000D03*
X75750000Y-45250000D03*
X74250000Y-45250000D03*
X75750000Y-46750000D03*
X74250000Y-48250000D03*
X75750000Y-48250000D03*
X74250000Y-46750000D03*
X68250000Y-40750000D03*
X71250000Y-40750000D03*
X69750000Y-40750000D03*
X71250000Y-42250000D03*
X69750000Y-43750000D03*
X68250000Y-42250000D03*
X69750000Y-42250000D03*
X68250000Y-43750000D03*
X71250000Y-43750000D03*
X72750000Y-40750000D03*
X75750000Y-40750000D03*
X74250000Y-40750000D03*
X75750000Y-42250000D03*
X74250000Y-43750000D03*
X72750000Y-42250000D03*
X74250000Y-42250000D03*
X72750000Y-43750000D03*
X75750000Y-43750000D03*
X63750000Y-40750000D03*
X66750000Y-40750000D03*
X65250000Y-40750000D03*
X66750000Y-42250000D03*
X65250000Y-43750000D03*
X63750000Y-42250000D03*
X65250000Y-42250000D03*
X63750000Y-43750000D03*
X66750000Y-43750000D03*
X62250000Y-40750000D03*
X59250000Y-40750000D03*
X60750000Y-40750000D03*
X59250000Y-42250000D03*
X60750000Y-42250000D03*
X59250000Y-43750000D03*
X62250000Y-43750000D03*
X60750000Y-43750000D03*
X62250000Y-42250000D03*
X62250000Y-45250000D03*
X59250000Y-45250000D03*
X60750000Y-45250000D03*
X71633332Y-47700000D03*
X72800000Y-47700000D03*
X71633332Y-45300000D03*
X71633332Y-46500000D03*
X69300000Y-46500000D03*
X72800000Y-46500000D03*
X70466666Y-45300000D03*
X69300000Y-47700000D03*
X69300000Y-45300000D03*
X72800000Y-45300000D03*
X69300000Y-48900000D03*
X70466666Y-48900000D03*
X70466666Y-47700000D03*
X70466666Y-46500000D03*
X71633332Y-48900000D03*
X72800000Y-48900000D03*
X65933332Y-48900000D03*
X64766666Y-48900000D03*
X63600000Y-48900000D03*
X67100000Y-48900000D03*
X65933332Y-47700000D03*
X64766666Y-47700000D03*
X63600000Y-47700000D03*
X67100000Y-47700000D03*
X65933332Y-46500000D03*
X64766666Y-46500000D03*
X63600000Y-46500000D03*
X67100000Y-46500000D03*
X67100000Y-45300000D03*
X65933332Y-45300000D03*
X64766666Y-45300000D03*
X63600000Y-45300000D03*
X59250000Y-46750000D03*
X60750000Y-46750000D03*
X62250000Y-46750000D03*
X64300000Y-56800000D03*
D27*
X68650000Y-52700000D03*
D26*
X64300000Y-54550000D03*
X57700000Y-47550004D03*
X100000000Y-111000000D03*
X101500000Y-111000000D03*
X103000000Y-111000000D03*
X104500000Y-111000000D03*
X104500000Y-109500000D03*
X104500000Y-108000000D03*
X104500000Y-106500000D03*
X100000000Y-109500000D03*
X101500000Y-109500000D03*
X103000000Y-109500000D03*
X103000000Y-108000000D03*
X101500000Y-108000000D03*
X100000000Y-108000000D03*
X100000000Y-106500000D03*
X101500000Y-106500000D03*
X103000000Y-106500000D03*
D28*
X72950000Y-73700000D02*
X72950000Y-71799998D01*
D29*
X63000000Y-49200000D02*
X62900000Y-49100000D01*
D28*
X63000000Y-55500000D02*
X64300000Y-56800000D01*
X63000000Y-49200000D02*
X63000000Y-55500000D01*
D29*
X64300000Y-54550000D02*
X64300000Y-53984315D01*
X64300000Y-53984315D02*
X64300000Y-53550000D01*
D28*
X57700000Y-48800000D02*
X57700000Y-47550004D01*
D30*
G36*
X62115001Y-55456521D02*
G01*
X62110719Y-55500000D01*
X62127805Y-55673490D01*
X62173000Y-55822473D01*
X62173000Y-75588906D01*
X62124482Y-75574188D01*
X62000000Y-75561928D01*
X61085750Y-75565000D01*
X60927000Y-75723750D01*
X60927000Y-77273000D01*
X60947000Y-77273000D01*
X60947000Y-77527000D01*
X60927000Y-77527000D01*
X60927000Y-79076250D01*
X61085750Y-79235000D01*
X62000000Y-79238072D01*
X62124482Y-79225812D01*
X62173000Y-79211094D01*
X62173000Y-86373000D01*
X50160000Y-86373000D01*
X50160000Y-78600000D01*
X58961928Y-78600000D01*
X58974188Y-78724482D01*
X59010498Y-78844180D01*
X59069463Y-78954494D01*
X59148815Y-79051185D01*
X59245506Y-79130537D01*
X59355820Y-79189502D01*
X59475518Y-79225812D01*
X59600000Y-79238072D01*
X60514250Y-79235000D01*
X60673000Y-79076250D01*
X60673000Y-77527000D01*
X59123750Y-77527000D01*
X58965000Y-77685750D01*
X58961928Y-78600000D01*
X50160000Y-78600000D01*
X50160000Y-76200000D01*
X58961928Y-76200000D01*
X58965000Y-77114250D01*
X59123750Y-77273000D01*
X60673000Y-77273000D01*
X60673000Y-75723750D01*
X60514250Y-75565000D01*
X59600000Y-75561928D01*
X59475518Y-75574188D01*
X59355820Y-75610498D01*
X59245506Y-75669463D01*
X59148815Y-75748815D01*
X59069463Y-75845506D01*
X59010498Y-75955820D01*
X58974188Y-76075518D01*
X58961928Y-76200000D01*
X50160000Y-76200000D01*
X50160000Y-50127000D01*
X62115000Y-50127000D01*
X62115001Y-55456521D01*
X62115001Y-55456521D01*
G37*
X62115001Y-55456521D02*
X62110719Y-55500000D01*
X62127805Y-55673490D01*
X62173000Y-55822473D01*
X62173000Y-75588906D01*
X62124482Y-75574188D01*
X62000000Y-75561928D01*
X61085750Y-75565000D01*
X60927000Y-75723750D01*
X60927000Y-77273000D01*
X60947000Y-77273000D01*
X60947000Y-77527000D01*
X60927000Y-77527000D01*
X60927000Y-79076250D01*
X61085750Y-79235000D01*
X62000000Y-79238072D01*
X62124482Y-79225812D01*
X62173000Y-79211094D01*
X62173000Y-86373000D01*
X50160000Y-86373000D01*
X50160000Y-78600000D01*
X58961928Y-78600000D01*
X58974188Y-78724482D01*
X59010498Y-78844180D01*
X59069463Y-78954494D01*
X59148815Y-79051185D01*
X59245506Y-79130537D01*
X59355820Y-79189502D01*
X59475518Y-79225812D01*
X59600000Y-79238072D01*
X60514250Y-79235000D01*
X60673000Y-79076250D01*
X60673000Y-77527000D01*
X59123750Y-77527000D01*
X58965000Y-77685750D01*
X58961928Y-78600000D01*
X50160000Y-78600000D01*
X50160000Y-76200000D01*
X58961928Y-76200000D01*
X58965000Y-77114250D01*
X59123750Y-77273000D01*
X60673000Y-77273000D01*
X60673000Y-75723750D01*
X60514250Y-75565000D01*
X59600000Y-75561928D01*
X59475518Y-75574188D01*
X59355820Y-75610498D01*
X59245506Y-75669463D01*
X59148815Y-75748815D01*
X59069463Y-75845506D01*
X59010498Y-75955820D01*
X58974188Y-76075518D01*
X58961928Y-76200000D01*
X50160000Y-76200000D01*
X50160000Y-50127000D01*
X62115000Y-50127000D01*
X62115001Y-55456521D01*
G36*
X90073000Y-49473000D02*
G01*
X58639329Y-49473000D01*
X58643072Y-49435000D01*
X58643072Y-48165000D01*
X58630812Y-48040518D01*
X58627000Y-48027950D01*
X58627000Y-48016614D01*
X58695226Y-47851902D01*
X58735000Y-47651943D01*
X58735000Y-47448065D01*
X58695226Y-47248106D01*
X58627000Y-47083395D01*
X58627000Y-39660000D01*
X90073000Y-39660000D01*
X90073000Y-49473000D01*
X90073000Y-49473000D01*
G37*
X90073000Y-49473000D02*
X58639329Y-49473000D01*
X58643072Y-49435000D01*
X58643072Y-48165000D01*
X58630812Y-48040518D01*
X58627000Y-48027950D01*
X58627000Y-48016614D01*
X58695226Y-47851902D01*
X58735000Y-47651943D01*
X58735000Y-47448065D01*
X58695226Y-47248106D01*
X58627000Y-47083395D01*
X58627000Y-39660000D01*
X90073000Y-39660000D01*
X90073000Y-49473000D01*
G36*
X73273000Y-53773000D02*
G01*
X63885000Y-53773000D01*
X63885000Y-50227000D01*
X73273000Y-50227000D01*
X73273000Y-53773000D01*
X73273000Y-53773000D01*
G37*
X73273000Y-53773000D02*
X63885000Y-53773000D01*
X63885000Y-50227000D01*
X73273000Y-50227000D01*
X73273000Y-53773000D01*
G36*
X76373000Y-76127617D02*
G01*
X76262836Y-75921514D01*
X75977980Y-75801626D01*
X74879605Y-76900000D01*
X75977980Y-77998374D01*
X76262836Y-77878486D01*
X76373000Y-77656809D01*
X76373000Y-89627617D01*
X76262836Y-89421514D01*
X75977980Y-89301626D01*
X74879605Y-90400000D01*
X75977980Y-91498374D01*
X76262836Y-91378486D01*
X76373000Y-91156809D01*
X76373000Y-103327617D01*
X76262836Y-103121514D01*
X75977980Y-103001626D01*
X74879605Y-104100000D01*
X75977980Y-105198374D01*
X76262836Y-105078486D01*
X76373000Y-104856809D01*
X76373000Y-120340000D01*
X63627000Y-120340000D01*
X63627000Y-105377980D01*
X73601626Y-105377980D01*
X73721514Y-105662836D01*
X74045210Y-105823699D01*
X74394069Y-105918322D01*
X74754684Y-105943067D01*
X75113198Y-105896985D01*
X75455833Y-105781846D01*
X75678486Y-105662836D01*
X75798374Y-105377980D01*
X74700000Y-104279605D01*
X73601626Y-105377980D01*
X63627000Y-105377980D01*
X63627000Y-104154684D01*
X72856933Y-104154684D01*
X72903015Y-104513198D01*
X73018154Y-104855833D01*
X73137164Y-105078486D01*
X73422020Y-105198374D01*
X74520395Y-104100000D01*
X73422020Y-103001626D01*
X73137164Y-103121514D01*
X72976301Y-103445210D01*
X72881678Y-103794069D01*
X72856933Y-104154684D01*
X63627000Y-104154684D01*
X63627000Y-102822020D01*
X73601626Y-102822020D01*
X74700000Y-103920395D01*
X75798374Y-102822020D01*
X75678486Y-102537164D01*
X75354790Y-102376301D01*
X75005931Y-102281678D01*
X74645316Y-102256933D01*
X74286802Y-102303015D01*
X73944167Y-102418154D01*
X73721514Y-102537164D01*
X73601626Y-102822020D01*
X63627000Y-102822020D01*
X63627000Y-101177980D01*
X64301626Y-101177980D01*
X64421514Y-101462836D01*
X64745210Y-101623699D01*
X65094069Y-101718322D01*
X65454684Y-101743067D01*
X65813198Y-101696985D01*
X66155833Y-101581846D01*
X66378486Y-101462836D01*
X66498374Y-101177980D01*
X65400000Y-100079605D01*
X64301626Y-101177980D01*
X63627000Y-101177980D01*
X63627000Y-100384573D01*
X63718154Y-100655833D01*
X63837164Y-100878486D01*
X64122020Y-100998374D01*
X65220395Y-99900000D01*
X65579605Y-99900000D01*
X66677980Y-100998374D01*
X66962836Y-100878486D01*
X67123699Y-100554790D01*
X67218322Y-100205931D01*
X67243067Y-99845316D01*
X67196985Y-99486802D01*
X67081846Y-99144167D01*
X66962836Y-98921514D01*
X66677980Y-98801626D01*
X65579605Y-99900000D01*
X65220395Y-99900000D01*
X64122020Y-98801626D01*
X63837164Y-98921514D01*
X63676301Y-99245210D01*
X63627000Y-99426974D01*
X63627000Y-98622020D01*
X64301626Y-98622020D01*
X65400000Y-99720395D01*
X66498374Y-98622020D01*
X66378486Y-98337164D01*
X66054790Y-98176301D01*
X65705931Y-98081678D01*
X65345316Y-98056933D01*
X64986802Y-98103015D01*
X64644167Y-98218154D01*
X64421514Y-98337164D01*
X64301626Y-98622020D01*
X63627000Y-98622020D01*
X63627000Y-91677980D01*
X73601626Y-91677980D01*
X73721514Y-91962836D01*
X74045210Y-92123699D01*
X74394069Y-92218322D01*
X74754684Y-92243067D01*
X75113198Y-92196985D01*
X75455833Y-92081846D01*
X75678486Y-91962836D01*
X75798374Y-91677980D01*
X74700000Y-90579605D01*
X73601626Y-91677980D01*
X63627000Y-91677980D01*
X63627000Y-90454684D01*
X72856933Y-90454684D01*
X72903015Y-90813198D01*
X73018154Y-91155833D01*
X73137164Y-91378486D01*
X73422020Y-91498374D01*
X74520395Y-90400000D01*
X73422020Y-89301626D01*
X73137164Y-89421514D01*
X72976301Y-89745210D01*
X72881678Y-90094069D01*
X72856933Y-90454684D01*
X63627000Y-90454684D01*
X63627000Y-89122020D01*
X73601626Y-89122020D01*
X74700000Y-90220395D01*
X75798374Y-89122020D01*
X75678486Y-88837164D01*
X75354790Y-88676301D01*
X75005931Y-88581678D01*
X74645316Y-88556933D01*
X74286802Y-88603015D01*
X73944167Y-88718154D01*
X73721514Y-88837164D01*
X73601626Y-89122020D01*
X63627000Y-89122020D01*
X63627000Y-78677980D01*
X64701626Y-78677980D01*
X64821514Y-78962836D01*
X65145210Y-79123699D01*
X65494069Y-79218322D01*
X65854684Y-79243067D01*
X66213198Y-79196985D01*
X66555833Y-79081846D01*
X66778486Y-78962836D01*
X66898374Y-78677980D01*
X65800000Y-77579605D01*
X64701626Y-78677980D01*
X63627000Y-78677980D01*
X63627000Y-77454684D01*
X63956933Y-77454684D01*
X64003015Y-77813198D01*
X64118154Y-78155833D01*
X64237164Y-78378486D01*
X64522020Y-78498374D01*
X65620395Y-77400000D01*
X65979605Y-77400000D01*
X67077980Y-78498374D01*
X67362836Y-78378486D01*
X67462478Y-78177980D01*
X73601626Y-78177980D01*
X73721514Y-78462836D01*
X74045210Y-78623699D01*
X74394069Y-78718322D01*
X74754684Y-78743067D01*
X75113198Y-78696985D01*
X75455833Y-78581846D01*
X75678486Y-78462836D01*
X75798374Y-78177980D01*
X74700000Y-77079605D01*
X73601626Y-78177980D01*
X67462478Y-78177980D01*
X67523699Y-78054790D01*
X67618322Y-77705931D01*
X67643067Y-77345316D01*
X67596985Y-76986802D01*
X67586193Y-76954684D01*
X72856933Y-76954684D01*
X72903015Y-77313198D01*
X73018154Y-77655833D01*
X73137164Y-77878486D01*
X73422020Y-77998374D01*
X74520395Y-76900000D01*
X73422020Y-75801626D01*
X73137164Y-75921514D01*
X72976301Y-76245210D01*
X72881678Y-76594069D01*
X72856933Y-76954684D01*
X67586193Y-76954684D01*
X67481846Y-76644167D01*
X67362836Y-76421514D01*
X67077980Y-76301626D01*
X65979605Y-77400000D01*
X65620395Y-77400000D01*
X64522020Y-76301626D01*
X64237164Y-76421514D01*
X64076301Y-76745210D01*
X63981678Y-77094069D01*
X63956933Y-77454684D01*
X63627000Y-77454684D01*
X63627000Y-76122020D01*
X64701626Y-76122020D01*
X65800000Y-77220395D01*
X66898374Y-76122020D01*
X66778486Y-75837164D01*
X66454790Y-75676301D01*
X66254666Y-75622020D01*
X73601626Y-75622020D01*
X74700000Y-76720395D01*
X75798374Y-75622020D01*
X75678486Y-75337164D01*
X75354790Y-75176301D01*
X75005931Y-75081678D01*
X74645316Y-75056933D01*
X74286802Y-75103015D01*
X73944167Y-75218154D01*
X73721514Y-75337164D01*
X73601626Y-75622020D01*
X66254666Y-75622020D01*
X66105931Y-75581678D01*
X65745316Y-75556933D01*
X65386802Y-75603015D01*
X65044167Y-75718154D01*
X64821514Y-75837164D01*
X64701626Y-76122020D01*
X63627000Y-76122020D01*
X63627000Y-71698059D01*
X71915000Y-71698059D01*
X71915000Y-71901937D01*
X71954774Y-72101896D01*
X72032795Y-72290254D01*
X72065001Y-72338453D01*
X72065000Y-73161545D01*
X72032795Y-73209744D01*
X71954774Y-73398102D01*
X71915000Y-73598061D01*
X71915000Y-73801939D01*
X71954774Y-74001898D01*
X72032795Y-74190256D01*
X72146063Y-74359774D01*
X72290226Y-74503937D01*
X72459744Y-74617205D01*
X72648102Y-74695226D01*
X72848061Y-74735000D01*
X73051939Y-74735000D01*
X73251898Y-74695226D01*
X73440256Y-74617205D01*
X73609774Y-74503937D01*
X73753937Y-74359774D01*
X73867205Y-74190256D01*
X73945226Y-74001898D01*
X73985000Y-73801939D01*
X73985000Y-73598061D01*
X73945226Y-73398102D01*
X73867205Y-73209744D01*
X73835000Y-73161546D01*
X73835000Y-72338452D01*
X73867205Y-72290254D01*
X73945226Y-72101896D01*
X73985000Y-71901937D01*
X73985000Y-71698059D01*
X73945226Y-71498100D01*
X73867205Y-71309742D01*
X73753937Y-71140224D01*
X73609774Y-70996061D01*
X73440256Y-70882793D01*
X73251898Y-70804772D01*
X73051939Y-70764998D01*
X72848061Y-70764998D01*
X72648102Y-70804772D01*
X72459744Y-70882793D01*
X72290226Y-70996061D01*
X72146063Y-71140224D01*
X72032795Y-71309742D01*
X71954774Y-71498100D01*
X71915000Y-71698059D01*
X63627000Y-71698059D01*
X63627000Y-58127000D01*
X76373000Y-58127000D01*
X76373000Y-76127617D01*
X76373000Y-76127617D01*
G37*
X76373000Y-76127617D02*
X76262836Y-75921514D01*
X75977980Y-75801626D01*
X74879605Y-76900000D01*
X75977980Y-77998374D01*
X76262836Y-77878486D01*
X76373000Y-77656809D01*
X76373000Y-89627617D01*
X76262836Y-89421514D01*
X75977980Y-89301626D01*
X74879605Y-90400000D01*
X75977980Y-91498374D01*
X76262836Y-91378486D01*
X76373000Y-91156809D01*
X76373000Y-103327617D01*
X76262836Y-103121514D01*
X75977980Y-103001626D01*
X74879605Y-104100000D01*
X75977980Y-105198374D01*
X76262836Y-105078486D01*
X76373000Y-104856809D01*
X76373000Y-120340000D01*
X63627000Y-120340000D01*
X63627000Y-105377980D01*
X73601626Y-105377980D01*
X73721514Y-105662836D01*
X74045210Y-105823699D01*
X74394069Y-105918322D01*
X74754684Y-105943067D01*
X75113198Y-105896985D01*
X75455833Y-105781846D01*
X75678486Y-105662836D01*
X75798374Y-105377980D01*
X74700000Y-104279605D01*
X73601626Y-105377980D01*
X63627000Y-105377980D01*
X63627000Y-104154684D01*
X72856933Y-104154684D01*
X72903015Y-104513198D01*
X73018154Y-104855833D01*
X73137164Y-105078486D01*
X73422020Y-105198374D01*
X74520395Y-104100000D01*
X73422020Y-103001626D01*
X73137164Y-103121514D01*
X72976301Y-103445210D01*
X72881678Y-103794069D01*
X72856933Y-104154684D01*
X63627000Y-104154684D01*
X63627000Y-102822020D01*
X73601626Y-102822020D01*
X74700000Y-103920395D01*
X75798374Y-102822020D01*
X75678486Y-102537164D01*
X75354790Y-102376301D01*
X75005931Y-102281678D01*
X74645316Y-102256933D01*
X74286802Y-102303015D01*
X73944167Y-102418154D01*
X73721514Y-102537164D01*
X73601626Y-102822020D01*
X63627000Y-102822020D01*
X63627000Y-101177980D01*
X64301626Y-101177980D01*
X64421514Y-101462836D01*
X64745210Y-101623699D01*
X65094069Y-101718322D01*
X65454684Y-101743067D01*
X65813198Y-101696985D01*
X66155833Y-101581846D01*
X66378486Y-101462836D01*
X66498374Y-101177980D01*
X65400000Y-100079605D01*
X64301626Y-101177980D01*
X63627000Y-101177980D01*
X63627000Y-100384573D01*
X63718154Y-100655833D01*
X63837164Y-100878486D01*
X64122020Y-100998374D01*
X65220395Y-99900000D01*
X65579605Y-99900000D01*
X66677980Y-100998374D01*
X66962836Y-100878486D01*
X67123699Y-100554790D01*
X67218322Y-100205931D01*
X67243067Y-99845316D01*
X67196985Y-99486802D01*
X67081846Y-99144167D01*
X66962836Y-98921514D01*
X66677980Y-98801626D01*
X65579605Y-99900000D01*
X65220395Y-99900000D01*
X64122020Y-98801626D01*
X63837164Y-98921514D01*
X63676301Y-99245210D01*
X63627000Y-99426974D01*
X63627000Y-98622020D01*
X64301626Y-98622020D01*
X65400000Y-99720395D01*
X66498374Y-98622020D01*
X66378486Y-98337164D01*
X66054790Y-98176301D01*
X65705931Y-98081678D01*
X65345316Y-98056933D01*
X64986802Y-98103015D01*
X64644167Y-98218154D01*
X64421514Y-98337164D01*
X64301626Y-98622020D01*
X63627000Y-98622020D01*
X63627000Y-91677980D01*
X73601626Y-91677980D01*
X73721514Y-91962836D01*
X74045210Y-92123699D01*
X74394069Y-92218322D01*
X74754684Y-92243067D01*
X75113198Y-92196985D01*
X75455833Y-92081846D01*
X75678486Y-91962836D01*
X75798374Y-91677980D01*
X74700000Y-90579605D01*
X73601626Y-91677980D01*
X63627000Y-91677980D01*
X63627000Y-90454684D01*
X72856933Y-90454684D01*
X72903015Y-90813198D01*
X73018154Y-91155833D01*
X73137164Y-91378486D01*
X73422020Y-91498374D01*
X74520395Y-90400000D01*
X73422020Y-89301626D01*
X73137164Y-89421514D01*
X72976301Y-89745210D01*
X72881678Y-90094069D01*
X72856933Y-90454684D01*
X63627000Y-90454684D01*
X63627000Y-89122020D01*
X73601626Y-89122020D01*
X74700000Y-90220395D01*
X75798374Y-89122020D01*
X75678486Y-88837164D01*
X75354790Y-88676301D01*
X75005931Y-88581678D01*
X74645316Y-88556933D01*
X74286802Y-88603015D01*
X73944167Y-88718154D01*
X73721514Y-88837164D01*
X73601626Y-89122020D01*
X63627000Y-89122020D01*
X63627000Y-78677980D01*
X64701626Y-78677980D01*
X64821514Y-78962836D01*
X65145210Y-79123699D01*
X65494069Y-79218322D01*
X65854684Y-79243067D01*
X66213198Y-79196985D01*
X66555833Y-79081846D01*
X66778486Y-78962836D01*
X66898374Y-78677980D01*
X65800000Y-77579605D01*
X64701626Y-78677980D01*
X63627000Y-78677980D01*
X63627000Y-77454684D01*
X63956933Y-77454684D01*
X64003015Y-77813198D01*
X64118154Y-78155833D01*
X64237164Y-78378486D01*
X64522020Y-78498374D01*
X65620395Y-77400000D01*
X65979605Y-77400000D01*
X67077980Y-78498374D01*
X67362836Y-78378486D01*
X67462478Y-78177980D01*
X73601626Y-78177980D01*
X73721514Y-78462836D01*
X74045210Y-78623699D01*
X74394069Y-78718322D01*
X74754684Y-78743067D01*
X75113198Y-78696985D01*
X75455833Y-78581846D01*
X75678486Y-78462836D01*
X75798374Y-78177980D01*
X74700000Y-77079605D01*
X73601626Y-78177980D01*
X67462478Y-78177980D01*
X67523699Y-78054790D01*
X67618322Y-77705931D01*
X67643067Y-77345316D01*
X67596985Y-76986802D01*
X67586193Y-76954684D01*
X72856933Y-76954684D01*
X72903015Y-77313198D01*
X73018154Y-77655833D01*
X73137164Y-77878486D01*
X73422020Y-77998374D01*
X74520395Y-76900000D01*
X73422020Y-75801626D01*
X73137164Y-75921514D01*
X72976301Y-76245210D01*
X72881678Y-76594069D01*
X72856933Y-76954684D01*
X67586193Y-76954684D01*
X67481846Y-76644167D01*
X67362836Y-76421514D01*
X67077980Y-76301626D01*
X65979605Y-77400000D01*
X65620395Y-77400000D01*
X64522020Y-76301626D01*
X64237164Y-76421514D01*
X64076301Y-76745210D01*
X63981678Y-77094069D01*
X63956933Y-77454684D01*
X63627000Y-77454684D01*
X63627000Y-76122020D01*
X64701626Y-76122020D01*
X65800000Y-77220395D01*
X66898374Y-76122020D01*
X66778486Y-75837164D01*
X66454790Y-75676301D01*
X66254666Y-75622020D01*
X73601626Y-75622020D01*
X74700000Y-76720395D01*
X75798374Y-75622020D01*
X75678486Y-75337164D01*
X75354790Y-75176301D01*
X75005931Y-75081678D01*
X74645316Y-75056933D01*
X74286802Y-75103015D01*
X73944167Y-75218154D01*
X73721514Y-75337164D01*
X73601626Y-75622020D01*
X66254666Y-75622020D01*
X66105931Y-75581678D01*
X65745316Y-75556933D01*
X65386802Y-75603015D01*
X65044167Y-75718154D01*
X64821514Y-75837164D01*
X64701626Y-76122020D01*
X63627000Y-76122020D01*
X63627000Y-71698059D01*
X71915000Y-71698059D01*
X71915000Y-71901937D01*
X71954774Y-72101896D01*
X72032795Y-72290254D01*
X72065001Y-72338453D01*
X72065000Y-73161545D01*
X72032795Y-73209744D01*
X71954774Y-73398102D01*
X71915000Y-73598061D01*
X71915000Y-73801939D01*
X71954774Y-74001898D01*
X72032795Y-74190256D01*
X72146063Y-74359774D01*
X72290226Y-74503937D01*
X72459744Y-74617205D01*
X72648102Y-74695226D01*
X72848061Y-74735000D01*
X73051939Y-74735000D01*
X73251898Y-74695226D01*
X73440256Y-74617205D01*
X73609774Y-74503937D01*
X73753937Y-74359774D01*
X73867205Y-74190256D01*
X73945226Y-74001898D01*
X73985000Y-73801939D01*
X73985000Y-73598061D01*
X73945226Y-73398102D01*
X73867205Y-73209744D01*
X73835000Y-73161546D01*
X73835000Y-72338452D01*
X73867205Y-72290254D01*
X73945226Y-72101896D01*
X73985000Y-71901937D01*
X73985000Y-71698059D01*
X73945226Y-71498100D01*
X73867205Y-71309742D01*
X73753937Y-71140224D01*
X73609774Y-70996061D01*
X73440256Y-70882793D01*
X73251898Y-70804772D01*
X73051939Y-70764998D01*
X72848061Y-70764998D01*
X72648102Y-70804772D01*
X72459744Y-70882793D01*
X72290226Y-70996061D01*
X72146063Y-71140224D01*
X72032795Y-71309742D01*
X71954774Y-71498100D01*
X71915000Y-71698059D01*
X63627000Y-71698059D01*
X63627000Y-58127000D01*
X76373000Y-58127000D01*
X76373000Y-76127617D01*
G36*
X91073000Y-120340000D02*
G01*
X78027000Y-120340000D01*
X78027000Y-105724603D01*
X78048815Y-105751185D01*
X78145506Y-105830537D01*
X78255820Y-105889502D01*
X78375518Y-105925812D01*
X78500000Y-105938072D01*
X79414250Y-105935000D01*
X79573000Y-105776250D01*
X79573000Y-104227000D01*
X79827000Y-104227000D01*
X79827000Y-105776250D01*
X79985750Y-105935000D01*
X80900000Y-105938072D01*
X81024482Y-105925812D01*
X81144180Y-105889502D01*
X81254494Y-105830537D01*
X81351185Y-105751185D01*
X81430537Y-105654494D01*
X81489502Y-105544180D01*
X81525812Y-105424482D01*
X81538072Y-105300000D01*
X87361928Y-105300000D01*
X87374188Y-105424482D01*
X87410498Y-105544180D01*
X87469463Y-105654494D01*
X87548815Y-105751185D01*
X87645506Y-105830537D01*
X87755820Y-105889502D01*
X87875518Y-105925812D01*
X88000000Y-105938072D01*
X88914250Y-105935000D01*
X89073000Y-105776250D01*
X89073000Y-104227000D01*
X89327000Y-104227000D01*
X89327000Y-105776250D01*
X89485750Y-105935000D01*
X90400000Y-105938072D01*
X90524482Y-105925812D01*
X90644180Y-105889502D01*
X90754494Y-105830537D01*
X90851185Y-105751185D01*
X90930537Y-105654494D01*
X90989502Y-105544180D01*
X91025812Y-105424482D01*
X91038072Y-105300000D01*
X91035000Y-104385750D01*
X90876250Y-104227000D01*
X89327000Y-104227000D01*
X89073000Y-104227000D01*
X87523750Y-104227000D01*
X87365000Y-104385750D01*
X87361928Y-105300000D01*
X81538072Y-105300000D01*
X81535000Y-104385750D01*
X81376250Y-104227000D01*
X79827000Y-104227000D01*
X79573000Y-104227000D01*
X79553000Y-104227000D01*
X79553000Y-103973000D01*
X79573000Y-103973000D01*
X79573000Y-102423750D01*
X79827000Y-102423750D01*
X79827000Y-103973000D01*
X81376250Y-103973000D01*
X81535000Y-103814250D01*
X81538072Y-102900000D01*
X87361928Y-102900000D01*
X87365000Y-103814250D01*
X87523750Y-103973000D01*
X89073000Y-103973000D01*
X89073000Y-102423750D01*
X89327000Y-102423750D01*
X89327000Y-103973000D01*
X90876250Y-103973000D01*
X91035000Y-103814250D01*
X91038072Y-102900000D01*
X91025812Y-102775518D01*
X90989502Y-102655820D01*
X90930537Y-102545506D01*
X90851185Y-102448815D01*
X90754494Y-102369463D01*
X90644180Y-102310498D01*
X90524482Y-102274188D01*
X90400000Y-102261928D01*
X89485750Y-102265000D01*
X89327000Y-102423750D01*
X89073000Y-102423750D01*
X88914250Y-102265000D01*
X88000000Y-102261928D01*
X87875518Y-102274188D01*
X87755820Y-102310498D01*
X87645506Y-102369463D01*
X87548815Y-102448815D01*
X87469463Y-102545506D01*
X87410498Y-102655820D01*
X87374188Y-102775518D01*
X87361928Y-102900000D01*
X81538072Y-102900000D01*
X81525812Y-102775518D01*
X81489502Y-102655820D01*
X81430537Y-102545506D01*
X81351185Y-102448815D01*
X81254494Y-102369463D01*
X81144180Y-102310498D01*
X81024482Y-102274188D01*
X80900000Y-102261928D01*
X79985750Y-102265000D01*
X79827000Y-102423750D01*
X79573000Y-102423750D01*
X79414250Y-102265000D01*
X78500000Y-102261928D01*
X78375518Y-102274188D01*
X78255820Y-102310498D01*
X78145506Y-102369463D01*
X78048815Y-102448815D01*
X78027000Y-102475397D01*
X78027000Y-92024603D01*
X78048815Y-92051185D01*
X78145506Y-92130537D01*
X78255820Y-92189502D01*
X78375518Y-92225812D01*
X78500000Y-92238072D01*
X79414250Y-92235000D01*
X79573000Y-92076250D01*
X79573000Y-90527000D01*
X79827000Y-90527000D01*
X79827000Y-92076250D01*
X79985750Y-92235000D01*
X80900000Y-92238072D01*
X81024482Y-92225812D01*
X81144180Y-92189502D01*
X81254494Y-92130537D01*
X81351185Y-92051185D01*
X81430537Y-91954494D01*
X81489502Y-91844180D01*
X81525812Y-91724482D01*
X81538072Y-91600000D01*
X87361928Y-91600000D01*
X87374188Y-91724482D01*
X87410498Y-91844180D01*
X87469463Y-91954494D01*
X87548815Y-92051185D01*
X87645506Y-92130537D01*
X87755820Y-92189502D01*
X87875518Y-92225812D01*
X88000000Y-92238072D01*
X88914250Y-92235000D01*
X89073000Y-92076250D01*
X89073000Y-90527000D01*
X89327000Y-90527000D01*
X89327000Y-92076250D01*
X89485750Y-92235000D01*
X90400000Y-92238072D01*
X90524482Y-92225812D01*
X90644180Y-92189502D01*
X90754494Y-92130537D01*
X90851185Y-92051185D01*
X90930537Y-91954494D01*
X90989502Y-91844180D01*
X91025812Y-91724482D01*
X91038072Y-91600000D01*
X91035000Y-90685750D01*
X90876250Y-90527000D01*
X89327000Y-90527000D01*
X89073000Y-90527000D01*
X87523750Y-90527000D01*
X87365000Y-90685750D01*
X87361928Y-91600000D01*
X81538072Y-91600000D01*
X81535000Y-90685750D01*
X81376250Y-90527000D01*
X79827000Y-90527000D01*
X79573000Y-90527000D01*
X79553000Y-90527000D01*
X79553000Y-90273000D01*
X79573000Y-90273000D01*
X79573000Y-88723750D01*
X79827000Y-88723750D01*
X79827000Y-90273000D01*
X81376250Y-90273000D01*
X81535000Y-90114250D01*
X81538072Y-89200000D01*
X87361928Y-89200000D01*
X87365000Y-90114250D01*
X87523750Y-90273000D01*
X89073000Y-90273000D01*
X89073000Y-88723750D01*
X89327000Y-88723750D01*
X89327000Y-90273000D01*
X90876250Y-90273000D01*
X91035000Y-90114250D01*
X91038072Y-89200000D01*
X91025812Y-89075518D01*
X90989502Y-88955820D01*
X90930537Y-88845506D01*
X90851185Y-88748815D01*
X90754494Y-88669463D01*
X90644180Y-88610498D01*
X90524482Y-88574188D01*
X90400000Y-88561928D01*
X89485750Y-88565000D01*
X89327000Y-88723750D01*
X89073000Y-88723750D01*
X88914250Y-88565000D01*
X88000000Y-88561928D01*
X87875518Y-88574188D01*
X87755820Y-88610498D01*
X87645506Y-88669463D01*
X87548815Y-88748815D01*
X87469463Y-88845506D01*
X87410498Y-88955820D01*
X87374188Y-89075518D01*
X87361928Y-89200000D01*
X81538072Y-89200000D01*
X81525812Y-89075518D01*
X81489502Y-88955820D01*
X81430537Y-88845506D01*
X81351185Y-88748815D01*
X81254494Y-88669463D01*
X81144180Y-88610498D01*
X81024482Y-88574188D01*
X80900000Y-88561928D01*
X79985750Y-88565000D01*
X79827000Y-88723750D01*
X79573000Y-88723750D01*
X79414250Y-88565000D01*
X78500000Y-88561928D01*
X78375518Y-88574188D01*
X78255820Y-88610498D01*
X78145506Y-88669463D01*
X78048815Y-88748815D01*
X78027000Y-88775397D01*
X78027000Y-78524603D01*
X78048815Y-78551185D01*
X78145506Y-78630537D01*
X78255820Y-78689502D01*
X78375518Y-78725812D01*
X78500000Y-78738072D01*
X79414250Y-78735000D01*
X79573000Y-78576250D01*
X79573000Y-77027000D01*
X79827000Y-77027000D01*
X79827000Y-78576250D01*
X79985750Y-78735000D01*
X80900000Y-78738072D01*
X81024482Y-78725812D01*
X81144180Y-78689502D01*
X81254494Y-78630537D01*
X81351185Y-78551185D01*
X81430537Y-78454494D01*
X81489502Y-78344180D01*
X81525812Y-78224482D01*
X81538072Y-78100000D01*
X87361928Y-78100000D01*
X87374188Y-78224482D01*
X87410498Y-78344180D01*
X87469463Y-78454494D01*
X87548815Y-78551185D01*
X87645506Y-78630537D01*
X87755820Y-78689502D01*
X87875518Y-78725812D01*
X88000000Y-78738072D01*
X88914250Y-78735000D01*
X89073000Y-78576250D01*
X89073000Y-77027000D01*
X89327000Y-77027000D01*
X89327000Y-78576250D01*
X89485750Y-78735000D01*
X90400000Y-78738072D01*
X90524482Y-78725812D01*
X90644180Y-78689502D01*
X90754494Y-78630537D01*
X90851185Y-78551185D01*
X90930537Y-78454494D01*
X90989502Y-78344180D01*
X91025812Y-78224482D01*
X91038072Y-78100000D01*
X91035000Y-77185750D01*
X90876250Y-77027000D01*
X89327000Y-77027000D01*
X89073000Y-77027000D01*
X87523750Y-77027000D01*
X87365000Y-77185750D01*
X87361928Y-78100000D01*
X81538072Y-78100000D01*
X81535000Y-77185750D01*
X81376250Y-77027000D01*
X79827000Y-77027000D01*
X79573000Y-77027000D01*
X79553000Y-77027000D01*
X79553000Y-76773000D01*
X79573000Y-76773000D01*
X79573000Y-75223750D01*
X79827000Y-75223750D01*
X79827000Y-76773000D01*
X81376250Y-76773000D01*
X81535000Y-76614250D01*
X81538072Y-75700000D01*
X87361928Y-75700000D01*
X87365000Y-76614250D01*
X87523750Y-76773000D01*
X89073000Y-76773000D01*
X89073000Y-75223750D01*
X89327000Y-75223750D01*
X89327000Y-76773000D01*
X90876250Y-76773000D01*
X91035000Y-76614250D01*
X91038072Y-75700000D01*
X91025812Y-75575518D01*
X90989502Y-75455820D01*
X90930537Y-75345506D01*
X90851185Y-75248815D01*
X90754494Y-75169463D01*
X90644180Y-75110498D01*
X90524482Y-75074188D01*
X90400000Y-75061928D01*
X89485750Y-75065000D01*
X89327000Y-75223750D01*
X89073000Y-75223750D01*
X88914250Y-75065000D01*
X88000000Y-75061928D01*
X87875518Y-75074188D01*
X87755820Y-75110498D01*
X87645506Y-75169463D01*
X87548815Y-75248815D01*
X87469463Y-75345506D01*
X87410498Y-75455820D01*
X87374188Y-75575518D01*
X87361928Y-75700000D01*
X81538072Y-75700000D01*
X81525812Y-75575518D01*
X81489502Y-75455820D01*
X81430537Y-75345506D01*
X81351185Y-75248815D01*
X81254494Y-75169463D01*
X81144180Y-75110498D01*
X81024482Y-75074188D01*
X80900000Y-75061928D01*
X79985750Y-75065000D01*
X79827000Y-75223750D01*
X79573000Y-75223750D01*
X79414250Y-75065000D01*
X78500000Y-75061928D01*
X78375518Y-75074188D01*
X78255820Y-75110498D01*
X78145506Y-75169463D01*
X78048815Y-75248815D01*
X78027000Y-75275397D01*
X78027000Y-63652606D01*
X82852606Y-58827000D01*
X91073000Y-58827000D01*
X91073000Y-120340000D01*
X91073000Y-120340000D01*
G37*
X91073000Y-120340000D02*
X78027000Y-120340000D01*
X78027000Y-105724603D01*
X78048815Y-105751185D01*
X78145506Y-105830537D01*
X78255820Y-105889502D01*
X78375518Y-105925812D01*
X78500000Y-105938072D01*
X79414250Y-105935000D01*
X79573000Y-105776250D01*
X79573000Y-104227000D01*
X79827000Y-104227000D01*
X79827000Y-105776250D01*
X79985750Y-105935000D01*
X80900000Y-105938072D01*
X81024482Y-105925812D01*
X81144180Y-105889502D01*
X81254494Y-105830537D01*
X81351185Y-105751185D01*
X81430537Y-105654494D01*
X81489502Y-105544180D01*
X81525812Y-105424482D01*
X81538072Y-105300000D01*
X87361928Y-105300000D01*
X87374188Y-105424482D01*
X87410498Y-105544180D01*
X87469463Y-105654494D01*
X87548815Y-105751185D01*
X87645506Y-105830537D01*
X87755820Y-105889502D01*
X87875518Y-105925812D01*
X88000000Y-105938072D01*
X88914250Y-105935000D01*
X89073000Y-105776250D01*
X89073000Y-104227000D01*
X89327000Y-104227000D01*
X89327000Y-105776250D01*
X89485750Y-105935000D01*
X90400000Y-105938072D01*
X90524482Y-105925812D01*
X90644180Y-105889502D01*
X90754494Y-105830537D01*
X90851185Y-105751185D01*
X90930537Y-105654494D01*
X90989502Y-105544180D01*
X91025812Y-105424482D01*
X91038072Y-105300000D01*
X91035000Y-104385750D01*
X90876250Y-104227000D01*
X89327000Y-104227000D01*
X89073000Y-104227000D01*
X87523750Y-104227000D01*
X87365000Y-104385750D01*
X87361928Y-105300000D01*
X81538072Y-105300000D01*
X81535000Y-104385750D01*
X81376250Y-104227000D01*
X79827000Y-104227000D01*
X79573000Y-104227000D01*
X79553000Y-104227000D01*
X79553000Y-103973000D01*
X79573000Y-103973000D01*
X79573000Y-102423750D01*
X79827000Y-102423750D01*
X79827000Y-103973000D01*
X81376250Y-103973000D01*
X81535000Y-103814250D01*
X81538072Y-102900000D01*
X87361928Y-102900000D01*
X87365000Y-103814250D01*
X87523750Y-103973000D01*
X89073000Y-103973000D01*
X89073000Y-102423750D01*
X89327000Y-102423750D01*
X89327000Y-103973000D01*
X90876250Y-103973000D01*
X91035000Y-103814250D01*
X91038072Y-102900000D01*
X91025812Y-102775518D01*
X90989502Y-102655820D01*
X90930537Y-102545506D01*
X90851185Y-102448815D01*
X90754494Y-102369463D01*
X90644180Y-102310498D01*
X90524482Y-102274188D01*
X90400000Y-102261928D01*
X89485750Y-102265000D01*
X89327000Y-102423750D01*
X89073000Y-102423750D01*
X88914250Y-102265000D01*
X88000000Y-102261928D01*
X87875518Y-102274188D01*
X87755820Y-102310498D01*
X87645506Y-102369463D01*
X87548815Y-102448815D01*
X87469463Y-102545506D01*
X87410498Y-102655820D01*
X87374188Y-102775518D01*
X87361928Y-102900000D01*
X81538072Y-102900000D01*
X81525812Y-102775518D01*
X81489502Y-102655820D01*
X81430537Y-102545506D01*
X81351185Y-102448815D01*
X81254494Y-102369463D01*
X81144180Y-102310498D01*
X81024482Y-102274188D01*
X80900000Y-102261928D01*
X79985750Y-102265000D01*
X79827000Y-102423750D01*
X79573000Y-102423750D01*
X79414250Y-102265000D01*
X78500000Y-102261928D01*
X78375518Y-102274188D01*
X78255820Y-102310498D01*
X78145506Y-102369463D01*
X78048815Y-102448815D01*
X78027000Y-102475397D01*
X78027000Y-92024603D01*
X78048815Y-92051185D01*
X78145506Y-92130537D01*
X78255820Y-92189502D01*
X78375518Y-92225812D01*
X78500000Y-92238072D01*
X79414250Y-92235000D01*
X79573000Y-92076250D01*
X79573000Y-90527000D01*
X79827000Y-90527000D01*
X79827000Y-92076250D01*
X79985750Y-92235000D01*
X80900000Y-92238072D01*
X81024482Y-92225812D01*
X81144180Y-92189502D01*
X81254494Y-92130537D01*
X81351185Y-92051185D01*
X81430537Y-91954494D01*
X81489502Y-91844180D01*
X81525812Y-91724482D01*
X81538072Y-91600000D01*
X87361928Y-91600000D01*
X87374188Y-91724482D01*
X87410498Y-91844180D01*
X87469463Y-91954494D01*
X87548815Y-92051185D01*
X87645506Y-92130537D01*
X87755820Y-92189502D01*
X87875518Y-92225812D01*
X88000000Y-92238072D01*
X88914250Y-92235000D01*
X89073000Y-92076250D01*
X89073000Y-90527000D01*
X89327000Y-90527000D01*
X89327000Y-92076250D01*
X89485750Y-92235000D01*
X90400000Y-92238072D01*
X90524482Y-92225812D01*
X90644180Y-92189502D01*
X90754494Y-92130537D01*
X90851185Y-92051185D01*
X90930537Y-91954494D01*
X90989502Y-91844180D01*
X91025812Y-91724482D01*
X91038072Y-91600000D01*
X91035000Y-90685750D01*
X90876250Y-90527000D01*
X89327000Y-90527000D01*
X89073000Y-90527000D01*
X87523750Y-90527000D01*
X87365000Y-90685750D01*
X87361928Y-91600000D01*
X81538072Y-91600000D01*
X81535000Y-90685750D01*
X81376250Y-90527000D01*
X79827000Y-90527000D01*
X79573000Y-90527000D01*
X79553000Y-90527000D01*
X79553000Y-90273000D01*
X79573000Y-90273000D01*
X79573000Y-88723750D01*
X79827000Y-88723750D01*
X79827000Y-90273000D01*
X81376250Y-90273000D01*
X81535000Y-90114250D01*
X81538072Y-89200000D01*
X87361928Y-89200000D01*
X87365000Y-90114250D01*
X87523750Y-90273000D01*
X89073000Y-90273000D01*
X89073000Y-88723750D01*
X89327000Y-88723750D01*
X89327000Y-90273000D01*
X90876250Y-90273000D01*
X91035000Y-90114250D01*
X91038072Y-89200000D01*
X91025812Y-89075518D01*
X90989502Y-88955820D01*
X90930537Y-88845506D01*
X90851185Y-88748815D01*
X90754494Y-88669463D01*
X90644180Y-88610498D01*
X90524482Y-88574188D01*
X90400000Y-88561928D01*
X89485750Y-88565000D01*
X89327000Y-88723750D01*
X89073000Y-88723750D01*
X88914250Y-88565000D01*
X88000000Y-88561928D01*
X87875518Y-88574188D01*
X87755820Y-88610498D01*
X87645506Y-88669463D01*
X87548815Y-88748815D01*
X87469463Y-88845506D01*
X87410498Y-88955820D01*
X87374188Y-89075518D01*
X87361928Y-89200000D01*
X81538072Y-89200000D01*
X81525812Y-89075518D01*
X81489502Y-88955820D01*
X81430537Y-88845506D01*
X81351185Y-88748815D01*
X81254494Y-88669463D01*
X81144180Y-88610498D01*
X81024482Y-88574188D01*
X80900000Y-88561928D01*
X79985750Y-88565000D01*
X79827000Y-88723750D01*
X79573000Y-88723750D01*
X79414250Y-88565000D01*
X78500000Y-88561928D01*
X78375518Y-88574188D01*
X78255820Y-88610498D01*
X78145506Y-88669463D01*
X78048815Y-88748815D01*
X78027000Y-88775397D01*
X78027000Y-78524603D01*
X78048815Y-78551185D01*
X78145506Y-78630537D01*
X78255820Y-78689502D01*
X78375518Y-78725812D01*
X78500000Y-78738072D01*
X79414250Y-78735000D01*
X79573000Y-78576250D01*
X79573000Y-77027000D01*
X79827000Y-77027000D01*
X79827000Y-78576250D01*
X79985750Y-78735000D01*
X80900000Y-78738072D01*
X81024482Y-78725812D01*
X81144180Y-78689502D01*
X81254494Y-78630537D01*
X81351185Y-78551185D01*
X81430537Y-78454494D01*
X81489502Y-78344180D01*
X81525812Y-78224482D01*
X81538072Y-78100000D01*
X87361928Y-78100000D01*
X87374188Y-78224482D01*
X87410498Y-78344180D01*
X87469463Y-78454494D01*
X87548815Y-78551185D01*
X87645506Y-78630537D01*
X87755820Y-78689502D01*
X87875518Y-78725812D01*
X88000000Y-78738072D01*
X88914250Y-78735000D01*
X89073000Y-78576250D01*
X89073000Y-77027000D01*
X89327000Y-77027000D01*
X89327000Y-78576250D01*
X89485750Y-78735000D01*
X90400000Y-78738072D01*
X90524482Y-78725812D01*
X90644180Y-78689502D01*
X90754494Y-78630537D01*
X90851185Y-78551185D01*
X90930537Y-78454494D01*
X90989502Y-78344180D01*
X91025812Y-78224482D01*
X91038072Y-78100000D01*
X91035000Y-77185750D01*
X90876250Y-77027000D01*
X89327000Y-77027000D01*
X89073000Y-77027000D01*
X87523750Y-77027000D01*
X87365000Y-77185750D01*
X87361928Y-78100000D01*
X81538072Y-78100000D01*
X81535000Y-77185750D01*
X81376250Y-77027000D01*
X79827000Y-77027000D01*
X79573000Y-77027000D01*
X79553000Y-77027000D01*
X79553000Y-76773000D01*
X79573000Y-76773000D01*
X79573000Y-75223750D01*
X79827000Y-75223750D01*
X79827000Y-76773000D01*
X81376250Y-76773000D01*
X81535000Y-76614250D01*
X81538072Y-75700000D01*
X87361928Y-75700000D01*
X87365000Y-76614250D01*
X87523750Y-76773000D01*
X89073000Y-76773000D01*
X89073000Y-75223750D01*
X89327000Y-75223750D01*
X89327000Y-76773000D01*
X90876250Y-76773000D01*
X91035000Y-76614250D01*
X91038072Y-75700000D01*
X91025812Y-75575518D01*
X90989502Y-75455820D01*
X90930537Y-75345506D01*
X90851185Y-75248815D01*
X90754494Y-75169463D01*
X90644180Y-75110498D01*
X90524482Y-75074188D01*
X90400000Y-75061928D01*
X89485750Y-75065000D01*
X89327000Y-75223750D01*
X89073000Y-75223750D01*
X88914250Y-75065000D01*
X88000000Y-75061928D01*
X87875518Y-75074188D01*
X87755820Y-75110498D01*
X87645506Y-75169463D01*
X87548815Y-75248815D01*
X87469463Y-75345506D01*
X87410498Y-75455820D01*
X87374188Y-75575518D01*
X87361928Y-75700000D01*
X81538072Y-75700000D01*
X81525812Y-75575518D01*
X81489502Y-75455820D01*
X81430537Y-75345506D01*
X81351185Y-75248815D01*
X81254494Y-75169463D01*
X81144180Y-75110498D01*
X81024482Y-75074188D01*
X80900000Y-75061928D01*
X79985750Y-75065000D01*
X79827000Y-75223750D01*
X79573000Y-75223750D01*
X79414250Y-75065000D01*
X78500000Y-75061928D01*
X78375518Y-75074188D01*
X78255820Y-75110498D01*
X78145506Y-75169463D01*
X78048815Y-75248815D01*
X78027000Y-75275397D01*
X78027000Y-63652606D01*
X82852606Y-58827000D01*
X91073000Y-58827000D01*
X91073000Y-120340000D01*
G36*
X102648126Y-39726714D02*
G01*
X103271572Y-39914943D01*
X103846579Y-40220681D01*
X104351247Y-40632279D01*
X104766362Y-41134067D01*
X105076105Y-41706924D01*
X105268682Y-42329039D01*
X105340000Y-43007584D01*
X105340001Y-104265000D01*
X97200000Y-104265000D01*
X97076118Y-104277201D01*
X96956996Y-104313336D01*
X96847213Y-104372017D01*
X96750987Y-104450987D01*
X94550987Y-106650987D01*
X94472017Y-106747213D01*
X94413336Y-106856996D01*
X94377201Y-106976118D01*
X94365000Y-107100000D01*
X94365000Y-120340000D01*
X92277609Y-120340000D01*
X92291423Y-105377980D01*
X93101626Y-105377980D01*
X93221514Y-105662836D01*
X93545210Y-105823699D01*
X93894069Y-105918322D01*
X94254684Y-105943067D01*
X94613198Y-105896985D01*
X94955833Y-105781846D01*
X95178486Y-105662836D01*
X95298374Y-105377980D01*
X94200000Y-104279605D01*
X93101626Y-105377980D01*
X92291423Y-105377980D01*
X92292553Y-104154684D01*
X92356933Y-104154684D01*
X92403015Y-104513198D01*
X92518154Y-104855833D01*
X92637164Y-105078486D01*
X92922020Y-105198374D01*
X94020395Y-104100000D01*
X94379605Y-104100000D01*
X95477980Y-105198374D01*
X95762836Y-105078486D01*
X95923699Y-104754790D01*
X96018322Y-104405931D01*
X96043067Y-104045316D01*
X95996985Y-103686802D01*
X95881846Y-103344167D01*
X95762836Y-103121514D01*
X95477980Y-103001626D01*
X94379605Y-104100000D01*
X94020395Y-104100000D01*
X92922020Y-103001626D01*
X92637164Y-103121514D01*
X92476301Y-103445210D01*
X92381678Y-103794069D01*
X92356933Y-104154684D01*
X92292553Y-104154684D01*
X92293783Y-102822020D01*
X93101626Y-102822020D01*
X94200000Y-103920395D01*
X95298374Y-102822020D01*
X95178486Y-102537164D01*
X94854790Y-102376301D01*
X94505931Y-102281678D01*
X94145316Y-102256933D01*
X93786802Y-102303015D01*
X93444167Y-102418154D01*
X93221514Y-102537164D01*
X93101626Y-102822020D01*
X92293783Y-102822020D01*
X92304073Y-91677980D01*
X93101626Y-91677980D01*
X93221514Y-91962836D01*
X93545210Y-92123699D01*
X93894069Y-92218322D01*
X94254684Y-92243067D01*
X94613198Y-92196985D01*
X94955833Y-92081846D01*
X95178486Y-91962836D01*
X95298374Y-91677980D01*
X94200000Y-90579605D01*
X93101626Y-91677980D01*
X92304073Y-91677980D01*
X92305203Y-90454684D01*
X92356933Y-90454684D01*
X92403015Y-90813198D01*
X92518154Y-91155833D01*
X92637164Y-91378486D01*
X92922020Y-91498374D01*
X94020395Y-90400000D01*
X94379605Y-90400000D01*
X95477980Y-91498374D01*
X95762836Y-91378486D01*
X95923699Y-91054790D01*
X96018322Y-90705931D01*
X96043067Y-90345316D01*
X95996985Y-89986802D01*
X95881846Y-89644167D01*
X95762836Y-89421514D01*
X95477980Y-89301626D01*
X94379605Y-90400000D01*
X94020395Y-90400000D01*
X92922020Y-89301626D01*
X92637164Y-89421514D01*
X92476301Y-89745210D01*
X92381678Y-90094069D01*
X92356933Y-90454684D01*
X92305203Y-90454684D01*
X92306433Y-89122020D01*
X93101626Y-89122020D01*
X94200000Y-90220395D01*
X95298374Y-89122020D01*
X95178486Y-88837164D01*
X94854790Y-88676301D01*
X94505931Y-88581678D01*
X94145316Y-88556933D01*
X93786802Y-88603015D01*
X93444167Y-88718154D01*
X93221514Y-88837164D01*
X93101626Y-89122020D01*
X92306433Y-89122020D01*
X92316539Y-78177980D01*
X93101626Y-78177980D01*
X93221514Y-78462836D01*
X93545210Y-78623699D01*
X93894069Y-78718322D01*
X94254684Y-78743067D01*
X94613198Y-78696985D01*
X94955833Y-78581846D01*
X95178486Y-78462836D01*
X95298374Y-78177980D01*
X94200000Y-77079605D01*
X93101626Y-78177980D01*
X92316539Y-78177980D01*
X92317669Y-76954684D01*
X92356933Y-76954684D01*
X92403015Y-77313198D01*
X92518154Y-77655833D01*
X92637164Y-77878486D01*
X92922020Y-77998374D01*
X94020395Y-76900000D01*
X94379605Y-76900000D01*
X95477980Y-77998374D01*
X95762836Y-77878486D01*
X95923699Y-77554790D01*
X96018322Y-77205931D01*
X96043067Y-76845316D01*
X95996985Y-76486802D01*
X95881846Y-76144167D01*
X95762836Y-75921514D01*
X95477980Y-75801626D01*
X94379605Y-76900000D01*
X94020395Y-76900000D01*
X92922020Y-75801626D01*
X92637164Y-75921514D01*
X92476301Y-76245210D01*
X92381678Y-76594069D01*
X92356933Y-76954684D01*
X92317669Y-76954684D01*
X92318899Y-75622020D01*
X93101626Y-75622020D01*
X94200000Y-76720395D01*
X95298374Y-75622020D01*
X95178486Y-75337164D01*
X94854790Y-75176301D01*
X94505931Y-75081678D01*
X94145316Y-75056933D01*
X93786802Y-75103015D01*
X93444167Y-75218154D01*
X93221514Y-75337164D01*
X93101626Y-75622020D01*
X92318899Y-75622020D01*
X92326882Y-66977513D01*
X98399488Y-67001999D01*
X98424274Y-66999659D01*
X98448127Y-66992528D01*
X98470131Y-66980880D01*
X98489440Y-66965164D01*
X98505311Y-66945983D01*
X98517136Y-66924074D01*
X98524459Y-66900279D01*
X98527000Y-66875000D01*
X98527000Y-39660000D01*
X101967722Y-39660000D01*
X102648126Y-39726714D01*
X102648126Y-39726714D01*
G37*
X102648126Y-39726714D02*
X103271572Y-39914943D01*
X103846579Y-40220681D01*
X104351247Y-40632279D01*
X104766362Y-41134067D01*
X105076105Y-41706924D01*
X105268682Y-42329039D01*
X105340000Y-43007584D01*
X105340001Y-104265000D01*
X97200000Y-104265000D01*
X97076118Y-104277201D01*
X96956996Y-104313336D01*
X96847213Y-104372017D01*
X96750987Y-104450987D01*
X94550987Y-106650987D01*
X94472017Y-106747213D01*
X94413336Y-106856996D01*
X94377201Y-106976118D01*
X94365000Y-107100000D01*
X94365000Y-120340000D01*
X92277609Y-120340000D01*
X92291423Y-105377980D01*
X93101626Y-105377980D01*
X93221514Y-105662836D01*
X93545210Y-105823699D01*
X93894069Y-105918322D01*
X94254684Y-105943067D01*
X94613198Y-105896985D01*
X94955833Y-105781846D01*
X95178486Y-105662836D01*
X95298374Y-105377980D01*
X94200000Y-104279605D01*
X93101626Y-105377980D01*
X92291423Y-105377980D01*
X92292553Y-104154684D01*
X92356933Y-104154684D01*
X92403015Y-104513198D01*
X92518154Y-104855833D01*
X92637164Y-105078486D01*
X92922020Y-105198374D01*
X94020395Y-104100000D01*
X94379605Y-104100000D01*
X95477980Y-105198374D01*
X95762836Y-105078486D01*
X95923699Y-104754790D01*
X96018322Y-104405931D01*
X96043067Y-104045316D01*
X95996985Y-103686802D01*
X95881846Y-103344167D01*
X95762836Y-103121514D01*
X95477980Y-103001626D01*
X94379605Y-104100000D01*
X94020395Y-104100000D01*
X92922020Y-103001626D01*
X92637164Y-103121514D01*
X92476301Y-103445210D01*
X92381678Y-103794069D01*
X92356933Y-104154684D01*
X92292553Y-104154684D01*
X92293783Y-102822020D01*
X93101626Y-102822020D01*
X94200000Y-103920395D01*
X95298374Y-102822020D01*
X95178486Y-102537164D01*
X94854790Y-102376301D01*
X94505931Y-102281678D01*
X94145316Y-102256933D01*
X93786802Y-102303015D01*
X93444167Y-102418154D01*
X93221514Y-102537164D01*
X93101626Y-102822020D01*
X92293783Y-102822020D01*
X92304073Y-91677980D01*
X93101626Y-91677980D01*
X93221514Y-91962836D01*
X93545210Y-92123699D01*
X93894069Y-92218322D01*
X94254684Y-92243067D01*
X94613198Y-92196985D01*
X94955833Y-92081846D01*
X95178486Y-91962836D01*
X95298374Y-91677980D01*
X94200000Y-90579605D01*
X93101626Y-91677980D01*
X92304073Y-91677980D01*
X92305203Y-90454684D01*
X92356933Y-90454684D01*
X92403015Y-90813198D01*
X92518154Y-91155833D01*
X92637164Y-91378486D01*
X92922020Y-91498374D01*
X94020395Y-90400000D01*
X94379605Y-90400000D01*
X95477980Y-91498374D01*
X95762836Y-91378486D01*
X95923699Y-91054790D01*
X96018322Y-90705931D01*
X96043067Y-90345316D01*
X95996985Y-89986802D01*
X95881846Y-89644167D01*
X95762836Y-89421514D01*
X95477980Y-89301626D01*
X94379605Y-90400000D01*
X94020395Y-90400000D01*
X92922020Y-89301626D01*
X92637164Y-89421514D01*
X92476301Y-89745210D01*
X92381678Y-90094069D01*
X92356933Y-90454684D01*
X92305203Y-90454684D01*
X92306433Y-89122020D01*
X93101626Y-89122020D01*
X94200000Y-90220395D01*
X95298374Y-89122020D01*
X95178486Y-88837164D01*
X94854790Y-88676301D01*
X94505931Y-88581678D01*
X94145316Y-88556933D01*
X93786802Y-88603015D01*
X93444167Y-88718154D01*
X93221514Y-88837164D01*
X93101626Y-89122020D01*
X92306433Y-89122020D01*
X92316539Y-78177980D01*
X93101626Y-78177980D01*
X93221514Y-78462836D01*
X93545210Y-78623699D01*
X93894069Y-78718322D01*
X94254684Y-78743067D01*
X94613198Y-78696985D01*
X94955833Y-78581846D01*
X95178486Y-78462836D01*
X95298374Y-78177980D01*
X94200000Y-77079605D01*
X93101626Y-78177980D01*
X92316539Y-78177980D01*
X92317669Y-76954684D01*
X92356933Y-76954684D01*
X92403015Y-77313198D01*
X92518154Y-77655833D01*
X92637164Y-77878486D01*
X92922020Y-77998374D01*
X94020395Y-76900000D01*
X94379605Y-76900000D01*
X95477980Y-77998374D01*
X95762836Y-77878486D01*
X95923699Y-77554790D01*
X96018322Y-77205931D01*
X96043067Y-76845316D01*
X95996985Y-76486802D01*
X95881846Y-76144167D01*
X95762836Y-75921514D01*
X95477980Y-75801626D01*
X94379605Y-76900000D01*
X94020395Y-76900000D01*
X92922020Y-75801626D01*
X92637164Y-75921514D01*
X92476301Y-76245210D01*
X92381678Y-76594069D01*
X92356933Y-76954684D01*
X92317669Y-76954684D01*
X92318899Y-75622020D01*
X93101626Y-75622020D01*
X94200000Y-76720395D01*
X95298374Y-75622020D01*
X95178486Y-75337164D01*
X94854790Y-75176301D01*
X94505931Y-75081678D01*
X94145316Y-75056933D01*
X93786802Y-75103015D01*
X93444167Y-75218154D01*
X93221514Y-75337164D01*
X93101626Y-75622020D01*
X92318899Y-75622020D01*
X92326882Y-66977513D01*
X98399488Y-67001999D01*
X98424274Y-66999659D01*
X98448127Y-66992528D01*
X98470131Y-66980880D01*
X98489440Y-66965164D01*
X98505311Y-66945983D01*
X98517136Y-66924074D01*
X98524459Y-66900279D01*
X98527000Y-66875000D01*
X98527000Y-39660000D01*
X101967722Y-39660000D01*
X102648126Y-39726714D01*
G36*
X105340001Y-116967711D02*
G01*
X105273286Y-117648126D01*
X105085057Y-118271570D01*
X104779323Y-118846573D01*
X104367721Y-119351248D01*
X103865933Y-119766362D01*
X103293077Y-120076104D01*
X102670961Y-120268682D01*
X101992417Y-120340000D01*
X98035000Y-120340000D01*
X98035000Y-113035000D01*
X105340001Y-113035000D01*
X105340001Y-116967711D01*
X105340001Y-116967711D01*
G37*
X105340001Y-116967711D02*
X105273286Y-117648126D01*
X105085057Y-118271570D01*
X104779323Y-118846573D01*
X104367721Y-119351248D01*
X103865933Y-119766362D01*
X103293077Y-120076104D01*
X102670961Y-120268682D01*
X101992417Y-120340000D01*
X98035000Y-120340000D01*
X98035000Y-113035000D01*
X105340001Y-113035000D01*
X105340001Y-116967711D01*
G36*
X62173000Y-98424947D02*
G01*
X62130537Y-98345506D01*
X62051185Y-98248815D01*
X61954494Y-98169463D01*
X61844180Y-98110498D01*
X61724482Y-98074188D01*
X61600000Y-98061928D01*
X60685750Y-98065000D01*
X60527000Y-98223750D01*
X60527000Y-99773000D01*
X60547000Y-99773000D01*
X60547000Y-100027000D01*
X60527000Y-100027000D01*
X60527000Y-101576250D01*
X60685750Y-101735000D01*
X61600000Y-101738072D01*
X61724482Y-101725812D01*
X61844180Y-101689502D01*
X61954494Y-101630537D01*
X62051185Y-101551185D01*
X62130537Y-101454494D01*
X62173000Y-101375053D01*
X62173000Y-120340000D01*
X53532279Y-120340000D01*
X52851874Y-120273286D01*
X52228430Y-120085057D01*
X51653427Y-119779323D01*
X51148752Y-119367721D01*
X50733638Y-118865933D01*
X50423896Y-118293077D01*
X50231318Y-117670961D01*
X50160000Y-116992417D01*
X50160000Y-101100000D01*
X58561928Y-101100000D01*
X58574188Y-101224482D01*
X58610498Y-101344180D01*
X58669463Y-101454494D01*
X58748815Y-101551185D01*
X58845506Y-101630537D01*
X58955820Y-101689502D01*
X59075518Y-101725812D01*
X59200000Y-101738072D01*
X60114250Y-101735000D01*
X60273000Y-101576250D01*
X60273000Y-100027000D01*
X58723750Y-100027000D01*
X58565000Y-100185750D01*
X58561928Y-101100000D01*
X50160000Y-101100000D01*
X50160000Y-98700000D01*
X58561928Y-98700000D01*
X58565000Y-99614250D01*
X58723750Y-99773000D01*
X60273000Y-99773000D01*
X60273000Y-98223750D01*
X60114250Y-98065000D01*
X59200000Y-98061928D01*
X59075518Y-98074188D01*
X58955820Y-98110498D01*
X58845506Y-98169463D01*
X58748815Y-98248815D01*
X58669463Y-98345506D01*
X58610498Y-98455820D01*
X58574188Y-98575518D01*
X58561928Y-98700000D01*
X50160000Y-98700000D01*
X50160000Y-90727000D01*
X62173000Y-90727000D01*
X62173000Y-98424947D01*
X62173000Y-98424947D01*
G37*
X62173000Y-98424947D02*
X62130537Y-98345506D01*
X62051185Y-98248815D01*
X61954494Y-98169463D01*
X61844180Y-98110498D01*
X61724482Y-98074188D01*
X61600000Y-98061928D01*
X60685750Y-98065000D01*
X60527000Y-98223750D01*
X60527000Y-99773000D01*
X60547000Y-99773000D01*
X60547000Y-100027000D01*
X60527000Y-100027000D01*
X60527000Y-101576250D01*
X60685750Y-101735000D01*
X61600000Y-101738072D01*
X61724482Y-101725812D01*
X61844180Y-101689502D01*
X61954494Y-101630537D01*
X62051185Y-101551185D01*
X62130537Y-101454494D01*
X62173000Y-101375053D01*
X62173000Y-120340000D01*
X53532279Y-120340000D01*
X52851874Y-120273286D01*
X52228430Y-120085057D01*
X51653427Y-119779323D01*
X51148752Y-119367721D01*
X50733638Y-118865933D01*
X50423896Y-118293077D01*
X50231318Y-117670961D01*
X50160000Y-116992417D01*
X50160000Y-101100000D01*
X58561928Y-101100000D01*
X58574188Y-101224482D01*
X58610498Y-101344180D01*
X58669463Y-101454494D01*
X58748815Y-101551185D01*
X58845506Y-101630537D01*
X58955820Y-101689502D01*
X59075518Y-101725812D01*
X59200000Y-101738072D01*
X60114250Y-101735000D01*
X60273000Y-101576250D01*
X60273000Y-100027000D01*
X58723750Y-100027000D01*
X58565000Y-100185750D01*
X58561928Y-101100000D01*
X50160000Y-101100000D01*
X50160000Y-98700000D01*
X58561928Y-98700000D01*
X58565000Y-99614250D01*
X58723750Y-99773000D01*
X60273000Y-99773000D01*
X60273000Y-98223750D01*
X60114250Y-98065000D01*
X59200000Y-98061928D01*
X59075518Y-98074188D01*
X58955820Y-98110498D01*
X58845506Y-98169463D01*
X58748815Y-98248815D01*
X58669463Y-98345506D01*
X58610498Y-98455820D01*
X58574188Y-98575518D01*
X58561928Y-98700000D01*
X50160000Y-98700000D01*
X50160000Y-90727000D01*
X62173000Y-90727000D01*
X62173000Y-98424947D01*
G36*
X105340001Y-112273000D02*
G01*
X97400000Y-112273000D01*
X97375224Y-112275440D01*
X97351399Y-112282667D01*
X97329443Y-112294403D01*
X97310197Y-112310197D01*
X97294403Y-112329443D01*
X97282667Y-112351399D01*
X97275440Y-112375224D01*
X97273000Y-112400000D01*
X97273000Y-120340000D01*
X95127000Y-120340000D01*
X95127000Y-107152606D01*
X97252606Y-105027000D01*
X105340001Y-105027000D01*
X105340001Y-112273000D01*
X105340001Y-112273000D01*
G37*
X105340001Y-112273000D02*
X97400000Y-112273000D01*
X97375224Y-112275440D01*
X97351399Y-112282667D01*
X97329443Y-112294403D01*
X97310197Y-112310197D01*
X97294403Y-112329443D01*
X97282667Y-112351399D01*
X97275440Y-112375224D01*
X97273000Y-112400000D01*
X97273000Y-120340000D01*
X95127000Y-120340000D01*
X95127000Y-107152606D01*
X97252606Y-105027000D01*
X105340001Y-105027000D01*
X105340001Y-112273000D01*
M02*
