M48
; DRILL file {KiCad (5.1.2)-2} date 2019-10-04 7:13:32 PM
; FORMAT={-:-/ absolute / inch / decimal}
; #@! TF.CreationDate,2019-10-04T19:13:32-04:00
; #@! TF.GenerationSoftware,Kicad,Pcbnew,(5.1.2)-2
; #@! TF.FileFunction,Plated,1,2,PTH
FMAT,2
INCH
T1C0.0118
T2C0.0157
T3C0.0197
T4C0.0472
T5C0.1457
%
G90
G05
T1
X2.5984Y-2.4173
X2.5984Y-2.4606
X2.5984Y-2.5039
X2.6417Y-2.4173
X2.6417Y-2.4606
X2.6417Y-2.5039
X2.685Y-2.4173
X2.685Y-2.4606
X2.685Y-2.5039
X2.7283Y-2.4173
X2.7283Y-2.4606
X2.7283Y-2.5039
X2.7717Y-2.4173
X2.7717Y-2.4606
X2.7717Y-2.5039
T2
X1.9862Y-2.0059
X1.9862Y-2.065
X1.9862Y-2.124
X1.9862Y-2.1831
X1.9862Y-2.2421
X1.9862Y-2.3012
X1.9862Y-2.3602
X2.0472Y-2.0079
X2.0472Y-2.0669
X2.0472Y-2.126
X2.0472Y-2.185
X2.0472Y-2.2441
X2.0472Y-2.3031
X2.0472Y-2.3622
X2.0866Y-3.7205
X2.0866Y-4.4094
X2.0866Y-4.5472
X2.0866Y-4.685
X2.0984Y-3.248
X2.1063Y-2.0079
X2.1063Y-2.0669
X2.1063Y-2.126
X2.1063Y-2.185
X2.1063Y-2.2441
X2.1063Y-2.3031
X2.1063Y-2.3622
X2.1457Y-3.7205
X2.1496Y-3.248
X2.1654Y-2.0079
X2.1654Y-2.0669
X2.1654Y-2.126
X2.1654Y-2.185
X2.1654Y-2.2441
X2.1654Y-2.3031
X2.1654Y-2.3622
X2.2047Y-3.248
X2.2047Y-3.7205
X2.2244Y-2.0079
X2.2244Y-2.0669
X2.2244Y-2.126
X2.2244Y-2.185
X2.2244Y-2.2441
X2.2244Y-2.3031
X2.2244Y-2.3622
X2.2441Y-4.4094
X2.2441Y-4.5472
X2.2441Y-4.685
X2.2598Y-3.248
X2.2638Y-3.7205
X2.2717Y-1.872
X2.2835Y-2.185
X2.2835Y-2.2441
X2.2835Y-2.3031
X2.2835Y-2.3622
X2.2874Y-2.0039
X2.2874Y-2.0433
X2.2874Y-2.0827
X2.2874Y-2.122
X2.311Y-3.248
X2.3189Y-2.8701
X2.3228Y-3.7205
X2.3268Y-2.0039
X2.3268Y-2.0433
X2.3268Y-2.0827
X2.3268Y-2.122
X2.3327Y-1.6043
X2.3327Y-1.6634
X2.3327Y-1.7224
X2.3327Y-1.7815
X2.3327Y-1.8406
X2.3425Y-2.185
X2.3425Y-2.2441
X2.3425Y-2.3031
X2.3425Y-2.3622
X2.3661Y-2.0039
X2.3661Y-2.0433
X2.3661Y-2.0827
X2.3661Y-2.122
X2.3917Y-1.6043
X2.3917Y-1.6634
X2.3917Y-1.7224
X2.3917Y-1.7815
X2.3917Y-1.8406
X2.4016Y-2.185
X2.4016Y-2.2441
X2.4016Y-2.3031
X2.4016Y-2.3622
X2.4016Y-4.4094
X2.4016Y-4.5472
X2.4016Y-4.685
X2.4055Y-2.0039
X2.4055Y-2.0433
X2.4055Y-2.0827
X2.4055Y-2.122
X2.4508Y-1.6043
X2.4508Y-1.6634
X2.4508Y-1.7224
X2.4508Y-1.7815
X2.4508Y-1.8406
X2.5039Y-1.7835
X2.5039Y-1.8307
X2.5039Y-1.878
X2.5039Y-1.9252
X2.5098Y-1.6043
X2.5098Y-1.6634
X2.5098Y-1.7224
X2.5157Y-2.4646
X2.5315Y-2.1476
X2.5315Y-2.2362
X2.5499Y-1.7835
X2.5499Y-1.8307
X2.5499Y-1.878
X2.5499Y-1.9252
X2.5531Y-2.8346
X2.5689Y-1.6043
X2.5689Y-1.6634
X2.5689Y-1.7224
X2.5787Y-2.6496
X2.5958Y-1.7835
X2.5958Y-1.8307
X2.5958Y-1.878
X2.5958Y-1.9252
X2.5984Y-4.4094
X2.5984Y-4.5472
X2.5984Y-4.685
X2.6161Y-2.8346
X2.628Y-1.6043
X2.628Y-1.6634
X2.628Y-1.7224
X2.6417Y-1.7835
X2.6417Y-1.8307
X2.6417Y-1.878
X2.6417Y-1.9252
X2.687Y-1.6043
X2.687Y-1.6634
X2.687Y-1.7224
X2.7283Y-1.7835
X2.7283Y-1.8307
X2.7283Y-1.878
X2.7283Y-1.9252
X2.7441Y-2.8327
X2.7461Y-1.6043
X2.7461Y-1.6634
X2.7461Y-1.7224
X2.7559Y-4.4094
X2.7559Y-4.5472
X2.7559Y-4.685
X2.7743Y-1.7835
X2.7743Y-1.8307
X2.7743Y-1.878
X2.7743Y-1.9252
X2.8051Y-1.6043
X2.8051Y-1.6634
X2.8051Y-1.7224
X2.811Y-2.8327
X2.8202Y-1.7835
X2.8202Y-1.8307
X2.8202Y-1.878
X2.8202Y-1.9252
X2.8425Y-2.4587
X2.8642Y-1.6043
X2.8642Y-1.6634
X2.8642Y-1.7224
X2.8661Y-1.7835
X2.8661Y-1.8307
X2.8661Y-1.878
X2.8661Y-1.9252
X2.872Y-2.8268
X2.872Y-2.9016
X2.9134Y-4.4094
X2.9134Y-4.5472
X2.9134Y-4.685
X2.9232Y-1.6043
X2.9232Y-1.6634
X2.9232Y-1.7224
X2.9232Y-1.7815
X2.9232Y-1.8406
X2.9232Y-1.8996
X2.9331Y-2.5157
X2.9823Y-1.6043
X2.9823Y-1.6634
X2.9823Y-1.7224
X2.9823Y-1.7815
X2.9823Y-1.8406
X2.9823Y-1.8996
X3.0413Y-1.6043
X3.0413Y-1.6634
X3.0413Y-1.7224
X3.0413Y-1.7815
X3.0413Y-1.8406
X3.0413Y-1.8996
X3.1181Y-4.4134
X3.1181Y-4.5512
X3.1181Y-4.689
X3.2323Y-2.6772
X3.2756Y-4.4134
X3.2756Y-4.5512
X3.2756Y-4.689
X3.4331Y-4.4134
X3.4331Y-4.4567
X3.4331Y-4.5039
X3.4331Y-4.5512
X3.4331Y-4.5984
X3.4331Y-4.6457
X3.4331Y-4.689
X3.5118Y-3.8346
X3.7146Y-2.6575
X3.7146Y-2.7008
X3.7598Y-2.6575
X3.7598Y-2.7008
X3.937Y-4.1929
X3.937Y-4.252
X3.937Y-4.311
X3.937Y-4.3701
X3.9961Y-4.1929
X3.9961Y-4.252
X3.9961Y-4.311
X3.9961Y-4.3701
X4.0551Y-4.1929
X4.0551Y-4.252
X4.0551Y-4.311
X4.0551Y-4.3701
X4.0591Y-3.9134
X4.0591Y-3.9488
X4.0945Y-3.878
X4.0945Y-3.9134
X4.0945Y-3.9488
X4.1142Y-4.1929
X4.1142Y-4.252
X4.1142Y-4.311
X4.1142Y-4.3701
X4.1299Y-3.878
X4.1299Y-3.9134
X4.1299Y-3.9488
T3
X2.7028Y-2.0748
T4
X2.9409Y-3.0276
X3.1378Y-3.0276
X2.9409Y-3.5591
X3.1378Y-3.5591
X3.5118Y-3.0276
X3.7087Y-3.0276
X2.378Y-3.9331
X2.5748Y-3.9331
X3.5118Y-3.5591
X3.7087Y-3.5591
X3.5118Y-4.0984
X3.7087Y-4.0984
X2.3937Y-3.0472
X2.5906Y-3.0472
X2.9409Y-4.0984
X3.1378Y-4.0984
T5
X2.1063Y-1.6929
X4.0157Y-4.6063
X4.0157Y-1.6929
T0
M30
